<?xml version="1.0" encoding="utf-8"?>
<!-- Generator: Adobe Illustrator 21.1.0, SVG Export Plug-In . SVG Version: 6.00 Build 0)  -->
<svg version="1.1" id="Layer_1" xmlns="http://www.w3.org/2000/svg" xmlns:xlink="http://www.w3.org/1999/xlink" x="0px" y="0px"
	 viewBox="0 0 178.3 141.9" style="enable-background:new 0 0 178.3 141.9;" xml:space="preserve">
<style type="text/css">
	.st0{fill:#FFFFFF;}
</style>
<g>
	<g>
		<path class="st0" d="M49.4,124.2L62.2,20.3h5.7c0.5,0,0.9,0,1.3,0c0.3,0,0.6,0,0.8,0c1,0,1.7,0,2.9,0.3c1.9,0.4,3.5,1.1,4.9,2.1
			c1.5,1.1,2.7,2.7,3.6,4.5c0.9,1.9,1.2,5.3,0.6,9.1l-3.2,26l40-40c-0.5-0.1-0.8-0.2-0.8-0.2c-5.5-1.1-9.8-2.6-12.6-3.7
			c-4.7-1.9-8-3.7-10.8-5.4c-2.2-1.4-4.3-2.7-7.1-4.1c-2.6-1.3-5.8-2.7-9.6-3.9c-6.1-2-13.4-3.4-21-3.4c-6.9,0-12.6,0.7-18.1,2.1
			c-5,1.3-9,2.8-13.6,5c0,0-4.6,2.2-10,6L1.7,124.6c-0.7,3.9,2.5,6,5.4,5.4c0.4-0.1,1.4-0.6,2.4-1c2.8-1.2,5.4-2.2,7.9-2.9
			c9.9-3,20.4-3.7,30.8-2.2C48.4,124.1,48.9,124.1,49.4,124.2z"/>
	</g>
</g>
<path class="st0" d="M173.7,10.6c-1.5-0.1-2.4,0.4-3.1,0.9c-2,1.3-3.8,2.5-5.6,3.4c-3,1.6-5.3,2.6-5.3,2.6c-1.4,0.6-2.5,1.1-3.7,1.5
	c-1.7,0.6-3.3,1.2-4.7,1.6L99.4,72.5c0.4,0.3,0.8,0.5,1,0.8l45.1,45.2c-2.3,2.7-4.7,4.2-4.8,4.2c-2.7,1.6-5.7,2.4-8.8,2.4
	c-12,0-23-12.1-23-12.1l-26-26l-6.4-6.4l-6.3,50.7c0.8,0.4,1.3,0.7,1.3,0.7c0.3,0.1,2.9,1.6,2.9,1.6c0.7,0.4,3.8,1.9,3.7,1.8
	c1.1,0.5,2.2,1,3.3,1.4c2.2,0.9,4.3,1.5,6.3,2.2c2.5,0.7,5,1.3,8,1.9c0,0,1,0.2,2.7,0.4c2.3,0.3,4.9,0.5,8.2,0.6c1.5,0,3.1,0,5-0.1
	c1.5-0.1,3.1-0.2,4.8-0.4c1.3-0.2,2.8-0.4,4.1-0.7c1-0.2,2-0.4,2.9-0.6c3.1-0.7,6.2-1.7,9.5-3c1.5-0.6,3.4-1.4,4.6-2
	c1.5-0.7,3.2-1.6,4.7-2.5c0.7-0.4,3.2-1.9,6.1-4c2.4-1.8,4.9-3.8,6.9-5.8c1.5-1.4,3.8-3.7,6.8-7.4c0.4-0.5,2.9-3.8,3.6-5l11.7-95.1
	c0.1-0.8-0.2-2.1-1.1-3.2C175.9,11.5,174.8,10.7,173.7,10.6z"/>
</svg>
