<?xml version="1.0" encoding="utf-8"?>
<!-- Generator: Adobe Illustrator 21.1.0, SVG Export Plug-In . SVG Version: 6.00 Build 0)  -->
<svg version="1.1" id="Layer_1" xmlns="http://www.w3.org/2000/svg" xmlns:xlink="http://www.w3.org/1999/xlink" x="0px" y="0px"
	 viewBox="0 0 71 45" style="enable-background:new 0 0 71 45;" xml:space="preserve">
<style type="text/css">
	.st0{fill:#FFA500;}
	.st1{fill:#FFFFFF;}
</style>
<circle class="st0" cx="35.4" cy="22.2" r="11.2"/>
<path class="st0" d="M35.4,44c-12,0-21.8-9.8-21.8-21.8S23.3,0.3,35.4,0.3c12,0,21.8,9.8,21.8,21.8S47.4,44,35.4,44z M35.4,4.6
	c-9.7,0-17.6,7.9-17.6,17.6s7.9,17.6,17.6,17.6c9.7,0,17.6-7.9,17.6-17.6S45.1,4.6,35.4,4.6z"/>
<g>
	<path class="st1" d="M68.3,28.6H2.5c-0.7,0-1.2-0.6-1.2-1.2V17c0-0.7,0.6-1.2,1.2-1.2h65.8c0.7,0,1.2,0.6,1.2,1.2v10.4
		C69.5,28.1,69,28.6,68.3,28.6z"/>
</g>
</svg>
