<?xml version="1.0" encoding="utf-8"?>
<!-- Generator: Adobe Illustrator 19.0.1, SVG Export Plug-In . SVG Version: 6.00 Build 0)  -->
<svg version="1.1" id="Layer_1" xmlns="http://www.w3.org/2000/svg" xmlns:xlink="http://www.w3.org/1999/xlink" x="0px" y="0px"
	 viewBox="0 0 300 300" style="enable-background:new 0 0 300 300;" xml:space="preserve">
<style type="text/css">
	.st0{fill:#BD234D;}
</style>
<path class="st0" d="M232.2,8H67.6C36.4,8,10.9,33.5,10.9,64.7v170.7c0,31.1,25.5,56.6,56.7,56.6h26.3c-1.3-12-2.2-29.7,0.7-42.4
	c2.8-12,18-76.3,18-76.3s-4.6-9.2-4.6-22.7c0-21.3,12.3-37.2,27.7-37.2c13.1,0,19.4,9.8,19.4,21.6c0,13.1-8.4,32.8-12.7,51
	c-3.6,15.3,7.6,27.7,22.7,27.7c27.2,0,48.2-28.7,48.2-70.2c0-36.7-26.4-62.3-64-62.3c-43.6,0-69.2,32.7-69.2,66.5
	c0,13.2,5.1,27.3,11.4,35c1.3,1.5,1.4,2.8,1.1,4.4c-1.2,4.8-3.7,15.2-4.3,17.4c-0.7,2.8-2.2,3.4-5.1,2
	c-19.1-8.9-31.1-36.9-31.1-59.4c0-48.3,35.1-92.7,101.2-92.7c53.2,0,94.5,37.9,94.5,88.5c0,52.8-33.3,95.3-79.5,95.3
	c-15.5,0-30.1-8-35.1-17.6c0,0-7.7,29.3-9.5,36.5c-2.9,11.2-9.9,24.9-15.8,34.9h124.5c31.2,0,56.7-25.5,56.7-56.7V64.7
	C288.9,33.5,263.4,8,232.2,8z"/>
</svg>
