<?xml version="1.0" encoding="utf-8"?>
<!-- Generator: Adobe Illustrator 19.0.1, SVG Export Plug-In . SVG Version: 6.00 Build 0)  -->
<svg version="1.1" id="Layer_1" xmlns="http://www.w3.org/2000/svg" xmlns:xlink="http://www.w3.org/1999/xlink" x="0px" y="0px"
	 viewBox="0 0 210.6 210.6" style="enable-background:new 0 0 210.6 210.6;" xml:space="preserve">
<style type="text/css">
	.st0{fill:#AC0033;}
</style>
<g>
	<path class="st0" d="M40.3,122.3l32.3,64c0.9,1.9,3,2.9,5.1,2.5l41.5-8.1c2.5-0.5,4.2-3,3.7-5.5l-17.1-84.3c-0.6-3-3.9-4.6-6.7-3.3
		L42.4,116C40,117.2,39.1,120,40.3,122.3z"/>
	<path class="st0" d="M56.5,103.1l46.7-22.2c2.2-1.1,4.9,0.2,5.4,2.7l14.9,71.2c0.5,2.6,3.6,3.7,5.6,2c1-0.8,1.5-2.1,1.3-3.4
		l-16-80.9c-0.6-3-4-4.4-6.5-2.8l-3.7,2.3L56,102.2C55.4,102.5,55.9,103.4,56.5,103.1z"/>
	<path class="st0" d="M170.1,93.1c0.6-1-0.4-2.3-1.5-1.9l-8.2,2.3c-0.5,0.1-1,0-1.3-0.4l-5.7-6.3c-0.8-0.9-2.3-0.4-2.3,0.8l-0.3,8.5
		c0,0.5-0.3,1-0.8,1.2l-7.8,3.4c-1.1,0.5-1,2,0.1,2.5l8,2.9c0.5,0.2,0.8,0.6,0.9,1.1l0.9,8.5c0.1,1.2,1.6,1.6,2.4,0.7l5.3-6.7
		c0.3-0.4,0.8-0.6,1.3-0.5l8.3,1.8c1.2,0.3,2-1,1.4-2l-4.7-7.1c-0.3-0.4-0.3-1,0-1.4L170.1,93.1z"/>
	<path class="st0" d="M89.8,26.4L84,35.7c-0.3,0.4-0.8,0.7-1.3,0.6L72,35.1c-1.2-0.1-1.9,1.2-1.2,2.2l7,8.4c0.3,0.4,0.4,0.9,0.2,1.4
		l-4.5,9.9c-0.5,1.1,0.6,2.2,1.7,1.8l10.1-4c0.5-0.2,1-0.1,1.4,0.3l8,7.3c0.9,0.8,2.3,0.1,2.2-1.1l-0.7-10.9c0-0.5,0.2-1,0.7-1.2
		l9.5-5.4c1-0.6,0.8-2.1-0.3-2.4l-10.6-2.7c-0.5-0.1-0.9-0.5-1-1l-2.2-10.7C92,25.7,90.5,25.4,89.8,26.4z"/>
	<path class="st0" d="M155.9,37.9l1-14.8c0.1-1.2-1.3-1.9-2.2-1.1l-11,10c-0.4,0.3-0.9,0.4-1.4,0.2l-13.8-5.6
		c-1.1-0.4-2.2,0.7-1.7,1.8L133,42c0.2,0.5,0.1,1-0.2,1.4l-9.5,11.4c-0.8,0.9,0,2.3,1.2,2.2l14.8-1.6c0.5-0.1,1,0.2,1.3,0.6
		l7.9,12.6c0.6,1,2.2,0.7,2.4-0.4l3-14.5c0.1-0.5,0.5-0.9,1-1l14.4-3.6c1.2-0.3,1.4-1.8,0.3-2.4l-12.9-7.4
		C156.2,38.9,155.9,38.4,155.9,37.9z"/>
</g>
</svg>
