<?xml version="1.0" encoding="utf-8"?>
<!-- Generator: Adobe Illustrator 19.0.1, SVG Export Plug-In . SVG Version: 6.00 Build 0)  -->
<svg version="1.1" id="Layer_1" xmlns="http://www.w3.org/2000/svg" xmlns:xlink="http://www.w3.org/1999/xlink" x="0px" y="0px"
	 viewBox="0 0 300 300" style="enable-background:new 0 0 300 300;" xml:space="preserve">
<style type="text/css">
	.st0{fill:#BD234D;}
</style>
<path class="st0" d="M232.3,8H67.7C36.5,8,11,33.5,11,64.7v170.7c0,31.1,25.5,56.6,56.7,56.6h164.7c31.2,0,56.7-25.5,56.7-56.7V64.7
	C289,33.5,263.5,8,232.3,8z M206.2,234.2c-6.5,6.9-21.6,11.8-35.1,11.8h-1.5c-45.3,0-54.7-33.2-54.7-52.7V139H96.7
	c-2.1,0-3.7-1.4-3.7-3.5V110c0-2.7,1.7-5.1,4.2-6c23.3-8.2,30.5-28.5,31.6-43.9c0.3-4.1,2.4-6.1,6-6.1h26.6c2.1,0,3.6,1.6,3.6,3.7
	V101h31.4c2.1,0,3.6,1.6,3.6,3.6v30.7c0,2.1-1.6,3.7-3.6,3.7H165v50c0,12.6,8.3,16,13.4,16c4.9-0.1,9.7-1.6,12.2-2.6
	c1.8-0.7,3.4-1.2,4.8-0.8c1.3,0.3,2.2,1.3,2.8,3l8.3,24.1C207,230.6,207.6,232.7,206.2,234.2z"/>
</svg>
