<?xml version="1.0" encoding="utf-8"?>
<!-- Generator: Adobe Illustrator 19.0.1, SVG Export Plug-In . SVG Version: 6.00 Build 0)  -->
<svg version="1.1" id="Layer_1" xmlns="http://www.w3.org/2000/svg" xmlns:xlink="http://www.w3.org/1999/xlink" x="0px" y="0px"
	 viewBox="0 0 300 300" style="enable-background:new 0 0 300 300;" xml:space="preserve">
<g>
	<path style="&st0;" d="M232.4,8H67.7C36.5,8,11,33.5,11,64.7v170.6c0,31.2,25.5,56.7,56.7,56.7h164.6c31.2,0,56.7-25.5,56.7-56.6
		V64.7C289,33.5,263.5,8,232.4,8z M256.6,158c0,17.3-2.1,34.5-2.1,34.5s-2.1,14.6-8.5,21.1c-8.1,8.5-17.1,8.5-21.3,9
		c-29.8,2.1-74.6,2.2-74.6,2.2s-55.4-0.5-72.4-2.1c-4.8-0.9-15.4-0.6-23.5-9.1c-6.4-6.4-8.5-21.1-8.5-21.1s-2.1-17.3-2.1-34.5v-16.1
		c0-17.3,2.1-34.5,2.1-34.5s2.1-14.6,8.5-21.1c8.1-8.5,17.1-8.5,21.3-9c29.8-2.2,74.5-2.2,74.5-2.2h0.1c0,0,44.7,0,74.5,2.2
		c4.1,0.5,13.2,0.5,21.3,9c6.4,6.4,8.5,21.1,8.5,21.1s2.1,17.2,2.2,34.4V158z"/>
	<polygon style="&st0;" points="128,177.6 185.6,147.8 128,117.8 	"/>
</g>
</svg>
