<?xml version="1.0" encoding="utf-8"?>
<!-- Generator: Adobe Illustrator 19.0.1, SVG Export Plug-In . SVG Version: 6.00 Build 0)  -->
<svg version="1.1" id="Layer_1" xmlns="http://www.w3.org/2000/svg" xmlns:xlink="http://www.w3.org/1999/xlink" x="0px" y="0px"
	 viewBox="0 0 210.6 210.6" style="enable-background:new 0 0 210.6 210.6;" xml:space="preserve">
<style type="text/css">
	.st0{fill:none;}
	.st1{fill:#AC0033;}
</style>
<g>
	<path class="st0" d="M94.3,91.7c-0.3-0.6-0.6-1.3-0.6-2.1c0-0.3,0-0.6,0.1-0.9H75.6c0.1,0.3,0.1,0.6,0.1,0.9c0,0.8-0.2,1.5-0.6,2.1
		v58c0.3,0.6,0.5,1.2,0.5,1.9h18c0-0.7,0.2-1.4,0.5-1.9V91.7z"/>
	<path class="st0" d="M137.6,91.7c-0.3-0.6-0.6-1.3-0.6-2.1c0-0.3,0-0.6,0.1-0.9H119c0.1,0.3,0.1,0.6,0.1,0.9c0,0.8-0.2,1.5-0.6,2.1
		v58c0.3,0.6,0.5,1.2,0.5,1.9h18c0-0.7,0.2-1.4,0.5-1.9V91.7z"/>
	<path class="st1" d="M75.7,151.7c0-0.7-0.2-1.4-0.5-1.9c-0.7-1.3-2.1-2.2-3.8-2.2h-0.7V94h0.7c1.6,0,3-0.9,3.8-2.2
		c0.3-0.6,0.6-1.3,0.6-2.1c0-0.3,0-0.6-0.1-0.9H50.4c-0.1,0.3-0.1,0.6-0.1,0.9c0,0.8,0.2,1.5,0.6,2.1c0.7,1.3,2.1,2.2,3.8,2.2h0.7
		v53.5h-0.7c-1.6,0-3,0.9-3.8,2.2c-0.3,0.6-0.5,1.2-0.5,1.9H75.7z"/>
	<path class="st1" d="M114.8,147.5h-0.7V94h0.7c1.6,0,3-0.9,3.8-2.2c0.3-0.6,0.6-1.3,0.6-2.1c0-0.3,0-0.6-0.1-0.9H93.8
		c-0.1,0.3-0.1,0.6-0.1,0.9c0,0.8,0.2,1.5,0.6,2.1C95,93.1,96.4,94,98,94h0.7v53.5H98c-1.6,0-3,0.9-3.8,2.2
		c-0.3,0.6-0.5,1.2-0.5,1.9h25.4c0-0.7-0.2-1.4-0.5-1.9C117.8,148.4,116.4,147.5,114.8,147.5z"/>
	<path class="st1" d="M137.2,88.8c-0.1,0.3-0.1,0.6-0.1,0.9c0,0.8,0.2,1.5,0.6,2.1c0.7,1.3,2.1,2.2,3.8,2.2h0.7v53.5h-0.7
		c-1.6,0-3,0.9-3.8,2.2c-0.3,0.6-0.5,1.2-0.5,1.9h25.4c0-0.7-0.2-1.4-0.5-1.9c-0.7-1.3-2.1-2.2-3.8-2.2h-0.7V94h0.7
		c1.6,0,3-0.9,3.8-2.2c0.3-0.6,0.6-1.3,0.6-2.1c0-0.3,0-0.6-0.1-0.9H137.2z"/>
	<path class="st1" d="M48.4,67.5h113.9l-52.7-27.4c-1.3-0.7-2.6-1-4-1c-1.4,0-2.7,0.3-4,1L48.4,67.5z"/>
	<path class="st1" d="M172.6,84.3c2,0,3.6-1.6,3.6-3.6v-5.2c0-2-1.6-3.6-3.6-3.6h-1.7H39.8H38c-2,0-3.6,1.6-3.6,3.6v5.2
		c0,2,1.6,3.6,3.6,3.6H172.6z"/>
	<path class="st1" d="M169.3,156.1h-128c-7.9,0-14.4,6.4-14.4,14.4v1h156.7v-1C183.7,162.6,177.2,156.1,169.3,156.1z"/>
</g>
</svg>
