<?xml version="1.0" encoding="utf-8"?>
<!-- Generator: Adobe Illustrator 19.0.1, SVG Export Plug-In . SVG Version: 6.00 Build 0)  -->
<svg version="1.1" id="Layer_1" xmlns="http://www.w3.org/2000/svg" xmlns:xlink="http://www.w3.org/1999/xlink" x="0px" y="0px"
	 viewBox="0 0 210.6 210.6" style="enable-background:new 0 0 210.6 210.6;" xml:space="preserve">
<style type="text/css">
	.st0{fill:#AC0033;}
</style>
<g>
	<g id="LkTtcT_1_">
		<g>
			<path class="st0" d="M42.4,174.8c1.3-4.6,2.2-9.4,3.9-13.8c3.9-9.7,4-19-1.3-28.3c-3.3-5.8-2.7-11.7,1.2-17.2
				c4.3-6.1,4.2-12.5,1.2-19.2c-5.4-12-7.2-12.2,0.6-25.2c2.4-4,2.1-8.5,0.9-12.8c-1.8-6.5-3.7-13-5.6-19.5c-1.4-5,0.2-9.1,4.1-12.3
				c3.4-2.8,7.2-3.7,11.4-1.7c2.2,1.1,4.5,2.1,6.6,3.3c5,2.8,10.1,3,15.5,1.3c5.9-1.9,11.9-3.6,17.9-4.9c7.2-1.6,14.3-0.4,21.2,1.7
				c4.7,1.4,9.4,3.1,14.2,4c2.7,0.5,5.7,0,8.4-0.9c3.1-1,6.1-2.7,9-4.2c4.4-2.3,8.3-1.5,11.9,1.5c3.8,3.1,5.4,7.2,4.1,12
				c-1.8,6.7-3.7,13.4-5.7,20.1c-1.3,4.3-1,8.4,0.9,12.5c1.7,3.8,3.1,7.8,4.6,11.7c1.1,3,0.8,5.9-0.8,8.7c-0.3,0.5-0.4,1-0.7,1.4
				c-6.5,8.4-5.7,17.1-0.6,25.8c3.5,6,3.6,11.9-0.7,17.7c-3.8,5.1-4.4,10.8-2.6,16.8c1.9,6.3,3.6,12.6,5.4,18.8
				c1.5,4.9-0.1,8.9-3.8,12.1c-3.8,3.2-8.2,4.2-12.5,1.4c-9.1-6-18.1-6.1-28.1-2c-12.1,5-24.6,4.7-36.7-0.3
				c-8.9-3.7-17.4-4-25.7,1.7c-0.5,0.4-1.2,0.5-1.7,0.8C51.6,190.1,42.2,182.2,42.4,174.8z M60.7,105.6c0,18,0,36.1,0,54.1
				c0,6.6,2.7,9.4,9.3,9.4c23.6,0,47.3,0,70.9,0c6.7,0,9.4-2.7,9.4-9.3c0-36.3,0-72.6,0-108.9c0-6.7-2.7-9.4-9.3-9.4
				c-23.6,0-47.3,0-70.9,0c-6.6,0-9.4,2.7-9.4,9.3C60.7,69.1,60.7,87.3,60.7,105.6z"/>
		</g>
	</g>
	<path class="st0" d="M109.1,93.8c-1.3-1.1-2.5-2.4-3.7-4.1c-11.2-15.9-26.8-3.1-30-0.1c-0.3,0.3-0.4,0.8-0.1,1.1
		c2.7,3.4,5.4,15.1,8,35c0.1,0.7,0.9,1,1.4,0.6c1.9-1.5,5.8-4.4,10.4-5.6l0.1,0l0.1,0l0.2,0l0.2,0l0.2,0c0.7-0.1,1.4-0.2,2.1-0.2
		l-5.3-26.5c-0.1-0.3-0.3-0.6-0.6-0.7l-6.8-1.6l19-2.9l-4.9,2.7c-0.3,0.2-0.5,0.5-0.4,0.8l1.5,12.4c0.1,0.7,0.9,1,1.4,0.5l10.1-9.3
		c-0.3-0.2-0.7-0.3-1-0.5C110.4,94.8,109.7,94.4,109.1,93.8z"/>
	<path class="st0" d="M134,86.7c-4,5-11.8,11.9-19.7,9.9c-0.3-0.1-0.6,0-0.8,0.2l-4,3.8c-0.3,0.3-0.3,0.9,0,1.2l14.9,14.5
		c0.1,0.1,0.3,0.2,0.4,0.2l6.7,1.1l-18,2.9l4.1-2.6c0.5-0.3,0.5-1,0.1-1.3l-12.6-11.5c-0.3-0.3-0.8-0.3-1.1,0l-2.9,2.5
		c-0.2,0.2-0.3,0.5-0.3,0.7l1.4,10.5c0,0.4,0.3,0.6,0.7,0.7l6.5,1.2l-5.3,0.9c0.7,0.4,1.4,0.9,2,1.4c2.5,2.1,5.3,3.2,8.2,3.5l0.1,0
		c8.1,0.9,16.5-4,18.6-6.3c0.2-0.2,0.2-0.4,0.2-0.6c-0.8-5.8-0.8-17.5,2.1-32.1C135.7,86.6,134.6,86,134,86.7z"/>
</g>
</svg>
