<?xml version="1.0" encoding="utf-8"?>
<!-- Generator: Adobe Illustrator 19.0.1, SVG Export Plug-In . SVG Version: 6.00 Build 0)  -->
<svg version="1.1" id="Layer_1" xmlns="http://www.w3.org/2000/svg" xmlns:xlink="http://www.w3.org/1999/xlink" x="0px" y="0px"
	 viewBox="0 0 210.6 210.6" style="enable-background:new 0 0 210.6 210.6;" xml:space="preserve">
<style type="text/css">
	.st0{fill:#AC0033;}
</style>
<g>
	<path class="st0" d="M165.6,75.9c2.2-4.9,0.6-10.7-3.7-13.8l-3.6-2.6c-2.6-1.9-4.3-4.8-4.6-8l-0.5-4.5c-0.6-5.3-4.8-9.6-10.1-10.1
		l-4.5-0.5c-3.2-0.3-6.1-2-8-4.6l-2.6-3.6c-3.2-4.3-8.9-5.9-13.8-3.7l-4.1,1.8c-2.9,1.3-6.3,1.3-9.3,0l-4.1-1.8
		c-4.9-2.2-10.7-0.6-13.8,3.7l-2.6,3.6c-1.9,2.6-4.8,4.3-8,4.6l-4.5,0.5c-5.3,0.6-9.6,4.8-10.1,10.1L57,51.5c-0.3,3.2-2,6.1-4.6,8
		l-3.6,2.6c-4.3,3.2-5.9,8.9-3.7,13.8l1.8,4.1c1.3,2.9,1.3,6.3,0,9.3l-1.8,4.1c-2.2,4.9-0.6,10.7,3.7,13.8l3.6,2.6
		c2.6,1.9,4.3,4.8,4.6,8l0.5,4.5c0.6,5.3,4.8,9.6,10.1,10.1l4.5,0.5c0.7,0.1,1.3,0.2,1.9,0.4l3.8-10.2c-12-8.6-19.8-22.6-19.8-38.4
		c0-26.1,21.2-47.2,47.2-47.2c26.1,0,47.2,21.2,47.2,47.2c0,17.2-9.2,32.2-22.9,40.5l3.6,9.7c1.5-1,3.3-1.7,5.2-1.9l4.5-0.5
		c5.3-0.6,9.6-4.8,10.1-10.1l0.5-4.5c0.3-3.2,2-6.1,4.6-8l3.6-2.6c4.3-3.2,5.9-8.9,3.7-13.8l-1.8-4.1c-1.3-2.9-1.3-6.3,0-9.3
		L165.6,75.9z"/>
	<path class="st0" d="M126.2,127.1c-4.8,2.4-10.1,3.9-15.7,4.6l-5,14l13.3,38.6c0.9,2.5,4.4,2.7,5.5,0.2l11.1-25.9
		c0.8-1.8,0.8-3.8,0.2-5.6L126.2,127.1z"/>
	<path class="st0" d="M70.9,159l11.4,26.7c0.9,2.1,3.8,2,4.6-0.1l19.3-53.7c-0.3,0-0.6,0-0.8,0c-8.8,0-17-2.4-24.1-6.6l-10.5,27.1
		C69.9,154.6,70,157,70.9,159z"/>
	<path class="st0" d="M105.3,126.3c23,0,41.6-18.6,41.6-41.6c0-23-18.6-41.6-41.6-41.6c-23,0-41.6,18.6-41.6,41.6
		C63.7,107.7,82.3,126.3,105.3,126.3z M111.6,81.4c5.5,1.4,11-3.4,13.7-6.9c0.4-0.5,1.1-0.1,1,0.5c-2.1,10.2-2.1,18.3-1.5,22.4
		c0,0.2,0,0.3-0.1,0.4c-1.5,1.6-7.3,5-13,4.4l0,0c-2-0.2-3.9-0.9-5.7-2.4c-0.5-0.4-0.9-0.7-1.4-1l3.7-0.6l-4.5-0.8
		c-0.2,0-0.4-0.2-0.5-0.5l-1-7.3c0-0.2,0-0.4,0.2-0.5l2-1.8c0.2-0.2,0.6-0.2,0.8,0l8.8,8c0.3,0.3,0.2,0.7-0.1,0.9l-2.9,1.8l12.6-2
		l-4.7-0.8c-0.1,0-0.2-0.1-0.3-0.2L108.3,85c-0.2-0.2-0.2-0.6,0-0.8l2.8-2.7C111.2,81.4,111.4,81.3,111.6,81.4z M84.5,76.4
		c2.2-2.1,13.1-11,20.9,0.1c0.8,1.2,1.7,2.1,2.6,2.9c0.4,0.4,0.8,0.7,1.3,1c0.2,0.1,0.5,0.3,0.7,0.4l-7,6.4c-0.3,0.3-0.9,0.1-1-0.4
		l-1-8.6c0-0.2,0.1-0.5,0.3-0.6l3.4-1.9l-13.3,2l4.7,1.1c0.2,0.1,0.4,0.2,0.4,0.5l3.7,18.4c-0.5,0-1,0.1-1.5,0.2l-0.1,0l-0.1,0
		l-0.1,0l-0.1,0l-0.1,0c-3.2,0.8-5.9,2.8-7.2,3.9c-0.4,0.3-0.9,0.1-0.9-0.4c-1.8-13.8-3.7-21.9-5.6-24.3
		C84.2,77,84.3,76.6,84.5,76.4z"/>
</g>
</svg>
