<?xml version="1.0" encoding="utf-8"?>
<!-- Generator: Adobe Illustrator 19.0.1, SVG Export Plug-In . SVG Version: 6.00 Build 0)  -->
<svg version="1.1" id="Layer_1" xmlns="http://www.w3.org/2000/svg" xmlns:xlink="http://www.w3.org/1999/xlink" x="0px" y="0px"
	 viewBox="0 0 210.6 210.6" style="enable-background:new 0 0 210.6 210.6;" xml:space="preserve">
<style type="text/css">
	.st0{fill:#AC0033;}
</style>
<g>
	<path class="st0" d="M166,110.2c-0.4-4.5-2.9-7.3-7.4-8.6c0.8-0.4,1.3-0.6,1.8-0.9c5.5-3.2,6.6-10,2.5-14.8
		c-2.3-2.6-5.1-3.4-8.4-3.3c-8.1,0.1-16.2,0-24.3,0c-0.9,0-1.9-0.1-2.8-0.3c-1.6-0.4-2-1.3-1.6-3.2c0.1-0.3,0.1-0.5,0.2-0.8
		c1.3-3.9,2.6-7.8,3.9-11.8c1.7-5.5,3.2-11,2.7-16.9c-0.4-5-2.7-8.7-7.3-11c-3.4-1.6-5.9-0.6-6.8,3c-0.8,3.1-1.5,6.3-2.1,9.5
		c-1,5.7-3,10.9-6.9,15.2c-3.2,3.5-6.1,7.3-8.5,11.4c-2.3,3.9-4.8,7.7-7.4,11.5c-1.9,2.8-4.5,4.7-7.6,5.9c-0.3,0.1-0.6,0.2-1,0.4
		c-2.7,1-4.6,3.6-4.6,6.5c0,9.5,0,30.3,0,39.6c0,2.6,2,4.8,4.6,5.1c2.1,0.2,4.4,0.5,5.9,0.8c7.8,1.7,15.6,2.8,23.6,3.1
		c7.6,0.3,15.2,0.4,22.8,0.4c4.5,0,8.9,0,13.4-0.1c3.4-0.1,5.9-2.1,6.6-5.3c0.7-3.1-0.8-6-3.7-7.5c-0.2-0.1-0.4-0.2-0.7-0.4
		c5.6,0.3,10.5-0.9,12.1-7c1.4-5.1-0.9-8.7-5.5-11.1C164.4,116.8,166.3,114.1,166,110.2z"/>
	<path class="st0" d="M44.6,151.1H70c2.4,0,4.3-1.9,4.3-4.3V98.6c0-2.4-1.9-4.3-4.3-4.3H44.6V151.1z"/>
</g>
</svg>
