<?xml version="1.0" encoding="utf-8"?>
<!-- Generator: Adobe Illustrator 19.0.1, SVG Export Plug-In . SVG Version: 6.00 Build 0)  -->
<svg version="1.1" id="Layer_1" xmlns="http://www.w3.org/2000/svg" xmlns:xlink="http://www.w3.org/1999/xlink" x="0px" y="0px"
	 viewBox="0 0 210.6 210.6" style="enable-background:new 0 0 210.6 210.6;" xml:space="preserve">
<style type="text/css">
	.st0{fill:#AC0033;}
</style>
<path class="st0" d="M185.4,134.9c-1.8,0-3.2-1.4-3.2-3.2v-16.5c0-1.8-1.4-3.2-3.2-3.2h-6.4c-1.7,0-3-1.3-3.2-2.9l-5.6-72
	c-0.1-1.7-1.5-2.9-3.2-2.9h-11.6c-1.6,0-3,1.2-3.2,2.9l-6.2,66.9l-0.5,5.3c-0.2,1.6-1.5,2.9-3.2,2.9h-6.5c-1.8,0-3.2-1.4-3.2-3.2
	V86.6V74.2c0-2.6-2.9-4.1-5-2.6l-21.2,15.6c-2.1,1.5-5,0-5-2.6V74.2c0-2.6-2.9-4.1-5-2.6L70.5,86.1c-2.1,1.5-5,0-5-2.6v-9.3
	c0-2.6-2.9-4.1-5-2.6L34.2,90.8c-0.8,0.6-1.3,1.5-1.3,2.6v38.3c0,1.8-1.4,3.2-3.2,3.2h-4.5c-1.8,0-3.2,1.4-3.2,3.2v33.3
	c0,1.8,1.4,3.2,3.2,3.2h160.2c1.8,0,3.2-1.4,3.2-3.2V138C188.6,136.3,187.2,134.9,185.4,134.9z M47.2,162.8c0,1-0.8,1.8-1.8,1.8
	h-4.9c-1,0-1.8-0.8-1.8-1.8v-4.9c0-1,0.8-1.8,1.8-1.8h4.9c1,0,1.8,0.8,1.8,1.8V162.8z M47.2,151.5c0,1-0.8,1.8-1.8,1.8h-4.9
	c-1,0-1.8-0.8-1.8-1.8v-4.9c0-1,0.8-1.8,1.8-1.8h4.9c1,0,1.8,0.8,1.8,1.8V151.5z M61.1,162.8c0,1-0.8,1.8-1.8,1.8h-4.9
	c-1,0-1.8-0.8-1.8-1.8v-4.9c0-1,0.8-1.8,1.8-1.8h4.9c1,0,1.8,0.8,1.8,1.8V162.8z M75,162.8c0,1-0.8,1.8-1.8,1.8h-4.9
	c-1,0-1.8-0.8-1.8-1.8v-4.9c0-1,0.8-1.8,1.8-1.8h4.9c1,0,1.8,0.8,1.8,1.8V162.8z M75,151.5c0,1-0.8,1.8-1.8,1.8h-4.9
	c-1,0-1.8-0.8-1.8-1.8v-4.9c0-1,0.8-1.8,1.8-1.8h4.9c1,0,1.8,0.8,1.8,1.8V151.5z M88.8,151.5c0,1-0.8,1.8-1.8,1.8h-4.9
	c-1,0-1.8-0.8-1.8-1.8v-4.9c0-1,0.8-1.8,1.8-1.8H87c1,0,1.8,0.8,1.8,1.8V151.5z M102.7,151.5c0,1-0.8,1.8-1.8,1.8h-4.9
	c-1,0-1.8-0.8-1.8-1.8v-4.9c0-1,0.8-1.8,1.8-1.8h4.9c1,0,1.8,0.8,1.8,1.8V151.5z M116.6,162.8c0,1-0.8,1.8-1.8,1.8h-4.9
	c-1,0-1.8-0.8-1.8-1.8v-4.9c0-1,0.8-1.8,1.8-1.8h4.9c1,0,1.8,0.8,1.8,1.8V162.8z M130.5,162.8c0,1-0.8,1.8-1.8,1.8h-4.9
	c-1,0-1.8-0.8-1.8-1.8v-4.9c0-1,0.8-1.8,1.8-1.8h4.9c1,0,1.8,0.8,1.8,1.8V162.8z M145,151.5c0,1-0.8,1.8-1.8,1.8h-4.9
	c-1,0-1.8-0.8-1.8-1.8v-4.9c0-1,0.8-1.8,1.8-1.8h4.9c1,0,1.8,0.8,1.8,1.8V151.5z M172.8,162.8c0,1-0.8,1.8-1.8,1.8H166
	c-1,0-1.8-0.8-1.8-1.8v-4.9c0-1,0.8-1.8,1.8-1.8h4.9c1,0,1.8,0.8,1.8,1.8V162.8z"/>
</svg>
