<?xml version="1.0" encoding="utf-8"?>
<!-- Generator: Adobe Illustrator 19.0.1, SVG Export Plug-In . SVG Version: 6.00 Build 0)  -->
<svg version="1.1" id="Layer_1" xmlns="http://www.w3.org/2000/svg" xmlns:xlink="http://www.w3.org/1999/xlink" x="0px" y="0px"
	 viewBox="0 0 210.6 210.6" style="enable-background:new 0 0 210.6 210.6;" xml:space="preserve">
<style type="text/css">
	.st0{fill:none;}
	.st1{fill:#AC0033;}
</style>
<path class="st0" d="M151.7,73.5l-17.5-8.6c-1.5-0.7-2.9,1.2-1.8,2.4l15.3,15.9c1.9,2,2.5,4.8,1.7,7.4l-18.7,54.7c0,0,0,0.1,0,0.1
	c1-0.8,2.4-1.1,3.7-0.7l21.5-42.1c1.8-3.6,6.3-5,9.9-3.1l22.6,11.8c1.5,0.8,3-1.2,1.7-2.4l-21.4-20.5c-2.3-2.2-2.9-5.6-1.5-8.4
	l21.3-43.8c0.8-1.7-1.6-3.1-2.6-1.5l-24.9,36.5C158.9,74.1,154.9,75.1,151.7,73.5z"/>
<path class="st0" d="M68.3,178c3.6-1.7,6.1-3.6,7.3-5.8c-7.7,0.8-23-0.4-22.3-2.1c0.9-2.1,5.8-12.9,7.7-14.5
	c1.5-1.2,11.1,8.1,15.8,12.9c3.8-14.2-4.4-23.9-9.8-28.5c-5.6-4.8-12.9-8.3-20.5-9.7c-7.6-1.4-14.8-0.6-20.2,2.3
	c-5.4,2.8-8.8,6.2-10.4,10.1c-1.3,3.4-1.2,7.3,0.4,11.6c3.7,9.9,15,21,29.5,29.2c5-0.7,10-1.6,14.6-2.8C63.5,180,66.1,179,68.3,178z
	"/>
<g>
	<path class="st1" d="M64.5,76.9H38.8c-1.6,0-2.9,1.3-2.9,2.9v91c0,1.6,1.3,2.9,2.9,2.9h25.7c1.6,0,2.9-1.3,2.9-2.9v-91
		C67.5,78.2,66.1,76.9,64.5,76.9z M50.6,103.3c0,0.9-0.7,1.6-1.6,1.6h-4.5c-0.9,0-1.6-0.7-1.6-1.6v-4.5c0-0.9,0.7-1.6,1.6-1.6h4.5
		c0.9,0,1.6,0.7,1.6,1.6V103.3z M50.6,92c0,0.9-0.7,1.6-1.6,1.6h-4.5c-0.9,0-1.6-0.7-1.6-1.6v-4.5c0-0.9,0.7-1.6,1.6-1.6h4.5
		c0.9,0,1.6,0.7,1.6,1.6V92z M60.5,124.8c0,0.9-0.7,1.6-1.6,1.6h-4.5c-0.9,0-1.6-0.7-1.6-1.6v-4.5c0-0.9,0.7-1.6,1.6-1.6h4.5
		c0.9,0,1.6,0.7,1.6,1.6V124.8z M60.5,114.8c0,0.9-0.7,1.6-1.6,1.6h-4.5c-0.9,0-1.6-0.7-1.6-1.6v-4.5c0-0.9,0.7-1.6,1.6-1.6h4.5
		c0.9,0,1.6,0.7,1.6,1.6V114.8z M60.5,103.3c0,0.9-0.7,1.6-1.6,1.6h-4.5c-0.9,0-1.6-0.7-1.6-1.6v-4.5c0-0.9,0.7-1.6,1.6-1.6h4.5
		c0.9,0,1.6,0.7,1.6,1.6V103.3z M60.5,92c0,0.9-0.7,1.6-1.6,1.6h-4.5c-0.9,0-1.6-0.7-1.6-1.6v-4.5c0-0.9,0.7-1.6,1.6-1.6h4.5
		c0.9,0,1.6,0.7,1.6,1.6V92z"/>
	<path class="st1" d="M100.5,94.2H74.4c-1.5,0-2.7,1.2-2.7,2.7v74.2c0,1.5,1.2,2.7,2.7,2.7h26.1c1.5,0,2.7-1.2,2.7-2.7V97
		C103.2,95.5,102,94.2,100.5,94.2z M86.3,131.4c0,0.9-0.7,1.6-1.6,1.6h-4.5c-0.9,0-1.6-0.7-1.6-1.6v-4.5c0-0.9,0.7-1.6,1.6-1.6h4.5
		c0.9,0,1.6,0.7,1.6,1.6V131.4z M86.3,119.8c0,0.9-0.7,1.6-1.6,1.6h-4.5c-0.9,0-1.6-0.7-1.6-1.6v-4.5c0-0.9,0.7-1.6,1.6-1.6h4.5
		c0.9,0,1.6,0.7,1.6,1.6V119.8z M96.3,141.3c0,0.9-0.7,1.6-1.6,1.6h-4.5c-0.9,0-1.6-0.7-1.6-1.6v-4.5c0-0.9,0.7-1.6,1.6-1.6h4.5
		c0.9,0,1.6,0.7,1.6,1.6V141.3z M96.3,119.8c0,0.9-0.7,1.6-1.6,1.6h-4.5c-0.9,0-1.6-0.7-1.6-1.6v-4.5c0-0.9,0.7-1.6,1.6-1.6h4.5
		c0.9,0,1.6,0.7,1.6,1.6V119.8z"/>
	<path class="st1" d="M170.6,85.4h-23.4c-2.3,0-4.1,1.8-4.1,4.1v80.3c0,2.3,1.8,4.1,4.1,4.1h23.4c2.3,0,4.1-1.8,4.1-4.1V89.5
		C174.7,87.2,172.9,85.4,170.6,85.4z M157.9,124.8c0,0.9-0.7,1.6-1.6,1.6h-4.5c-0.9,0-1.6-0.7-1.6-1.6v-4.5c0-0.9,0.7-1.6,1.6-1.6
		h4.5c0.9,0,1.6,0.7,1.6,1.6V124.8z M157.9,103.3c0,0.9-0.7,1.6-1.6,1.6h-4.5c-0.9,0-1.6-0.7-1.6-1.6v-4.5c0-0.9,0.7-1.6,1.6-1.6
		h4.5c0.9,0,1.6,0.7,1.6,1.6V103.3z M167.8,124.8c0,0.9-0.7,1.6-1.6,1.6h-4.5c-0.9,0-1.6-0.7-1.6-1.6v-4.5c0-0.9,0.7-1.6,1.6-1.6
		h4.5c0.9,0,1.6,0.7,1.6,1.6V124.8z M167.8,113.2c0,0.9-0.7,1.6-1.6,1.6h-4.5c-0.9,0-1.6-0.7-1.6-1.6v-4.5c0-0.9,0.7-1.6,1.6-1.6
		h4.5c0.9,0,1.6,0.7,1.6,1.6V113.2z"/>
	<path class="st1" d="M139.7,39.1c-1.7,0.7-3.8,0.6-5.3-0.4c-1.1-0.7-2-1.8-3.1-2.5c-1.4-0.8-3.2-0.9-4.8-0.5
		c-1.5,0.4-2.9,1.2-4.1,2.1h-0.2V38v9.3v4.3c-0.2,0.1-0.4,0.3-0.6,0.5l-13.3,13.5c-0.5,0.5-0.7,1.1-0.7,1.7v104.1
		c0,1.4,1.1,2.5,2.5,2.5h26.6c1.4,0,2.5-1.1,2.5-2.5V67.3c0-0.6-0.3-1.3-0.7-1.7L125,52c-0.3-0.3-0.6-0.5-0.9-0.6V46
		c0.8-0.4,1.6-0.8,2.4-1c1.6-0.4,3.4-0.3,4.8,0.5c1.2,0.7,2,1.8,3.1,2.5c1.8,1.2,4.4,1.1,6.2-0.1c0.7-0.5,1.1-1.3,1.1-2.2v-5.4
		C141.7,39.4,140.7,38.7,139.7,39.1z M122.1,124.8c0,0.9-0.7,1.6-1.6,1.6H116c-0.9,0-1.6-0.7-1.6-1.6v-4.5c0-0.9,0.7-1.6,1.6-1.6
		h4.5c0.9,0,1.6,0.7,1.6,1.6V124.8z M122.1,113.5c0,0.9-0.7,1.6-1.6,1.6H116c-0.9,0-1.6-0.7-1.6-1.6v-4.5c0-0.9,0.7-1.6,1.6-1.6h4.5
		c0.9,0,1.6,0.7,1.6,1.6V113.5z M122.1,102c0,0.9-0.7,1.6-1.6,1.6H116c-0.9,0-1.6-0.7-1.6-1.6v-4.5c0-0.9,0.7-1.6,1.6-1.6h4.5
		c0.9,0,1.6,0.7,1.6,1.6V102z M122.1,92c0,0.9-0.7,1.6-1.6,1.6H116c-0.9,0-1.6-0.7-1.6-1.6v-4.5c0-0.9,0.7-1.6,1.6-1.6h4.5
		c0.9,0,1.6,0.7,1.6,1.6V92z M124.3,109.1c0-0.9,0.7-1.6,1.6-1.6h4.5c0.9,0,1.6,0.7,1.6,1.6v4.5c0,0.9-0.7,1.6-1.6,1.6H126
		c-0.9,0-1.6-0.7-1.6-1.6V109.1z M124.3,120.4c0-0.9,0.7-1.6,1.6-1.6h4.5c0.9,0,1.6,0.7,1.6,1.6v4.5c0,0.9-0.7,1.6-1.6,1.6H126
		c-0.9,0-1.6-0.7-1.6-1.6V120.4z"/>
</g>
</svg>
