<?xml version="1.0" encoding="utf-8"?>
<!-- Generator: Adobe Illustrator 19.0.1, SVG Export Plug-In . SVG Version: 6.00 Build 0)  -->
<svg version="1.1" id="Layer_1" xmlns="http://www.w3.org/2000/svg" xmlns:xlink="http://www.w3.org/1999/xlink" x="0px" y="0px"
	 viewBox="0 0 210.6 210.6" style="enable-background:new 0 0 210.6 210.6;" xml:space="preserve">
<style type="text/css">
	.st0{fill:none;}
	.st1{fill:#AC0033;}
</style>
<path class="st0" d="M151.7,73.5l-17.5-8.6c-1.5-0.7-2.9,1.2-1.8,2.4l15.3,15.9c1.9,2,2.5,4.8,1.7,7.4l-18.7,54.7c0,0,0,0.1,0,0.1
	c1-0.8,2.4-1.1,3.7-0.7l21.5-42.1c1.8-3.6,6.3-5,9.9-3.1l22.6,11.8c1.5,0.8,3-1.2,1.7-2.4l-21.4-20.5c-2.3-2.2-2.9-5.6-1.5-8.4
	l21.3-43.8c0.8-1.7-1.6-3.1-2.6-1.5l-24.9,36.5C158.9,74.1,154.9,75.1,151.7,73.5z"/>
<path class="st0" d="M68.3,178c3.6-1.7,6.1-3.6,7.3-5.8c-7.7,0.8-23-0.4-22.3-2.1c0.9-2.1,5.8-12.9,7.7-14.5
	c1.5-1.2,11.1,8.1,15.8,12.9c3.8-14.2-4.4-23.9-9.8-28.5c-5.6-4.8-12.9-8.3-20.5-9.7c-7.6-1.4-14.8-0.6-20.2,2.3
	c-5.4,2.8-8.8,6.2-10.4,10.1c-1.3,3.4-1.2,7.3,0.4,11.6c3.7,9.9,15,21,29.5,29.2c5-0.7,10-1.6,14.6-2.8C63.5,180,66.1,179,68.3,178z
	"/>
<g>
	<path class="st1" d="M161.6,20.8H159c-1,0-2,0.2-2.9,0.6c-0.9-0.4-1.9-0.6-2.9-0.6h-37.4c-1.5,0-2.9,0.4-4.1,1.2
		c-1.2-0.8-2.7-1.2-4.1-1.2h-10c-2,0-3.8,0.8-5.2,2.1c-0.2-0.1-0.5-0.3-0.8-0.6c-1.3-1-2.9-1.5-4.6-1.5H68.6c-1.4,0-2.7,0.4-3.9,1.1
		c-1.2-0.7-2.5-1.1-3.9-1.1H49c-8,0-14.6,6.5-14.6,14.6v10.4c0,2.6,1.3,5,3.6,6.4c0.4,0.3,0.8,0.5,1,0.8c0.1,0.1,0.2,0.2,0.3,0.4
		c-2.9,1.1-4.9,3.9-4.9,7.1v1.5c0,1.1,0.2,2.2,0.7,3.2c-0.2,0.5-0.3,0.9-0.5,1.4c-0.2,0.6-0.2,1.3-0.2,1.9V70c0,0.8,0.1,1.6,0.4,2.4
		l1,3l1.2,3.7c0.1,0.4,0.4,1.1,0.5,1.7c0,0,0,0-0.1,0c-1.9,1.4-3.1,3.7-3.1,6.1v62.4c0,2.1,0.9,4.1,2.4,5.5c0.2,0.2,0.4,0.4,0.5,0.5
		c-1.8,1.4-2.9,3.6-2.9,5.9v3.7c0,1.4,0.4,2.8,1.1,3.9c-0.7,1.2-1.1,2.5-1.1,3.9v2.5c0,8,6.5,14.6,14.6,14.6h32.5
		c2.3,0,4.4-1,5.8-2.7c1.1,0.3,2.6,0.6,4.3,0.6l0.2,0c4-0.1,7.1-1.9,9.3-3.2c0,0.1,0.1,0.2,0.1,0.3c1.1,3,3.9,5.1,7.1,5.1h53.1
		c8,0,14.6-6.5,14.6-14.6v-24.5c0-1.8-0.6-3.5-1.8-4.9c-1.4-1.6-3.1-2.9-5-3.7l2.9-2.1l0.8-0.6c1.9-1.4,3.1-3.7,3.1-6.1V94.3
		c0-1.7-0.6-3.4-1.7-4.7c0.6-0.9,1.1-2,1.4-3.4c0.1-0.6,0.2-1.2,0.2-1.8V83c0-0.7-0.1-1.3-0.2-1.9c-0.8-3.1-2.8-5.1-4.2-6.5
		c-0.1-0.1-0.1-0.1-0.2-0.2c0.2-0.4,0.5-0.8,1-1.3c0.4-0.5,0.9-1,1.4-1.5c1.4-1.4,2.2-3.3,2.2-5.3V35.3
		C176.2,27.3,169.6,20.8,161.6,20.8z M168.6,175.3c0,3.9-3.1,7-7,7h-53.1c-0.2-0.6-0.4-1.2-0.6-1.8c-0.4-1.4-1-2.9-2.2-3.8
		c-0.8-0.6-1.7-0.8-2.6-0.8c-1.5,0-3.1,0.6-4.5,1.4c-2.2,1.2-4.3,2.9-6.8,2.9c0,0-0.1,0-0.1,0c-1.9,0-3.9-0.9-5.8-0.9
		c-0.6,0-1.3,0.1-1.9,0.4c-1.1,0.5-1.8,1.6-2.4,2.7H49c-3.9,0-7-3.1-7-7v-2.5c0.1,0,0.2,0,0.2,0c1.2-0.3,2.4-1.2,2.7-2.4
		c0.5-2-1.5-3.7-2.9-5.5v-3.7c2.7-0.9,4-4.7,3-7.6c-0.6-1.7-1.7-3.1-3-4.3V86.9c1.2-0.9,2.3-2,2.9-3.4c0.8-2.2,0.1-4.6-0.7-6.8
		c-0.7-2.2-1.5-4.5-2.2-6.7v-1.7c0.3-1.2,1.1-2.2,2.2-2.7c-0.7-1.2-1.5-2.5-2.2-3.7v-1.5c2.5-0.3,4.6-2.5,5.1-5
		c0.5-2.8-0.7-5.7-2.7-7.7c-0.7-0.7-1.6-1.4-2.4-1.9V35.3c0-3.9,3.1-7,7-7h11.8c0.7,0.8,1.6,1.4,2.7,1.6c0.3,0.1,0.7,0.1,1,0.1
		c1.5,0,2.8-0.7,4.1-1.7h18.3c1.8,1.4,4.1,2.5,6.1,2.5c1,0,1.9-0.2,2.8-0.8c0.7-0.4,1.2-1.1,1.7-1.7h10c0.9,0.7,1.9,1.3,2.9,1.6
		c0.4,0.1,0.9,0.2,1.3,0.2c1.5,0,3-0.7,4-1.8h37.4c0.2,0.2,0.4,0.3,0.6,0.5c0.7,0.5,1.4,1.1,2.2,1.2c0,0,0.1,0,0.1,0
		c1.1,0,2-0.9,2.8-1.6c0,0,0.1-0.1,0.1-0.1h2.6c3.9,0,7,3.1,7,7v30.8c-0.6,0.6-1.1,1.2-1.7,1.8c-2.4,2.6-4.2,6.5-2.5,9.5
		c1.1,2,3.7,3.4,4.2,5.5v1.5c-0.4,1.8-2.5,3.1-2.9,5c-0.3,1.5,0.5,3,1.6,4c0.4,0.3,0.8,0.6,1.3,0.9v39.1c-2.2,1.6-4.4,3.3-6.7,4.9
		c-1.2,0.8-2.3,1.7-3.2,2.9c-0.8,1.2-1.3,2.7-0.9,4c0.2,0,0.3,0,0.5,0c2.4,0,4.8,1.5,5.8,3.8c0.3-0.1,0.6-0.1,0.8-0.1
		c1.4,0,2.7,0.8,3.6,1.9V175.3z"/>
	<rect x="64.2" y="44.9" class="st1" width="82.2" height="11.8"/>
	<rect x="65.2" y="110" class="st1" width="88.8" height="2.8"/>
	<rect x="55.7" y="77" class="st1" width="98.2" height="2.8"/>
	<rect x="55.7" y="83.6" class="st1" width="98.2" height="2.8"/>
	<rect x="55.7" y="90.2" class="st1" width="98.2" height="2.8"/>
	<rect x="55.7" y="96.8" class="st1" width="98.2" height="2.8"/>
	<rect x="55.7" y="115.7" class="st1" width="98.2" height="2.8"/>
	<rect x="55.7" y="122.3" class="st1" width="98.2" height="2.8"/>
	<rect x="55.7" y="128.9" class="st1" width="59.5" height="2.8"/>
	<rect x="65.2" y="134.6" class="st1" width="88.8" height="2.8"/>
	<rect x="55.7" y="141.4" class="st1" width="98.2" height="2.8"/>
	<rect x="55.7" y="148.3" class="st1" width="98.2" height="2.8"/>
	<rect x="55.7" y="155.1" class="st1" width="98.2" height="2.8"/>
	<rect x="55.7" y="162" class="st1" width="59.5" height="2.8"/>
	<rect x="55.7" y="103.4" class="st1" width="77.5" height="2.8"/>
	<polygon class="st1" points="153.5,70.4 60.4,70.4 60.4,73.2 154,73.2 154,73.2 154.4,73.2 154.4,70.4 153.5,70.4 	"/>
</g>
</svg>
