<?xml version="1.0" encoding="utf-8"?>
<!-- Generator: Adobe Illustrator 19.0.1, SVG Export Plug-In . SVG Version: 6.00 Build 0)  -->
<svg version="1.1" id="Layer_1" xmlns="http://www.w3.org/2000/svg" xmlns:xlink="http://www.w3.org/1999/xlink" x="0px" y="0px"
	 viewBox="0 0 210.6 210.6" style="enable-background:new 0 0 210.6 210.6;" xml:space="preserve">
<style type="text/css">
	.st0{fill:#AC0033;}
</style>
<path class="st0" d="M39.6,82.5c-1.4,1-2.2,2.7-2.1,4.4l3.3,56.9c0.2,3.6,4.1,5.8,7.3,4.1c20.9-10.8,37.1-13,48.9-6.7
	c0.1,0.1,0.2,0.1,0.3,0.2c16.2,10.1,40.6,7.1,73.1-9c1.7-0.9,2.8-2.7,2.8-4.6L171.5,67c-0.1-3.9-4.3-6.1-7.6-4.1
	c-21.9,13.3-41,17-57.2,11c-0.3-0.1-0.6-0.3-0.9-0.4C87.1,61.9,65,64.9,39.6,82.5z M155.8,85.8c0.5,0,0.9,0.5,0.6,1l-9.6,14.6
	c-0.3,0.4,0,0.9,0.5,1l2.9,0.2c0.4,0,0.7,0.4,0.6,0.8l-0.8,2.9c-0.1,0.3-0.4,0.5-0.6,0.5l-5.4-0.3c-0.2,0-0.4,0.1-0.6,0.3l-0.2,0.3
	c-0.3,0.4,0,0.9,0.5,1l4.9,0.4c0.4,0,0.7,0.4,0.6,0.8l-0.9,3c-0.1,0.3-0.4,0.5-0.6,0.5l-7.5-0.4c-0.2,0-0.4,0.1-0.6,0.3l-5.2,8
	c-0.3,0.4,0,0.9,0.5,1l15,1.7c0.3,0,0.6-0.1,0.7-0.4l3.1-9.8c0.2-0.6,1.2-0.6,1.2,0.1l1.5,12.7c0,0.4-0.3,0.7-0.6,0.7l-39.5-0.1
	c-0.5,0-0.8-0.6-0.5-1l9.6-12.9c0.3-0.4,0-1-0.5-1l-2.2-0.1c-0.4,0-0.7-0.4-0.6-0.8l1.1-3.6c0.1-0.3,0.4-0.5,0.7-0.5l5.3,0.4
	c0.2,0,0.4-0.1,0.6-0.2c0.3-0.4,0-1-0.5-1l-4.8-0.3c-0.4,0-0.7-0.4-0.6-0.8l1-3.4c0.1-0.3,0.4-0.5,0.7-0.5l7.9,0.6
	c0.2,0,0.4-0.1,0.6-0.3l6.9-9.2c0.3-0.4,0-1.1-0.6-1l-20.1,2.1c-0.3,0-0.5,0.3-0.6,0.6l-1.2,10.1c-0.1,0.7-1,0.8-1.2,0.1l-3.8-13.3
	c-0.1-0.4,0.2-0.8,0.6-0.8L155.8,85.8z M55.7,100h14.1V85.8c0-1.3,1-2.3,2.3-2.3h4.3c1.3,0,2.3,1,2.3,2.3V100h14.1
	c1.3,0,2.3,1,2.3,2.3v4.3c0,1.3-1,2.3-2.3,2.3H78.6v14.2c0,1.3-1,2.3-2.3,2.3h-4.3c-1.3,0-2.3-1-2.3-2.3v-14.2H55.7
	c-1.3,0-2.3-1-2.3-2.3v-4.3C53.4,101.1,54.4,100,55.7,100z"/>
</svg>
