<?xml version="1.0" encoding="utf-8"?>
<!-- Generator: Adobe Illustrator 19.0.1, SVG Export Plug-In . SVG Version: 6.00 Build 0)  -->
<svg version="1.1" id="Layer_1" xmlns="http://www.w3.org/2000/svg" xmlns:xlink="http://www.w3.org/1999/xlink" x="0px" y="0px"
	 viewBox="0 0 210.6 210.6" style="enable-background:new 0 0 210.6 210.6;" xml:space="preserve">
<style type="text/css">
	.st0{fill:#AC0033;}
</style>
<path class="st0" d="M54,96.8c0.5,1.9,3.3,1.7,3.6-0.2l3.9-28.8c0.1-0.8,0.8-1.5,1.6-1.6l57.5-5.2c1.6-0.1,2.6,1.7,1.6,2.9l-20,26.1
	c-0.4,0.5-1,0.8-1.6,0.7l-22.4-2.1c-0.9-0.1-1.7,0.5-1.9,1.3l-2.8,9.6c-0.3,1.1,0.5,2.2,1.6,2.3l13.7,1c1.4,0.1,2.2,1.8,1.3,2.9
	c-0.4,0.5-1,0.8-1.6,0.7l-15.2-1.4c-0.9-0.1-1.7,0.5-1.9,1.3l-3.1,10.2c-0.3,1.1,0.4,2.3,1.6,2.3l6.3,0.5c1.4,0.1,2.2,1.8,1.3,2.9
	l-27.9,36.4c-0.9,1.2-0.1,2.9,1.4,2.9l112.6,1.5c1.1,0,1.9-0.9,1.8-2l-3.9-36.2c-0.2-1.9-2.9-2.2-3.5-0.4l-9.3,28
	c-0.3,0.8-1.1,1.3-1.9,1.2l-42.8-5.2c-1.3-0.2-2-1.7-1.3-2.8l15.2-22.6c0.4-0.5,1-0.8,1.6-0.8l21.5,1.5c0.8,0.1,1.6-0.5,1.9-1.3
	l2.6-8.6c0.3-1.1-0.4-2.2-1.6-2.3l-14.1-1.3c-1.4-0.1-2.1-1.7-1.3-2.8l0.5-0.8c0.4-0.5,1-0.9,1.6-0.8l15.4,1.1
	c0.8,0.1,1.6-0.5,1.9-1.3l2.5-8.3c0.3-1.1-0.4-2.2-1.6-2.3l-8.2-0.7c-1.4-0.1-2.1-1.7-1.3-2.8l27.8-41.2c0.8-1.3-0.1-2.9-1.6-2.8
	L45.1,56.4c-1.1,0.1-1.9,1.2-1.6,2.3L54,96.8z"/>
</svg>
