<?xml version="1.0" encoding="utf-8"?>
<!-- Generator: Adobe Illustrator 19.0.1, SVG Export Plug-In . SVG Version: 6.00 Build 0)  -->
<svg version="1.1" id="Layer_1" xmlns="http://www.w3.org/2000/svg" xmlns:xlink="http://www.w3.org/1999/xlink" x="0px" y="0px"
	 viewBox="0 0 210.6 210.6" style="enable-background:new 0 0 210.6 210.6;" xml:space="preserve">
<style type="text/css">
	.st0{fill:none;}
	.st1{fill:#AC0033;}
</style>
<g>
	<path class="st0" d="M117.4,92.3l-1.2-2.1l0-2.4l-0.4-46.7l0-0.7H95.1l0,0.7l-0.2,46.7l0,2.4l-1.2,2.1l-39.1,70.5
		c-1.2,2.2-0.4,4.2,0.1,4.9c0.4,0.7,1.7,2.4,4.3,2.4h93.6c2.6,0,3.8-1.7,4.3-2.5c0.4-0.7,1.3-2.7,0-4.9L117.4,92.3z M148.9,165
		l-86.2,0c-1.5,0-2.5-1.6-1.7-3l25.2-45.4c0.4-0.7,1.2-1.1,2-1c1.4,0.1,2.9,0.2,4.3,0.2c9.1,0,18.1-2.9,25.1-8.2
		c1-0.7,2.4-0.4,3,0.6l30.1,53.7C151.4,163.4,150.4,165,148.9,165z"/>
	<circle class="st0" cx="117.3" cy="126.2" r="5.5"/>
	<circle class="st0" cx="97.5" cy="151" r="9.3"/>
	<circle class="st0" cx="89.6" cy="136.1" r="4.2"/>
	<path class="st1" d="M125.5,87.8L125,41.1h1.1c2.6,0,4.6-2.1,4.6-4.6v-0.6c0-2.6-2.1-4.6-4.6-4.6h-1.2h-39h-1.4
		c-2.6,0-4.6,2.1-4.6,4.6v0.6c0,2.6,2.1,4.6,4.6,4.6h1.3l-0.2,46.7l-39.1,70.5c-5.3,9.5,1.6,21.1,12.4,21.1h93.6
		c10.9,0,17.7-11.7,12.4-21.1L125.5,87.8z M156.9,167.7c-0.4,0.7-1.7,2.5-4.3,2.5H59c-2.6,0-3.8-1.7-4.3-2.4
		c-0.4-0.7-1.3-2.7-0.1-4.9l39.1-70.5l1.2-2.1l0-2.4l0.2-46.7l0-0.7h20.7l0,0.7l0.4,46.7l0,2.4l1.2,2.1l39.5,70.4
		C158.2,165,157.3,167,156.9,167.7z"/>
	<path class="st1" d="M120.5,108.3c-0.6-1.1-2-1.4-3-0.6c-7.1,5.3-16,8.2-25.1,8.2c-1.4,0-2.9-0.1-4.3-0.2c-0.8-0.1-1.6,0.3-2,1
		l-25.2,45.4c-0.7,1.3,0.2,3,1.7,3l86.2,0c1.5,0,2.5-1.6,1.7-3L120.5,108.3z M85.4,136.1c0-2.3,1.9-4.2,4.2-4.2s4.2,1.9,4.2,4.2
		c0,2.3-1.9,4.2-4.2,4.2S85.4,138.5,85.4,136.1z M97.5,160.3c-5.1,0-9.3-4.2-9.3-9.3c0-5.1,4.2-9.3,9.3-9.3s9.3,4.2,9.3,9.3
		C106.8,156.2,102.6,160.3,97.5,160.3z M117.3,131.7c-3,0-5.5-2.5-5.5-5.5c0-3,2.5-5.5,5.5-5.5c3,0,5.5,2.5,5.5,5.5
		C122.8,129.3,120.3,131.7,117.3,131.7z"/>
</g>
</svg>
