<?xml version="1.0" encoding="utf-8"?>
<!-- Generator: Adobe Illustrator 19.0.1, SVG Export Plug-In . SVG Version: 6.00 Build 0)  -->
<svg version="1.1" id="Layer_1" xmlns="http://www.w3.org/2000/svg" xmlns:xlink="http://www.w3.org/1999/xlink" x="0px" y="0px"
	 viewBox="0 0 210.6 210.6" style="enable-background:new 0 0 210.6 210.6;" xml:space="preserve">
<style type="text/css">
	.st0{fill:#AC0033;}
</style>
<g>
	<path class="st0" d="M106.3,132.5c0-1.7,1.4-3.1,3.1-3.1s3.1,1.4,3.1,3.1v8.9c0,1.3,0.3,2.4,0.9,3.4c0.4,1.1,1.1,2,2.1,2.6l0,0
		c1.1,0.7,2.4,0.9,3.5,0.6c0,0,0.1,0,0.1,0h0.1c3.7,0,6.7-3,6.7-6.7v-1.5l17.5-28.5l5.5,3.4c1.3,0.8,2.9,0.8,4.3,0.1l20.2-10.9
		c1.3-0.7,2.2-2.1,2.2-3.6l0.6-22.9c0-1.5-0.7-2.9-2-3.7l-19.5-12c-1.3-0.8-2.9-0.8-4.3-0.1l-20.2,10.9c-1.3,0.7-2.2,2.1-2.2,3.6
		L127.5,99c0,1.5,0.7,2.9,2,3.7l5.5,3.4l-9,14.7v-2c0-8.7-7-15.7-15.7-15.7H69.1l37.1,42.7V132.5z M140,80.8
		c0.8-1.4,2.6-1.8,3.9-0.9l19,11.7c1.4,0.8,1.8,2.6,0.9,3.9c-0.8,1.4-2.6,1.8-3.9,0.9l-19-11.7C139.6,84,139.1,82.2,140,80.8z"/>
	<path class="st0" d="M49,170.4h0.1c3.7,0,6.7-3,6.7-6.7v-31c0-1.6,1.3-2.9,2.9-2.9c1.6,0,2.9,1.3,2.9,2.9v31.3
		c0,3.2,2.6,5.7,5.7,5.7h33.1c3,0,5.5-2.3,5.7-5.3l-52.4-60.9c-6.7,1.8-11.6,7.9-11.6,15.2v44.9C42.3,167.4,45.3,170.4,49,170.4z"/>
	<path class="st0" d="M63.6,65.2c-0.8,0-1.5-0.2-2.1-0.7c-1.7,3.4-2.6,7.3-2.6,11.3c0,14.3,11.6,25.9,25.9,25.9
		c14.3,0,25.9-11.6,25.9-25.9c0-3.9-0.9-7.6-2.4-10.9c-0.4,0.1-0.8,0.2-1.2,0.2H63.6z"/>
	<path class="st0" d="M107.2,52.6v-3.8c0-2.8-2.2-4.8-4.7-4.4c-4.8,0.9-12-0.3-15.3-2.9c-1.1-0.9-2.7-0.9-3.9-0.2
		c-3.8,2.3-11.6,3.4-16.6,2.5c-2.4-0.4-4.5,1.7-4.5,4.4v4.3H107.2z M89.5,45c0,3.9-2.1,7.2-4.7,7.2S80,48.9,80,45H89.5z"/>
	<polygon class="st0" points="107.2,56.2 62.3,56.2 59.3,56.2 63.6,61.6 107,61.6 110.1,56.2 	"/>
</g>
</svg>
