<?xml version="1.0" encoding="utf-8"?>
<!-- Generator: Adobe Illustrator 19.0.1, SVG Export Plug-In . SVG Version: 6.00 Build 0)  -->
<svg version="1.1" id="Layer_1" xmlns="http://www.w3.org/2000/svg" xmlns:xlink="http://www.w3.org/1999/xlink" x="0px" y="0px"
	 viewBox="0 0 210.6 210.6" style="enable-background:new 0 0 210.6 210.6;" xml:space="preserve">
<style type="text/css">
	.st0{fill:#AC0033;}
</style>
<g>
	<path class="st0" d="M154.3,26.6c-13.2,0-23.8,10.7-23.8,23.8s10.7,23.8,23.8,23.8c13.2,0,23.8-10.7,23.8-23.8
		S167.5,26.6,154.3,26.6z M167.3,39l-13.8,19.4c-0.3,0.4,0,0.9,0.4,0.9l8.6,1.2c0.3,0,0.6-0.1,0.6-0.4l1.7-4.9
		c0.2-0.6,1.1-0.5,1.2,0.2l0.6,6.6c0,0.4-0.3,0.7-0.6,0.6l-8.4-0.3c-0.3,0-0.6,0.3-0.6,0.6v2.5c0,0.3-0.3,0.6-0.6,0.6h-1.1
		c-0.3,0-0.6-0.2-0.6-0.5l-0.2-2.8c0-0.3-0.3-0.5-0.6-0.5l-11.3-0.4c-0.5,0-0.8-0.6-0.4-1l15.4-19.2c0.3-0.4,0-1-0.5-1l-11.7,0.8
		c-0.3,0-0.5,0.2-0.5,0.5l-0.8,4.9c-0.1,0.6-1,0.7-1.2,0.1l-1.7-6.9c-0.1-0.4,0.2-0.7,0.6-0.7l10-0.5c0.3,0,0.6-0.3,0.6-0.6
		l-0.4-4.5c0-0.3,0.2-0.6,0.6-0.6h3.8c0.3,0,0.6,0.3,0.6,0.6v4.3c0,0.3,0.3,0.6,0.6,0.6l9.2-0.5C167.3,38,167.6,38.6,167.3,39z"/>
	<path class="st0" d="M144.9,100.8c4.3-4.7,3.4-11.7-2.1-15c-3-1.8-6-1.7-9.1-0.7c-7.8,2.5-15.6,5-23.4,7.4
		c-0.9,0.3-1.8,0.4-2.8,0.5c-1.7,0.1-2.3-0.6-2.6-2.6c0-0.3,0-0.6,0-0.8c0-4.2,0.1-8.4,0.2-12.6c0-5.8-0.3-11.6-2.5-17.1
		c-1.9-4.7-5.3-7.6-10.4-8.4c-3.8-0.6-5.8,1.2-5.7,5c0.2,3.3,0.4,6.6,0.9,9.8c0.8,5.8,0.4,11.4-2,16.8c-2,4.4-3.6,8.9-4.7,13.6
		c-1,4.5-2.3,8.9-3.6,13.3c-1,3.2-2.9,5.9-5.5,8c-0.3,0.2-0.5,0.4-0.8,0.6c-2.3,1.8-3.4,4.8-2.5,7.6c2.9,9.2,9.2,29.2,12,38.2
		c0.8,2.5,3.4,4,6,3.5c2.1-0.4,4.4-0.9,5.9-1c8-0.7,15.9-2.1,23.7-4.2c7.4-2,14.8-4.3,22.1-6.5c4.3-1.3,8.6-2.7,12.9-4.2
		c3.2-1.1,5-3.8,4.8-7.1c-0.3-3.2-2.6-5.6-5.9-6.1c-0.2,0-0.5-0.1-0.7-0.2c5.5-1.4,9.8-4,9.6-10.4c-0.2-5.3-3.5-8.2-8.7-9
		c3.9-4.2,4.9-7.4,3.4-11.1c-1.7-4.2-5-6.1-9.8-6.1C144.1,101.6,144.5,101.3,144.9,100.8z"/>
	<path class="st0" d="M77,170.8l-14.6-46.4c-0.7-2.3-3.2-3.6-5.5-2.9l-24.5,7.7L49.7,184l24.5-7.7C76.5,175.6,77.8,173.1,77,170.8z"
		/>
</g>
</svg>
