<?xml version="1.0" encoding="utf-8"?>
<!-- Generator: Adobe Illustrator 19.0.1, SVG Export Plug-In . SVG Version: 6.00 Build 0)  -->
<svg version="1.1" id="Layer_1" xmlns="http://www.w3.org/2000/svg" xmlns:xlink="http://www.w3.org/1999/xlink" x="0px" y="0px"
	 viewBox="0 0 210.6 210.6" style="enable-background:new 0 0 210.6 210.6;" xml:space="preserve">
<style type="text/css">
	.st0{fill:#AC0033;}
</style>
<g>
	<path class="st0" d="M73.5,37.1c-3.8,0-6.8,3-6.8,6.8v8.5H51.2c-6.8,0-12.3,5.5-12.3,12.3v96.5c0,6.8,5.5,12.3,12.3,12.3h108.2
		c6.8,0,12.3-5.5,12.3-12.3V64.7c0-6.8-5.5-12.3-12.3-12.3h-15.5v-8.5c0-3.8-3-6.8-6.8-6.8s-6.8,3-6.8,6.8v8.5h-50v-8.5
		C80.3,40.2,77.3,37.1,73.5,37.1z M155.1,70.4c3,0,5.3,2.4,5.3,5.3v80.6c0,3-2.4,5.3-5.3,5.3H55.5c-3,0-5.3-2.4-5.3-5.3V75.8
		c0-3,2.4-5.3,5.3-5.3H155.1z"/>
	<path class="st0" d="M108.3,129.6c1.5,1.5,1.5,1.4,1.1,3.5c-0.3,1.7-0.6,3.3-0.8,4.9c-0.1,2.1,1.9,3.3,3.7,2.4
		c1.8-0.9,3.5-1.8,5.3-2.8c0.5-0.3,0.8-0.3,1.3,0c1.7,1,3.5,1.9,5.3,2.8c1.1,0.6,2.3,0.4,3.1-0.5c0.7-0.8,0.7-1.6,0.5-2.6
		c-0.4-1.9-0.7-3.8-1-5.8c0-0.2,0.1-0.5,0.2-0.7c1.5-1.5,2.9-3,4.4-4.4c0.8-0.7,1.1-1.6,0.8-2.6c-0.3-1-1.1-1.6-2.1-1.7
		c-1.8-0.3-3.6-0.6-5.4-0.8c-1-0.1-1.4-0.5-1.8-1.4c-0.8-1.7-1.7-3.4-2.6-5.1c-0.6-1.1-1.8-1.4-2.9-1c-0.9,0.3-1.3,1-1.7,1.7
		c-0.8,1.6-1.6,3.1-2.3,4.7c-0.3,0.6-0.7,1.1-1.4,1c-0.3,0-0.7,0.1-1,0.1c-1.7,0.3-3.4,0.4-5.1,0.8c-1.8,0.4-2.4,2.7-1.1,4
		C106,127.3,107.2,128.5,108.3,129.6z"/>
	<path class="st0" d="M89.5,87.8h5.9c1.1,0,2-0.9,2-2v-1.2c0-1.1-0.9-2-2-2h-5.9c-1.1,0-2,0.9-2,2v1.2
		C87.5,86.9,88.4,87.8,89.5,87.8z"/>
	<path class="st0" d="M115.2,87.8h5.9c1.1,0,2-0.9,2-2v-1.2c0-1.1-0.9-2-2-2h-5.9c-1.1,0-2,0.9-2,2v1.2
		C113.2,86.9,114.1,87.8,115.2,87.8z"/>
	<path class="st0" d="M141,87.8h5.9c1.1,0,2-0.9,2-2v-1.2c0-1.1-0.9-2-2-2H141c-1.1,0-2,0.9-2,2v1.2C139,86.9,139.9,87.8,141,87.8z"
		/>
	<path class="st0" d="M89.5,108.8h5.9c1.1,0,2-0.9,2-2v-1.2c0-1.1-0.9-2-2-2h-5.9c-1.1,0-2,0.9-2,2v1.2
		C87.5,107.9,88.4,108.8,89.5,108.8z"/>
	<path class="st0" d="M63.8,108.8h5.9c1.1,0,2-0.9,2-2v-1.2c0-1.1-0.9-2-2-2h-5.9c-1.1,0-2,0.9-2,2v1.2
		C61.8,107.9,62.7,108.8,63.8,108.8z"/>
	<path class="st0" d="M115.2,108.8h5.9c1.1,0,2-0.9,2-2v-1.2c0-1.1-0.9-2-2-2h-5.9c-1.1,0-2,0.9-2,2v1.2
		C113.2,107.9,114.1,108.8,115.2,108.8z"/>
	<path class="st0" d="M141,108.8h5.9c1.1,0,2-0.9,2-2v-1.2c0-1.1-0.9-2-2-2H141c-1.1,0-2,0.9-2,2v1.2
		C139,107.9,139.9,108.8,141,108.8z"/>
	<path class="st0" d="M89.5,129.7h5.9c1.1,0,2-0.9,2-2v-1.2c0-1.1-0.9-2-2-2h-5.9c-1.1,0-2,0.9-2,2v1.2
		C87.5,128.8,88.4,129.7,89.5,129.7z"/>
	<path class="st0" d="M63.8,129.7h5.9c1.1,0,2-0.9,2-2v-1.2c0-1.1-0.9-2-2-2h-5.9c-1.1,0-2,0.9-2,2v1.2
		C61.8,128.8,62.7,129.7,63.8,129.7z"/>
	<path class="st0" d="M141,129.7h5.9c1.1,0,2-0.9,2-2v-1.2c0-1.1-0.9-2-2-2H141c-1.1,0-2,0.9-2,2v1.2
		C139,128.8,139.9,129.7,141,129.7z"/>
	<path class="st0" d="M89.5,150.7h5.9c1.1,0,2-0.9,2-2v-1.2c0-1.1-0.9-2-2-2h-5.9c-1.1,0-2,0.9-2,2v1.2
		C87.5,149.8,88.4,150.7,89.5,150.7z"/>
	<path class="st0" d="M63.8,150.7h5.9c1.1,0,2-0.9,2-2v-1.2c0-1.1-0.9-2-2-2h-5.9c-1.1,0-2,0.9-2,2v1.2
		C61.8,149.8,62.7,150.7,63.8,150.7z"/>
	<path class="st0" d="M121.1,145.5h-5.9c-1.1,0-2,0.9-2,2v1.2c0,1.1,0.9,2,2,2h5.9c1.1,0,2-0.9,2-2v-1.2
		C123.1,146.4,122.2,145.5,121.1,145.5z"/>
	<path class="st0" d="M141,150.7h5.9c1.1,0,2-0.9,2-2v-1.2c0-1.1-0.9-2-2-2H141c-1.1,0-2,0.9-2,2v1.2
		C139,149.8,139.9,150.7,141,150.7z"/>
</g>
</svg>
