<?xml version="1.0" encoding="utf-8"?>
<!-- Generator: Adobe Illustrator 19.0.1, SVG Export Plug-In . SVG Version: 6.00 Build 0)  -->
<svg version="1.1" id="Layer_1" xmlns="http://www.w3.org/2000/svg" xmlns:xlink="http://www.w3.org/1999/xlink" x="0px" y="0px"
	 viewBox="0 0 210.6 210.6" style="enable-background:new 0 0 210.6 210.6;" xml:space="preserve">
<style type="text/css">
	.st0{fill:#AC0033;}
</style>
<g>
	<path class="st0" d="M63.6,142.7c0-3.9-1.1-7.6-3-10.8l7.7-6.2c8.1,11.7,21.6,19.3,36.8,19.3c9.2,0,17.7-2.8,24.8-7.5l21.2,18.5
		c-2.2,3.3-3.5,7.2-3.5,11.5c0,11.5,9.3,20.7,20.7,20.7s20.7-9.3,20.7-20.7c0-11.5-9.3-20.7-20.7-20.7c-5.3,0-10.1,2-13.7,5.2
		l-20.4-17.8c9.6-8.2,15.6-20.4,15.6-34c0-11.8-4.5-22.4-11.9-30.4l15.7-12.6c3.7,3.6,8.8,5.8,14.4,5.8c11.5,0,20.7-9.3,20.7-20.7
		s-9.3-20.7-20.7-20.7c-11.5,0-20.7,9.3-20.7,20.7c0,3.9,1.1,7.6,3,10.7L134.2,66c-7.8-6.6-17.9-10.7-29-10.7
		c-15.8,0-29.7,8.2-37.7,20.6l-8.1-7.1c2.2-3.3,3.5-7.2,3.5-11.5c0-11.5-9.3-20.7-20.7-20.7s-20.7,9.3-20.7,20.7s9.3,20.7,20.7,20.7
		c5.3,0,10.1-2,13.7-5.2l9,7.8c-2.8,5.9-4.4,12.5-4.4,19.5c0,7.6,1.9,14.7,5.2,20.9l-8.3,6.6c-3.7-3.6-8.8-5.8-14.3-5.8
		c-11.5,0-20.7,9.3-20.7,20.7c0,11.5,9.3,20.7,20.7,20.7S63.6,154.2,63.6,142.7z M172.4,164.3c3.4,0.9,6.8-2.1,8.5-4.3
		c0.2-0.3,0.7-0.1,0.6,0.3c-1.3,6.3-1.3,11.4-0.9,13.9c0,0.1,0,0.2-0.1,0.3c-0.9,1-4.5,3.1-8.1,2.7l0,0c-1.2-0.1-2.4-0.6-3.5-1.5
		c-0.3-0.2-0.6-0.4-0.9-0.6l2.3-0.4l-2.8-0.5c-0.2,0-0.3-0.2-0.3-0.3l-0.6-4.5c0-0.1,0-0.2,0.1-0.3l1.3-1.1c0.1-0.1,0.3-0.1,0.5,0
		l5.5,5c0.2,0.2,0.2,0.4-0.1,0.6l-1.8,1.1l7.8-1.3l-2.9-0.5c-0.1,0-0.1,0-0.2-0.1l-6.4-6.2c-0.1-0.1-0.1-0.4,0-0.5l1.7-1.6
		C172.2,164.3,172.3,164.2,172.4,164.3z M168.6,161.2c0.5,0.7,1.1,1.3,1.6,1.8c0.2,0.3,0.5,0.5,0.8,0.6c0.1,0.1,0.3,0.2,0.4,0.2
		l-4.4,4c-0.2,0.2-0.6,0.1-0.6-0.2l-0.6-5.4c0-0.1,0.1-0.3,0.2-0.4l2.1-1.2l-8.2,1.3l2.9,0.7c0.1,0,0.2,0.1,0.3,0.3l2.3,11.4
		c-0.3,0-0.6,0-0.9,0.1l-0.1,0l-0.1,0l-0.1,0l-0.1,0l-0.1,0c-2,0.5-3.7,1.7-4.5,2.4c-0.2,0.2-0.5,0-0.6-0.2
		c-1.1-8.6-2.3-13.6-3.5-15.1c-0.1-0.1-0.1-0.3,0-0.5C157,159.9,163.7,154.4,168.6,161.2z M39.2,57.5l-0.6-5.4
		c0-0.1,0.1-0.3,0.2-0.4l2.1-1.2l-8.2,1.3l2.9,0.7c0.1,0,0.2,0.1,0.3,0.3l2.3,11.4c-0.3,0-0.6,0-0.9,0.1l-0.1,0l-0.1,0l-0.1,0
		l-0.1,0l-0.1,0c-2,0.5-3.7,1.7-4.5,2.4c-0.2,0.2-0.5,0-0.6-0.2C30.7,58,29.5,53,28.3,51.5c-0.1-0.1-0.1-0.3,0-0.5
		c1.4-1.3,8.1-6.8,13,0.1c0.5,0.7,1.1,1.3,1.6,1.8c0.2,0.3,0.5,0.5,0.8,0.6c0.1,0.1,0.3,0.2,0.4,0.2l-4.4,4
		C39.6,57.9,39.2,57.8,39.2,57.5z M45.3,67L45.3,67c-1.3-0.1-2.5-0.6-3.6-1.5c-0.3-0.2-0.6-0.4-0.9-0.6l2.3-0.4L40.3,64
		c-0.2,0-0.3-0.2-0.3-0.3l-0.6-4.5c0-0.1,0-0.2,0.1-0.3l1.3-1.1c0.1-0.1,0.3-0.1,0.5,0l5.5,5c0.2,0.2,0.2,0.4-0.1,0.6l-1.8,1.1
		l7.8-1.3l-2.9-0.5c-0.1,0-0.1,0-0.2-0.1l-6.4-6.2c-0.1-0.1-0.1-0.4,0-0.5l1.7-1.6c0.1-0.1,0.2-0.1,0.3-0.1c3.4,0.9,6.8-2.1,8.5-4.3
		c0.2-0.3,0.7-0.1,0.6,0.3C53,56.4,53,61.5,53.4,64c0,0.1,0,0.2-0.1,0.3C52.4,65.3,48.8,67.4,45.3,67z M92.1,121.8l-1.3-1.1
		c1.1-4.2,7.9-5.9,7.9-5.9C94.2,117.2,92,119.5,92.1,121.8z M102.8,102.7l3.4-2.9l12.3,11.3l-4.5,2.8l15.9-2.6l-6.1-1l-13.8-13.4
		l4.3-4.2c9.3,2.8,18.5-8.6,19.9-12c-3.5,15-3.6,27.1-2.7,32.6c-1.4,1.9-9.1,6.6-16.6,5.8l-0.1,0c-2.5-0.3-5-1.2-7.2-3.1
		c-0.6-0.5-1.2-0.9-1.8-1.3l4.7-0.8l-6.2-1.1L102.8,102.7z M127.8,81.3l1.6,0.7c0.2,4.3-5.8,8.1-5.8,8.1
		C127.1,86.4,128.5,83.4,127.8,81.3z M116.5,120.8c8,1.6,16.4-4.7,17.8-6.9c0,0-3.3-10.5-1.1-23.9c-0.5,13.4,2.2,21.3,4,23.4
		C135.7,115.8,125,124,116.5,120.8z M172.4,39c3.4,0.9,6.8-2.1,8.5-4.3c0.2-0.3,0.7-0.1,0.6,0.3c-1.3,6.3-1.3,11.4-0.9,13.9
		c0,0.1,0,0.2-0.1,0.3c-0.9,1-4.5,3.1-8.1,2.7l0,0c-1.2-0.1-2.4-0.6-3.5-1.5c-0.3-0.2-0.6-0.4-0.9-0.6l2.3-0.4l-2.8-0.5
		c-0.2,0-0.3-0.2-0.3-0.3l-0.6-4.5c0-0.1,0-0.2,0.1-0.3l1.3-1.1c0.1-0.1,0.3-0.1,0.5,0l5.5,5c0.2,0.2,0.2,0.4-0.1,0.6l-1.8,1.1
		l7.8-1.3l-2.9-0.5c-0.1,0-0.1,0-0.2-0.1l-6.4-6.2c-0.1-0.1-0.1-0.4,0-0.5l1.7-1.6C172.2,39,172.3,38.9,172.4,39z M155.6,36.4
		c-0.1-0.1-0.1-0.3,0-0.5c1.4-1.3,8.1-6.8,13,0.1c0.5,0.7,1.1,1.3,1.6,1.8c0.2,0.3,0.5,0.5,0.8,0.6c0.1,0.1,0.3,0.2,0.4,0.2l-4.4,4
		c-0.2,0.2-0.6,0.1-0.6-0.2l-0.6-5.4c0-0.1,0.1-0.3,0.2-0.4l2.1-1.2l-8.2,1.3l2.9,0.7c0.1,0,0.2,0.1,0.3,0.3l2.3,11.4
		c-0.3,0-0.6,0-0.9,0.1l-0.1,0l-0.1,0l-0.1,0l-0.1,0l-0.1,0c-2,0.5-3.7,1.7-4.5,2.4c-0.2,0.2-0.5,0-0.6-0.2
		C157.9,42.9,156.8,37.8,155.6,36.4z M106.8,86.6c1.1,1.5,2.2,2.7,3.3,3.7c0.5,0.5,1.1,0.9,1.6,1.3c0.3,0.2,0.6,0.3,0.9,0.5
		l-9.9,9.1l-1.6-12.8l4.7-2.7L89,88.2l6.4,1.5l4.7,23.8c-0.6,0-1.2,0.1-1.8,0.2l-0.1,0l-0.1,0l-0.2,0l-0.1,0l-0.1,0
		c-5.7,1.4-10.2,5.8-10.2,5.8c-2.5-19.4-5-30.3-7.7-32.6C79.8,87,95.8,70.9,106.8,86.6z M73.3,87c0,0,8.8-10.5,20.5-8
		c-7.6-0.3-13.5,3.1-16.8,7.8c3,2.3,6.4,9.7,7.9,22.2C81.2,94.8,76.9,89.3,73.3,87z M40.8,142.9l-0.6-5.4c0-0.1,0.1-0.3,0.2-0.4
		l2.1-1.2l-8.2,1.3l2.9,0.7c0.1,0,0.2,0.1,0.3,0.3l2.3,11.4c-0.3,0-0.6,0-0.9,0.1l-0.1,0l-0.1,0l-0.1,0l-0.1,0l-0.1,0
		c-2,0.5-3.7,1.7-4.5,2.4c-0.2,0.2-0.5,0-0.6-0.2c-1.1-8.6-2.3-13.6-3.5-15.1c-0.1-0.1-0.1-0.3,0-0.5c1.4-1.3,8.1-6.8,13,0.1
		c0.5,0.7,1.1,1.3,1.6,1.8c0.2,0.3,0.5,0.5,0.8,0.6c0.1,0.1,0.3,0.2,0.4,0.2l-4.4,4C41.2,143.3,40.9,143.1,40.8,142.9z M41.9,149.4
		c-0.2,0-0.3-0.2-0.3-0.3l-0.6-4.5c0-0.1,0-0.2,0.1-0.3l1.3-1.1c0.1-0.1,0.3-0.1,0.5,0l5.5,5c0.2,0.2,0.2,0.4-0.1,0.6l-1.8,1.1
		l7.8-1.3l-2.9-0.5c-0.1,0-0.1,0-0.2-0.1l-6.4-6.2c-0.1-0.1-0.1-0.4,0-0.5l1.7-1.6c0.1-0.1,0.2-0.1,0.3-0.1c3.4,0.9,6.8-2.1,8.5-4.3
		c0.2-0.3,0.7-0.1,0.6,0.3c-1.3,6.3-1.3,11.4-0.9,13.9c0,0.1,0,0.2-0.1,0.3c-0.9,1-4.5,3.1-8.1,2.7l0,0c-1.2-0.1-2.4-0.6-3.5-1.5
		c-0.3-0.2-0.6-0.4-0.9-0.6l2.3-0.4L41.9,149.4z"/>
</g>
</svg>
