<?xml version="1.0" encoding="utf-8"?>
<!-- Generator: Adobe Illustrator 19.0.1, SVG Export Plug-In . SVG Version: 6.00 Build 0)  -->
<svg version="1.1" id="Layer_1" xmlns="http://www.w3.org/2000/svg" xmlns:xlink="http://www.w3.org/1999/xlink" x="0px" y="0px"
	 viewBox="0 0 210.6 210.6" style="enable-background:new 0 0 210.6 210.6;" xml:space="preserve">
<style type="text/css">
	.st0{fill:none;}
	.st1{fill:#AC0033;}
</style>
<g>
	<path class="st0" d="M91.8,125.5l1.2,1c0-2,2-4.1,6.2-6.3C99.2,120.2,92.8,121.7,91.8,125.5z"/>
	<path class="st0" d="M78.9,95.1c3.1-4.2,8.6-7.2,15.7-7c-11-2.3-19.2,7.2-19.2,7.2c3.4,2.1,7.4,7,10.9,19.8
		C84.9,103.8,81.7,97.1,78.9,95.1z"/>
	<path class="st0" d="M111.4,99.3c-0.5-0.3-1-0.7-1.5-1.1c-1-0.8-2-1.9-3.1-3.3c-10.4-14.1-25.2,0.4-25.2,0.4
		c2.5,2.1,4.9,11.9,7.2,29.3c0,0,4.2-4,9.6-5.3l0.6-0.1c0.6-0.1,1.2-0.2,1.7-0.2l-4.4-21.4l-6-1.3l15.7-2.3l-4.4,2.4l1.4,11.5
		l9.3-8.2L111.4,99.3z"/>
	<path class="st0" d="M105.3,42.4c-34.8,0-62.9,28.2-62.9,62.9c0,34.8,28.2,62.9,62.9,62.9c34.7,0,62.9-28.2,62.9-62.9
		C168.2,70.6,140,42.4,105.3,42.4z M105.3,153.2c-26.5,0-47.9-21.4-47.9-48c0-26.5,21.4-47.9,47.9-47.9c26.5,0,47.9,21.4,47.9,47.9
		C153.2,131.8,131.8,153.2,105.3,153.2z"/>
	<path class="st0" d="M131.5,98c-2.1,12.1,1,21.5,1,21.5c-1.2,1.9-9.1,7.7-16.6,6.2c8,2.8,18-4.5,19.3-6.6
		C133.5,117.1,131,110,131.5,98z"/>
	<path class="st0" d="M129.9,118.9c-0.8-4.9-0.8-15.8,2.5-29.3c-1.3,3-10,13.2-18.6,10.7l-4,3.8l12.9,12l5.8,0.9l-14.9,2.3l4.2-2.5
		l-11.5-10.1l-3.2,2.6l1.3,9.1l5.9,1l-4.4,0.7c0.6,0.3,1.1,0.7,1.7,1.1c2.1,1.7,4.4,2.5,6.7,2.8l0,0
		C121.3,124.9,128.5,120.6,129.9,118.9z"/>
	<path class="st0" d="M127.9,90.7l-1.5-0.6c0.7,1.9-0.6,4.6-3.9,7.9C122.5,98,128.1,94.6,127.9,90.7z"/>
	<path class="st1" d="M105.3,34.4c-39.1,0-70.9,31.7-70.9,70.9c0,39.2,31.7,70.9,70.9,70.9s70.9-31.7,70.9-70.9
		C176.2,66.2,144.4,34.4,105.3,34.4z M105.3,168.2c-34.8,0-62.9-28.2-62.9-62.9c0-34.7,28.2-62.9,62.9-62.9
		c34.7,0,62.9,28.2,62.9,62.9C168.2,140.1,140,168.2,105.3,168.2z"/>
	<path class="st1" d="M105.3,57.4c-26.5,0-47.9,21.4-47.9,47.9c0,26.5,21.4,48,47.9,48c26.5,0,47.9-21.4,47.9-48
		C153.2,78.8,131.8,57.4,105.3,57.4z M126.4,90.1l1.5,0.6c0.2,3.9-5.4,7.3-5.4,7.3C125.8,94.7,127.1,92,126.4,90.1z M75.4,95.2
		c0,0,8.2-9.5,19.2-7.2c-7.1-0.2-12.6,2.8-15.7,7c2.8,2,6,8.7,7.4,20C82.8,102.3,78.8,97.3,75.4,95.2z M93,126.5l-1.2-1
		c1-3.8,7.4-5.3,7.4-5.3C95,122.4,93,124.5,93,126.5z M101.5,96.5l4.4-2.4l-15.7,2.3l6,1.3l4.4,21.4c-0.6,0-1.2,0.1-1.7,0.2
		l-0.6,0.1c-5.4,1.3-9.6,5.3-9.6,5.3c-2.3-17.5-4.7-27.2-7.2-29.3c0,0,14.9-14.5,25.2-0.4c1,1.3,2,2.4,3.1,3.3
		c0.5,0.5,1,0.8,1.5,1.1l0.8,0.4l-9.3,8.2L101.5,96.5z M114.3,124.1L114.3,124.1c-2.4-0.2-4.7-1.1-6.8-2.7c-0.6-0.4-1.1-0.8-1.7-1.1
		l4.4-0.7l-5.9-1l-1.3-9.1l3.2-2.6l11.5,10.1l-4.2,2.5l14.9-2.3l-5.8-0.9l-12.9-12l4-3.8c8.7,2.5,17.3-7.8,18.6-10.7
		c-3.3,13.5-3.3,24.4-2.5,29.3C128.5,120.6,121.3,124.9,114.3,124.1z M115.8,125.6c7.5,1.5,15.4-4.2,16.6-6.2c0,0-3.1-9.4-1-21.5
		c-0.5,12,2,19.2,3.7,21.1C133.9,121.1,123.8,128.5,115.8,125.6z"/>
</g>
</svg>
