<?xml version="1.0" encoding="utf-8"?>
<!-- Generator: Adobe Illustrator 19.0.1, SVG Export Plug-In . SVG Version: 6.00 Build 0)  -->
<svg version="1.1" id="Layer_1" xmlns="http://www.w3.org/2000/svg" xmlns:xlink="http://www.w3.org/1999/xlink" x="0px" y="0px"
	 viewBox="0 0 210.6 210.6" style="enable-background:new 0 0 210.6 210.6;" xml:space="preserve">
<style type="text/css">
	.st0{fill:#AC0033;}
</style>
<g>
	<path class="st0" d="M163.6,126.7c-1.4-0.1-2.8-0.2-4.2-0.2c-0.4,0-0.7,0-1.1,0c-2,1.4-3.9,2.9-5.9,4.3c-1,0.8-2.1,1.5-2.8,2.5
		c-0.8,1-1.2,2.4-0.8,3.6c0.1,0,0.3,0,0.4,0c2.2,0,4.3,1.4,5.1,3.4c0.2-0.1,0.5-0.1,0.8-0.1c1.2,0,2.4,0.7,3.2,1.7v21.8
		c0,3.4-2.8,6.2-6.2,6.2h-29.8c0.1,0.3,0.1,0.6,0.2,1l0.7,5.7h28.9c7.1,0,12.9-5.8,12.9-12.9v-21.8c0-1.6-0.6-3.1-1.6-4.3
		c-1.2-1.5-2.8-2.6-4.4-3.2l0.4-0.3l2.9-2.1c1.7-1.2,2.7-3.2,2.7-5.3c-0.3,0-0.6,0.1-0.9,0.1C163.9,126.7,163.7,126.7,163.6,126.7z"
		/>
	<path class="st0" d="M88.1,170.9c0.1-1.1,0.5-2.1,1-3c-1.4-0.2-2.8-0.7-4.1-0.7c-0.6,0-1.1,0.1-1.7,0.4c-1,0.5-1.6,1.4-2.2,2.4
		H52.3c-3.4,0-6.2-2.8-6.2-6.2v-2.2c0.1,0,0.1,0,0.2,0c1.1-0.3,2.1-1,2.4-2.1c0.4-1.8-1.4-3.3-2.6-4.8v-3.3c2.4-0.8,3.6-4.2,2.7-6.7
		c-0.5-1.5-1.5-2.7-2.7-3.8V85.3c1.1-0.8,2.1-1.7,2.6-3c0.7-1.9,0.1-4.1-0.6-6c-0.7-2-1.3-4-2-5.9v-1.5c0.3-1,1-2,2-2.4
		c-0.7-1.1-1.3-2.2-2-3.3v-1.3c2.2-0.3,4.1-2.2,4.5-4.4c0.5-2.5-0.6-5.1-2.4-6.9c-0.6-0.7-1.4-1.2-2.2-1.7v-9.2
		c0-3.4,2.8-6.2,6.2-6.2h10.4c0.6,0.7,1.4,1.2,2.4,1.4c0.3,0.1,0.6,0.1,0.9,0.1c1.3,0,2.5-0.6,3.7-1.5h16.2c1.6,1.2,3.6,2.2,5.4,2.2
		c0.9,0,1.7-0.2,2.4-0.7c0.6-0.4,1.1-0.9,1.5-1.5h8.8c0.8,0.6,1.7,1.1,2.6,1.4c0.4,0.1,0.8,0.2,1.2,0.2c1.3,0,2.7-0.6,3.6-1.6h33.2
		c0.2,0.2,0.4,0.3,0.6,0.5c0.6,0.5,1.2,1,2,1c0,0,0.1,0,0.1,0c1,0,1.8-0.8,2.5-1.4c0,0,0.1,0,0.1-0.1h2.3c3.4,0,6.2,2.8,6.2,6.2
		v27.3c-0.5,0.5-1,1-1.5,1.6c-2.1,2.3-3.8,5.7-2.2,8.5c1,1.8,3.3,3.1,3.7,4.9v1.3c-0.4,1.6-2.2,2.7-2.6,4.4
		c-0.3,1.3,0.4,2.7,1.4,3.6c0.4,0.3,0.7,0.6,1.2,0.8v7.9c2.2-1.2,4.4-2.3,6.7-3.4v-4.5c0-1.5-0.5-3-1.5-4.2c0.5-0.8,1-1.8,1.3-3
		c0.1-0.5,0.2-1.1,0.2-1.6v-1.3c0-0.6-0.1-1.2-0.2-1.7c-0.7-2.8-2.5-4.6-3.7-5.8c-0.1-0.1-0.1-0.1-0.2-0.2c0.2-0.3,0.5-0.7,0.9-1.2
		c0.4-0.4,0.8-0.9,1.3-1.3l0,0c1.2-1.3,1.9-2.9,1.9-4.7V39.6c0-7.1-5.8-12.9-12.9-12.9h-2.3c-0.9,0-1.8,0.2-2.6,0.5
		c-0.8-0.3-1.7-0.5-2.6-0.5h-33.2c-1.3,0-2.6,0.4-3.7,1.1c-1.1-0.7-2.4-1.1-3.7-1.1h-8.8c-1.7,0-3.4,0.7-4.6,1.9
		c-0.2-0.1-0.5-0.3-0.7-0.5c-1.2-0.9-2.6-1.4-4-1.4H69.7c-1.2,0-2.4,0.3-3.5,1c-1-0.6-2.2-1-3.5-1H52.3c-7.1,0-12.9,5.8-12.9,12.9
		v9.2c0,2.3,1.2,4.5,3.1,5.7c0.4,0.2,0.7,0.5,0.9,0.7c0.1,0.1,0.2,0.2,0.3,0.3c-2.6,1-4.3,3.4-4.3,6.3v1.3c0,1,0.2,1.9,0.6,2.8
		c-0.2,0.4-0.3,0.8-0.4,1.2c-0.1,0.5-0.2,1.1-0.2,1.7v1.5c0,0.7,0.1,1.4,0.3,2.1l1.2,3.5l0.8,2.4c0.1,0.3,0.3,1,0.5,1.5
		c0,0,0,0-0.1,0c-1.7,1.3-2.7,3.3-2.7,5.4v55.3c0,1.8,0.8,3.6,2.1,4.9c0.2,0.2,0.3,0.3,0.4,0.4c-1.6,1.2-2.5,3.2-2.5,5.3v3.3
		c0,1.2,0.3,2.4,1,3.5c-0.6,1-1,2.2-1,3.5v2.2c0,7.1,5.8,12.9,12.9,12.9h28.9c2,0,3.9-0.9,5.2-2.4c0.4,0.1,0.8,0.2,1.3,0.3
		L88.1,170.9z"/>
	<rect x="65.8" y="48.1" class="st0" width="72.9" height="10.5"/>
	<path class="st0" d="M66.6,105.8v2.5h78c0.2-0.2,0.5-0.3,0.7-0.5v-2H66.6z"/>
	<rect x="58.2" y="76.5" class="st0" width="87.1" height="2.5"/>
	<rect x="58.2" y="82.4" class="st0" width="87.1" height="2.5"/>
	<rect x="58.2" y="88.3" class="st0" width="87.1" height="2.5"/>
	<rect x="58.2" y="94.1" class="st0" width="87.1" height="2.5"/>
	<path class="st0" d="M58.2,113.4h79.8c1-0.9,2.1-1.7,3.2-2.5h-83V113.4z"/>
	<path class="st0" d="M58.2,119.2h73.2c0.2-0.2,0.5-0.5,0.7-0.7c0.7-0.6,1.4-1.2,2-1.8H58.2V119.2z"/>
	<rect x="58.2" y="122.6" class="st0" width="52.8" height="2.5"/>
	<path class="st0" d="M66.6,130.1h54.5c0.7-0.8,1.4-1.7,2.1-2.5H66.6V130.1z"/>
	<path class="st0" d="M58.2,136.2h58.1c0.6-0.8,1.3-1.7,1.9-2.5h-60V136.2z"/>
	<path class="st0" d="M145.3,133.7H143c-1.7,0.8-3.4,1.6-5.1,2.5h7.5V133.7z"/>
	<path class="st0" d="M58.2,142.3h53.9c0.6-0.8,1.1-1.7,1.7-2.5H58.2V142.3z"/>
	<path class="st0" d="M145.3,139.8h-13.4c-1.2,0.8-2.4,1.6-3.5,2.5h17V139.8z"/>
	<path class="st0" d="M145.3,145.8H124c-0.9,0.8-1.8,1.7-2.7,2.5h24.1V145.8z"/>
	<path class="st0" d="M58.2,148.3h50.2c0.5-0.8,1-1.7,1.5-2.5H58.2V148.3z"/>
	<path class="st0" d="M58.2,154.4h46.9c0.4-0.8,0.9-1.7,1.3-2.5H58.2V154.4z"/>
	<rect x="58.2" y="100" class="st0" width="68.7" height="2.5"/>
	<polygon class="st0" points="144.9,70.7 62.4,70.7 62.4,73.2 144.9,73.2 145.3,73.2 145.8,73.2 145.8,70.7 144.9,70.7 	"/>
	<path class="st0" d="M196.9,92.4c-0.5-1.5-2-2.5-3.6-2.5c-0.3,0-0.5,0-0.8,0.1c-21.8,4.7-42.2,15.3-58.5,30.5
		c-12.1,11.2-21.9,25-28.7,40h2.8c8.9-14.1,22.2-25,37.9-30.9c0-0.2-0.1-0.3-0.1-0.4c0,0,0-0.1,0-0.2c0,0,0,0,0-0.1c0,0,0-0.1,0-0.1
		c0,0,0-0.1,0-0.1s0,0,0,0.1c0,0,0,0,0,0c0-0.1-0.1-0.3-0.1-0.4c-2,0.1-4.1,0.3-6.1,0.4c0,0,0,0-0.1,0c-0.6,0-0.8-0.9-0.2-1.2
		c6.4-2.5,13.2-3.8,20-3.8c1.5,0,3,0.1,4.4,0.2c0.1,0,0.2,0,0.3,0c0.3,0,0.6,0,0.9-0.1c3.5-0.9,7.1-1.8,10.6-2.9
		c1-0.3,0.8-1.8-0.2-1.9c-5.1-0.5-10.2-0.8-15.3-0.8c-0.7,0-0.8-1-0.1-1.2c4.9-1.4,10-2.1,15-2.1c3.2,0,6.4,0.3,9.6,0.8
		c0.3,0,0.5,0.1,0.8,0.1c0.9,0,1.7-0.3,2.4-0.8c0.2-0.1,0.3-0.2,0.5-0.3C195.1,109.8,199.6,100.2,196.9,92.4z"/>
	<path class="st0" d="M145.8,129.1c0,0,0,0.1,0,0.1c0,0,0,0,0,0S145.9,129.2,145.8,129.1z"/>
	<path class="st0" d="M97,163.2c-1.1,0-2,0.9-2,2c0,0.6,0.3,1.1,0.7,1.5c-2.5,0.1-4.7,2-5,4.6l-2.3,17.4c-0.4,3.2,2,6,5.2,6h23.2
		c3.2,0,5.6-2.8,5.2-6l-2.3-17.4c-0.3-2.6-2.5-4.5-5-4.6c0.4-0.4,0.7-0.9,0.7-1.5c0-1.1-0.9-2-2-2H97z"/>
</g>
</svg>
