<?xml version="1.0" encoding="utf-8"?>
<!-- Generator: Adobe Illustrator 19.0.1, SVG Export Plug-In . SVG Version: 6.00 Build 0)  -->
<svg version="1.1" id="Layer_1" xmlns="http://www.w3.org/2000/svg" xmlns:xlink="http://www.w3.org/1999/xlink" x="0px" y="0px"
	 viewBox="0 0 210.6 210.6" style="enable-background:new 0 0 210.6 210.6;" xml:space="preserve">
<style type="text/css">
	.st0{fill:#AC0033;}
</style>
<g>
	<path class="st0" d="M165.9,111.2l-0.8-1.4c-1.8-3.2-3.7-6.6-5.5-10c-3.6-6.8-7.5-14.3-12.3-23.6c-0.3-0.5-0.6-1-1.2-1.2
		c-0.6-0.1-1.1,0.2-1.5,0.5c-2.8,2-5.9,2.2-9.2,0.5c-1.2-0.6-2.4-1.3-3.6-2.1c-2.7-2-5.6-3.6-8-4.9c-2.9-1.5-5.6-2.2-8.4-2
		c-2.6-0.1-5.3,0.5-7.9,1.8c-2.6,1.3-5.4,2.8-8,4.4c-8.3,5-16.1,10.9-23.6,16.6l-1.6,1.2c-2.4,1.8-3.2,4.5-2.4,7.8
		c0.6,2.5,2.3,4,4.8,4.2c2.6,0.3,4.8-0.7,6.6-1.6c7.3-3.8,14.5-7.7,21.5-11.3c3.5-1.9,4.3-1.7,6.9,1.1c4.6,5,9.3,10.2,13.8,15.2
		l1.5,1.7c3.2,3.5,6.3,7,9.5,10.5c4,4.5,8.1,8.9,12.1,13.4c0.7,0.8,1.2,1.3,1.8,1.3c0,0,0,0,0,0c0.6,0,1.1-0.5,1.9-1.3
		c3.5-3.5,8-8.2,12.5-12.9C167.4,116.4,167.6,114.3,165.9,111.2z"/>
	<path class="st0" d="M185.3,104.1l-0.1-0.1C181.1,96,177,88,172.9,80l-1.6-3.1c-2-3.8-3.9-7.6-5.9-11.4c-1.3-2.4-3-3.2-5.1-2.3
		c-2.8,1.2-5.7,2.7-8.6,4.4c-2,1.3-2.5,2.8-1.6,5.1c0.2,0.4,0.4,0.8,0.6,1.2l1,2c4.6,9,9.3,17.9,13.9,26.9c1.6,3.1,3.3,6.4,5.1,9.8
		c0.8,1.5,1.8,2.2,3.1,2.2c0.5,0,1.1-0.1,1.7-0.3c2.6-0.9,4.9-2.2,7.2-3.5c0.6-0.3,1.2-0.7,1.8-1c1.2-0.7,1.9-1.9,1.7-3.2
		C186.2,105.8,185.7,104.9,185.3,104.1z"/>
	<path class="st0" d="M32.7,114.8c0.7,0.2,1.3,0.4,1.9,0.4c1.5,0,2.6-0.8,3.5-2.4c0.2-0.4,0.4-0.8,0.5-1.3l2.3-6.1
		c1-2.6,2-5.3,2.9-7.9c1-2.8,2.1-5.6,3.1-8.4c2.2-6,4.5-12.1,6.7-18.2c1.1-3,0.5-4.4-2.6-5.6c-1.6-0.6-3.3-1.2-4.9-1.7l-1.5-0.5
		c-3.4-1.2-5-0.4-6.3,3l-3.3,8.7C31.6,84.4,28,94,24.5,103.6c-0.1,0.3-0.2,0.6-0.3,0.9c-0.5,1.2-1,2.5-1,4.4c0,1.8,0.7,2.7,2.7,3.5
		c1.7,0.7,3.4,1.3,5.1,1.9L32.7,114.8z"/>
	<path class="st0" d="M43,116.5l1.2,1.3c2.7,3,5.5,6.2,8.1,9.3l0.1,0.1c1,1.2,1.6,1.8,2.3,1.8c0,0,0,0,0.1,0c0.7,0,1.2-0.5,2.3-1.5
		l0.1-0.1c1.2-1.2,0.9-2.1,0-3c-1.4-1.4-2.7-2.9-4-4.4c-1.6-1.7-3.2-3.5-4.8-5.2c-1.2-1.2-1.4-2.4-0.6-4.2
		c2.9-7.1,5.5-14.3,8.1-21.3c1.6-4.3,3.2-8.7,4.9-13c0.1-0.4,0.3-0.8,0.4-1c0.2,0.1,0.5,0.4,0.8,0.5c4,3,8.5,3.7,13.4,2.1
		c2.5-0.8,4.8-2.1,7-3.3c0.6-0.4,1.3-0.7,1.9-1.1c4.2-2.3,7.7-3,11.3-2.2c1.4,0.3,2.7-0.1,4.1-1.1c0.6-0.4,0.9-0.9,0.8-1.3
		c0-0.7-0.6-1.1-0.8-1.3c-2.6-1.8-5.4-2.5-8.4-2.2c-3.1,0.3-5.8,1.6-8.1,2.7l-1.8,1c-2.1,1.1-4.3,2.3-6.5,3.3
		c-4.3,2.1-7.9,1.4-10.9-2c-0.8-0.9-1.9-1.4-3.2-1.3c-2.7,0.2-3.7,2.2-4.4,4c-4.7,12.4-9.3,24.7-14,37.1l-0.1,0.3
		c-0.3,0.8-0.7,1.7-0.5,2.7C41.5,114.6,42.2,115.6,43,116.5z"/>
	<path class="st0" d="M113.5,163.7c0.6,0,1.3,0,1.9,0.1c0.7,0,1.4,0.1,2,0.1c1,0,2-0.1,3-0.5c4-1.4,5.4-4.8,6.1-7.3
		c0.1-0.4,0.3-0.9,0.5-1c0.2-0.1,0.5,0,1,0.1c4.1,1.4,6.9,0.5,9.6-3.1c0.9-1.2,1.8-2.4,2.5-3.7c1-1.8,1.7-2.2,2.8-1.8
		c0.1,0,0.1,0,0.2,0c0.3,0,0.5,0,0.7,0c0.4,0,0.8,0,1.1,0c2.9-0.2,5.7-1.6,7.3-3.7c1.4-1.9,2-4.2,1.5-6.8c-0.1-0.5-0.2-1-0.7-1.2
		c-0.5-0.2-0.9,0.1-1.3,0.4c-1.5,1.1-2.7,2.6-3.8,4l-0.2,0.3c-1.9,2.4-3.9,2.7-6.4,0.9c-0.8-0.6-1.5-1.3-2.3-2.1c-1.8-2-3.6-4-5.3-6
		c-1.6-1.8-3.2-3.6-4.8-5.4c-0.4-0.5-0.9-1-1.4-1.5c-0.5-0.5-1-1.1-1.5-1.7c-1-1.1-2.4-1.1-3.3-1c-1,0.1-1,1.1-1.1,1.6
		c0,0.2,0,0.4-0.1,0.6c-0.6,1.6,0.4,2.7,1.2,3.5l1.6,1.8c3.1,3.4,6.3,6.9,9.4,10.4c1.8,2.1,2.2,4.7,1,7c-0.7,1.4-1.7,2.2-3,2.6
		c-1.2,0.3-2.5,0-3.8-0.8c-1-0.7-1.8-1.6-2.6-2.5l-4-4.4c-2.5-2.8-5-5.6-7.6-8.4c-0.8-0.9-1.9-1.2-2.9-1.4c-0.8-0.2-1.2,0.3-1.3,0.6
		c-0.6,1.2-0.3,3.8,0.6,4.8c1.4,1.6,2.9,3.3,4.3,4.9c1.9,2.2,3.8,4.3,5.7,6.5c2.7,3,1.1,6.9-0.8,8.6c-0.6,0.6-1.4,0.8-2.1,0.8
		c-2.7-0.2-4.2,0.9-4.9,3.5c-0.1,0.3-0.2,0.7,0.1,1C112.9,163.6,113.2,163.7,113.5,163.7z"/>
	<path class="st0" d="M86.4,160c0.1,0,0.2,0,0.4,0c1.1,0,2.3-0.5,3.4-1.4c4.2-3.5,8.6-7.2,12.4-11.4c2-2.3,3.6-4.8,1.8-8.3
		c-1-2-2.8-3.4-4.7-3.7c-1.8-0.3-3.7,0.2-5.1,1.5l-1.2,1c-3.5,3.1-7.2,6.3-10.6,9.7c-1.5,1.4-2.3,3.2-2.6,5.2
		c-0.2,1.8,0.4,3.7,1.7,5.2C83.2,159.2,84.8,160,86.4,160z"/>
	<path class="st0" d="M75.9,150c0.1,0,0.1,0,0.2,0c1.3,0,2.9-1.2,3.5-1.7c3.5-2.9,6.6-5.6,9.5-8.8c2.8-3.1,3.2-5.9,1.5-9
		c-0.8-1.4-2.3-2.5-4.2-2.8c-1.7-0.4-3.3-0.1-4.5,0.8c-4.1,3-7.9,6.5-11.3,10.3c-1.8,2-2,4.7-0.7,7.5C71.1,148.7,73,149.9,75.9,150z
		"/>
	<path class="st0" d="M101.4,167.6c0.1,0,0.2,0,0.3,0c1,0,2.2-0.5,3.2-1.4c2.8-2.5,5.4-5,7.3-8.4c1.6-3,0.5-5.2-0.5-6.8
		c-1.1-1.6-2.5-2.6-4.1-2.8c-1.5-0.2-3,0.3-4.3,1.4c-2.9,2.5-5.4,5.2-7.5,8.4c-1.3,1.9-1.3,3.9-0.1,6.1
		C96.5,165.6,98,167.6,101.4,167.6z"/>
	<path class="st0" d="M58.9,141c1,0.7,2.1,1,3.2,1c0.5,0,0.9-0.1,1.4-0.2c3.3-1,5.7-3.1,7-6.3c1.1-2.7,0.2-5.9-2.1-7.5
		c-2.3-1.6-4.4-2.6-7.4-0.2c-0.3,0.2-0.6,0.4-0.9,0.6c-0.3,0.2-0.6,0.4-0.8,0.6c-2.2,1.7-3.2,3.7-3,6.4c0,0.1,0,0.4,0,0.7
		C56.3,138,57.3,139.8,58.9,141z"/>
</g>
</svg>
