<?xml version="1.0" encoding="utf-8"?>
<!-- Generator: Adobe Illustrator 19.0.1, SVG Export Plug-In . SVG Version: 6.00 Build 0)  -->
<svg version="1.1" id="Layer_1" xmlns="http://www.w3.org/2000/svg" xmlns:xlink="http://www.w3.org/1999/xlink" x="0px" y="0px"
	 viewBox="0 0 210.6 210.6" style="enable-background:new 0 0 210.6 210.6;" xml:space="preserve">
<style type="text/css">
	.st0{fill:none;}
	.st1{fill:#AC0033;}
</style>
<g>
	<path class="st0" d="M69.3,126c-6.5,0-11.7,5.4-11.7,12.1c0,6.7,5.2,12.1,11.7,12.1c6.4,0,11.7-5.4,11.7-12.1
		C81,131.4,75.7,126,69.3,126z"/>
	<path class="st0" d="M145.6,126.4c-6.5,0-11.7,5.4-11.7,12.1c0,6.7,5.2,12.1,11.7,12.1c6.4,0,11.7-5.4,11.7-12.1
		C157.3,131.8,152.1,126.4,145.6,126.4z"/>
	<path class="st0" d="M107.9,106.2l3.6-3.3c-0.1-0.1-0.2-0.1-0.4-0.2c-0.2-0.1-0.5-0.3-0.7-0.5c-0.5-0.4-0.9-0.9-1.3-1.5
		c-4-5.7-9.7-1.1-10.8,0c-0.1,0.1-0.1,0.3,0,0.4c1,1.2,2,5.5,2.9,12.6c0,0.2,0.3,0.4,0.5,0.2c0.7-0.6,2.1-1.6,3.8-2l0.1,0l0.1,0
		l0.1,0l0.1,0l0.1,0c0.2,0,0.5-0.1,0.8-0.1l-1.9-9.6c0-0.1-0.1-0.2-0.2-0.2l-2.4-0.6l6.9-1l-1.8,1c-0.1,0.1-0.2,0.2-0.2,0.3l0.5,4.5
		C107.4,106.2,107.7,106.4,107.9,106.2z"/>
	<path class="st0" d="M37.6,110h48.3c1.2,0,2.1-0.9,2.1-2.1v-4.5c0-1.2-0.9-2.1-2.1-2.1H37.6c-1.2,0-2.1,0.9-2.1,2.1v4.5
		C35.5,109.1,36.4,110,37.6,110z"/>
	<path class="st0" d="M119.5,99.6c-1.4,1.8-4.3,4.3-7.1,3.6c-0.1,0-0.2,0-0.3,0.1l-1.4,1.4c-0.1,0.1-0.1,0.3,0,0.4l5.4,5.2
		c0,0,0.1,0.1,0.2,0.1l2.4,0.4l-6.5,1.1l1.5-0.9c0.2-0.1,0.2-0.3,0-0.5l-4.6-4.2c-0.1-0.1-0.3-0.1-0.4,0l-1,0.9
		c-0.1,0.1-0.1,0.2-0.1,0.3l0.5,3.8c0,0.1,0.1,0.2,0.2,0.3l2.3,0.4l-1.9,0.3c0.2,0.1,0.5,0.3,0.7,0.5c0.9,0.8,1.9,1.1,3,1.3l0,0
		c2.9,0.3,6-1.4,6.7-2.3c0.1-0.1,0.1-0.1,0.1-0.2c-0.3-2.1-0.3-6.3,0.8-11.6C120.1,99.5,119.7,99.3,119.5,99.6z"/>
	<path class="st0" d="M77.3,94.4l62.1,0.2c1.8,0,3.2-1.7,2.7-3.5c-2.5-9.9-5.1-18-6.4-22.1c-0.6-1.8-2.2-3-4.1-3h-31.1
		c-1.3,0-2.6,0.6-3.5,1.6L76.2,91.8C75.3,92.8,76,94.3,77.3,94.4z"/>
	<path class="st0" d="M129.4,104.3v2.8c0,1.6,1.3,3,3,3h49.4c1.6,0,3-1.3,3-3v-2.8c0-1.6-1.3-3-3-3h-49.4
		C130.7,101.3,129.4,102.6,129.4,104.3z"/>
	<path class="st1" d="M21.6,124.9c0,0-0.8,13.1,5.2,14.4H46c0-0.3,0-0.6,0-0.9c0-13.3,10.4-24,23.2-24c12.8,0,23.2,10.7,23.2,24
		c0,0.3,0,0.6,0,0.9h30.6c0-0.3,0-0.6,0-0.9c0-13.3,10.4-24,23.2-24c12.8,0,23.2,10.7,23.2,24c0,0.3,0,0.6,0,0.9h10
		c0,0,10.6-0.9,11.4-6.1v-15.7c0,0-0.4-2.6-2.5-5.7V96.5c0,0-0.8-8.7-6.6-9.2h-21.8c0,0-12.7-25.5-17.8-26.4c0,0-26.1,0-43.1,0
		c-1.2,0-2.4,0.5-3.3,1.4c-4.1,4.3-16.4,17.3-20.2,21.6c-0.7,0.8-1.7,1.4-2.8,1.6c-7,1.4-33.3,6.4-36.8,7.9c0,0-8.3,3.5-11,20.9
		l-0.1,0c-1.5,0.2-2.7,1.5-2.8,3c-1,0-1.8,0.8-1.8,1.9l0.2,5.5H21.6z M107.4,106l-0.5-4.5c0-0.1,0-0.2,0.2-0.3l1.8-1l-6.9,1l2.4,0.6
		c0.1,0,0.2,0.1,0.2,0.2l1.9,9.6c-0.3,0-0.5,0-0.8,0.1l-0.1,0l-0.1,0l-0.1,0l-0.1,0l-0.1,0c-1.7,0.4-3.1,1.5-3.8,2
		c-0.2,0.2-0.5,0-0.5-0.2c-0.9-7.2-1.9-11.4-2.9-12.6c-0.1-0.1-0.1-0.3,0-0.4c1.2-1.1,6.8-5.7,10.8,0c0.4,0.6,0.9,1.1,1.3,1.5
		c0.2,0.2,0.4,0.4,0.7,0.5c0.1,0.1,0.2,0.1,0.4,0.2l-3.6,3.3C107.7,106.4,107.4,106.2,107.4,106z M119.2,111.4c0,0.1,0,0.2-0.1,0.2
		c-0.8,0.8-3.8,2.6-6.7,2.3l0,0c-1-0.1-2-0.5-3-1.3c-0.2-0.2-0.5-0.4-0.7-0.5l1.9-0.3l-2.3-0.4c-0.1,0-0.2-0.1-0.2-0.3l-0.5-3.8
		c0-0.1,0-0.2,0.1-0.3l1-0.9c0.1-0.1,0.3-0.1,0.4,0l4.6,4.2c0.1,0.1,0.1,0.4,0,0.5l-1.5,0.9l6.5-1.1l-2.4-0.4c-0.1,0-0.1,0-0.2-0.1
		l-5.4-5.2c-0.1-0.1-0.1-0.3,0-0.4l1.4-1.4c0.1-0.1,0.2-0.1,0.3-0.1c2.9,0.7,5.7-1.8,7.1-3.6c0.2-0.3,0.6-0.1,0.5,0.3
		C118.9,105.1,118.9,109.3,119.2,111.4z M181.8,101.3c1.6,0,3,1.3,3,3v2.8c0,1.6-1.3,3-3,3h-49.4c-1.6,0-3-1.3-3-3v-2.8
		c0-1.6,1.3-3,3-3H181.8z M76.2,91.8l20.9-24.2c0.9-1,2.1-1.6,3.5-1.6h31.1c1.9,0,3.5,1.2,4.1,3c1.4,4.1,3.9,12.2,6.4,22.1
		c0.5,1.8-0.9,3.5-2.7,3.5l-62.1-0.2C76,94.3,75.3,92.8,76.2,91.8z M35.5,103.4c0-1.2,0.9-2.1,2.1-2.1h48.3c1.2,0,2.1,0.9,2.1,2.1
		v4.5c0,1.2-0.9,2.1-2.1,2.1H37.6c-1.2,0-2.1-0.9-2.1-2.1V103.4z"/>
	<path class="st1" d="M165.4,138.3c0-11.1-8.6-20-19.3-20c-10.7,0-19.3,9-19.3,20c0,11,8.7,20,19.3,20
		C156.7,158.3,165.4,149.4,165.4,138.3z M145.6,150.6c-6.5,0-11.7-5.4-11.7-12.1c0-6.7,5.2-12.1,11.7-12.1c6.4,0,11.7,5.4,11.7,12.1
		C157.3,145.2,152.1,150.6,145.6,150.6z"/>
	<path class="st1" d="M110.8,58.9l8.1,0c1,0,1.8-0.8,1.8-1.8l0-3.1c0-1-0.8-1.8-1.8-1.8h-8.1c-1,0-1.8,0.8-1.8,1.8l0,3.1
		C109,58.2,109.8,59,110.8,58.9z"/>
	<path class="st1" d="M69.1,118.3c-10.7,0-19.3,9-19.3,20c0,11,8.6,20,19.3,20c10.7,0,19.3-9,19.3-20
		C88.4,127.3,79.8,118.3,69.1,118.3z M69.3,150.2c-6.5,0-11.7-5.4-11.7-12.1c0-6.7,5.2-12.1,11.7-12.1c6.4,0,11.7,5.4,11.7,12.1
		C81,144.8,75.7,150.2,69.3,150.2z"/>
</g>
</svg>
