<?xml version="1.0" encoding="utf-8"?>
<!-- Generator: Adobe Illustrator 19.0.1, SVG Export Plug-In . SVG Version: 6.00 Build 0)  -->
<svg version="1.1" id="Layer_1" xmlns="http://www.w3.org/2000/svg" xmlns:xlink="http://www.w3.org/1999/xlink" x="0px" y="0px"
	 viewBox="0 0 210.6 210.6" style="enable-background:new 0 0 210.6 210.6;" xml:space="preserve">
<style type="text/css">
	.st0{fill:#AC0033;}
</style>
<g>
	<path class="st0" d="M61.7,131.1c3.1,0.1,6.1-0.4,8.9-1.4c3.7,9.3,12.8,15.9,23.5,15.9c6.9,0,13.1-2.8,17.7-7.2
		c6,5.4,14.7,7.9,23.8,5.5c7.9-2.1,14.3-8.1,16.9-15.9c1.5-4.4,1.7-8.7,1.1-12.7c12-2,21.1-12.4,21.1-24.9c0-12.4-9-22.8-20.8-24.9
		c0.1-0.7,0.1-1.3,0.1-2c0-14-11.3-25.3-25.3-25.3c-5,0-9.6,1.4-13.5,3.9c-4.5-6.8-12.3-11.2-21-11.2c-12.1,0-22.3,8.5-24.7,19.9
		c-0.9-0.1-1.7-0.1-2.6-0.1c-14,0-25.3,11.3-25.3,25.3c0,4.3,1.1,8.4,3,12c-4.7,4.7-7.6,11.2-7.5,18.4
		C37.2,119.7,48.2,130.8,61.7,131.1z M113.2,81.5c0.2-0.2,0.5-0.2,0.7-0.2c7.2,1.8,14.2-4.4,17.8-8.9c0.5-0.6,1.5-0.2,1.3,0.6
		c-2.7,13.2-2.7,23.8-1.9,29c0,0.2,0,0.4-0.2,0.6c-1.9,2.1-9.5,6.5-16.8,5.7l-0.1,0c-2.6-0.3-5.1-1.2-7.4-3.1
		c-0.6-0.5-1.2-0.9-1.8-1.3l4.8-0.8l-5.8-1c-0.3-0.1-0.6-0.3-0.6-0.6l-1.3-9.5c0-0.3,0.1-0.5,0.3-0.7l2.6-2.3c0.3-0.3,0.7-0.2,1,0
		l11.4,10.4c0.4,0.3,0.3,0.9-0.1,1.2l-3.7,2.3l16.3-2.6l-6.1-1c-0.2,0-0.3-0.1-0.4-0.2l-13.5-13c-0.3-0.3-0.3-0.8,0-1.1L113.2,81.5z
		 M78.8,74.9c2.9-2.7,17-14.2,27.1,0.1c1.1,1.5,2.2,2.8,3.4,3.7c0.5,0.5,1.1,0.9,1.7,1.3c0.3,0.2,0.6,0.3,0.9,0.5l-9.1,8.4
		c-0.5,0.4-1.2,0.1-1.3-0.5l-1.4-11.2c0-0.3,0.1-0.6,0.4-0.7l4.4-2.5l-17.2,2.6l6.1,1.4c0.3,0.1,0.5,0.3,0.6,0.6l4.8,23.9
		c-0.6,0-1.3,0.1-1.9,0.2l-0.1,0l-0.1,0l-0.2,0l-0.1,0l-0.1,0c-4.2,1-7.7,3.6-9.4,5c-0.5,0.4-1.1,0.1-1.2-0.5
		c-2.3-17.9-4.8-28.4-7.2-31.6C78.4,75.6,78.5,75.2,78.8,74.9z"/>
	<circle class="st0" cx="68.6" cy="157.1" r="9.1"/>
	<circle class="st0" cx="56.3" cy="177.5" r="6.2"/>
</g>
</svg>
