<?xml version="1.0" encoding="utf-8"?>
<!-- Generator: Adobe Illustrator 19.0.1, SVG Export Plug-In . SVG Version: 6.00 Build 0)  -->
<svg version="1.1" id="Layer_1" xmlns="http://www.w3.org/2000/svg" xmlns:xlink="http://www.w3.org/1999/xlink" x="0px" y="0px"
	 viewBox="0 0 210.6 210.6" style="enable-background:new 0 0 210.6 210.6;" xml:space="preserve">
<style type="text/css">
	.st0{fill:#AC0033;}
</style>
<g>
	<path class="st0" d="M206.8,97.7h-42.9c-1.7-3-4.2-4.9-7.1-4.9c-2.9,0-5.5,1.9-7.1,4.9H99.5V87.1c0-8.4-6.8-15.2-15.2-15.2H15.2
		C6.8,71.9,0,78.7,0,87.1v36.5c0,8.4,6.8,15.2,15.2,15.2h69.1c8.4,0,15.2-6.8,15.2-15.2v-9.7h50.1c1.7,3,4.2,4.9,7.1,4.9
		c2.9,0,5.5-1.9,7.1-4.9h8v5.3c0,1.2,0.9,2.1,2.1,2.1c1.2,0,2.1,0.9,2.1,2.1v2.4c0,1.2-0.9,2.1-2.1,2.1c-1.2,0-2.1,0.9-2.1,2.1v2.4
		c0,1.2,0.9,2.1,2.1,2.1h7.2c1.2,0,2.1-0.9,2.1-2.1v-2.4c0-1.2,0.9-2.1,2.1-2.1h3.5c1.2,0,2.1,0.9,2.1,2.1v2.4
		c0,1.2,0.9,2.1,2.1,2.1h7.2c1.2,0,2.1-0.9,2.1-2.1V130c0-1.2-0.9-2.1-2.1-2.1h-0.3c-1.2,0-2.1-0.9-2.1-2.1v-2.4
		c0-1.2,0.9-2.1,2.1-2.1h0.3c1.2,0,2.1-0.9,2.1-2.1v-5.3h4.3C211.9,113.8,211.9,97.7,206.8,97.7z M9.3,83c2.3-3.7,6.3-6.2,11-6.2
		h5.3l7.5,31.7l29.1-31.7h6.4L54,93.5L92,122c-0.4,4.7-3.3,8.6-7.4,10.6l-41.3-29.1l-9.4,9.7l5.2,20.7H25.6L9.3,83z"/>
</g>
</svg>
