<?xml version="1.0" encoding="utf-8"?>
<!-- Generator: Adobe Illustrator 19.0.1, SVG Export Plug-In . SVG Version: 6.00 Build 0)  -->
<svg version="1.1" id="Layer_1" xmlns="http://www.w3.org/2000/svg" xmlns:xlink="http://www.w3.org/1999/xlink" x="0px" y="0px"
	 viewBox="0 0 210.6 210.6" style="enable-background:new 0 0 210.6 210.6;" xml:space="preserve">
<style type="text/css">
	.st0{fill:#AC0033;}
</style>
<g>
	<path class="st0" d="M53.9,62.7c0,4.5,1.6,8.4,4.8,11.6c3.2,3.2,7,4.8,11.6,4.8c4.5,0,8.4-1.6,11.6-4.8s4.8-7,4.8-11.6
		s-1.6-8.4-4.8-11.6c-3.2-3.2-7-4.8-11.6-4.8c-4.5,0-8.4,1.6-11.6,4.8C55.5,54.3,53.9,58.1,53.9,62.7z"/>
	<path class="st0" d="M51.6,156.2c0,2.2,0.8,4.2,2.4,5.8c1.6,1.6,3.5,2.4,5.8,2.4c2.2,0,4.2-0.8,5.8-2.4c1.6-1.6,2.4-3.5,2.4-5.8
		v-28h4.7v28c0,2.2,0.8,4.2,2.4,5.8c1.6,1.6,3.5,2.4,5.8,2.4c2.2,0,4.2-0.8,5.8-2.4c1.6-1.6,2.4-3.5,2.4-5.8V96l16.3-16.3L121.7,96
		v0l-13.3,38.1c-0.8,2.4,0.9,4.8,3.4,4.8h9.9v17.2c0,2.2,0.8,4.2,2.4,5.8c1.6,1.6,3.5,2.4,5.8,2.4c2.2,0,4.2-0.8,5.8-2.4
		c1.6-1.6,2.4-3.5,2.4-5.8v-17.2h4.7v17.2c0,2.2,0.8,4.2,2.4,5.8c1.6,1.6,3.5,2.4,5.8,2.4s4.2-0.8,5.8-2.4c1.6-1.6,2.4-3.5,2.4-5.8
		v-17.2h10.3c2.5,0,4.3-2.5,3.4-4.9l-13.7-38.1l21.3-21.3c1.4-1.4,2-3,2-5c0-1.9-0.7-3.6-2-5s-3-2-5-2s-3.6,0.7-5,2l-16.6,16.6l0,0
		h-27l-16.2-16.2c-0.1-0.1-0.2-0.2-0.3-0.3c-1.4-1.4-3-2-5-2c0,0,0,0,0,0c0,0,0,0,0,0c-1.9,0-3.6,0.7-5,2c-0.1,0.1-0.2,0.2-0.3,0.3
		L83.7,81.4H56.8L40.2,64.7c-1.4-1.4-3-2-5-2c-1.9,0-3.6,0.7-5,2c-1.4,1.4-2,3-2,5c0,1.9,0.7,3.6,2,5L51.6,96V156.2z"/>
	<path class="st0" d="M178.2,57.2c-1.9-1.1-3.7-2.5-5.5-3.9c-2.3-1.8-4.7-3.6-7.5-4.6c-2.8-1-6-1.1-8.5,0.3c-1.5,0.9-2.7,2.4-3.3,4
		c-3-4.1-7.8-6.7-13.2-6.7c-5.3,0-10.1,2.6-13.1,6.5c-0.5-1.6-1.7-3-3.2-3.9c-2.6-1.4-5.8-1.3-8.5-0.3c-2.8,1-5.2,2.8-7.5,4.6
		c-1.8,1.4-3.5,2.8-5.5,3.9c3.2,1.9,6.9,3,10.7,3c4.2,0.1,8.3-1.2,11.8-3.4c-0.7,1.8-1.1,3.8-1.1,5.9c0,9,7.3,16.4,16.4,16.4
		s16.4-7.3,16.4-16.4c0-2.1-0.4-4.2-1.2-6.1c3.5,2.3,7.8,3.6,12,3.6C171.2,60.1,174.9,59.1,178.2,57.2z"/>
</g>
</svg>
