<?xml version="1.0" encoding="utf-8"?>
<!-- Generator: Adobe Illustrator 19.0.1, SVG Export Plug-In . SVG Version: 6.00 Build 0)  -->
<svg version="1.1" id="Layer_1" xmlns="http://www.w3.org/2000/svg" xmlns:xlink="http://www.w3.org/1999/xlink" x="0px" y="0px"
	 viewBox="0 0 210.6 210.6" style="enable-background:new 0 0 210.6 210.6;" xml:space="preserve">
<style type="text/css">
	.st0{fill:none;}
	.st1{fill:#AC0033;}
</style>
<g>
	<path class="st0" d="M113.1,106.1c-2-2.1-3.7-4.1-5.3-6l-5.4,10.8c0.4,0.8,0.5,1.7,0.2,2.2l-4.2,8.2h5l3.4-7.9
		c0-0.4,0.1-0.8,0.4-1.1c0.5-0.6,1.5-0.6,2.4-0.2C110.5,110.4,112.2,107.4,113.1,106.1z"/>
	<path class="st0" d="M111.4,113.7c0.5,0.7,0.8,1.5,0.7,2.1l0,0l0,0c0,0.3-0.1,0.6-0.3,0.9c0,0-0.1,0.1-0.1,0.1l-2.2,4.5h19.1
		l0.1-5.6c-5.2-1.7-9.8-4.4-13.9-8.1L111.4,113.7z"/>
	<path class="st0" d="M83.6,83.6H75c-1.1,0-2.1,0.9-2.1,2.1V103c0,1.1,0.9,2.1,2.1,2.1h8.6c1.1,0,2.1-0.9,2.1-2.1V85.7
		C85.7,84.5,84.7,83.6,83.6,83.6z"/>
	<path class="st0" d="M61.7,83.6h-6.4c-0.8,0-1.5,0.5-1.7,1.2L47,102.6c-0.4,1.2,0.5,2.5,1.7,2.5h12.9c1,0,1.8-0.8,1.8-1.8V85.4
		C63.5,84.4,62.7,83.6,61.7,83.6z"/>
	<path class="st0" d="M131.1,142.6c-2.3,0-4.1,1.9-4.1,4.1c0,2.3,1.9,4.1,4.1,4.1c2.3,0,4.1-1.9,4.1-4.1
		C135.3,144.5,133.4,142.6,131.1,142.6z"/>
	<path class="st0" d="M65,145.1c-1.8,0-3.3,1.5-3.3,3.3c0,1.8,1.5,3.3,3.3,3.3s3.3-1.5,3.3-3.3C68.3,146.6,66.8,145.1,65,145.1z"/>
	<path class="st1" d="M179.2,85.6c-1.5-0.7-3.2-0.6-4.2,0.3c-2.7-12.9-10-23.2-21.7-30.9c-17.4-8-32.6-9.7-45.7-5.2
		C99.6,53,92.4,67.3,95,77.6c1.4,5.7,4.3,11.7,10.7,19.9c-1.8,3.2-4.8,8.6-6.2,11.1c-0.8-0.2-1.5-0.1-2,0.4
		c-0.2,0.2-0.3,0.5-0.3,0.9l-3.7,7.5V78.5c0-1.4-1.1-2.5-2.5-2.5H50.4c-1.5,0-2.9,0.9-3.4,2.3l-15.6,37.5c-0.6,1.5-0.9,3.1-0.9,4.7
		v21.6c-0.8,0-1.4,0.6-1.4,1.4v3.1c0,1.4,1.1,2.6,2.6,2.6h14.8c0-0.2,0-0.4,0-0.6c0-10.3,8.3-18.6,18.6-18.6
		c10.3,0,18.6,8.3,18.6,18.6c0,0.2,0,0.4,0,0.6h27.3c-0.1-0.8-0.2-1.6-0.2-2.4c0-11.2,9.1-20.3,20.3-20.3c11.2,0,20.3,9.1,20.3,20.3
		c0,0.8-0.1,1.6-0.2,2.4h1.4l12-8.8c1.3-0.9,2.8-1.4,4.4-1.4h0.3c1.6,0,2.9-1.3,2.9-2.9v-7.8c0-1.6-1.3-2.9-2.9-2.9h-0.7l-0.4-2.8
		c-0.1-0.7-0.7-1.2-1.4-1.2h-30.9l0.3,0l0-3.8c7.2,1.1,15.2,0.7,24.2-1.3l0.6-1.1c0.1,1.2,0.9,2.4,2.3,3.1c0.8,0.4,1.6,0.5,2.4,0.4
		l8.3,3.6c0.6,0.2,1.1-0.3,0.9-0.9c-0.9-2.3-1.1-4.3-0.6-5.9c0.2-0.6-0.1-1.3-0.6-1.6l-3.1-2.2l10.6-21.8
		C182.1,88.4,181.1,86.5,179.2,85.6z M63.5,103.2c0,1-0.8,1.8-1.8,1.8H48.7c-1.3,0-2.2-1.3-1.7-2.5l6.5-17.8c0.3-0.7,1-1.2,1.7-1.2
		h6.4c1,0,1.8,0.8,1.8,1.8V103.2z M85.7,103c0,1.1-0.9,2.1-2.1,2.1H75c-1.1,0-2.1-0.9-2.1-2.1V85.7c0-1.1,0.9-2.1,2.1-2.1h8.6
		c1.1,0,2.1,0.9,2.1,2.1V103z M107,112.4c-0.3,0.3-0.4,0.7-0.4,1.1l-3.4,7.9h-5l4.2-8.2c0.3-0.6,0.2-1.4-0.2-2.2l5.4-10.8
		c1.6,1.9,3.3,3.9,5.3,6c-0.8,1.4-2.6,4.4-3.6,6.1C108.5,111.7,107.5,111.8,107,112.4z M128.5,121.4h-19.1l2.2-4.5
		c0,0,0.1-0.1,0.1-0.1c0.2-0.2,0.3-0.5,0.3-0.9l0,0l0,0c0.1-0.6-0.2-1.4-0.7-2.1l3.3-6.1c4.1,3.6,8.7,6.3,13.9,8.1L128.5,121.4z
		 M133.5,84.6l-0.5-4.4c0-0.1,0-0.2,0.1-0.3l1.7-1l-6.8,1l2.4,0.6c0.1,0,0.2,0.1,0.2,0.2l1.9,9.4c-0.3,0-0.5,0-0.7,0.1l-0.1,0
		l-0.1,0l-0.1,0l-0.1,0l-0.1,0c-1.6,0.4-3,1.4-3.7,2c-0.2,0.1-0.5,0-0.5-0.2c-0.9-7.1-1.9-11.2-2.9-12.5c-0.1-0.1-0.1-0.3,0-0.4
		c1.2-1.1,6.7-5.6,10.7,0c0.4,0.6,0.9,1.1,1.3,1.5c0.2,0.2,0.4,0.4,0.7,0.5c0.1,0.1,0.2,0.1,0.4,0.2l-3.6,3.3
		C133.9,85,133.6,84.9,133.5,84.6z M145.2,90c0,0.1,0,0.2-0.1,0.2c-0.8,0.8-3.7,2.6-6.6,2.2l0,0c-1-0.1-2-0.5-2.9-1.2
		c-0.2-0.2-0.5-0.4-0.7-0.5l1.9-0.3l-2.3-0.4c-0.1,0-0.2-0.1-0.2-0.3l-0.5-3.7c0-0.1,0-0.2,0.1-0.3l1-0.9c0.1-0.1,0.3-0.1,0.4,0
		l4.5,4.1c0.1,0.1,0.1,0.4,0,0.5l-1.5,0.9l6.4-1l-2.4-0.4c-0.1,0-0.1,0-0.2-0.1l-5.3-5.2c-0.1-0.1-0.1-0.3,0-0.4l1.4-1.4
		c0.1-0.1,0.2-0.1,0.3-0.1c2.8,0.7,5.6-1.7,7-3.5c0.2-0.2,0.6-0.1,0.5,0.2C145,83.8,145,87.9,145.2,90z"/>
	<path class="st1" d="M79.8,148.6c0-8.2-6.6-14.8-14.8-14.8c-8.2,0-14.8,6.6-14.8,14.8c0,8.2,6.6,14.8,14.8,14.8
		C73.2,163.3,79.8,156.7,79.8,148.6z M65,155.5c-3.9,0-7.1-3.2-7.1-7.1c0-3.9,3.2-7.1,7.1-7.1c3.9,0,7.1,3.2,7.1,7.1
		C72.1,152.3,68.9,155.5,65,155.5z"/>
	<path class="st1" d="M131.1,130.3c-9.1,0-16.5,7.4-16.5,16.5c0,9.1,7.4,16.5,16.5,16.5c9.1,0,16.5-7.4,16.5-16.5
		C147.6,137.6,140.2,130.3,131.1,130.3z M131.1,154.7c-4.4,0-8-3.6-8-8c0-4.4,3.6-8,8-8c4.4,0,8,3.6,8,8
		C139.1,151.2,135.5,154.7,131.1,154.7z"/>
</g>
</svg>
