<?xml version="1.0" encoding="utf-8"?>
<!-- Generator: Adobe Illustrator 19.0.1, SVG Export Plug-In . SVG Version: 6.00 Build 0)  -->
<svg version="1.1" id="Layer_1" xmlns="http://www.w3.org/2000/svg" xmlns:xlink="http://www.w3.org/1999/xlink" x="0px" y="0px"
	 viewBox="0 0 210.6 210.6" style="enable-background:new 0 0 210.6 210.6;" xml:space="preserve">
<style type="text/css">
	.st0{fill:#AC0033;}
</style>
<g>
	<path class="st0" d="M105.5,89.2c4,0,7.3-3.3,7.3-7.3c0-4-3.3-7.3-7.3-7.3c-4,0-7.3,3.3-7.3,7.3C98.2,85.9,101.5,89.2,105.5,89.2z"
		/>
	<path class="st0" d="M107.6,100.8c5.3-0.6,10.1-3.4,13.3-7.6l-8.3-2.9c-1,0.8-2.1,1.5-3.3,1.9L107.6,100.8z"/>
	<path class="st0" d="M98.4,90.3l-8.2,2.8c3.1,4.3,8,7.1,13.2,7.7l-1.7-8.6C100.5,91.8,99.4,91.2,98.4,90.3z"/>
	<path class="st0" d="M94.6,83.7c-0.1-0.6-0.2-1.2-0.2-1.8c0-0.7,0.1-1.3,0.2-2l-6.6-5.7c-1.1,2.4-1.6,5-1.6,7.7
		c0,2.6,0.5,5.2,1.6,7.6L94.6,83.7z"/>
	<path class="st0" d="M107.6,62.9l1.7,8.6c1.2,0.4,2.2,1,3.2,1.8l8.4-2.9C117.7,66.3,112.9,63.5,107.6,62.9z"/>
	<polygon class="st0" points="95,138.2 99.9,138.2 97.4,131.5 	"/>
	<path class="st0" d="M103.4,63c-5.2,0.6-10,3.4-13.1,7.6l8.3,2.8c1-0.8,2-1.4,3.2-1.8L103.4,63z"/>
	<path class="st0" d="M52.1,176h92.2c7.6,0,13.9-6.2,13.9-13.9V48.4c0-7.6-6.2-13.9-13.9-13.9H52.1V176z M104.6,144.4
		c-0.3,0.3-0.7,0.5-1.1,0.5c-0.3,0-0.5,0-0.7-0.1c-0.2-0.1-0.3-0.2-0.5-0.4c-0.1-0.2-0.3-0.4-0.4-0.7c-0.1-0.3-0.3-0.6-0.4-0.9
		l-0.8-2h-6.6l-0.8,2.1c-0.3,0.8-0.6,1.4-0.8,1.6c-0.2,0.3-0.6,0.4-1.1,0.4c-0.4,0-0.8-0.2-1.1-0.5c-0.3-0.3-0.5-0.6-0.5-1
		c0-0.2,0-0.5,0.1-0.7s0.2-0.6,0.4-1l4.2-10.6c0.1-0.3,0.3-0.7,0.4-1.1c0.2-0.4,0.3-0.8,0.5-1.1c0.2-0.3,0.4-0.5,0.7-0.7
		c0.3-0.2,0.7-0.3,1.1-0.3c0.5,0,0.8,0.1,1.1,0.3c0.3,0.2,0.6,0.4,0.7,0.7c0.2,0.3,0.3,0.6,0.5,0.9c0.1,0.3,0.3,0.7,0.5,1.3
		l4.3,10.5c0.3,0.8,0.5,1.4,0.5,1.7C105,143.7,104.9,144.1,104.6,144.4z M119.7,144.2c-0.3,0.2-0.6,0.3-1.1,0.3H108
		c-0.7,0-1.3-0.2-1.6-0.5c-0.4-0.3-0.5-0.8-0.5-1.3c0-0.2,0-0.4,0.1-0.5c0.1-0.2,0.1-0.3,0.2-0.4c0.1-0.1,0.2-0.3,0.4-0.5
		c0.2-0.2,0.3-0.4,0.5-0.5l8.4-10h-7.2c-0.5,0-0.9-0.1-1.1-0.3c-0.3-0.2-0.4-0.5-0.4-0.9c0-0.4,0.1-0.7,0.4-0.9
		c0.3-0.2,0.6-0.4,1.1-0.4h9.3c1.2,0,1.8,0.6,1.8,1.7c0,0.5-0.1,1-0.3,1.3c-0.2,0.3-0.6,0.8-1.2,1.5l-7.8,9.3h8.6
		c0.5,0,0.9,0.1,1.1,0.3c0.3,0.2,0.4,0.5,0.4,0.9C120.1,143.7,120,144,119.7,144.2z M134,130c0,0.5-0.1,1-0.3,1.3
		c-0.2,0.3-0.6,0.8-1.2,1.5l-7.8,9.3h8.6c0.5,0,0.9,0.1,1.1,0.3c0.3,0.2,0.4,0.5,0.4,0.9c0,0.4-0.1,0.7-0.4,0.9
		c-0.3,0.2-0.6,0.3-1.1,0.3h-10.6c-0.7,0-1.3-0.2-1.6-0.5c-0.4-0.3-0.5-0.8-0.5-1.3c0-0.2,0-0.4,0.1-0.5c0.1-0.2,0.1-0.3,0.2-0.4
		c0.1-0.1,0.2-0.3,0.4-0.5c0.2-0.2,0.3-0.4,0.5-0.5l8.4-10h-7.2c-0.5,0-0.9-0.1-1.1-0.3c-0.3-0.2-0.4-0.5-0.4-0.9
		c0-0.4,0.1-0.7,0.4-0.9c0.3-0.2,0.6-0.4,1.1-0.4h9.3C133.4,128.3,134,128.8,134,130z M81.8,80.6l1.4-1.5c0.3-2.5,1.1-4.9,2.2-7.3
		l-1.8-1.5c-0.3-0.3-0.4-0.7-0.3-1.1c0.1-0.4,0.5-0.7,0.9-0.7c0.1,0,0.2,0,0.3,0.1l2.2,0.8c3.7-5.5,9.4-9.1,16-9.9l1.6-1.4l0.2-1.1
		c0.1-0.5,0.5-0.8,0.9-0.8c0.5,0,0.9,0.3,0.9,0.8l0.2,1.1l1.6,1.5c6.5,0.8,12.3,4.4,16,9.9l2.2-0.7c0.1,0,0.2-0.1,0.3-0.1
		c0.4,0,0.8,0.3,0.9,0.6c0.1,0.4,0,0.8-0.3,1.1l-1.7,1.5c1.2,2.3,1.9,4.8,2.2,7.4l1.2,1.3c0.7,0.8,0.7,2,0,2.8l-1.1,1.2
		c-0.3,2.6-1,5.1-2.2,7.4l1.4,1.3c0.3,0.3,0.5,0.7,0.3,1.2c-0.2,0.4-0.6,0.7-1,0.7c-0.1,0-0.2,0-0.3-0.1l-1.8-0.6
		c-3.7,5.6-9.6,9.2-16.2,9.9l-1.4,1.3l-0.2,0.8c-0.1,0.5-0.5,0.8-1,0.8c-0.5,0-0.9-0.3-1-0.8l-0.2-0.8l-1.4-1.3
		c-6.6-0.8-12.5-4.4-16.2-10L84.9,95c-0.1,0-0.2,0.1-0.3,0.1c-0.4,0-0.8-0.3-1-0.7c-0.2-0.4,0-0.9,0.3-1.2l1.5-1.3
		c-1.2-2.3-1.9-4.8-2.2-7.3L81.8,83C81.2,82.4,81.2,81.3,81.8,80.6z M77.9,130.3c0-0.7,0.2-1.2,0.5-1.6c0.3-0.3,0.9-0.5,1.6-0.5h4.2
		c1.3,0,2.2,0.1,2.9,0.3c0.7,0.2,1.2,0.5,1.7,0.9c0.5,0.4,0.9,1,1.1,1.6s0.4,1.3,0.4,2.1c0,1.7-0.5,2.9-1.5,3.8
		c-1,0.9-2.5,1.3-4.6,1.3h-3v4.6c0,0.7-0.2,1.2-0.5,1.5s-0.7,0.5-1.2,0.5c-0.5,0-0.9-0.2-1.2-0.5c-0.3-0.3-0.5-0.8-0.5-1.5V130.3z"
		/>
	<path class="st0" d="M85.4,135.5c0.5-0.2,0.9-0.4,1.2-0.8c0.3-0.4,0.4-0.9,0.4-1.5c0-0.7-0.2-1.3-0.6-1.8c-0.5-0.5-1.4-0.7-2.9-0.7
		h-2.2v5h2.2C84.2,135.7,84.9,135.7,85.4,135.5z"/>
	<path class="st0" d="M116.4,80c0.1,0.6,0.2,1.3,0.2,1.9c0,0.6-0.1,1.2-0.2,1.8l6.7,5.8c1.1-2.4,1.6-5,1.6-7.7
		c0-2.7-0.5-5.3-1.6-7.7L116.4,80z"/>
</g>
</svg>
