<?xml version="1.0" encoding="utf-8"?>
<!-- Generator: Adobe Illustrator 19.0.1, SVG Export Plug-In . SVG Version: 6.00 Build 0)  -->
<svg version="1.1" id="Layer_1" xmlns="http://www.w3.org/2000/svg" xmlns:xlink="http://www.w3.org/1999/xlink" x="0px" y="0px"
	 viewBox="0 0 210.6 210.6" style="enable-background:new 0 0 210.6 210.6;" xml:space="preserve">
<style type="text/css">
	.st0{fill:#AC0033;}
	.st1{fill:none;stroke:#525352;stroke-width:0;stroke-linecap:round;stroke-linejoin:round;}
</style>
<g>
	<path class="st0" d="M98.4,96.8c-0.2,0.2-0.3,0.4-0.4,0.7C98.1,97.2,98.2,97,98.4,96.8z"/>
	<path class="st0" d="M97.8,98.1c0-0.2,0.1-0.4,0.2-0.6c0,0,0,0,0,0C97.9,97.7,97.9,98,97.8,98.1C97.8,98.2,97.8,98.2,97.8,98.1z"/>
	<path class="st0" d="M105.3,54C65,54,32.2,77,32.2,105.3c0,7,2,13.8,5.9,20.3c-2.5,3.9-3.9,8.2-4,12.5c-0.1,6.6,3,13.3,8.4,18.4
		c0.2,0.2,0.4,0.2,0.6,0.2c0.1,0,0.2,0,0.3,0c0.3-0.1,0.5-0.4,0.6-0.7c1-5.3,5.1-10.4,10.8-13.5c13.7,9.1,31.6,14.2,50.5,14.2
		c40.3,0,73.2-23,73.2-51.3C178.5,77,145.7,54,105.3,54z M89.5,134.4l-3.4-4.1c0,0,0,0,0,0l-18.8-22.7c-0.1-0.2-0.3-0.2-0.5-0.1
		c0,0-0.1,0-0.1,0l-6.4,3.8c-0.1,0.1-0.2,0.2-0.2,0.4l-0.4,21.9l-7.2,0L50,82L61,82.1l-0.7,21.7l0,0.4c0,0.4,0.4,0.6,0.7,0.4
		l29.2-18.4h9.7L94.2,90l-19.1,12.8c-0.2,0.2-0.3,0.5-0.1,0.7l24.1,30.9L89.5,134.4z M121,127.1l-6.8,0.5c-0.3,0-0.5-0.2-0.5-0.5
		l0.1-3c0-0.3-0.3-0.6-0.6-0.5c-3,0.9-5.7,1.3-8.1,1.4c-2.1,0.4-4.4,0.2-6.8-0.4c-3.4-0.9-5.4-2.7-5.8-5.4c-0.4-2.7,0.3-5,2.2-6.8
		c1.9-1.8,4.7-2.8,8.4-3.2c0.8-0.1,1.6-0.1,2.5-0.1l8.2,0c0.3,0,0.5-0.2,0.5-0.5c0-1.1-0.1-2.3-0.2-3.6c-0.8-8.4-3.3-12.4-7.5-12
		c-0.4,0-4.1,0.4-6.2,1.8c-0.5,0.3-1,0.7-1.4,1.2c-0.4,0.4-0.7,0.9-0.9,1.5c0,0,0,0,0,0c0,0,0,0,0,0c-0.1,0.2-0.1,0.4-0.2,0.6
		c0,0.2-0.1,0.5-0.1,0.7l0,0c0,1.2,0.4,2.4,0.5,3.7c0.1,1,0,2-0.6,2.8c-0.2,0.2-0.4,0.4-0.6,0.6c-0.3,0-0.5,0.1-0.8,0.1
		c-2.3,0.1-3.5-0.9-3.7-3.2c0-0.4,0-0.9,0.1-1.4c1.2-6.4,5.8-9.8,14-10.3c8.5-0.5,13.2,3.7,14.1,12.5c0.1,1.1,0.2,2.3,0.2,3.5
		l0.1,11.9l0.1,4.6l0,0L121,127.1L121,127.1z M134.2,127.6l-6-0.1l-1-26l-0.2-4.1h8.9c0.3,0,0.5,0.2,0.5,0.5L134.2,127.6z
		 M131.3,91.7c-3,0-5.4-2.4-5.4-5.4c0-3,2.4-5.4,5.4-5.4c3,0,5.4,2.4,5.4,5.4C136.7,89.2,134.3,91.7,131.3,91.7z M149.2,138.4
		c-1.2,0.7-2.5,1-4.1,0.8c-1.4-0.1-2.7-0.5-3.9-1.3c-1.5-1-2.2-2.2-2.1-3.6c0.1-1.6,0.9-2.8,2.3-3.6c1.3-0.8,2.7-1.2,4.3-1
		c1.8,0.1,3.3,0.9,4.4,2.3c0.9,1.1,1.3,2.1,1.2,3.1C151.2,136.5,150.5,137.6,149.2,138.4z M149.1,126.7l-6.4-0.8l2-51.7l13.3,1
		L149.1,126.7z"/>
	<path class="st1" d="M98,97.5C98,97.5,98,97.5,98,97.5"/>
	<path class="st0" d="M113.6,111.9c-2.8-0.1-5-0.1-6.6-0.1c-1.7,0-3.2,0.3-4.6,1c-2,1-2.9,2.5-2.8,4.6c0.1,1.6,1,2.8,2.7,3.7
		c1.5,0.7,3,1,4.4,0.7c1.1-0.1,3.4-0.5,6.7-1.2c0.2,0,0.4-0.2,0.4-0.4l0.1-8C114.1,112.1,113.9,111.9,113.6,111.9z"/>
	<path class="st1" d="M97.8,98.1c0-0.2,0.1-0.4,0.2-0.6"/>
</g>
</svg>
