<?xml version="1.0" encoding="utf-8"?>
<!-- Generator: Adobe Illustrator 19.0.1, SVG Export Plug-In . SVG Version: 6.00 Build 0)  -->
<svg version="1.1" id="Layer_1" xmlns="http://www.w3.org/2000/svg" xmlns:xlink="http://www.w3.org/1999/xlink" x="0px" y="0px"
	 viewBox="0 0 210.6 210.6" style="enable-background:new 0 0 210.6 210.6;" xml:space="preserve">
<style type="text/css">
	.st0{fill:#AC0033;}
</style>
<g>
	<path class="st0" d="M61.7,129.1c-0.2,0.4-0.3,0.8-0.1,1.3c2.9,9.2,9.5,15,18.7,18.6c0.4,0.2,0.9,0.1,1.4-0.1l6.6-3.6
		c0.9-0.5,2.1,0,2.3,1.1l3.6,17.3c0.2,1.2,1.6,1.7,2.6,0.9l12.9-9.9c0.4-0.3,0.6-0.8,0.6-1.3v-24.1c0-0.5,0.3-1,0.7-1.3
		c33-21.5,56-48.3,59.1-85.9c0.1-1-0.8-1.8-1.8-1.8c-37.5,3.2-64.3,26.2-85.7,59.3c-0.3,0.5-0.8,0.7-1.3,0.7l-24.1,0
		c-0.5,0-1,0.2-1.3,0.6L46,113.9c-0.7,0.9-0.2,2.3,0.9,2.6l17.3,3.6c1.1,0.2,1.6,1.4,1.1,2.3L61.7,129.1z M129.9,68
		c5.9,0,10.8,4.8,10.8,10.8c0,5.9-4.8,10.8-10.8,10.8c-5.9,0-10.8-4.8-10.8-10.8C119.2,72.8,124,68,129.9,68z"/>
	<path class="st0" d="M40.6,169.3c0,0.5,0.4,0.9,0.9,0.9c0.9,0.1,1.9,0.1,2.9,0.1c13.6,0,27.2-6,36.1-16.2c0.3-0.4,0.3-0.9,0-1.2
		c-0.3-0.4-0.8-0.5-1.2-0.3c-8.4,4.4-17.8,6.5-27.2,6.1c-0.3-9.5,1.8-18.9,6.1-27.2c0.2-0.4,0.1-0.9-0.3-1.2c-0.4-0.3-0.9-0.3-1.2,0
		C45.9,139.9,39.7,154.8,40.6,169.3z"/>
</g>
</svg>
