<?xml version="1.0" encoding="utf-8"?>
<!-- Generator: Adobe Illustrator 19.0.1, SVG Export Plug-In . SVG Version: 6.00 Build 0)  -->
<svg version="1.1" id="Layer_1" xmlns="http://www.w3.org/2000/svg" xmlns:xlink="http://www.w3.org/1999/xlink" x="0px" y="0px"
	 viewBox="0 0 210.6 210.6" style="enable-background:new 0 0 210.6 210.6;" xml:space="preserve">
<style type="text/css">
	.st0{fill:#AC0033;}
</style>
<path class="st0" d="M151.9,38.9c-0.6,0-1.2,0-1.8,0c-1,0.5-2,1-3,1.3c-23,8.2-45.9,16.4-68.9,24.5c-5.7,2-7.3,4.3-7.3,10.4
	c0,20.5,0,41,0,61.4c0,1.2,0,2.4,0,3.7c-1.1,0-1.8-0.1-2.5-0.1c-11.3-0.5-23.3,8.4-25.8,19.3c-1.7,7.5,2.7,14.2,10.2,15.7
	c1,0.2,1.9,0.4,2.9,0.7c0.4,0,0.8,0,1.2,0c1-0.2,2-0.4,3-0.6c10.3-1.3,22.6-11.4,22.2-24.6c-0.6-20.6-0.1-41.2-0.2-61.8
	c0-2.2,0.6-3.1,2.7-3.9c15.9-5.6,31.7-11.3,47.5-16.9c4.2-1.5,8.3-2.9,12.8-4.5c0,20,0,39.6,0,59.4c-0.8,0-1.4,0-1.9,0
	c-10.5-0.4-21.6,6.8-25.3,16.7c-3.2,8.4,0.4,16.2,8.8,18c3.4,0.7,7.3,0.5,10.8-0.4c12-3.1,19-12.5,19-24.9c0-28.6,0-57.2,0.1-85.8
	C156.3,43.1,155.4,40.4,151.9,38.9z"/>
</svg>
