<?xml version="1.0" encoding="utf-8"?>
<!-- Generator: Adobe Illustrator 19.0.1, SVG Export Plug-In . SVG Version: 6.00 Build 0)  -->
<svg version="1.1" id="Layer_1" xmlns="http://www.w3.org/2000/svg" xmlns:xlink="http://www.w3.org/1999/xlink" x="0px" y="0px"
	 viewBox="0 0 210.6 210.6" style="enable-background:new 0 0 210.6 210.6;" xml:space="preserve">
<style type="text/css">
	.st0{fill:none;}
	.st1{fill:#AC0033;}
</style>
<g>
	<path class="st0" d="M119.7,159.6C119.7,159.6,119.7,159.6,119.7,159.6l2.9,3.2c0,0,0,0,0,0L119.7,159.6z"/>
	<path class="st0" d="M139.9,98.3c0.6,2.5,0.8,5.1,0.8,7.7c0,2.5-0.3,5-0.8,7.4l27,23.6c4.7-9.3,7.4-19.8,7.4-31
		c0-11.2-2.7-21.8-7.5-31.2L139.9,98.3z M151.1,92.2l1.9,0.2c0.1,0,0.2,0,0.2-0.1l1-1.7c0.1-0.2,0.4-0.1,0.4,0.1l0.4,1.9
		c0,0.1,0.1,0.2,0.2,0.2l1.9,0.5c0.2,0.1,0.2,0.3,0.1,0.4l-1.7,1c-0.1,0-0.1,0.1-0.1,0.2l0.1,1.9c0,0.2-0.2,0.3-0.4,0.2l-1.4-1.3
		c-0.1-0.1-0.2-0.1-0.2,0l-1.8,0.7c-0.2,0.1-0.4-0.1-0.3-0.3l0.8-1.8c0-0.1,0-0.2,0-0.2l-1.2-1.5C150.8,92.4,150.9,92.1,151.1,92.2z
		 M159.6,118.2l-7.4,1.5c-0.4,0.1-0.7-0.1-0.9-0.4l-5.8-11.5c-0.2-0.4,0-0.9,0.4-1.1l10.2-5.1c0.5-0.2,1.1,0,1.2,0.6l3.1,15.1
		C160.3,117.7,160.1,118.2,159.6,118.2z M161.3,114.3c-0.4,0.3-0.9,0.1-1-0.4l-2.7-12.7c-0.1-0.4-0.6-0.7-1-0.5l-8.4,4
		c-0.1,0.1-0.2-0.1-0.1-0.2l8.6-5.4l0.7-0.4c0.5-0.3,1.1,0,1.2,0.5l2.9,14.5C161.5,114,161.5,114.2,161.3,114.3z M168,104.1l0.8,1.3
		c0.1,0.2,0,0.4-0.2,0.4l-1.5-0.3c-0.1,0-0.2,0-0.2,0.1l-0.9,1.2c-0.1,0.2-0.4,0.1-0.4-0.1l-0.2-1.5c0-0.1-0.1-0.2-0.2-0.2l-1.4-0.5
		c-0.2-0.1-0.2-0.4,0-0.4l1.4-0.6c0.1,0,0.1-0.1,0.1-0.2l0.1-1.5c0-0.2,0.3-0.3,0.4-0.1l1,1.1c0.1,0.1,0.2,0.1,0.2,0.1l1.5-0.4
		c0.2-0.1,0.4,0.2,0.3,0.3l-0.8,1.3C167.9,104,167.9,104.1,168,104.1z M168.6,94.7l-2.6,0.6c-0.1,0-0.2,0.1-0.2,0.2l-0.5,2.6
		c0,0.2-0.3,0.3-0.4,0.1l-1.4-2.3c0-0.1-0.1-0.1-0.2-0.1l-2.6,0.3c-0.2,0-0.3-0.2-0.2-0.4l1.7-2c0.1-0.1,0.1-0.2,0-0.2L161,91
		c-0.1-0.2,0.1-0.4,0.3-0.3l2.5,1c0.1,0,0.2,0,0.2,0l2-1.8c0.2-0.1,0.4,0,0.4,0.2l-0.2,2.7c0,0.1,0,0.2,0.1,0.2l2.3,1.3
		C168.8,94.3,168.8,94.6,168.6,94.7z"/>
	<polygon class="st0" points="119.9,159.4 120.9,160.5 119.9,159.4 	"/>
	<path class="st0" d="M116.1,139.7l-6.8,34.8c22.5-1.2,42.1-13.2,53.7-30.9L129.3,132C125.6,135.5,121.1,138.1,116.1,139.7z
		 M120.8,143.8l0.9-1c0.2-0.2,0.5-0.2,0.6,0.1l1.9,3.4c0.1,0.2,0.1,0.4-0.1,0.5c0,0,0,0,0,0c-0.1,0.1-0.4,0.1-0.5,0l-2.8-2.4
		C120.7,144.2,120.7,143.9,120.8,143.8z M117,150.8l0.3-1.4c0-0.1,0.2-0.2,0.3-0.2l3.6,1.6c0.1,0,0.2,0.2,0.1,0.3c0,0,0,0,0,0
		c0,0.1-0.1,0.2-0.2,0.2l-3.9-0.1C117.1,151,117,150.9,117,150.8z M117.6,156.8l-0.3-1c0-0.1,0.1-0.3,0.2-0.3l3.4-0.5
		c0.1,0,0.2,0.1,0.2,0.2c0,0,0,0,0,0c0,0.1,0,0.2-0.1,0.2l-3.1,1.5C117.8,157,117.6,156.9,117.6,156.8z M123.4,162.4l-0.2,0.2
		c-0.1,0.1-0.3,0.1-0.5,0l-1.8-2l1.9,2.1l-0.2,0.2l0,0c0.1,0.1,0.1,0.3,0,0.4l-0.2,0.2c-0.1,0.1-0.3,0.1-0.5,0l-0.4-0.5l-0.2,0.2
		c-0.4,0.2-1.1,0-1.6-0.6c-0.5-0.6-0.7-1.3-0.4-1.6l0.2-0.2l-0.4-0.5c-0.1-0.1-0.1-0.3,0-0.5l0.2-0.2c0.1-0.1,0.3-0.1,0.4,0
		l-0.1-0.1l0.2-0.2l0.1,0.1c-0.1-0.1-0.1-0.3,0-0.5l0.2-0.2c0.1-0.1,0.3-0.1,0.5,0l2.8,3.1C123.5,162.1,123.5,162.3,123.4,162.4z
		 M126.5,165.4c0,0.1-0.2,0.2-0.3,0.2l-1-0.4c-0.1,0-0.2-0.2-0.1-0.3l1.8-3c0.1-0.1,0.2-0.1,0.3-0.1c0,0,0,0,0,0
		c0.1,0,0.2,0.1,0.1,0.3L126.5,165.4z M132.6,166.2l-1.5,0.2c-0.1,0-0.2-0.1-0.2-0.2l0.3-3.9c0-0.1,0.1-0.2,0.2-0.2c0,0,0,0,0,0
		c0.1,0,0.2,0,0.2,0.1l1.2,3.8C132.9,166.1,132.8,166.2,132.6,166.2z M139.6,162.5l-1.1,0.8c-0.2,0.1-0.4,0.1-0.5-0.1l-2.2-3.1
		c-0.1-0.2-0.1-0.4,0-0.5c0,0,0,0,0,0c0.1-0.1,0.3-0.1,0.5,0l3.3,2.3C139.8,162,139.8,162.3,139.6,162.5z M146,154.5l-7.4-0.2
		c0.1-0.3,0.1-0.6,0.1-0.9l7.8-1.6L146,154.5z M136.6,146.8l4.6-5c0.1-0.1,0.3-0.1,0.5,0l0.9,1c0.1,0.1,0.1,0.3,0,0.5l-5.5,4.1
		c-0.1,0.1-0.3,0.1-0.4,0c0,0,0,0,0,0c0,0,0,0,0,0C136.5,147.1,136.5,146.9,136.6,146.8z M134.5,158.3c-1.1,1-2.5,1.6-3.9,1.7
		c-0.5,0.1-1,0.1-1.6,0.1c-1.3,0-2.8,0-3.1,0.1c-0.2,0.1-0.5,0.3-0.8,0.5c-0.1,0.1-0.3,0.2-0.4,0.3c-0.3,0.3-0.8,0.4-1.1,0.1
		c0,0,0-0.1-0.1-0.1c-0.2-0.2-0.3-0.4-0.5-0.6c-0.2-0.2-0.3-0.4-0.5-0.5l-0.5-0.6c0,0-0.1-0.1-0.1-0.1c-0.1-0.1-0.1-0.1-0.2-0.2
		c-0.1-0.2-0.3-0.3-0.5-0.5c-0.3-0.4-0.1-0.8,0.2-1.1c0.1-0.1,0.3-0.2,0.4-0.4c0.3-0.3,0.5-0.5,0.6-0.7c0.1-0.3,0.3-1.8,0.5-3
		c0.1-0.7,0.2-1.3,0.3-1.8c0.1-0.3,0.2-0.7,0.3-1c0-0.1,0.1-0.1,0.1-0.2c0,0,0-0.1,0.1-0.1c0-0.1,0.1-0.1,0.1-0.1l0,0
		c0.5-1,1.2-1.8,2.1-2.5c2.7-1.9,6.5-1.6,8.8,0.7C137.5,151.2,137.4,155.7,134.5,158.3z M130.2,137.6c0-0.3,0.2-0.5,0.5-0.5l1.5-0.1
		c0.4,0,0.7,0.3,0.5,0.7l-2,6.5c-0.1,0.2-0.3,0.4-0.5,0.4c0,0,0,0,0,0c-0.3,0-0.5-0.3-0.5-0.6L130.2,137.6z"/>
	<polygon class="st0" points="169.5,141.3 138.2,116.7 135.4,123.1 169,142.6 170.7,143.6 176.8,147.1 171.2,142.7 	"/>
	<path class="st0" d="M59.1,101.2c-0.1,0.3-0.2,0.6-0.3,0.8c0.5,0,0.7-0.1,0.8-0.1C59.6,101.9,59.5,101.6,59.1,101.2z"/>
	<path class="st0" d="M54.9,109.1c-0.2,0.2-0.3,0.4-0.5,0.6c0.5-0.1,0.8-0.2,0.8-0.2C55.2,109.5,55.1,109.3,54.9,109.1z"/>
	<path class="st0" d="M57.5,105.1c-0.2,0.3-0.4,0.6-0.5,0.9c0.6,0,1.1-0.1,1.1-0.2C58,105.9,57.8,105.6,57.5,105.1z"/>
	<polygon class="st0" points="105.5,140.4 105.5,174.7 105.5,176.6 105.5,188.2 106.9,178.6 107.5,174.6 112.5,139.6 	"/>
	<path class="st0" d="M60.1,98.5C60.1,98.5,60.1,98.4,60.1,98.5c-0.1-0.2-0.3-0.5-0.6-0.7c0,0.1,0,0.1,0,0.2c0,0.3,0,0.5,0,0.8
		c0.4,0,0.7-0.1,0.8-0.2C60.2,98.5,60.1,98.5,60.1,98.5z"/>
	<path class="st0" d="M70.8,113.4c-0.5-2.4-0.8-4.9-0.8-7.4c0-2.7,0.3-5.3,0.9-7.8L44.3,74.9c-4.7,9.3-7.4,19.9-7.4,31
		c0,11.1,2.7,21.5,7.3,30.7L70.8,113.4z M41.4,95.6c0.4-0.5,0.8-1.2,1-1.3c1.1-0.9,2.5,0.1,3.7,0.4c0.2,0,0.4-0.1,0.5-0.3
		c0.4-2,2.4-3.2,4.2-3.9c0.2-0.1,0.5,0.1,0.5,0.3c0,1.1-0.4,2.2-1.1,3.1c-0.2,0.3,0,0.7,0.4,0.6c0,0,0,0,0,0
		c0.8-0.2,1.4-0.5,1.9-1.1c0.1-0.1,0.8-1,1.2-1.5c0.2-0.2,0.5-0.2,0.6,0c0.2,0.4,0.5,1,0.6,1.4c0.1,0.2,0,0.4-0.2,0.5
		c-1.1,0.4-4.4,1.8-4.7,2.1c-0.5,0.4-1,1-1.6,1.3c-2.5,1.3-4.4-0.6-6.8-1C41.4,96.1,41.3,95.8,41.4,95.6z M40.2,111.8
		c0.1-1.1,3-1.5,6.4-1.1c2.4,0.3,4.3,1.5,5.2,2.2c0,0,0.1-0.1,0.1-0.1c0.9-1.1,1.7-2.1,2.5-3.1c-1,0.2-2.9,0.3-4.8-0.4
		c-2.8-1-4.9-2.5-4.6-3.3c0.3-0.9,2.8-0.8,5.6,0.1c2.1,0.7,3.6,2.2,4.2,2.9c0.8-1,1.5-2,2.1-3c-1,0.1-2.4,0-3.9-0.6
		c-2.4-1-4.2-2.4-3.9-3.1c0.3-0.8,2.5-0.6,5,0.4c1.5,0.6,2.7,1.7,3.3,2.4c0.6-1,1-2,1.4-3.1c-0.8,0-2.1,0-3.4-0.6
		c-2-0.9-3.4-2.2-3.1-2.8c0.3-0.6,2.1-0.4,4.1,0.5c1.2,0.5,2.1,1.4,2.6,2c0.2-0.8,0.3-1.7,0.4-2.5c-0.5,0.1-1.3,0-2-0.2
		c-1.4-0.5-2.4-1.2-2.3-1.6c0.1-0.4,1.4-0.4,2.8,0.1c0.6,0.2,1.1,0.5,1.5,0.8c0-0.5,0-0.7,0.5-0.8c-0.3-0.5-0.6-1.3-0.7-2.2
		C59.2,93.3,59.5,92,60,92c0.5,0,0.9,1.2,1,2.6c0.1,1-0.3,2-0.5,2.4c0.1,0.1,0.3,0.3,0.3,0.6c0,0.1,0,0.2,0,0.3
		c0.5-0.3,1.1-0.6,1.9-0.8c1.5-0.2,2.7-0.1,2.8,0.4c0.1,0.5-1.1,1-2.5,1.3c-0.9,0.1-1.7,0-2.2-0.1c0,0.9-0.1,1.7-0.3,2.5
		c0.7-0.4,1.8-0.9,3.1-1c2.2-0.2,4,0.2,4.1,0.9c0.1,0.7-1.7,1.4-3.9,1.6c-1.5,0.1-2.8-0.3-3.5-0.6c-0.3,1-0.7,2-1.2,3
		c0.8-0.5,2.2-1.1,3.8-1.2c2.6-0.2,4.8,0.3,4.8,1.2c0.1,0.8-2,1.6-4.6,1.8c-1.9,0.1-3.7-0.5-4.4-0.9c-0.6,1.2-1.4,2.3-2.2,3.5
		c0.9-0.4,2.8-1.1,4.8-0.9c3,0.2,5.3,1.2,5.2,2.1c-0.1,0.9-2.5,1.5-5.5,1.3c-2.4-0.2-4.4-1.4-5-1.9c-0.7,1-1.5,2-2.4,3
		c1.2-0.3,3.2-0.5,5.2-0.1c3.3,0.8,5.8,2.3,5.5,3.3c-0.2,1-3.1,1.2-6.4,0.5c-2.4-0.6-4.2-2-5.1-2.7c-0.1,0.1-0.1,0.2-0.2,0.3
		c-0.7,0.8-1.3,1.7-2,2.6c-0.2,0.3-0.6,0.4-0.9,0.2c0,0,0,0,0,0c-0.4-0.2-0.5-0.6-0.2-1c0.5-0.7,0.9-1.3,1.4-1.9
		c-1.2,0.4-3,0.7-4.8,0.4C42.6,114.1,40,112.9,40.2,111.8z"/>
	<path class="st0" d="M60.3,97.4c0,0,0.1-0.1,0.2-0.3c-0.2-0.1-0.3-0.1-0.3-0.1c-0.1,0-0.1,0-0.1,0C60.1,97.2,60.2,97.4,60.3,97.4z"
		/>
	<path class="st0" d="M81.5,132L48,143.5c11.6,17.8,31.1,29.8,53.6,31.1l-6.9-34.9C89.7,138.2,85.2,135.5,81.5,132z M91.3,159.3
		c0.5,0.2,0.5,0.9,0,1.1l-0.5,0.3c-0.3,0.2-0.6,0.2-0.9,0.1c-0.4-0.2-0.8-0.3-1.3-0.5c-0.3,1.2-0.8,2.9-1.3,4.4
		c-0.1,0.4-0.6,0.7-1,0.6c-0.2,0-0.3-0.1-0.5-0.1c-0.6-0.1-0.9-0.7-0.7-1.2c0.3-1,0.6-1.9,0.6-1.9c-0.8,0.5-2.2,1.1-3.3,1.6
		c-0.4,0.1-0.7,0.1-1.1,0c-1.3-0.6-2.6-1.2-4-2c-0.4-0.2-0.6-0.7-0.4-1.1c0.7-1.7,1.4-3.6,1.4-3.6c-1.2,0.7-3.3,1.3-4.8,1.8
		c-0.3,0.1-0.7,0-1-0.2c-0.5-0.4-1-0.7-1.5-1.1c-0.3-0.2-0.2-0.7,0.2-0.8c2.3-0.6,4.8-1.7,6.8-2.6c0.4-0.2,0.5-0.7,0.2-1
		c-1-1-1.9-2-2.7-3c-0.3-0.3-0.8-0.3-1,0.1c-1.2,2.1-2.8,4.7-3.7,6.2c-0.2,0.3-0.7,0.4-1,0.2c-0.4-0.4-0.8-0.7-1.3-1.1
		c-0.4-0.3-0.4-0.8-0.2-1.2c1.2-1.9,2.7-4.4,2.7-4.4c-1.8,0.6-5,1-6.6,1.2c-0.2,0-0.5-0.1-0.7-0.3c-0.4-0.4-0.7-0.8-1.1-1.2
		c-0.4-0.5-0.1-1.2,0.5-1.3c3.1-0.3,6.8-1.3,9.3-2c-0.8-1.3-1.5-2.3-1.9-3c-0.3-0.6-0.1-1.3,0.5-1.5l1.3-0.5c0.5-0.2,1.1,0,1.3,0.5
		c0.6,1.2,1.3,2.3,1.9,3.3c0.4,0.3,0.5-0.5,0.6-0.8c0.1-0.8,0.6-1.5,1.3-1.9c1.2-0.6,2.7-0.1,3.3,1.1c0.6,1.2,0.1,2.7-1.1,3.3
		c-0.9,0.4-1.8,0.3-2.6-0.2c-0.1-0.1-0.5-0.3-0.4,0.1c1.6,2.3,3.4,4.2,5,5.9c0.3,0,0.2-0.5,0.2-0.8c-0.1-0.7,0.2-1.4,0.7-1.8
		c0.9-0.8,2.2-0.7,3,0.2c0.8,0.9,0.7,2.2-0.2,3c-0.6,0.5-1.4,0.6-2.1,0.4c-0.1-0.1-0.5-0.1-0.3,0.2c1.9,1.7,3.6,3,5.1,4c0,0,0,0,0,0
		c0.4,0.1,0.2-0.4,0.2-0.7c-0.2-0.7,0-1.4,0.7-1.8c0.6-0.4,1.4-0.5,2-0.1c1,0.6,1.2,1.9,0.4,2.7c-0.5,0.5-1.1,0.7-1.8,0.5
		c-0.1,0-0.3,0-0.3,0.1C90.3,158.7,90.9,159.1,91.3,159.3z"/>
	<path class="st0" d="M133.5,106c0-15.5-12.6-28.1-28.1-28.1C89.9,78,77.3,90.5,77.3,106c0,15.5,12.6,28.1,28.1,28.1
		C120.9,134.1,133.5,121.5,133.5,106z M118.8,93.9l1,0.3c0.2,2.5-3.3,4.8-3.3,4.8C118.5,96.9,119.2,95.1,118.8,93.9z M85.9,98.4
		c0,0,5.1-6.3,12.2-5.1c-4.6,0-8.1,2.1-10,4.9c1.9,1.3,4.1,5.5,5.3,12.7C90.9,102.8,88.2,99.7,85.9,98.4z M98.1,118.2l-0.8-0.6
		c0.6-2.4,4.6-3.6,4.6-3.6C99.3,115.5,98,116.9,98.1,118.2z M95.5,98.8l3.9,0.7l3.4,13.7c-0.4,0-0.7,0.1-1.1,0.2l-0.3,0.1
		c-3.5,1-6.2,3.6-6.2,3.6c-1.9-11.2-3.7-17.5-5.3-18.8c0,0,9.3-9.7,16.3-0.8c0.7,0.9,1.4,1.5,2.1,2.1c0.3,0.3,0.7,0.5,1,0.7
		c0.2,0.1,0.4,0.2,0.5,0.3L104,106l-1.2-7.4l2.8-1.7L95.5,98.8z M111.8,116.1L111.8,116.1c-1.6-0.1-3.1-0.6-4.5-1.6
		c-0.4-0.3-0.7-0.5-1.1-0.7l2.8-0.6l-3.8-0.5l-1.1-5.9l2-1.8l7.7,6.3l-2.6,1.7l9.5-1.8l-3.7-0.5l-8.7-7.5l2.5-2.5
		c5.7,1.4,11-5.4,11.8-7.4c-1.8,8.8-1.6,15.8-0.9,19C120.9,113.5,116.3,116.5,111.8,116.1z M112.8,117.1c4.9,0.8,9.8-3.1,10.6-4.4
		c0,0-2.2-6-1.2-13.9c0,7.8,1.8,12.3,2.9,13.5C124.3,113.8,118,118.8,112.8,117.1z"/>
	<path class="st0" d="M82.3,156.6c-0.3-0.2-0.7-0.1-0.8,0.2c-0.6,1.6-1.3,3.5-1.9,4.9c-0.1,0.4,0.2,0.7,0.6,0.6
		c1.8-0.7,3.9-1.8,5.4-2.6c0.3-0.2,0.3-0.7,0-0.9C84.4,158.1,83.3,157.4,82.3,156.6z"/>
	<polygon class="st0" points="72.6,116.6 45,138.4 45,138.4 39.8,142.4 39.8,142.4 34,147 40.3,143.3 45.9,140.1 75.4,123 	"/>
	<polygon class="st0" points="105.3,71.2 105.3,23.4 104.9,26.4 103.3,37.3 98.4,72 	"/>
	<path class="st0" d="M129,79.7l33.9-11.6c-11.7-17.6-31.2-29.6-53.6-30.8l6.9,35C121,73.9,125.4,76.4,129,79.7z M138.6,56.3
		l1.5,1.3c0.1,0.1,0.1,0.3,0,0.4l-0.9,1c-0.1,0.1-0.1,0.3,0,0.4l0.8,0.7c0.1,0.1,0.1,0.3,0,0.4l-0.6,0.7c-0.1,0.1-0.1,0.2,0,0.3
		l1.1,2.6c0,0.1,0,0.2,0,0.3l-0.2,0.2c-0.2,0.3-0.2,0.7,0,0.9l2.1,2.5c0.3,0.2,0.3,0.7,0,0.9l-0.4,0.4c-0.2,0.3-0.6,0.3-0.9,0.1
		l-2.7-1.7c-0.3-0.2-0.7-0.2-0.9,0.1l-0.2,0.2c-0.1,0.1-0.2,0.1-0.3,0.1l-2.7-0.8c-0.1,0-0.2,0-0.3,0.1l-0.6,0.7
		c-0.1,0.1-0.3,0.1-0.4,0l-0.8-0.7c-0.1-0.1-0.3-0.1-0.4,0l-0.9,1c-0.1,0.1-0.3,0.1-0.4,0l-1.5-1.3c-0.1-0.1-0.1-0.3,0-0.4l9-10.4
		C138.3,56.2,138.5,56.2,138.6,56.3z M115,47.3c0.1-0.2,0.2-0.3,0.4-0.3c1.9,0.7,4.9,0.4,6.5,0.4c3.8,0.2,8.2,1.1,10.8,4.2
		c1,1.2,1.6,2.8,1.8,4.5c-1.3-0.6-3.4-0.1-4.6-0.8c-1.5-0.9-1.8-3-3.1-3.9c-0.1,0-0.1,0-0.2,0c-0.1,0-0.1,0.1-0.1,0.2
		c0.5,0.9,0.6,2.5,0.7,3.3c0.4,2,1.2,4.2,3,5.2c0.9,0.6,2.3,0.7,3.4,0.4c-0.7,1-1.7,1.8-3.3,2c-6.2,0.8-4.2-6.9-6.8-10.2
		c-2-2.5-6.1-2.6-8.3-4.8C115,47.5,115,47.4,115,47.3z"/>
	<polygon class="st0" points="45.1,73.3 72.6,95 75.4,88.6 46.1,71.6 46.1,71.6 40.5,68.3 34.1,64.6 40,69.2 	"/>
	<polygon class="st0" points="138.3,95 166,73.2 166.6,72.7 176.8,64.6 166.6,70.6 165,71.5 135.4,88.6 	"/>
	<path class="st0" d="M75.4,65.1c0,0,0.3,0.1,0.6,0.2c0.1-0.3,0.2-0.5,0.2-0.8C75.8,64.7,75.5,64.9,75.4,65.1z"/>
	<path class="st0" d="M74.8,65.1c0.3,0,0.5-0.1,0.5-0.1c0,0-0.1-0.2-0.4-0.4c0,0.1,0,0.2-0.1,0.3C74.9,65,74.8,65,74.8,65.1z"/>
	<path class="st0" d="M94.7,72.3l6.8-34.9c-22.3,1.3-41.6,13.2-53.2,30.7l33.6,11.5C85.5,76.4,89.8,73.9,94.7,72.3z M78.7,68.5
		c-0.5,0.2-1.1,0.4-1.8,0.6c-0.9,0.2-2,0.2-3.2-0.1c-1-0.2-2.1-0.6-3.1-1.2c-0.5,0.1-1,0.1-1.5,0.2c-0.8,0.1-1.5,0.2-2,0.3l-0.2-1.1
		c0.5-0.1,1.3-0.2,2.1-0.3l0,0c-1.6-1.1-2.8-2.5-3.3-3.8c-0.3-0.9-0.3-1.7,0-2.4c0.3-0.8,1-1.5,2-2c1-0.5,2.2-0.7,3.5-0.4
		c1.2,0.2,2.4,0.8,3.3,1.6c0.8,0.7,1.3,1.5,1.6,2.4c0.2,0.8,0.3,1.5,0.1,2.3c1-0.5,2.5-1.1,2.5-0.8c0,0.3,0,1.9-0.1,2.2
		c-0.1,0.2-1.7-0.3-2.6-0.6c0,0,0,0,0,0c-0.2,0.7-0.8,1.2-1.7,1.6c-0.4,0.2-0.8,0.3-1.2,0.4c-0.1,0-0.3,0.1-0.4,0.1
		c1.5,0.6,2.9,0.7,4,0.5c0.6-0.1,1.1-0.3,1.6-0.5c0.7-0.3,1.4-0.8,1.9-1.4c0.5-0.5,0.8-1.1,1.1-1.7c-0.3-0.3-0.5-0.7-0.5-1.1
		L81,50.5c0-0.5,0.3-1,0.7-1.2l7.9-4.7c1-0.6,2.2,0.1,2.2,1.2L92.1,57c0,0.5-0.2,0.9-0.6,1.2l-8.5,6.3c-0.2,0.2-0.5,0.3-0.7,0.3
		c-0.3,0.6-0.7,1.3-1.3,2.1C80.3,67.6,79.6,68.1,78.7,68.5z"/>
	<path class="st0" d="M82.3,61.4C82.3,61.4,82.3,61.4,82.3,61.4c0.1-0.1,0.3-0.1,0.5-0.1l2.9-5.7c0.2-0.5,0.9-0.7,1.3-0.4l3.1,1.6
		c0.2,0.1,0.4-0.2,0.2-0.3l-2.9-2.8c-0.3-0.3-0.4-0.8-0.2-1.1l2.9-5.9c0.1-0.2-0.2-0.4-0.4-0.2l-3.4,5c-0.3,0.4-0.8,0.5-1.3,0.3
		l-2.4-1.2c-0.2-0.1-0.4,0.2-0.2,0.3l2.1,2.2c0.3,0.3,0.3,0.7,0.2,1L82.3,61.4z"/>
	<path class="st0" d="M73.8,65.9c0.5-0.2,0.8-0.5,1-0.8c-1.1,0.1-3.1-0.1-3-0.3c0.1-0.3,0.8-1.7,1.1-2c0.2-0.2,1.5,1.1,2.1,1.7
		c0.5-1.9-0.6-3.2-1.3-3.9c-0.8-0.7-1.8-1.1-2.8-1.3c-1-0.2-2-0.1-2.7,0.3c-0.7,0.4-1.2,0.8-1.4,1.4c-0.2,0.5-0.2,1,0.1,1.6
		c0.5,1.3,2,2.9,4,4c0.7-0.1,1.4-0.2,2-0.4C73.2,66.1,73.5,66,73.8,65.9z"/>
	<path class="st1" d="M119.3,159.6l-0.2,0.2c-0.1,0.1-0.1,0.3,0,0.5l0.4,0.5l-0.2,0.2c-0.3,0.4-0.1,1.1,0.4,1.6
		c0.5,0.6,1.2,0.8,1.6,0.6l0.2-0.2l0.4,0.5c0.1,0.1,0.3,0.1,0.5,0l0.2-0.2c0.1-0.1,0.1-0.3,0-0.4l-2.9-3.2
		C119.6,159.5,119.4,159.5,119.3,159.6z"/>
	<path class="st1" d="M50.8,114.1c-0.5,0.6-0.9,1.2-1.4,1.9c-0.2,0.3-0.1,0.8,0.2,1c0,0,0,0,0,0c0.3,0.2,0.7,0.1,0.9-0.2
		c0.6-0.9,1.3-1.8,2-2.6c0.1-0.1,0.1-0.2,0.2-0.3c0.8,0.8,2.7,2.2,5.1,2.7c3.3,0.8,6.2,0.6,6.4-0.5c0.2-1-2.2-2.5-5.5-3.3
		c-2-0.5-4-0.2-5.2,0.1c0.8-1,1.6-2,2.4-3c0.7,0.5,2.6,1.7,5,1.9c3,0.2,5.4-0.3,5.5-1.3c0.1-0.9-2.3-1.9-5.2-2.1
		c-2-0.2-3.9,0.5-4.8,0.9c0.8-1.1,1.6-2.3,2.2-3.5c0.8,0.4,2.5,1,4.4,0.9c2.6-0.2,4.7-1,4.6-1.8c-0.1-0.8-2.2-1.3-4.8-1.2
		c-1.6,0.1-2.9,0.7-3.8,1.2c0.5-1,0.9-1.9,1.2-3c0.7,0.3,2,0.7,3.5,0.6c2.2-0.2,3.9-0.9,3.9-1.6c-0.1-0.7-1.9-1.1-4.1-0.9
		c-1.3,0.1-2.4,0.6-3.1,1c0.2-0.8,0.3-1.6,0.3-2.5c0.5,0.2,1.3,0.3,2.2,0.1c1.5-0.2,2.6-0.8,2.5-1.3c-0.1-0.5-1.3-0.6-2.8-0.4
		c-0.8,0.1-1.5,0.5-1.9,0.8c0-0.1,0-0.2,0-0.3c0-0.3-0.1-0.5-0.3-0.6c-0.1,0.2-0.2,0.3-0.2,0.3c0,0-0.2-0.2-0.3-0.4
		c-0.4,0.1-0.5,0.3-0.5,0.8c0.3,0.3,0.6,0.5,0.7,0.7c0,0-0.1,0.1-0.1,0.1c0,0,0.1,0,0.1,0.1c-0.1,0-0.3,0.1-0.8,0.2
		c0,0.9-0.2,1.7-0.4,2.5c0.3,0.4,0.5,0.7,0.5,0.7c0,0-0.3,0.1-0.8,0.1c-0.3,1-0.8,2.1-1.4,3.1c0.4,0.4,0.5,0.7,0.5,0.7
		c0,0-0.4,0.1-1.1,0.2c-0.6,1-1.3,2-2.1,3c0.2,0.2,0.3,0.4,0.3,0.4c0,0-0.3,0.1-0.8,0.2c-0.8,1-1.6,2.1-2.5,3.1c0,0-0.1,0.1-0.1,0.1
		c-0.9-0.7-2.9-1.9-5.2-2.2c-3.4-0.5-6.2,0-6.4,1.1c-0.1,1.1,2.5,2.3,5.8,2.7C47.9,114.8,49.6,114.5,50.8,114.1z"/>
	<path class="st1" d="M123.4,52.4c2.6,3.2,0.6,11,6.8,10.2c1.5-0.2,2.6-1,3.3-2c-1.1,0.3-2.5,0.1-3.4-0.4c-1.8-1.1-2.6-3.3-3-5.2
		c-0.2-0.8-0.2-2.4-0.7-3.3c0-0.1,0.1-0.2,0.1-0.2c0.1,0,0.1,0,0.2,0c1.3,1,1.6,3.1,3.1,3.9c1.2,0.7,3.3,0.3,4.6,0.8
		c-0.2-1.7-0.8-3.3-1.8-4.5c-2.6-3.1-6.9-4-10.8-4.2c-1.5-0.1-4.5,0.3-6.5-0.4c-0.2,0-0.3,0.2-0.4,0.3c0,0.1,0,0.2,0.1,0.4
		C117.3,49.8,121.4,49.8,123.4,52.4z"/>
	<path class="st1" d="M119.9,159.4L119.9,159.4l-0.3,0.1l0.1,0.1c0,0,0,0,0,0l2.8,3.1c0,0,0,0,0,0l0,0l0.2-0.2l-1.9-2.1L119.9,159.4
		L119.9,159.4z"/>
	<path class="st1" d="M185,108.8c1.6-1.7,1.6-4.3,0-6l-4.6-5c-1.1-9.8-4.1-19-8.6-27.3l7.6-6.6c0.5-0.5,0-1.4-0.7-1.1l-9.5,3.3
		c-11.9-19-32-32.2-55.4-34.8l-7-6.4l-0.9-4.6c-0.1-0.6-1-0.6-1.1,0l-0.9,4.8l-6.7,6.2C73.9,33.8,53.8,47.1,41.9,66l-9.7-3.3
		c-0.7-0.2-1.2,0.7-0.7,1.2l7.8,6.8c-4.4,8.2-7.4,17.3-8.5,27l-5.5,5.9c-1.2,1.3-1.2,3.2,0,4.5l5.4,5.8c1,9.8,4,18.9,8.4,27.2
		l-6.9,6c-0.7,0.6,0,1.8,0.9,1.5l8.6-3c12,19.3,32.3,32.7,56,35.2l6.2,5.8l0.7,3.6c0.2,0.9,1.4,0.8,1.6,0l0.7-3.6l6.3-5.8
		c23.7-2.4,44.1-15.8,56.1-35l8.3,2.8c0.9,0.3,1.6-0.9,0.9-1.5l-6.6-5.8c4.5-8.4,7.5-17.7,8.5-27.6L185,108.8z M166.6,70.6l10.2-5.9
		l-10.2,8l-0.6,0.5L138.3,95l-2.8-6.4L165,71.5L166.6,70.6z M162.9,68.1L129,79.7c-3.7-3.3-8-5.8-12.8-7.4l-6.9-35
		C131.7,38.6,151.2,50.5,162.9,68.1z M104.9,26.4l0.4-3l0,47.8l-7,0.8l5-34.6L104.9,26.4z M101.5,37.5l-6.8,34.9
		c-4.8,1.5-9.2,4.1-12.8,7.4L48.2,68.2C59.8,50.6,79.2,38.8,101.5,37.5z M34.1,64.6l6.4,3.7l5.6,3.3h0l29.3,17L72.6,95L45.1,73.3
		l-5.1-4L34.1,64.6z M36.8,106c0-11.2,2.7-21.7,7.4-31l26.6,23.3c-0.6,2.5-0.9,5.1-0.9,7.8c0,2.5,0.3,5,0.8,7.4l-26.7,23.3
		C39.5,127.5,36.8,117,36.8,106z M40.3,143.3L34,147l5.8-4.6v0l5.1-4v0l27.6-21.8l2.8,6.4l-29.5,17L40.3,143.3z M48,143.5L81.5,132
		c3.8,3.5,8.3,6.1,13.3,7.7l6.9,34.9C79.1,173.3,59.6,161.2,48,143.5z M105.4,134.1c-15.5,0-28.1-12.6-28.1-28.1
		c0-15.5,12.6-28.1,28.1-28.1c15.5,0,28.1,12.6,28.1,28.1C133.5,121.5,120.9,134.1,105.4,134.1z M106.9,178.6l-1.4,9.7l0-11.7l0-1.8
		l0-34.3l7-0.8l-5,35L106.9,178.6z M109.3,174.5l6.8-34.8c5-1.6,9.5-4.2,13.2-7.7l33.7,11.6C151.4,161.3,131.8,173.3,109.3,174.5z
		 M176.8,147.1l-6-3.5l-1.7-1l-33.6-19.5l2.8-6.4l31.3,24.7l1.7,1.3L176.8,147.1z M166.9,137l-27-23.6c0.5-2.4,0.8-4.9,0.8-7.4
		c0-2.7-0.3-5.2-0.8-7.7l26.9-23.5c4.8,9.4,7.5,19.9,7.5,31.2C174.3,117.1,171.6,127.7,166.9,137z"/>
	<path class="st1" d="M89.9,158.2c0.6,0.2,1.3,0,1.8-0.5c0.7-0.8,0.6-2.1-0.4-2.7c-0.6-0.4-1.4-0.3-2,0.1c-0.6,0.5-0.8,1.2-0.7,1.8
		c0.1,0.2,0.2,0.8-0.2,0.7c0,0,0,0,0,0c-1.5-1-3.2-2.3-5.1-4c-0.2-0.3,0.2-0.3,0.3-0.2c0.7,0.3,1.5,0.2,2.1-0.4c0.9-0.8,1-2.1,0.2-3
		c-0.8-0.9-2.1-1-3-0.2c-0.5,0.5-0.8,1.2-0.7,1.8c0,0.2,0.1,0.8-0.2,0.8c-1.7-1.6-3.4-3.6-5-5.9c-0.1-0.4,0.3-0.2,0.4-0.1
		c0.7,0.5,1.7,0.6,2.6,0.2c1.2-0.6,1.7-2.1,1.1-3.3c-0.6-1.2-2.1-1.7-3.3-1.1c-0.8,0.4-1.2,1.1-1.3,1.9c0,0.3-0.2,1.1-0.6,0.8
		c-0.7-1-1.3-2.1-1.9-3.3c-0.3-0.5-0.8-0.7-1.3-0.5l-1.3,0.5c-0.6,0.2-0.8,0.9-0.5,1.5c0.4,0.7,1.1,1.8,1.9,3
		c-2.5,0.7-6.2,1.7-9.3,2c-0.6,0.1-0.9,0.8-0.5,1.3c0.3,0.4,0.7,0.8,1.1,1.2c0.2,0.2,0.4,0.3,0.7,0.3c1.6-0.2,4.7-0.6,6.6-1.2
		c0,0-1.5,2.5-2.7,4.4c-0.3,0.4-0.2,0.9,0.2,1.2c0.4,0.4,0.8,0.7,1.3,1.1c0.3,0.3,0.8,0.2,1-0.2c0.9-1.4,2.4-4,3.7-6.2
		c0.2-0.4,0.7-0.4,1-0.1c0.8,1,1.7,2,2.7,3c0.3,0.3,0.2,0.8-0.2,1c-2,0.9-4.5,2-6.8,2.6c-0.3,0.1-0.4,0.5-0.2,0.8
		c0.5,0.4,1,0.8,1.5,1.1c0.3,0.2,0.6,0.3,1,0.2c1.5-0.4,3.5-1.1,4.8-1.8c0,0-0.7,1.9-1.4,3.6c-0.2,0.4,0,0.9,0.4,1.1
		c1.3,0.8,2.7,1.4,4,2c0.3,0.2,0.7,0.2,1.1,0c1.1-0.4,2.5-1,3.3-1.6c0,0-0.3,0.9-0.6,1.9c-0.2,0.5,0.1,1.1,0.7,1.2
		c0.2,0,0.3,0.1,0.5,0.1c0.4,0.1,0.9-0.2,1-0.6c0.5-1.5,1-3.2,1.3-4.4c0.4,0.2,0.8,0.3,1.3,0.5c0.3,0.1,0.7,0.1,0.9-0.1l0.5-0.3
		c0.4-0.3,0.4-0.9,0-1.1c-0.5-0.2-1.1-0.6-1.8-1C89.5,158.1,89.8,158.2,89.9,158.2z M85.5,159.7c-1.5,0.9-3.6,1.9-5.4,2.6
		c-0.4,0.1-0.7-0.2-0.6-0.6c0.6-1.4,1.3-3.3,1.9-4.9c0.1-0.3,0.5-0.4,0.8-0.2c1,0.8,2.1,1.5,3.3,2.2C85.9,159,85.9,159.5,85.5,159.7
		z"/>
	<path class="st1" d="M166.2,92.7l0.2-2.7c0-0.2-0.2-0.3-0.4-0.2l-2,1.8c-0.1,0.1-0.2,0.1-0.2,0l-2.5-1c-0.2-0.1-0.4,0.1-0.3,0.3
		l1.1,2.4c0,0.1,0,0.2,0,0.2l-1.7,2c-0.1,0.2,0,0.4,0.2,0.4l2.6-0.3c0.1,0,0.2,0,0.2,0.1l1.4,2.3c0.1,0.2,0.4,0.1,0.4-0.1l0.5-2.6
		c0-0.1,0.1-0.2,0.2-0.2l2.6-0.6c0.2-0.1,0.2-0.3,0.1-0.4l-2.3-1.3C166.2,92.9,166.2,92.8,166.2,92.7z"/>
	<path class="st1" d="M136.3,159.6c-0.2-0.1-0.4-0.1-0.5,0c0,0,0,0,0,0c-0.1,0.1-0.1,0.3,0,0.5l2.2,3.1c0.1,0.2,0.4,0.2,0.5,0.1
		l1.1-0.8c0.2-0.2,0.2-0.5,0-0.6L136.3,159.6z"/>
	<path class="st1" d="M157.2,102.2c-0.1-0.5-0.7-0.8-1.2-0.6l-10.2,5.1c-0.4,0.2-0.6,0.7-0.4,1.1l5.8,11.5c0.2,0.3,0.5,0.5,0.9,0.4
		l7.4-1.5c0.5-0.1,0.8-0.5,0.7-1L157.2,102.2z"/>
	<path class="st1" d="M152.2,94c0.1,0.1,0.1,0.2,0,0.2l-0.8,1.8c-0.1,0.2,0.1,0.4,0.3,0.3l1.8-0.7c0.1,0,0.2,0,0.2,0l1.4,1.3
		c0.2,0.1,0.4,0,0.4-0.2l-0.1-1.9c0-0.1,0-0.2,0.1-0.2l1.7-1c0.2-0.1,0.1-0.4-0.1-0.4l-1.9-0.5c-0.1,0-0.2-0.1-0.2-0.2l-0.4-1.9
		c0-0.2-0.3-0.3-0.4-0.1l-1,1.7c0,0.1-0.1,0.1-0.2,0.1l-1.9-0.2c-0.2,0-0.3,0.2-0.2,0.4L152.2,94z"/>
	<path class="st1" d="M129.2,67.1l1.5,1.3c0.1,0.1,0.3,0.1,0.4,0l0.9-1c0.1-0.1,0.3-0.1,0.4,0l0.8,0.7c0.1,0.1,0.3,0.1,0.4,0
		l0.6-0.7c0.1-0.1,0.2-0.1,0.3-0.1l2.7,0.8c0.1,0,0.2,0,0.3-0.1l0.2-0.2c0.2-0.3,0.6-0.3,0.9-0.1l2.7,1.7c0.3,0.2,0.7,0.2,0.9-0.1
		l0.4-0.4c0.2-0.3,0.2-0.7,0-0.9l-2.1-2.5c-0.3-0.2-0.3-0.7,0-0.9l0.2-0.2c0.1-0.1,0.1-0.2,0-0.3l-1.1-2.6c0-0.1,0-0.2,0-0.3
		l0.6-0.7c0.1-0.1,0.1-0.3,0-0.4l-0.8-0.7c-0.1-0.1-0.1-0.3,0-0.4l0.9-1c0.1-0.1,0.1-0.3,0-0.4l-1.5-1.3c-0.1-0.1-0.3-0.1-0.4,0
		l-9,10.4C129.1,66.8,129.1,67,129.2,67.1z"/>
	<path class="st1" d="M168.7,102.6c0.1-0.2-0.1-0.4-0.3-0.3l-1.5,0.4c-0.1,0-0.2,0-0.2-0.1l-1-1.1c-0.1-0.2-0.4-0.1-0.4,0.1
		l-0.1,1.5c0,0.1-0.1,0.2-0.1,0.2l-1.4,0.6c-0.2,0.1-0.2,0.4,0,0.4l1.4,0.5c0.1,0,0.1,0.1,0.2,0.2l0.2,1.5c0,0.2,0.3,0.3,0.4,0.1
		l0.9-1.2c0.1-0.1,0.1-0.1,0.2-0.1l1.5,0.3c0.2,0,0.4-0.2,0.2-0.4l-0.8-1.3c-0.1-0.1-0.1-0.2,0-0.3L168.7,102.6z"/>
	<path class="st1" d="M121.1,155.2C121.1,155.2,121.1,155.2,121.1,155.2c0-0.1-0.1-0.2-0.2-0.2l-3.4,0.5c-0.1,0-0.2,0.1-0.2,0.3
		l0.3,1c0,0.1,0.2,0.2,0.3,0.1l3.1-1.5C121.1,155.4,121.1,155.3,121.1,155.2z"/>
	<path class="st1" d="M158.6,99.2c-0.1-0.5-0.7-0.8-1.2-0.5l-0.7,0.4l-8.6,5.4c-0.1,0.1,0,0.2,0.1,0.2l8.4-4c0.4-0.2,0.9,0,1,0.5
		l2.7,12.7c0.1,0.5,0.6,0.7,1,0.4c0.2-0.1,0.3-0.4,0.2-0.6L158.6,99.2z"/>
	<path class="st1" d="M130.3,144.5C130.3,144.5,130.3,144.5,130.3,144.5c0.2,0,0.4-0.1,0.5-0.4l2-6.5c0.1-0.4-0.2-0.7-0.5-0.7
		l-1.5,0.1c-0.3,0-0.4,0.2-0.5,0.5l-0.5,6.4C129.7,144.3,130,144.5,130.3,144.5z"/>
	<path class="st1" d="M72.8,62.8c-0.3,0.2-0.9,1.7-1.1,2c-0.1,0.2,2,0.4,3,0.3c0-0.1,0.1-0.1,0.1-0.2c0-0.1,0.1-0.2,0.1-0.3
		C74.3,63.9,73,62.6,72.8,62.8z"/>
	<path class="st1" d="M127.1,161.8C127.1,161.8,127.1,161.8,127.1,161.8c-0.1,0-0.2,0-0.3,0.1l-1.8,3c-0.1,0.1,0,0.3,0.1,0.3l1,0.4
		c0.1,0,0.3,0,0.3-0.2l0.8-3.3C127.3,162,127.3,161.9,127.1,161.8z"/>
	<path class="st1" d="M120.6,158.8c-0.1-0.1-0.3-0.1-0.5,0l-0.2,0.2c-0.1,0.1-0.1,0.3,0,0.5l1,1.1l1.8,2c0.1,0.1,0.3,0.1,0.5,0
		l0.2-0.2c0.1-0.1,0.1-0.3,0-0.5L120.6,158.8z"/>
	<path class="st1" d="M131.3,162.1C131.3,162.1,131.3,162.1,131.3,162.1c-0.1,0-0.2,0.1-0.2,0.2l-0.3,3.9c0,0.1,0.1,0.2,0.2,0.2
		l1.5-0.2c0.1,0,0.2-0.1,0.2-0.3l-1.2-3.8C131.6,162.1,131.5,162,131.3,162.1z"/>
	<path class="st1" d="M136.6,147.2C136.6,147.3,136.6,147.3,136.6,147.2c0.1,0.1,0.3,0.2,0.4,0.1l5.5-4.1c0.1-0.1,0.2-0.3,0-0.5
		l-0.9-1c-0.1-0.1-0.3-0.1-0.5,0l-4.6,5C136.5,146.9,136.5,147.1,136.6,147.2C136.6,147.2,136.6,147.2,136.6,147.2z"/>
	<path class="st1" d="M138.6,154.3l7.4,0.2l0.5-2.7l-7.8,1.6C138.7,153.7,138.6,154,138.6,154.3z"/>
	<path class="st1" d="M59.5,97.7c-0.4-0.3-0.9-0.6-1.5-0.8c-1.4-0.5-2.7-0.5-2.8-0.1c-0.1,0.4,0.9,1.2,2.3,1.6
		c0.8,0.3,1.5,0.3,2,0.2c0-0.3,0-0.5,0-0.8C59.5,97.9,59.5,97.8,59.5,97.7z"/>
	<path class="st1" d="M125.9,147.7c-1,0.7-1.7,1.5-2.1,2.5l0,0c0,0,0,0.1-0.1,0.1c0,0,0,0.1-0.1,0.1c0,0.1,0,0.1-0.1,0.2
		c-0.1,0.3-0.2,0.7-0.3,1c-0.1,0.5-0.3,1.1-0.3,1.8c-0.2,1.2-0.3,2.8-0.5,3c-0.1,0.2-0.3,0.4-0.6,0.7c-0.1,0.1-0.2,0.2-0.4,0.4
		c-0.3,0.3-0.5,0.8-0.2,1.1c0.2,0.2,0.3,0.3,0.5,0.5c0.1,0.1,0.1,0.1,0.2,0.2c0,0,0.1,0.1,0.1,0.1l0.5,0.6c0.1,0.2,0.3,0.3,0.5,0.5
		c0.2,0.2,0.3,0.4,0.5,0.6c0,0,0,0.1,0.1,0.1c0.3,0.4,0.8,0.2,1.1-0.1c0.1-0.1,0.3-0.2,0.4-0.3c0.3-0.3,0.6-0.4,0.8-0.5
		c0.3-0.1,1.8-0.1,3.1-0.1c0.6,0,1.2-0.1,1.6-0.1c1.4-0.1,2.8-0.7,3.9-1.7c2.9-2.6,3-7.1,0.2-9.9
		C132.3,146.1,128.6,145.8,125.9,147.7z"/>
	<path class="st1" d="M119.8,94.2l-1-0.3c0.5,1.2-0.3,3-2.3,5.2C116.4,99.1,120,96.7,119.8,94.2z"/>
	<path class="st1" d="M97.2,117.6l0.8,0.6c-0.1-1.3,1.2-2.7,3.8-4.2C101.9,114,97.8,115.1,97.2,117.6z"/>
	<path class="st1" d="M56.5,99.2c-2-0.9-3.9-1.1-4.1-0.5c-0.3,0.6,1.1,1.9,3.1,2.8c1.3,0.6,2.6,0.7,3.4,0.6c0.1-0.3,0.2-0.6,0.3-0.8
		C58.6,100.6,57.7,99.7,56.5,99.2z"/>
	<path class="st1" d="M54.2,102.7c-2.4-1-4.7-1.2-5-0.4c-0.3,0.8,1.4,2.2,3.9,3.1c1.5,0.6,2.9,0.6,3.9,0.6c0.2-0.3,0.4-0.6,0.5-0.9
		C56.9,104.4,55.7,103.4,54.2,102.7z"/>
	<path class="st1" d="M78.6,65.9c0.1-0.3,0.1-1.9,0.1-2.2c0-0.2-1.5,0.3-2.5,0.8c0,0.3-0.1,0.5-0.2,0.8
		C76.9,65.6,78.5,66.1,78.6,65.9z"/>
	<path class="st1" d="M121.3,151C121.3,151,121.3,151,121.3,151c0-0.1,0-0.2-0.1-0.3l-3.6-1.6c-0.1-0.1-0.3,0-0.3,0.2l-0.3,1.4
		c0,0.1,0.1,0.3,0.2,0.3l3.9,0.1C121.2,151.2,121.3,151.1,121.3,151z"/>
	<path class="st1" d="M60.4,97.1c0.2-0.5,0.6-1.4,0.5-2.4c-0.1-1.5-0.5-2.7-1-2.6c-0.5,0-0.8,1.2-0.7,2.7c0,0.9,0.4,1.7,0.7,2.2
		c0,0,0.1,0,0.1,0C60.1,96.9,60.3,97,60.4,97.1z"/>
	<path class="st1" d="M88.2,98.2c1.9-2.8,5.4-4.9,10-4.9c-7.2-1.2-12.2,5.1-12.2,5.1c2.2,1.3,5,4.4,7.5,12.5
		C92.3,103.7,90.1,99.5,88.2,98.2z"/>
	<path class="st1" d="M123.7,146.8c0.1,0.1,0.4,0.1,0.5,0c0,0,0,0,0,0c0.1-0.1,0.2-0.3,0.1-0.5l-1.9-3.4c-0.1-0.2-0.4-0.3-0.6-0.1
		l-0.9,1c-0.1,0.2-0.1,0.4,0,0.6L123.7,146.8z"/>
	<path class="st1" d="M82.9,64.5l8.5-6.3c0.4-0.3,0.6-0.7,0.6-1.2l-0.2-11.1c0-1.1-1.2-1.8-2.2-1.2l-7.9,4.7
		c-0.4,0.3-0.7,0.7-0.7,1.2l-0.4,12.8c0,0.5,0.2,0.9,0.5,1.1c-0.3,0.5-0.6,1.1-1.1,1.7c-0.5,0.6-1.1,1-1.9,1.4
		c-0.5,0.2-1,0.4-1.6,0.5c-1.1,0.3-2.5,0.1-4-0.5c0.2,0,0.3-0.1,0.4-0.1c0.5-0.1,0.9-0.3,1.2-0.4c0.9-0.4,1.5-1,1.7-1.6c0,0,0,0,0,0
		c-0.4-0.1-0.6-0.2-0.6-0.2c0.1-0.1,0.4-0.3,0.8-0.6c0.2-0.8,0.1-1.6-0.1-2.3c-0.3-0.9-0.9-1.7-1.6-2.4c-0.9-0.8-2.1-1.4-3.3-1.6
		c-1.3-0.2-2.5-0.1-3.5,0.4c-1,0.5-1.6,1.2-2,2c-0.3,0.7-0.3,1.6,0,2.4c0.5,1.3,1.7,2.6,3.3,3.8l0,0c-0.8,0.1-1.6,0.2-2.1,0.3
		l0.2,1.1c0.5-0.1,1.2-0.2,2-0.3c0.5-0.1,1-0.1,1.5-0.2c1,0.5,2.1,1,3.1,1.2c1.2,0.3,2.3,0.3,3.2,0.1c0.7-0.2,1.2-0.4,1.8-0.6
		c0.9-0.4,1.7-0.9,2.2-1.6c0.6-0.7,1-1.4,1.3-2.1C82.5,64.8,82.7,64.7,82.9,64.5z M66.8,62.6c-0.2-0.6-0.2-1.1-0.1-1.6
		c0.2-0.5,0.7-1,1.4-1.4c0.7-0.4,1.7-0.5,2.7-0.3c1,0.2,2,0.7,2.8,1.3c0.7,0.6,1.8,1.9,1.3,3.9c0.2,0.2,0.4,0.4,0.4,0.4
		c-0.1,0.1-0.3,0.1-0.5,0.1c-0.2,0.3-0.5,0.6-1,0.8c-0.3,0.1-0.6,0.3-1.1,0.4c-0.6,0.2-1.3,0.3-2,0.4C68.8,65.5,67.3,64,66.8,62.6z
		 M84.6,53l-2.1-2.2c-0.2-0.2,0-0.4,0.2-0.3l2.4,1.2c0.4,0.2,1,0.1,1.3-0.3l3.4-5c0.1-0.2,0.5,0,0.4,0.2l-2.9,5.9
		c-0.2,0.4-0.1,0.8,0.2,1.1l2.9,2.8c0.2,0.2,0,0.4-0.2,0.3L87,55.2c-0.5-0.3-1.1-0.1-1.3,0.4l-2.9,5.7c-0.2,0-0.4,0-0.5,0.1
		c0,0,0,0,0,0l2.5-7.4C85,53.6,84.9,53.2,84.6,53z"/>
	<path class="st1" d="M104,106l5.8-5.5c-0.2-0.1-0.4-0.2-0.5-0.3c-0.4-0.2-0.7-0.4-1-0.7c-0.7-0.5-1.4-1.2-2.1-2.1
		c-7-8.9-16.3,0.8-16.3,0.8c1.6,1.3,3.4,7.6,5.3,18.8c0,0,2.6-2.7,6.2-3.6l0.3-0.1c0.4-0.1,0.7-0.1,1.1-0.2l-3.4-13.7l-3.9-0.7
		l10.1-1.9l-2.8,1.7L104,106z"/>
	<path class="st1" d="M41.7,96.2c2.4,0.4,4.3,2.3,6.8,1c0.6-0.3,1.1-0.9,1.6-1.3c0.3-0.3,3.6-1.7,4.7-2.1c0.2-0.1,0.3-0.3,0.2-0.5
		c-0.2-0.4-0.4-1-0.6-1.4c-0.1-0.2-0.5-0.3-0.6,0c-0.4,0.6-1.1,1.4-1.2,1.5c-0.5,0.7-1.1,0.9-1.9,1.1c0,0,0,0,0,0
		c-0.3,0.1-0.6-0.3-0.4-0.6c0.7-0.8,1.1-1.9,1.1-3.1c0-0.3-0.3-0.4-0.5-0.3c-1.9,0.7-3.9,1.9-4.2,3.9c0,0.2-0.2,0.3-0.5,0.3
		c-1.2-0.3-2.6-1.3-3.7-0.4c-0.2,0.2-0.6,0.8-1,1.3C41.3,95.8,41.4,96.1,41.7,96.2z"/>
	<path class="st1" d="M121.7,112.4c-0.6-3.2-0.9-10.2,0.9-19c-0.8,2-6.1,8.8-11.8,7.4l-2.5,2.5l8.7,7.5l3.7,0.5l-9.5,1.8l2.6-1.7
		l-7.7-6.3l-2,1.8l1.1,5.9l3.8,0.5l-2.8,0.6c0.4,0.2,0.7,0.4,1.1,0.7c1.4,1,2.9,1.5,4.4,1.6l0,0
		C116.3,116.5,120.9,113.5,121.7,112.4z"/>
	<path class="st1" d="M50.6,106.2c-2.8-1-5.3-1-5.6-0.1c-0.3,0.9,1.7,2.4,4.6,3.3c1.9,0.7,3.8,0.5,4.8,0.4c0.2-0.2,0.3-0.4,0.5-0.6
		C54.2,108.3,52.7,106.9,50.6,106.2z"/>
	<path class="st1" d="M123.4,112.7c-0.7,1.3-5.7,5.2-10.6,4.4c5.2,1.6,11.5-3.4,12.3-4.7c-1.1-1.2-2.9-5.7-2.9-13.5
		C121.1,106.7,123.4,112.7,123.4,112.7z"/>
</g>
</svg>
