<?xml version="1.0" encoding="utf-8"?>
<!-- Generator: Adobe Illustrator 19.0.1, SVG Export Plug-In . SVG Version: 6.00 Build 0)  -->
<svg version="1.1" id="Layer_1" xmlns="http://www.w3.org/2000/svg" xmlns:xlink="http://www.w3.org/1999/xlink" x="0px" y="0px"
	 viewBox="0 0 210.6 210.6" style="enable-background:new 0 0 210.6 210.6;" xml:space="preserve">
<style type="text/css">
	.st0{fill:none;}
	.st1{fill:#AC0033;}
</style>
<g>
	<path class="st0" d="M107.4,164.3c0.2,0,0.5-0.1,0.8-0.2c-0.9-0.1-1.8-0.2-2.7-0.3c0.3,0.6,0.5,1.2,0.8,1.8c0-0.4,0-0.7,0.2-0.9
		C106.8,164.4,107.2,164.4,107.4,164.3z"/>
	<path class="st0" d="M69.5,170.3c0-1.5,0.9-2.6,1.6-3.3c0.3-0.3,0.6-0.9,0.7-1.5c-2.5,0.6-4.8,1.4-6.9,2.3c0.6,0.1,1,0.4,2,1
		c0.9,0.7,0.7,1.4,0.5,1.8c-0.2,0.5-0.4,1.2,0.7,2.8c0.2,0.3,0.4,0.6,0.5,0.7c0-0.2,0-0.4,0-0.6c0-0.1,0-0.2,0.1-0.3
		C68.9,172.7,69.5,171.2,69.5,170.3z"/>
	<path class="st0" d="M99.9,102.1c0.1-0.1,0.1-0.1,0.2-0.2c0,0,0.1-0.1,0.1-0.1c0.2-0.2,0.3-0.4,0.5-0.5l0.1-0.1
		c0.1-0.2,0.3-0.3,0.4-0.4c0.3-0.3,0.6-0.6,0.8-0.7c0.1-0.1,0.2-0.2,0.3-0.2l0.2-0.1c0,0,0.1-0.1,0.1-0.1c0.1-0.1,0.2-0.1,0.3-0.1
		l0.7-0.1c0,0,0,0,0,0c-3.5-2-6.2-4.6-7.9-7.7c0,0,0,0,0,0c-0.1,0.2-0.1,0.3-0.2,0.5c-0.1,0.2-0.2,0.3-0.3,0.4l-0.1,0.1
		c-0.1,0.1-0.2,0.2-0.3,0.3c-0.2,0.2-0.4,0.2-0.5,0.3c-0.2,0.1-0.4,0.2-0.5,0.2l-0.1,0c0,0-0.1,0-0.1,0c0,0,0,0.1,0,0.1
		c0,0.2-0.1,0.4-0.2,0.6c-0.1,0.2-0.2,0.3-0.3,0.4c0,0,0,0-0.1,0.1c0,0.1-0.1,0.1-0.1,0.1c0.2,0.3,0.4,0.7,0.5,1.2
		c0.2,0,0.3,0,0.5,0c0.8,0,1.4,0.4,1.8,0.9c0.4,0.7,0.5,1.6,0.2,2.5c1.5,1,2.9,1.8,3.9,2.4C99.6,101.9,99.8,102,99.9,102.1z"/>
	<path class="st0" d="M103.1,134.7c0,0.1-0.1,0.2-0.1,0.4c0.9,0,1.9,0,2.9,0l-0.1-0.3c0-0.1,0-0.2,0-0.3l0-0.2c0-0.1,0-0.2,0-0.3
		l0-0.2c0-0.1,0-0.2,0-0.3c0-0.1,0-0.1,0-0.2c0-0.1,0-0.2,0-0.3l0-0.2c0-0.2,0-0.4,0.1-0.6c0-0.1,0-0.1,0.1-0.2
		c-0.1-0.6-0.2-1.3-0.4-2l-0.6-3.2l0.6-0.3l0,0l-0.7,0.1l-0.9-4.3l0,0l-0.1-0.6l0.6-0.3l0,0l-0.7,0.1l0-0.2c-0.3,0-0.6-0.1-0.8-0.1
		l-0.2,0c-0.1,0-0.3,0-0.4-0.1c0,0.4,0.1,0.8,0.1,1.1l0.2,6.2l0,2.4c0,0.5,0,0.9-0.1,1.3c0,0,0.1,0.1,0.1,0.1l0.1,0.1
		c0.1,0.1,0.1,0.2,0.2,0.3l0.1,0.1c0.1,0.1,0.1,0.2,0.1,0.3c0,0,0.1,0.1,0.1,0.1c0.1,0.1,0.1,0.3,0.1,0.4c0,0.1,0,0.2,0,0.3
		c0,0.2-0.1,0.4-0.2,0.6L103.1,134.7z"/>
	<polygon class="st0" points="94.3,117.1 94.3,117.1 94.3,117.1 	"/>
	<polygon class="st0" points="95.7,118 95.7,118 95.7,118 	"/>
	<path class="st0" d="M83.5,159.4c4.9-0.4,10-0.5,15.4-0.2c0-0.1-0.1-0.1-0.1-0.2l-0.5-1.1c-0.3-0.3-0.5-0.6-0.7-1
		c-0.1-0.2-0.2-0.4-0.3-0.6c-0.5-0.7-0.6-1.3-0.6-2c-0.1-0.4-0.1-0.9-0.3-1.5c-0.2-0.6-0.6-0.6-1.4-0.7c-0.4,0-0.8,0-1.2-0.2
		c-0.3-0.2-0.5-0.5-0.4-0.9c0-0.3,0.1-0.9,2.4-1.4c0.7-0.2,2-0.5,2.5-1.1c0.1-0.1,0.1-0.1,0.1-0.1c0,0-0.2-0.2-0.3-0.4
		c-0.2-0.3-0.5-0.7-0.8-1.2c-0.1-0.2-0.1-0.2-0.1-0.2c-0.1,0-0.7,0.6-1.1,1.6c-0.3,0.8-0.5,1.2-1,1.4c-0.5,0.2-0.8-0.1-1.4-0.4
		c-1-0.6-1.3-1.5-1.8-3.4l-0.2-0.7c-0.3-1.1-0.7-1.1-2.2-0.8c-0.4,0.1-0.9,0.2-1.5,0.2c-0.7,0.1-1.2,0.1-1.6,0.2
		c-0.9,0.1-1.4,0.2-2.5,0c-0.7-0.2-0.9-0.6-1-0.9c-0.1-0.4,0.2-0.8,0.6-1.2c-2.9,1-5.8,2.1-8.5,3.4l0.6,1c2.1,0.3,4.6,0.6,5.5,1
		c0.4,0.2,0.8,0.2,1.1,0.3c0.5,0.1,1.2,0.2,1.5,0.9c0.1,0.3,0.2,0.5,0.2,0.6c0,0,0.1,0,0.2,0c0.7,0.1,1.5,0.5,2.2,0.8
		c0.2,0.1,0.5,0.2,0.7,0.3c0.6,0.3,1,0.8,1,1.4c0,0.8-0.5,1.5-1.5,2c-1,0.5-1.5,0.3-2-0.2c-0.2-0.2-0.2-0.2-0.5-0.3
		c0.1,0.2,0.3,0.4,0.5,0.5c0.1,0,0.2,0.1,0.3,0.2c0.6,0.4,1.5,0.9,1.6,1.7c0,0.3,0,0.7-0.4,1.1c-0.8,0.8-1.7,0.3-2.1,0.1
		c-0.4-0.2-0.5-0.2-0.6-0.2c-0.1,0.1-0.2,0.1-0.1,0.4c0,0.2,0,0.5-0.1,0.8L83.5,159.4z"/>
	<polygon class="st0" points="106.5,132.3 106.5,132.3 106.5,132.3 	"/>
	<path class="st0" d="M99.6,53.1C99.6,53.1,99.6,53.1,99.6,53.1c-1.3-0.3-2.6-0.5-4.3-0.5c-4.2,0.7-7.8,2.6-10.9,5.8l0.9,5.6
		c2.9-1.6,7.5-4.1,10.7-5c0.2-0.1,0.4-0.1,0.6-0.1c0.1,0,0.1,0,0.2,0l0.1,0.7l0-0.7c0.1,0,0.2,0,0.4,0c0.1,0,0.1,0,0.2,0l0.2,0
		c0.1,0,0.2,0,0.3,0c0.1,0,0.2,0,0.2,0l0.2,0c0.1,0,0.2,0,0.3,0.1c0.1,0,0.2,0,0.2,0.1l0.2,0.1c0.1,0,0.2,0.1,0.3,0.1l0.3,0.1
		c0.2,0.1,0.3,0.1,0.4,0.2l0.3,0.1c0.2,0.1,0.3,0.1,0.5,0.2l0.3,0.2c0.2,0.1,0.4,0.2,0.5,0.3l0.3,0.2c0.2,0.1,0.4,0.2,0.6,0.3
		L103,61c0.2,0.1,0.4,0.2,0.6,0.4l0.1,0.1l-0.3,0.6h0l0.4-0.6c0.2,0.1,0.4,0.3,0.6,0.4l0.1,0.1c0.3,0.2,0.5,0.3,0.8,0.5
		c0,0,0.1,0.1,0.1,0.1c0.3,0.2,0.5,0.4,0.8,0.5c0.3,0.2,0.6,0.4,0.9,0.6c0.3,0.3,0.7,0.5,1,0.8c0.4-0.8,1-1.4,1.3-1.7c0,0,0,0,0,0
		c0.1-0.1,0.1-0.1,0.1-0.1c0.1-0.1,0.4-0.2,0.6-0.2c0.1,0,0.3,0,0.4,0.1c0,0,0.1,0,0.1,0c0.1,0,0.2,0,0.3,0.1c-1.5-1.8-3-3.2-3.9-4
		c0,0,0,0,0,0c-0.3-0.3-0.6-0.5-0.8-0.7l0.3-0.5l0,0l-0.4,0.4c-0.2-0.2-0.3-0.5-0.2-0.7s0.2-0.5,0.5-0.5c0.1,0,1.1-0.2,2.6,0
		c-2.2-0.6-4.5-1.5-6.9-2.4C101.3,53.8,100.4,53.5,99.6,53.1z"/>
	<path class="st0" d="M157.2,164.4c-0.1,0.1-0.2,0.1-0.2,0.2c0.1,0.1,0.4,0.3,0.6,0.5c0.3,0.2,0.7,0.5,1.1,0.9
		c0.4,0.3,0.9,0.9,0.9,1.5c0,0.7-0.6,1.1-1.2,1.6c-0.3,0.3-0.7,0.6-1.1,0.9c-0.4,0.5-0.7,0.9-0.9,1.2c-0.1,0.2-0.2,0.3-0.3,0.4
		c0.3,0.2,0.6,0.3,0.8,0.4c0.4,0.1,0.8,0.4,1.2,0.6c0.6,0.4,1,0.6,1.3,0.4c0.8-0.6,1.7-2.1,1.9-3.1c0.1-0.7,0.6-1.3,1.1-1.7
		c-1.2-1.6-2.4-3.2-3.7-4.6C158.2,163.7,157.7,164.1,157.2,164.4z"/>
	<polygon class="st0" points="124.8,70.5 124.8,70.5 124.8,70.5 	"/>
	<polygon class="st0" points="91.5,88.1 91.5,88.1 91.5,88.1 	"/>
	<path class="st0" d="M150.7,172.3c0.7-0.6,1.3-1,1.8-1.2c0-0.1,0-0.1,0-0.2c0-0.3,0.1-0.7,0.5-0.9c0.3-0.4,0.1-2.6-0.4-3.6
		c-0.1-0.1-0.1-0.1-0.1-0.1c0,0-0.1,0.1-0.2,0.1c-0.4,0.1-1.2,0.5-2-0.3c-1.3-1.3-1.1-2.4-0.4-3.8c0.3-0.6,0.8-1.1,1.2-1.5
		c0.8-0.7,0.8-0.8,0.6-1.2c-0.4-0.9-0.2-1.8,0.7-2.6c-7.2-6.5-15.9-11.4-25.1-14.5c0,3,0.1,6.1,0.3,9.1c0.1,0,0.3,0,0.4,0
		c0.2,0,0.4,0.1,0.5,0.2c0.1,0,0.1,0.1,0.2,0.1c0.3,0.2,0.8,0.4,1.2,0.5c0.8,0.2,1.7,0.5,2.1,1.3c0.3,0,0.6,0.1,0.9,0.1
		c1,0.1,2.1,0.1,2.7,0.8c0.3,0.4,0.4,0.9,0.3,1.4c-0.1,0.4-0.4,0.6-0.7,0.6c-0.9-0.1-1.6,0.1-2.3,0.3c-0.8,0.2-1.6,0.5-2.8,0.3
		c-0.5,0.4-1.3,0.5-2,0.5c0.3,2.3,0.6,4.5,0.9,6.5C136.8,166.3,144,169.1,150.7,172.3z"/>
	<polygon class="st0" points="126.8,97.5 126.8,97.5 126.8,97.5 	"/>
	<polygon class="st0" points="127.6,96.7 127.6,96.7 127.6,96.7 	"/>
	<polygon class="st0" points="128.3,174.5 128.3,174.5 128.3,174.5 	"/>
	<path class="st0" d="M84.7,178.7c-0.1-0.1-0.2-0.2-0.3-0.4c-0.1,0-0.3,0.1-0.4,0.1c0.2,0.1,0.4,0.2,0.5,0.3c0.1,0,0.2,0.1,0.3,0.2
		C84.8,178.9,84.8,178.8,84.7,178.7z"/>
	<path class="st0" d="M137.8,175.3c0.2-0.5,0.4-1.4,1.5-1.4c1.2,0,1.2,0.9,1.2,1.1c0,0.3,0,0.4,0.3,0.5l0.4,0.2
		c0.7,0.4,0.8,0.5,1.1,1.2c0,0.1,0.1,0.2,0.2,0.4c0.3-0.2,0.6-0.5,1.1-0.8c0.1-0.1,0.2-0.1,0.3-0.1l0.3-0.2c0.8-0.6,1.9-0.4,2.9,0
		c0.1-0.3,0.2-0.6,0.4-0.9c-5.4-2.6-11.2-4.8-17.3-6.6c0.7,2.9,1.6,5.2,2.5,7.1c0.6,0.4,0.9,0.6,1.1,0.9s0.4,0.4,1,0.7
		c0.4,0.2,0.5,0.1,1-0.4c0.4-0.4,0.8-0.8,1.5-1C137.5,176,137.6,175.8,137.8,175.3z"/>
	<path class="st0" d="M92.9,172.2c0.7,0.1,2.3,0.3,3.5,0.5c0,0,0,0,0,0c0.5,0.1,0.8,0.1,1.1,0.2c0.1,0,0.2,0,0.3,0.1
		c0-0.1,0.1-0.2,0.3-0.4c0.8-1.4,2.2-1.3,3.5-1.3c0.3,0,0.6,0,0.8,0c1.1,0,1.1,0,1.3-1.5c0,0,0,0,0,0c-0.8-1.7-1.5-3.3-2.2-4.8
		l-0.6-1.4c-5.1-0.3-10-0.4-14.7-0.1c0,0,0,0,0,0l0.3,0.5c0.1,0.1,0.2,0.2,0.3,0.3l0.2,0.2c0.6,0.6,1.2,1.1,1.5,2.7l2.2,3.3
		c0.3-0.2,0.6-0.2,0.8-0.1c0.8,0.2,1.1,1,1.4,1.7C92.8,172,92.8,172.1,92.9,172.2z"/>
	<path class="st0" d="M60,165.6c3.4-1.9,7.6-3.4,12.3-4.5c0.2-0.3,0.4-0.7,0.6-1c0.6-0.9,1.1-1.4,2-1c0.1,0.1,0.2,0.1,0.3,0.1
		c0.5,0,0.9,0.1,1.3,0.2c0.4,0.1,0.7,0.2,1.1,0.1c0.3-0.1,0.8-0.1,1.2,0.3c0,0,0,0,0,0l-5.1-7.9c-0.2,0.1-0.5,0.3-0.8,0.4
		c-0.9,0.3-1.3,0.4-1.8,0h0c0,0-0.1,0-0.2,0c-0.7,0-1.1,0.3-1.9,1.5c-0.7,0.9-1,1.2-1.5,1.5c-0.2,0.1-0.4,0.2-0.6,0.4
		c-0.1,0.1-0.4,0.4-0.8,0.4c0.1,0.2,0.2,0.4,0.3,0.6c0.1,0.4,0,0.8-0.3,1.1c-0.3,0.3-0.5,0.5-0.7,0.8c-0.4,0.4-0.7,0.7-1,1.4
		c-0.4,0.9-1.3,1.5-2.3,2.1c-0.6,0.4-1.3,0.8-1.7,1.3c-0.6,0.7-0.5,1-0.4,1.8C60,165.2,60,165.4,60,165.6z"/>
	<polygon class="st0" points="102.1,132.8 102.1,132.8 102.1,132.8 	"/>
	<path class="st0" d="M93.9,115.3c0.1-0.4,0.2-0.7,0.2-0.9l0.1-0.5c0.1-0.3,0.1-0.5,0.2-0.8l0.1-0.4c0.1-0.3,0.2-0.6,0.3-0.9
		l0.1-0.2c0.1-0.4,0.2-0.7,0.4-1.1c0,0,0-0.1,0-0.1c0.1-0.3,0.2-0.6,0.4-0.9l0.1-0.2c0.1-0.3,0.2-0.6,0.3-0.8l0.1-0.2
		c0-0.1,0.1-0.1,0.1-0.2L96,108c-0.4-0.1-0.5-0.5-0.4-0.9l0.5-1.3c0-0.1,0.1-0.2,0.1-0.2c-0.5-0.5-1-0.9-1.4-1.3
		c-0.3,0.9-1,2.1-2.4,2.9l1.4,8.3L93.9,115.3z"/>
	<path class="st0" d="M89.1,87c0.1,0,0.2,0,0.3,0c0.2,0,0.5,0,0.7,0c0.3,0,0.5,0,0.6,0.1c0,0,0.1,0,0.1,0c0.2,0,0.3,0.1,0.5,0.1
		c0,0,0.1,0,0.1,0c0.1,0.1,0.2,0.1,0.4,0.2c0.2,0,0.4,0,0.5,0l0.1,0c0,0,0,0,0,0c0.2,0,0.5,0,0.7,0.1c0,0,0.1,0,0.1,0
		c0.2,0,0.4,0.1,0.6,0.2c0,0,0.1,0,0.1,0.1c0-0.1-0.1-0.3-0.1-0.4c-0.1-0.3-0.1-0.5-0.1-0.7c0-0.3-0.1-0.5-0.1-0.7c0,0,0-0.1,0-0.1
		c0-0.2,0-0.4-0.1-0.6c0-0.3,0-0.5,0-0.7c0-0.3,0-0.5,0-0.7c0-0.3,0-0.5,0-0.7c0-0.3,0-0.5,0.1-0.7c0-0.3,0.1-0.5,0.1-0.7
		c0-0.3,0.1-0.5,0.1-0.7c0.1-0.3,0.1-0.5,0.2-0.7c0.1-0.3,0.1-0.5,0.2-0.7c0.1-0.2,0.1-0.5,0.2-0.7c0,0,0-0.1,0-0.1c0,0,0-0.1,0-0.1
		c0.1-0.3,0.2-0.7,0.4-1l1.7-3.6l2.8-3.9c0.2-1.4,1-2.7,1.4-3.5c-0.2,0-0.3-0.1-0.5-0.1l-0.3-0.1c-0.4-0.1-0.8-0.2-1.2-0.2l-0.2,0
		c-0.4-0.1-0.7-0.1-1-0.2L97.4,66c-0.3,0-0.5-0.1-0.8-0.1l-0.4,0c-0.3,0-0.7-0.1-1-0.1l-0.1-0.7l0,0.7c-0.4,0-0.7,0-1.1-0.1l-0.3,0
		c-0.3,0-0.5,0-0.7,0l-0.3,0c-0.2,0-0.5,0-0.7,0l-0.3,0c-0.3,0-0.6,0-0.9,0l-0.1,0c-0.3,0-0.5,0-0.8,0.1l-0.2,0
		c-0.3,0-0.5,0-0.7,0.1l-0.3,0C88.4,66,88.2,66,88,66l-0.2-0.7h0l0.1,0.7c-0.3,0-0.5,0.1-0.7,0.1l-1.4,0.2L89.1,87z"/>
	<path class="st0" d="M95.1,122.7l0.7-0.1l0,0l-0.7,0l0.1-2.1l0.7-0.1l-0.7,0l0.1-1.8c0,0-0.1-0.1-0.1-0.1l-1-0.6l0.8,5.1
		L95.1,122.7z"/>
	<path class="st0" d="M122.1,144.9c-0.1,0-0.2-0.1-0.2-0.1c0,0,0,0-0.1,0c-0.8,0.3-1.3,0.7-2.1,1.3c0,0.1,0.3,0.6,0.4,0.9
		c0.4,0.7,0.8,1.5,0.3,2.2c-0.6,0.8-1.7,0.7-2.6,0.5c-0.4,0-0.7-0.1-1.1-0.1c-0.3,0-0.4,0.1-0.8,0.8c-0.3,0.5-0.6,1-1.2,1.5
		l-0.4,0.4c-0.9,0.8-1.6,1.4-3,1c-0.3-0.1-0.6-0.2-0.8-0.2c-0.5-0.2-0.6-0.2-1.2-0.1c-0.6,0.1-1.7,1.5-1.6,3.2
		c0.1,1.3-0.2,2.2-1.2,3.2c-0.3,0.3-0.5,0.4-0.8,0.5c0.6,0.4,2.9,0.4,4.1,0.5c0.5,0,0.9,0,1.3,0.1c0.3-0.6,0.6-1.2,1.2-1.6
		c0.5-0.3,0.8-0.2,1.1-0.1c0.5,0.3,0.6,0.9,0.7,1.6c0,0.2,0,0.4,0.1,0.6c3.6,0.6,7.2,1.3,10.7,2.2c-1-6.4-1.4-13-1.5-17.7
		C122.7,145.3,122.4,145,122.1,144.9z"/>
	<polygon class="st0" points="104.1,62.5 104.1,62.5 104.1,62.5 	"/>
	<path class="st0" d="M57.1,159.3L57.1,159.3c0.3-0.1,0.7-0.5,1.1-0.9c0.1-0.1,0.2-0.2,0.3-0.4c0.4-0.4,0.9-0.7,1.5-1
		c0.4-0.2,0.8-0.4,1.1-0.6c0.2-0.1,0.3-0.2,0.5-0.4c0.7-0.6,1.5-1.2,2.4-1.2c0.1,0,0.2,0,0.3,0.1c0.2,0.1,0.6,0.3,0.9,0.5
		c0-0.3,0-0.6,0.1-1c0-0.2,0.1-0.5,0.1-0.8c0.2-1.3,0.7-1.6,1.5-2c0.2-0.1,0.4-0.2,0.7-0.4c0.4-0.2,0.8-0.4,1.2-0.6
		c0.7-0.4,1.4-0.8,1.9-1.1c0-0.1,0.1-0.2,0.1-0.4c0.1-0.3,0.2-0.6,0.4-0.9l-0.3-0.4c-4.9,2.8-11.3,8.4-14.4,11.2
		c0,0-0.1,0.1-0.1,0.1c0,0,0,0,0,0C56.7,159.2,57,159.3,57.1,159.3z"/>
	<polygon class="st0" points="110.5,121.5 110.5,121.5 110.5,121.5 	"/>
	<polygon class="st0" points="133.3,74.7 133.3,74.7 133.3,74.7 	"/>
	<path class="st0" d="M120.8,175.4c0.8-0.6,1.8-2.2,2.4-3.6c0.1-0.2,0.4-0.9,1.1-0.9c0.8,0,1,1,1.4,2.2l0.1,0.3
		c0.3,0.9,0.3,0.9,1.1,1c0.2,0,0.4,0,0.5-0.1c-0.7-2-1.4-4.3-1.9-6.9c-4.1-1.1-8.3-2-12.5-2.6c0,0,0,0.1,0,0.1c-0.4,1-0.5,1.2-1,1.3
		c-0.1,0-0.1,0-0.2,0c0,0,0,0-0.1,0.1c-1.1,1.1-1.1,1.1-1.8,1.6c-0.1,0.1-0.2,0.1-0.2,0.2c0,0,0.1,0.1,0.2,0.2
		c0.2,0.1,0.4,0.3,0.5,0.4c0.4,0.3,0.5,0.5,1.2,0.5c1.3,0,2.1,0,4.1,0.7c1.3,0.5,1.8,0.8,2.3,1.1c0.3,0.2,0.6,0.4,1.1,0.7
		c0.6,0.3,1.1,0.6,1.2,1.1c0.1,0.4-0.1,0.8-0.3,1.2c-0.1,0.2-0.2,0.4-0.3,0.6c-0.2,0.4,0,0.7,0.2,0.9
		C120.2,175.4,120.5,175.6,120.8,175.4z"/>
	<polygon class="st0" points="126.1,67.5 126.1,67.5 126.1,67.5 	"/>
	<polygon class="st0" points="116.2,62.6 116.2,62.6 116.2,62.6 	"/>
	<path class="st1" d="M124.5,137.3c-0.6-1.6-2.1-2.9-2.2-3c-0.1-0.1-0.2-0.1-0.3-0.1c-0.6-0.6-1.4-1.2-2.4-1.6
		c-0.2-0.1-0.5-0.2-0.8-0.3c-0.3-0.1-0.5-0.2-0.9-0.3c-0.5-0.1-1-0.2-1.5-0.3c0,0,0,0,0,0c0,0,0,0,0,0c0.1-0.6,0.1-1.1,0.1-1.5
		c0-0.2,0-0.4-0.1-0.6c0-0.2-0.1-0.3-0.3-0.5c0,0-0.1-0.1-0.1-0.1c-0.1-0.1-0.2-0.1-0.2-0.1c0,0-0.1,0-0.1,0c-0.1,0-0.1,0-0.2,0
		c0,0-0.1,0-0.1,0c-0.1,0-0.2,0-0.3,0c-0.3,0-0.6,0.1-1,0.1c-0.6-1.5-1.3-3.2-1.9-4.9l0-0.1l-1-2.5l0-0.1l-0.3-0.7
		c0.1,0,0.2-0.1,0.3-0.1l0.3-0.1c0.3-0.2,0.7-0.3,1-0.5c0.3-0.2,0.4-0.5,0.3-0.8c-1.1-3.9-4-14.7-3.6-17.5c0,0,0,0,0-0.1
		c0.4,0.1,0.9,0.2,1.4,0.3c1.2,0.2,2.4,0.4,3.7,0.4l2.9,0.1c1.2,0.1,2.4-0.2,3.5-0.7c2.2-0.5,4.1-1.4,5.6-2.7
		c0.1-0.1,0.3-0.2,0.6-0.4l0.5-0.4c0,0,0.1-0.1,0.1-0.1l0.1-0.1c0,0,0.1-0.1,0.1-0.1l0.5-0.5l0.1-0.1l0.6-0.5
		c2.5-2.4,6.5-7.7,6.4-15.5c0-1.7-0.3-4.4-0.5-5.7l-0.1-0.8c0,0,0-0.1,0-0.2c0-0.1-0.2-0.4-0.5-0.5c0,0-0.1,0-0.1,0
		c-0.1,0-0.1,0-0.2,0c0,0-0.1,0-0.2,0c0,0-0.1,0-0.2,0c-0.1,0-0.2,0-0.4,0c0,0-0.1,0-0.1,0l-1.2,0.1l-0.7-2
		c-0.1-0.2-0.2-0.3-0.4-0.4c0-0.2,0-0.4,0-0.4c0-0.2-0.2-0.4-0.4-0.5c-0.1-0.1-0.3-0.1-0.5-0.1c-0.1,0-0.1,0-0.2,0
		c-0.1,0-0.1,0-0.2,0c-0.1,0-0.2,0-0.4,0c0-0.1-0.1-0.2-0.1-0.3l-0.1-0.3c0-0.1-0.1-0.2-0.1-0.3c0-0.1-0.1-0.1-0.1-0.3
		c0-0.1-0.1-0.1-0.2-0.2c-0.1-0.1-0.1-0.2-0.2-0.2c-0.2-0.2-0.8-0.7-2.7,0.5c0-0.1-0.1-0.1-0.1-0.2c0,0,0.1,0,0.1-0.1l0.2-0.2
		c0.1-0.1,0.2-0.2,0.4-0.3l0.9-0.9c0,0,0.1-0.1,0.1-0.1l0.2-0.2l-0.5-0.5l0,0l0.6,0.4l0.1-0.1c0,0,0.1-0.1,0.1-0.1l0.1-0.1
		c0,0,0.1-0.1,0.1-0.1c0.1-0.1,0.1-0.2,0.1-0.3c1.6-5.8-2.4-9.9-2.6-10.1c-0.2-0.2-0.6-0.3-0.8-0.1c-0.3,0.2-0.4,0.5-0.3,0.8
		c0.2,0.6,0.2,1.2,0.3,1.8c0,0.2,0,0.3,0,0.5l0.7,0l-0.7,0.1c0,0.1,0,0.2,0,0.4c0,0,0,0.1,0,0.1l0,0.1c0,0.1,0,0.1,0,0.3l-0.1,0.5
		l0,0.1l0,0.2l0.7,0.1l-0.7,0c0,0.1-0.1,0.3-0.1,0.5c0,0.2-0.1,0.3-0.2,0.5c-0.3,1-0.8,2-1.4,3c-0.1-0.1-0.3-0.3-0.4-0.4
		c-0.1-0.2-0.2-0.3-0.3-0.5c-0.9-1.5-1.9-1.5-2.4-1.4c-0.6,0.1-1,0.6-1.3,1.1l-0.2-0.6c0-0.2-0.1-0.3-0.2-0.6
		c-0.1-0.2-0.1-0.4-0.2-0.5c0,0,0-0.1,0-0.1c-0.1-0.2-0.1-0.3-0.2-0.5c0,0,0-0.1,0-0.1l-0.6,0.3l0.6-0.4l-0.2-0.5
		c-0.1-0.1-0.1-0.2-0.2-0.3l-0.7-1.2c-0.1-0.1-0.1-0.2-0.2-0.3l-0.1-0.2c-0.1-0.1-0.1-0.2-0.2-0.3l-0.1-0.1
		c-0.1-0.1-0.1-0.1-0.3-0.3l-0.1-0.1c-0.1-0.1-0.2-0.2-0.3-0.3c0,0-0.1-0.1-0.1-0.1c-0.1-0.1-0.3-0.2-0.4-0.3
		c-1.1-0.7-2.1-1.2-3.1-1.5c4.5,0.8,8.7,0.2,13-4c0.6-0.6,1-1.5,1.1-2.5c0.2-3.6,0.9-7.7,1.6-11.6c0.5-3.1,1.1-6.4,1.4-9.4
		c0.1-0.8-0.3-1.6-1.1-2c-0.8-0.4-1.7-0.4-2.3,0.1c-4.1,3-8.9,4.3-13.4,3.6c-0.6-0.2-1.2-0.4-1.8-0.7c-1.2-0.6-2.3-1.5-3.4-2.4
		c-1-0.8-2-1.6-3.1-2.2c-0.7-0.4-1.5-0.8-2.3-1.1c-5-2.8-11.7-3.4-22.1,3.3c-1.2-0.3-1.9,0.4-2.2,0.8c-0.1,0.1-0.1,0.3-0.1,0.5
		l6.1,36.4l0,0C82,66,81.9,66.4,82,66.7c0.1,0.2,0.3,0.3,0.5,0.4l3.4,20.1c-1.2,0.2-3.2,0.7-3.3,2.6c-0.1,1.5,0.4,2.7,0.8,3.8
		c0.3,0.8,0.6,1.5,0.7,2.2c0,0.2,0,0.4,0.1,0.5c0,0.3,0.1,0.6,0.3,1c0,0-0.1,0.1-0.1,0.2l-0.1,0.1c-0.1,0.1-0.1,0.2-0.1,0.3
		c0,0.1,0,0.1-0.1,0.2c-0.1,0.2-0.1,0.3-0.1,0.5c-0.2,0.9,0,1.6,0.3,2.1c-0.2,0.2-0.4,0.6-0.5,1.1c-0.1,1,0,1.8,0.4,2.4
		c0,0,0.1,0.1,0.1,0.1c-0.1,0.3-0.1,0.6-0.1,0.9c0.3,1.3,2.4,2.9,5.3,2.8l3.5,20.8c0,0-0.1,0.1-0.1,0.1c0,0-0.1,0.1-0.1,0.1
		c0,0.1-0.1,0.2-0.1,0.3c0,0.1,0,0.1,0,0.3c0,0.1,0,0.2,0,0.3c0,0.1,0,0.2,0,0.3l0,0.3c0,0.1,0,0.2,0.1,0.3l0,0.1
		c-0.1,0-0.1,0-0.2,0c0,0-0.1,0-0.1,0c-0.1,0-0.3,0.1-0.4,0.2c-0.1,0.1-0.2,0.1-0.3,0.2c-0.1,0.1-0.1,0.1-0.2,0.2h0
		c-0.2,0-0.4,0.1-0.5,0.1c0,0,0,0,0,0c-0.3,0.1-0.5,0.2-0.9,0.3c-0.3,0.1-0.5,0.2-0.8,0.3c-0.2,0.1-0.5,0.2-0.7,0.4
		c-0.9,0.5-1.6,1.1-2.2,1.8c-0.1,0-0.2,0.1-0.2,0.2c-0.1,0.1-1.4,1.5-1.8,3.2c-24.5,7.2-43.3,26.4-50.7,50H38
		c0.5-1.5,1.1-3.1,1.7-4.6c0.1,0.1,0.2,0.2,0.2,0.2c0,0.3-0.3,1.5-0.6,2.5c-0.2,0.6-0.3,1.2-0.5,1.8h34.2c0.3-0.3,0.6-0.5,1.3-0.8
		c0.3-0.1,0.6-0.2,0.8-0.3c1.2-0.5,2.2-0.8,2.4-2.5c0-0.3,0-0.6,0.1-0.8c0.1-0.9,0.1-1.1,1.1-1.7c0.5-0.3,1-0.5,1.3-0.7
		c0.2-0.1,0.4-0.3,0.6-0.3c0,0,0,0,0,0.1c0.1,0.3,0.2,0.6,0.2,0.9c0,0.5,0.1,1.1,0.6,1.3c0.6,0.3,1.2-0.2,1.5-0.4
		c0.6-0.4,1.1-0.7,1.5-0.9c0.6-0.3,1.4-0.6,1.4-1.5c0,0,0-0.1,0-0.1c0.5,0.9,0.5,1.3,0.4,1.5c0,0.1-0.1,0.3-0.6,0.4
		c-1.1,0.4-2.8,1.4-2.9,2.5c0,0.2,0.1,0.9,0.9,1.2c0.9,0.4,1.3,0.4,1.9,0.3c0.3,0,0.6-0.1,1.2-0.1c0.3,0,0.6,0,0.8,0
		c1.6,0,2.5,0,3.2,1c0.2,0.3,0.4,0.6,0.5,0.9h59.4c0-0.2,0.1-0.4,0.1-0.6c0.3-1.4,0.5-1.9,1.2-2.1c0.9-0.2,1.8-0.5,2.5-0.7
		c-0.1,0.6,0,1.4,0.3,1.9c0.2,0.3,0.6,0.5,1,0.5c0.9,0,1.8-0.1,2.2-0.2c0.5,0.3,1,0.7,1.5,1.2h3.4c-0.2-0.5-0.4-1-0.7-1.4
		c-0.2-0.3-0.1-0.3-0.1-0.4c0.3-0.3,1.1-0.2,1.3-0.1c0.1,0.2,0.1,1.1,0,1.7c0,0.1,0,0.1,0,0.2H177
		C169.5,163.6,150.1,144.1,124.5,137.3z M119.9,174.5c0.1-0.3,0.2-0.5,0.3-0.6c0.2-0.3,0.4-0.7,0.3-1.2c-0.1-0.5-0.6-0.7-1.2-1.1
		c-0.5-0.3-0.8-0.5-1.1-0.7c-0.5-0.3-1-0.7-2.3-1.1c-2.1-0.7-2.8-0.7-4.1-0.7c-0.7,0-0.8-0.2-1.2-0.5c-0.1-0.1-0.3-0.3-0.5-0.4
		c-0.1-0.1-0.2-0.1-0.2-0.2c0,0,0.1-0.1,0.2-0.2c0.7-0.6,0.8-0.6,1.8-1.6c0,0,0,0,0.1-0.1c0.1,0,0.1,0,0.2,0c0.5,0,0.6-0.2,1-1.3
		c0,0,0-0.1,0-0.1c4.2,0.7,8.4,1.6,12.5,2.6c0.5,2.5,1.2,4.8,1.9,6.9c-0.1,0.1-0.3,0.1-0.5,0.1c-0.9-0.1-0.9-0.1-1.1-1l-0.1-0.3
		c-0.4-1.3-0.6-2.2-1.4-2.2c-0.7,0-1,0.7-1.1,0.9c-0.6,1.3-1.6,3-2.4,3.6c-0.3,0.2-0.6,0-0.7-0.1
		C119.9,175.2,119.7,174.8,119.9,174.5z M106.4,165.6c-0.3-0.6-0.5-1.2-0.8-1.8c0.9,0.1,1.8,0.2,2.7,0.3c-0.4,0.1-0.6,0.1-0.8,0.2
		c-0.3,0-0.6,0.1-0.9,0.4C106.4,164.9,106.3,165.2,106.4,165.6z M68.6,174.2c-0.1-0.2-0.3-0.4-0.5-0.7c-1.1-1.6-0.9-2.3-0.7-2.8
		c0.1-0.4,0.4-1.2-0.5-1.8c-0.9-0.7-1.3-0.9-2-1c2.1-0.9,4.4-1.7,6.9-2.3c-0.1,0.5-0.4,1.1-0.7,1.5c-0.8,0.7-1.6,1.8-1.6,3.3
		c0,0.9-0.6,2.4-0.8,2.9c0,0.1-0.1,0.2-0.1,0.3C68.6,173.8,68.6,174,68.6,174.2z M103.3,133.7c0-0.1-0.1-0.3-0.1-0.4
		c0,0-0.1-0.1-0.1-0.1c0-0.1-0.1-0.2-0.1-0.3l-0.1-0.1c-0.1-0.1-0.1-0.2-0.2-0.3l-0.1-0.1c0,0-0.1-0.1-0.1-0.1c0-0.4,0-0.8,0.1-1.3
		l0-2.4l-0.2-6.2c0-0.4-0.1-0.8-0.1-1.1c0.1,0,0.3,0,0.4,0.1l0.2,0c0.3,0,0.6,0.1,0.8,0.1l0,0.2l0.7-0.1l0,0l-0.6,0.3l0.1,0.6l0,0
		l0.9,4.3l0.7-0.1l0,0l-0.6,0.3l0.6,3.2c0.1,0.7,0.3,1.3,0.4,2c0,0.1-0.1,0.1-0.1,0.2c0,0.2-0.1,0.4-0.1,0.6l0,0.2
		c0,0.1,0,0.2,0,0.3c0,0.1,0,0.1,0,0.2c0,0.1,0,0.2,0,0.3l0,0.2c0,0.1,0,0.2,0,0.3l0,0.2c0,0.1,0,0.2,0,0.3l0.1,0.3
		c-1,0-1.9,0-2.9,0c0-0.1,0.1-0.2,0.1-0.4l0-0.1c0.1-0.2,0.1-0.4,0.2-0.6C103.3,133.8,103.3,133.7,103.3,133.7z M83.1,157.8
		c0-0.4,0-0.4,0.1-0.4c0.2-0.1,0.2-0.1,0.6,0.2c0.4,0.2,1.2,0.7,2.1-0.1c0.4-0.4,0.5-0.9,0.4-1.1c-0.1-0.8-1-1.3-1.6-1.7
		c-0.1-0.1-0.2-0.1-0.3-0.2c-0.2-0.1-0.4-0.3-0.5-0.5c0.3,0,0.4,0.1,0.5,0.3c0.5,0.5,1,0.7,2,0.2c1-0.5,1.5-1.2,1.5-2
		c0-0.6-0.4-1.1-1-1.4c-0.2-0.1-0.5-0.2-0.7-0.3c-0.7-0.3-1.5-0.6-2.2-0.8c-0.1,0-0.1,0-0.2,0c0-0.2-0.1-0.4-0.2-0.6
		c-0.4-0.7-1-0.8-1.5-0.9c-0.3-0.1-0.7-0.1-1.1-0.3c-0.9-0.4-3.4-0.8-5.5-1l-0.6-1c2.7-1.3,5.6-2.4,8.5-3.4
		c-0.4,0.4-0.7,0.8-0.6,1.2c0,0.3,0.3,0.7,1,0.9c1.1,0.3,1.6,0.2,2.5,0c0.4-0.1,0.9-0.1,1.6-0.2c0.5,0,1-0.1,1.5-0.2
		c1.5-0.3,1.9-0.3,2.2,0.8l0.2,0.7c0.6,1.8,0.8,2.8,1.8,3.4c0.5,0.3,0.9,0.5,1.4,0.4c0.5-0.2,0.7-0.6,1-1.4c0.4-1,1-1.5,1.1-1.6
		c0,0,0.1,0,0.1,0.2c0.3,0.5,0.5,0.9,0.8,1.2c0.1,0.2,0.3,0.4,0.3,0.4c0,0,0,0-0.1,0.1c-0.6,0.6-1.8,0.9-2.5,1.1
		c-2.2,0.6-2.3,1.2-2.4,1.4c-0.1,0.3,0.1,0.7,0.4,0.9c0.3,0.2,0.7,0.2,1.2,0.2c0.8,0,1.2,0.1,1.4,0.7c0.2,0.6,0.3,1.1,0.3,1.5
		c0.1,0.6,0.2,1.2,0.6,2c0.1,0.2,0.2,0.4,0.3,0.6c0.2,0.4,0.5,0.8,0.7,1l0.5,1.1c0,0.1,0.1,0.1,0.1,0.2c-5.4-0.3-10.5-0.2-15.4,0.2
		l-0.5-0.8C83.1,158.3,83.1,158,83.1,157.8z M106.5,132.3L106.5,132.3L106.5,132.3L106.5,132.3z M94.3,117.1L94.3,117.1L94.3,117.1
		L94.3,117.1z M95.7,118L95.7,118L95.7,118L95.7,118z M95.5,99.4c0.3-0.9,0.2-1.9-0.2-2.5c-0.4-0.6-1-0.9-1.8-0.9
		c-0.2,0-0.3,0-0.5,0c-0.1-0.5-0.2-0.9-0.5-1.2c0,0,0.1-0.1,0.1-0.1c0,0,0,0,0.1-0.1c0.1-0.1,0.2-0.3,0.3-0.4
		c0.1-0.2,0.1-0.3,0.2-0.6c0,0,0-0.1,0-0.1c0,0,0.1,0,0.1,0l0.1,0c0.2-0.1,0.3-0.1,0.5-0.2c0.2-0.1,0.3-0.2,0.5-0.3
		c0.1-0.1,0.2-0.2,0.3-0.3l0.1-0.1c0.1-0.1,0.2-0.2,0.3-0.4c0.1-0.1,0.2-0.3,0.2-0.5c0,0,0,0,0,0c1.7,3.1,4.3,5.7,7.9,7.7
		c0,0,0,0,0,0l-0.7,0.1c-0.1,0-0.2,0.1-0.3,0.1c0,0-0.1,0.1-0.1,0.1l-0.2,0.1c-0.1,0.1-0.1,0.1-0.3,0.2c-0.2,0.2-0.4,0.4-0.8,0.7
		c-0.1,0.1-0.3,0.3-0.4,0.4l-0.1,0.1c-0.2,0.2-0.3,0.3-0.5,0.5c0,0-0.1,0.1-0.1,0.1c-0.1,0.1-0.1,0.1-0.2,0.2
		c-0.1-0.1-0.3-0.1-0.4-0.2C98.5,101.3,97.1,100.5,95.5,99.4z M91.5,88.1L91.5,88.1L91.5,88.1L91.5,88.1z M94.8,104.2
		c0.4,0.4,0.9,0.8,1.4,1.3c-0.1,0.1-0.1,0.1-0.1,0.2l-0.5,1.3c-0.1,0.4,0,0.7,0.4,0.9l0.2,0.1c0,0.1-0.1,0.1-0.1,0.2l-0.1,0.2
		c-0.1,0.2-0.2,0.5-0.3,0.8l-0.1,0.2c-0.1,0.3-0.2,0.6-0.4,0.9c0,0,0,0.1,0,0.1c-0.1,0.4-0.3,0.7-0.4,1.1l-0.1,0.2
		c-0.1,0.3-0.2,0.6-0.3,0.9l-0.1,0.4c-0.1,0.3-0.1,0.5-0.2,0.8l-0.1,0.5c-0.1,0.3-0.1,0.6-0.2,0.9l0,0.2l-1.4-8.3
		C93.8,106.3,94.5,105.1,94.8,104.2z M95.2,118.5c0,0,0.1,0,0.1,0.1l-0.1,1.8l0.7,0l-0.7,0.1l-0.1,2.1l0.7,0l0,0l-0.7,0.1l0,0.3
		l-0.8-5.1L95.2,118.5z M102.1,132.8L102.1,132.8L102.1,132.8L102.1,132.8z M87.8,66l-0.1-0.7h0L88,66c0.2,0,0.4-0.1,0.7-0.1l0.3,0
		c0.2,0,0.4,0,0.7-0.1l0.2,0c0.2,0,0.5,0,0.8-0.1l0.1,0c0.3,0,0.6,0,0.9,0l0.3,0c0.2,0,0.5,0,0.7,0l0.3,0c0.2,0,0.5,0,0.7,0l0.3,0
		c0.4,0,0.7,0,1.1,0.1l0-0.7l0.1,0.7c0.3,0,0.7,0.1,1,0.1l0.4,0c0.3,0,0.5,0.1,0.8,0.1l0.4,0.1c0.3,0,0.6,0.1,1,0.2l0.2,0
		c0.4,0.1,0.8,0.1,1.2,0.2l0.3,0.1c0.2,0,0.3,0.1,0.5,0.1c-0.5,0.7-1.2,2.1-1.4,3.5L96.7,74L95,77.6c-0.2,0.4-0.3,0.7-0.4,1
		c0,0,0,0.1,0,0.1c0,0,0,0.1,0,0.1c-0.1,0.2-0.1,0.4-0.2,0.7c-0.1,0.2-0.1,0.4-0.2,0.7c-0.1,0.2-0.1,0.4-0.2,0.7
		c0,0.2-0.1,0.4-0.1,0.7c0,0.2-0.1,0.4-0.1,0.7c0,0.2,0,0.4-0.1,0.7c0,0.2,0,0.4,0,0.7c0,0.2,0,0.4,0,0.7c0,0.2,0,0.4,0,0.7
		c0,0.2,0,0.4,0.1,0.6c0,0,0,0.1,0,0.1c0,0.2,0.1,0.4,0.1,0.7c0,0.2,0.1,0.4,0.1,0.7c0,0.1,0.1,0.3,0.1,0.4c0,0-0.1,0-0.1-0.1
		c-0.2-0.1-0.4-0.1-0.6-0.2c0,0-0.1,0-0.1,0c-0.2,0-0.5-0.1-0.7-0.1c0,0,0,0,0,0l-0.1,0c-0.2,0-0.4,0-0.5,0
		c-0.1-0.1-0.2-0.1-0.4-0.2c0,0-0.1,0-0.1,0c-0.1-0.1-0.3-0.1-0.5-0.1c0,0-0.1,0-0.1,0c-0.2,0-0.4-0.1-0.6-0.1c-0.2,0-0.4,0-0.7,0
		c-0.1,0-0.2,0-0.3,0l-3.4-20.7l1.4-0.2C87.3,66.1,87.6,66.1,87.8,66z M114,160.8c0-0.2-0.1-0.4-0.1-0.6c-0.1-0.7-0.2-1.3-0.7-1.6
		c-0.2-0.1-0.6-0.2-1.1,0.1c-0.6,0.4-0.9,1-1.2,1.6c-0.4,0-0.8,0-1.3-0.1c-1.1,0-3.4-0.1-4.1-0.5c0.2-0.1,0.5-0.3,0.8-0.5
		c0.9-0.9,1.3-1.9,1.2-3.2c-0.1-1.7,0.9-3,1.6-3.2c0.6-0.1,0.7-0.1,1.2,0.1c0.2,0.1,0.4,0.1,0.8,0.2c1.4,0.4,2.1-0.2,3-1l0.4-0.4
		c0.6-0.5,0.9-1.1,1.2-1.5c0.4-0.6,0.5-0.8,0.8-0.8c0.3,0,0.7,0,1.1,0.1c1,0.1,2,0.3,2.6-0.5c0.5-0.7,0.1-1.5-0.3-2.2
		c-0.1-0.3-0.4-0.8-0.4-0.9c0.8-0.7,1.3-1,2.1-1.3c0.1,0,0.1,0,0.1,0c0,0,0.1,0.1,0.2,0.1c0.2,0.2,0.6,0.4,1.1,0.5
		c0.1,4.7,0.5,11.3,1.5,17.7C121.2,162.2,117.6,161.4,114,160.8z M110.5,121.5L110.5,121.5L110.5,121.5L110.5,121.5z M104.1,62.5
		L104.1,62.5L104.1,62.5L104.1,62.5z M56.6,159.1c3.1-2.7,9.5-8.3,14.4-11.2l0.3,0.4c-0.2,0.3-0.3,0.6-0.4,0.9
		c0,0.1-0.1,0.3-0.1,0.4c-0.4,0.3-1.1,0.7-1.9,1.1c-0.4,0.2-0.8,0.4-1.2,0.6c-0.3,0.2-0.5,0.3-0.7,0.4c-0.8,0.4-1.3,0.7-1.5,2
		c0,0.3-0.1,0.6-0.1,0.8c-0.1,0.4-0.1,0.7-0.1,1c-0.4-0.3-0.7-0.4-0.9-0.5c-0.1,0-0.2-0.1-0.3-0.1c-0.9,0-1.8,0.7-2.4,1.2
		c-0.2,0.1-0.3,0.3-0.5,0.4c-0.3,0.2-0.7,0.4-1.1,0.6c-0.6,0.3-1.1,0.6-1.5,1c-0.1,0.1-0.2,0.2-0.3,0.4c-0.4,0.4-0.8,0.9-1.1,0.9h0
		C57,159.3,56.7,159.2,56.6,159.1C56.5,159.2,56.5,159.2,56.6,159.1C56.5,159.1,56.5,159.1,56.6,159.1z M60.4,163.3
		c0.4-0.5,1.1-0.9,1.7-1.3c0.9-0.6,1.9-1.2,2.3-2.1c0.3-0.7,0.6-1,1-1.4c0.2-0.2,0.5-0.5,0.7-0.8c0.3-0.3,0.3-0.7,0.3-1.1
		c0-0.2-0.1-0.4-0.3-0.6c0.3,0,0.6-0.3,0.8-0.4c0.2-0.2,0.4-0.3,0.6-0.4c0.5-0.3,0.8-0.6,1.5-1.5c0.9-1.2,1.2-1.5,1.9-1.5
		c0.1,0,0.2,0,0.2,0h0c0.4,0.4,0.9,0.3,1.8,0c0.4-0.1,0.6-0.3,0.8-0.4l5.1,7.9c0,0,0,0,0,0c-0.4-0.4-0.8-0.4-1.2-0.3
		c-0.3,0.1-0.7,0-1.1-0.1c-0.4-0.1-0.8-0.2-1.3-0.2c-0.1,0-0.2,0-0.3-0.1c-0.9-0.4-1.4,0-2,1c-0.2,0.3-0.4,0.7-0.6,1
		c-4.7,1.1-8.9,2.6-12.3,4.5c0-0.2,0-0.3-0.1-0.5C59.9,164.4,59.8,164,60.4,163.3z M84,178.5c0.2,0,0.3-0.1,0.4-0.1
		c0.1,0.1,0.2,0.2,0.3,0.4c0,0.1,0.1,0.1,0.2,0.2c-0.1-0.1-0.2-0.1-0.3-0.2C84.4,178.7,84.2,178.6,84,178.5z M91.4,170.3
		c-0.2,0-0.5,0-0.8,0.1l-2.2-3.3c-0.4-1.5-0.9-2.1-1.5-2.7l-0.2-0.2c-0.1-0.1-0.2-0.2-0.3-0.3l-0.3-0.5c0,0,0,0,0,0
		c4.7-0.3,9.6-0.3,14.7,0.1l0.6,1.4c0.7,1.5,1.4,3.1,2.2,4.8c0,0,0,0,0,0c-0.1,1.5-0.1,1.5-1.3,1.5c-0.3,0-0.6,0-0.8,0
		c-1.3,0-2.7-0.1-3.5,1.3c-0.2,0.3-0.2,0.4-0.3,0.4c-0.1,0-0.2,0-0.3-0.1c-0.3-0.1-0.6-0.1-1.1-0.2c0,0,0,0,0,0
		c-1.2-0.1-2.8-0.4-3.5-0.5c0-0.1-0.1-0.1-0.1-0.2C92.5,171.3,92.2,170.4,91.4,170.3z M130.3,157.3c1.1,0.2,2-0.1,2.8-0.3
		c0.7-0.2,1.3-0.4,2.3-0.3c0.4,0,0.7-0.2,0.7-0.6c0.1-0.6,0-1.1-0.3-1.4c-0.6-0.7-1.7-0.8-2.7-0.8c-0.3,0-0.6,0-0.9-0.1
		c-0.5-0.8-1.4-1-2.1-1.3c-0.5-0.1-1-0.3-1.2-0.5c-0.1,0-0.1-0.1-0.2-0.1c-0.1-0.1-0.3-0.2-0.5-0.2c-0.1,0-0.3,0-0.4,0
		c-0.2-3-0.3-6-0.3-9.1c9.2,3,17.8,8,25.1,14.5c-0.9,0.8-1.1,1.7-0.7,2.6c0.2,0.3,0.1,0.5-0.6,1.2c-0.4,0.4-0.9,0.9-1.2,1.5
		c-0.7,1.5-0.9,2.6,0.4,3.8c0.8,0.8,1.6,0.5,2,0.3c0.1,0,0.2-0.1,0.2-0.1c0,0,0,0,0.1,0.1c0.6,1,0.7,3.2,0.4,3.6
		c-0.3,0.2-0.5,0.5-0.5,0.9c0,0,0,0.1,0,0.2c-0.5,0.3-1.1,0.7-1.8,1.2c-6.7-3.3-13.9-6-21.5-8.1c-0.4-2-0.7-4.1-0.9-6.5
		C129,157.7,129.8,157.7,130.3,157.3z M161.4,169.8c-0.2,1.1-1.1,2.5-1.9,3.1c-0.2,0.2-0.6-0.1-1.3-0.4c-0.4-0.2-0.8-0.5-1.2-0.6
		c-0.2-0.1-0.5-0.2-0.8-0.4c0.1-0.1,0.2-0.3,0.3-0.4c0.2-0.3,0.5-0.7,0.9-1.2c0.3-0.4,0.7-0.7,1.1-0.9c0.6-0.4,1.1-0.9,1.2-1.6
		c0-0.7-0.5-1.2-0.9-1.5c-0.4-0.4-0.8-0.6-1.1-0.9c-0.2-0.1-0.4-0.3-0.6-0.5c0.1,0,0.1-0.1,0.2-0.2c0.4-0.3,1-0.6,1.6-0.9
		c1.3,1.5,2.5,3,3.7,4.6C162,168.5,161.5,169.1,161.4,169.8z M124.8,70.5L124.8,70.5L124.8,70.5L124.8,70.5z M106.4,56.4
		c-0.3,0-0.4,0.3-0.5,0.5s0,0.5,0.2,0.7l0.4-0.4l0,0l-0.3,0.5c0.2,0.1,0.4,0.4,0.8,0.7c0,0,0,0,0,0c0.9,0.8,2.4,2.3,3.9,4
		c-0.1,0-0.2,0-0.3-0.1c0,0-0.1,0-0.1,0c-0.2,0-0.3-0.1-0.4-0.1c-0.2,0-0.4,0.1-0.6,0.2c0,0-0.1,0.1-0.1,0.1c0,0,0,0,0,0
		c-0.3,0.3-0.9,1-1.3,1.7c-0.3-0.3-0.7-0.5-1-0.8c-0.3-0.2-0.5-0.4-0.9-0.6c-0.2-0.2-0.5-0.3-0.8-0.5c0,0-0.1-0.1-0.1-0.1
		c-0.2-0.2-0.5-0.3-0.8-0.5l-0.1-0.1c-0.2-0.1-0.4-0.3-0.6-0.4l-0.4,0.6h0l0.3-0.6l-0.1-0.1c-0.2-0.1-0.4-0.2-0.6-0.4l-0.2-0.1
		c-0.2-0.1-0.3-0.2-0.6-0.3l-0.3-0.2c-0.1-0.1-0.3-0.1-0.5-0.3l-0.3-0.2c-0.1-0.1-0.3-0.1-0.5-0.2l-0.3-0.1c-0.1,0-0.2-0.1-0.4-0.2
		l-0.3-0.1c-0.1,0-0.2-0.1-0.3-0.1L99,59.2c-0.1,0-0.2,0-0.2-0.1c-0.1,0-0.2,0-0.3-0.1l-0.2,0c-0.1,0-0.2,0-0.2,0
		c-0.1,0-0.2,0-0.3,0l-0.2,0c-0.1,0-0.2,0-0.2,0c-0.1,0-0.2,0-0.4,0l0,0.7l-0.1-0.7c-0.1,0-0.1,0-0.2,0c-0.2,0-0.4,0.1-0.6,0.1
		c-3.2,1-7.8,3.4-10.7,5l-0.9-5.6c3.1-3.2,6.7-5.1,10.9-5.8c1.7,0,3,0.2,4.2,0.5c0,0,0.1,0,0.1,0.1c0.8,0.3,1.6,0.6,2.5,0.9
		c2.4,0.9,4.7,1.8,6.9,2.4C107.5,56.3,106.5,56.4,106.4,56.4z M128.3,174.5L128.3,174.5L128.3,174.5L128.3,174.5z M135.8,177
		c-0.6,0.6-0.7,0.6-1,0.4c-0.6-0.3-0.8-0.5-1-0.7s-0.5-0.5-1.1-0.9c-1-1.9-1.8-4.3-2.5-7.1c6,1.8,11.8,4,17.3,6.6
		c-0.2,0.3-0.3,0.6-0.4,0.9c-0.9-0.4-2-0.6-2.9,0l-0.3,0.2c-0.1,0-0.2,0.1-0.3,0.1c-0.5,0.2-0.8,0.5-1.1,0.8
		c-0.1-0.2-0.1-0.3-0.2-0.4c-0.3-0.7-0.4-0.8-1.1-1.2l-0.4-0.2c-0.3-0.2-0.3-0.3-0.3-0.5c0-0.3-0.1-1.1-1.2-1.1
		c-1,0-1.3,0.9-1.5,1.4c-0.2,0.5-0.3,0.7-0.5,0.8C136.6,176.2,136.2,176.7,135.8,177z M126.8,97.5L126.8,97.5L126.8,97.5L126.8,97.5
		z M127.6,96.7L127.6,96.7L127.6,96.7L127.6,96.7z M133.3,74.7L133.3,74.7L133.3,74.7L133.3,74.7z M126.1,67.5L126.1,67.5
		L126.1,67.5L126.1,67.5z M116.2,62.6L116.2,62.6L116.2,62.6L116.2,62.6z"/>
</g>
</svg>
