<?xml version="1.0" encoding="utf-8"?>
<!-- Generator: Adobe Illustrator 19.0.1, SVG Export Plug-In . SVG Version: 6.00 Build 0)  -->
<svg version="1.1" id="Layer_1" xmlns="http://www.w3.org/2000/svg" xmlns:xlink="http://www.w3.org/1999/xlink" x="0px" y="0px"
	 viewBox="0 0 210.6 210.6" style="enable-background:new 0 0 210.6 210.6;" xml:space="preserve">
<style type="text/css">
	.st0{fill:#AC0033;}
</style>
<g>
	<path class="st0" d="M65.7,75.1V33.6H51.5v143.5h93.6c7.8,0,14-6.3,14-14V47.6c0-7.8-6.3-14-14-14H87.3v41.6c0,0.9-1.1,1.3-1.7,0.7
		l-8.4-9c-0.4-0.4-1.1-0.4-1.5,0l-8.4,9C66.8,76.5,65.7,76,65.7,75.1z M109.6,105.5c3.8,1,7.5-2.3,9.4-4.7c0.3-0.3,0.8-0.1,0.7,0.3
		c-1.4,7-1.4,12.6-1,15.3c0,0.1,0,0.2-0.1,0.3c-1,1.1-5,3.4-8.9,3l0,0c-1.4-0.2-2.7-0.6-3.9-1.7c-0.3-0.3-0.6-0.5-1-0.7l2.5-0.4
		l-3.1-0.6c-0.2,0-0.3-0.2-0.3-0.3l-0.7-5c0-0.1,0-0.3,0.1-0.4l1.4-1.2c0.2-0.1,0.4-0.1,0.5,0l6,5.5c0.2,0.2,0.2,0.5-0.1,0.6l-2,1.2
		l8.6-1.4l-3.2-0.5c-0.1,0-0.2-0.1-0.2-0.1l-7.1-6.9c-0.2-0.2-0.2-0.4,0-0.6l1.9-1.8C109.3,105.5,109.5,105.5,109.6,105.5z
		 M91.1,102.1c1.5-1.4,9-7.5,14.3,0.1c0.6,0.8,1.2,1.5,1.8,2c0.3,0.3,0.6,0.5,0.9,0.7c0.2,0.1,0.3,0.2,0.5,0.3l-4.8,4.4
		c-0.2,0.2-0.6,0.1-0.7-0.2l-0.7-5.9c0-0.2,0.1-0.3,0.2-0.4l2.3-1.3l-9.1,1.4l3.2,0.8c0.2,0,0.3,0.2,0.3,0.3l2.5,12.6
		c-0.3,0-0.7,0.1-1,0.1l-0.1,0l-0.1,0l-0.1,0l-0.1,0l-0.1,0c-2.2,0.5-4.1,1.9-5,2.7c-0.2,0.2-0.6,0-0.6-0.3
		c-1.2-9.5-2.5-15-3.8-16.7C90.9,102.5,90.9,102.3,91.1,102.1z"/>
</g>
</svg>
