<?xml version="1.0" encoding="utf-8"?>
<!-- Generator: Adobe Illustrator 19.0.1, SVG Export Plug-In . SVG Version: 6.00 Build 0)  -->
<svg version="1.1" id="Layer_1" xmlns="http://www.w3.org/2000/svg" xmlns:xlink="http://www.w3.org/1999/xlink" x="0px" y="0px"
	 viewBox="0 0 210.6 210.6" style="enable-background:new 0 0 210.6 210.6;" xml:space="preserve">
<style type="text/css">
	.st0{fill:none;}
	.st1{fill:#AC0033;}
</style>
<g>
	<path class="st0" d="M74.3,151.5v-4.4c-0.6,1.2-1.2,2.5-1.8,3.7C73.1,151,73.7,151.3,74.3,151.5z"/>
	<path class="st0" d="M138.2,150.8c-0.2-0.3-0.3-0.7-0.5-1v1.2C137.8,150.9,138,150.8,138.2,150.8z"/>
	<circle class="st1" cx="105.3" cy="64.6" r="35.5"/>
	<g>
		<path class="st1" d="M106,172.5C106,172.5,106,172.5,106,172.5c-0.2,1.9-2,3.3-3.9,2.9l-21.5-4.8c0,1.6,0,3.3,0.1,5.1
			c0,3.2,2.6,5.8,5.9,5.8h37.6c3.2,0,5.8-2.6,5.9-5.8c0-1.7,0-3.3,0.1-4.8l-20.2,4.5C107.9,175.8,106.1,174.4,106,172.5z"/>
		<path class="st1" d="M156.5,153.8l-0.6-1.7l0.1-0.1c-0.3-0.9-0.6-1.8-1-2.7c-2.3-6.4-5.4-12.7-7.5-19.2
			c-5.2-16.2-15.8-25-34.2-26.1c-2.8-0.2-5.4-0.3-7.9-0.3v0c0,0,0,0-0.1,0c0,0,0,0-0.1,0v0c-2.5,0-5.1,0.1-7.9,0.3
			c-18.4,1.1-29.1,9.9-34.2,26.1c-1.6,5-3.7,9.8-5.7,14.6l0,0l0,0c-0.6,1.5-1.2,3-1.7,4.5c-0.3,0.9-0.6,1.8-1,2.7l0.1,0.1l-0.6,1.7
			c-1,2.9,0.6,6.1,3.6,6.9c5.7,1.6,11,3,16.5,4.5c0.6,0.2,1.2,0.3,1.7,0.5c1.6,0.4,3.4,0.3,4.8-0.5c0,0,0,0,0,0
			c2.3-1.3,3.8-3.6,3.8-5.9c0-0.5-0.1-0.9-0.2-1.4c-0.5-1.7-1.8-2.9-3.4-3.6c-2.3-0.9-4.5-1.8-6.8-2.7c-0.6-0.2-1.2-0.5-1.8-0.7
			c0.6-1.2,1.2-2.5,1.8-3.7v-20.2c0-2,1.9-3.5,3.8-3.1l25.3,5.6c1.3,0.3,2.4,1.4,2.5,2.8c0,0,0,0,0.1,0c0.1-1.3,1.1-2.4,2.4-2.7
			l25.3-5.6c2-0.4,3.8,1.1,3.8,3.1v22.8c0.2,0.3,0.3,0.7,0.5,1c-0.2,0.1-0.3,0.1-0.5,0.2c-2.7,1.1-5.4,2.1-8.1,3.2
			c-1.6,0.6-2.9,1.9-3.4,3.6c-0.1,0.5-0.2,0.9-0.2,1.4c-0.1,2.3,1.4,4.6,3.8,5.9c0,0,0,0,0,0c1.5,0.8,3.2,1,4.8,0.5
			c1-0.3,2-0.6,3-0.8c5-1.4,10-2.7,15.2-4.1C155.8,159.8,157.5,156.7,156.5,153.8z"/>
	</g>
</g>
</svg>
