<?xml version="1.0" encoding="utf-8"?>
<!-- Generator: Adobe Illustrator 19.0.1, SVG Export Plug-In . SVG Version: 6.00 Build 0)  -->
<svg version="1.1" id="Layer_1" xmlns="http://www.w3.org/2000/svg" xmlns:xlink="http://www.w3.org/1999/xlink" x="0px" y="0px"
	 viewBox="0 0 210.6 210.6" style="enable-background:new 0 0 210.6 210.6;" xml:space="preserve">
<style type="text/css">
	.st0{fill:none;}
	.st1{fill:#AC0033;}
</style>
<g>
	<path class="st0" d="M106.3,95.1c0.3,0.7,0.9,1.3,1.7,1.4c1.5,0.2,2.7-1.7,4.1-1.2c0.9,0.3,1.2,1.3,1.9,1.9c0,0,0.1,0.1,0.1,0.1
		c0.8,0.6,2,0.5,2.8-0.1c0.8-0.5,1.4-1.4,1.8-2.3c1.6-3.6,1-8-1.4-11c-3.2-3.8-9.4-5-13.4-1.6c-1.1,1.1-1.9,2.5-1.8,4.1
		c0.1,2.6,2.5,4.4,3.5,6.8C105.8,93.7,106,94.4,106.3,95.1z"/>
	
		<ellipse transform="matrix(0.5147 0.8574 -0.8574 0.5147 187.0486 -14.7938)" class="st0" cx="106.6" cy="157.8" rx="15.1" ry="11.6"/>
	<path class="st0" d="M82.1,93.4c1,0.2,2,0.3,2.9-0.1c0.9-0.4,1.7-1.2,1.7-2.2c0-0.1,0-0.1,0-0.2c-0.1-0.9-0.7-1.8-0.4-2.7
		c0.5-1.4,2.7-1.3,3.4-2.6c0.4-0.7,0.2-1.5-0.1-2.2c-0.4-0.7-0.9-1.2-1.3-1.9c-1.4-2.2-1.5-5.2-3.5-6.8c-1.2-1-2.9-1.2-4.4-0.9
		c-5.1,1.3-7.8,7-6.5,11.8C75,89.6,78.3,92.6,82.1,93.4z"/>
	<path class="st0" d="M69.2,151.5c1-0.3,1.9-0.7,2.5-1.5c0.6-0.8,0.9-1.9,0.4-2.8c0,0-0.1-0.1-0.1-0.1c-0.5-0.8-1.5-1.3-1.6-2.1
		c-0.3-1.4,1.7-2.5,1.7-3.9c0-0.8-0.5-1.4-1.2-1.8c-0.6-0.4-1.4-0.6-2-1c-2.3-1.2-3.8-3.8-6.3-4.2c-1.5-0.3-3.1,0.4-4.2,1.4
		c-3.8,3.6-3.4,9.9,0.1,13.5C61.1,151.6,65.4,152.7,69.2,151.5z"/>
	<path class="st0" d="M52.7,100.6c0.4,0.7,0.6,1.4,1,2c0.4,0.6,1.1,1.2,1.8,1.1c1.5,0,2.5-2,3.9-1.8c0.9,0.2,1.4,1.1,2.2,1.6
		c0,0,0.1,0.1,0.1,0.1c0.9,0.5,2,0.2,2.8-0.5c0.8-0.7,1.2-1.6,1.5-2.6c1.1-3.8,0-8.1-2.9-10.8c-3.6-3.4-10-3.7-13.5,0.2
		c-1,1.2-1.6,2.8-1.3,4.3C48.9,96.9,51.5,98.4,52.7,100.6z"/>
	<path class="st0" d="M59.5,128.9c0.9-0.4,1.7-1.2,1.7-2.2c0-0.1,0-0.1,0-0.2c-0.1-0.9-0.7-1.8-0.4-2.7c0.5-1.4,2.7-1.3,3.4-2.6
		c0.4-0.7,0.2-1.5-0.1-2.2c-0.4-0.7-0.9-1.2-1.3-1.9c-1.4-2.2-1.5-5.2-3.5-6.8c-1.2-1-2.9-1.2-4.4-0.9c-5.1,1.3-7.8,7-6.5,11.8
		c1,3.8,4.3,6.8,8.1,7.6C57.5,129.2,58.6,129.3,59.5,128.9z"/>
	<path class="st1" d="M59.2,161.4c19.9,19,40.9,30.4,61.9,17.7c3.8-2.3,7.3-5.1,10.3-8.4c3.4-3.7,4.9-8.8,3.8-13.7c0,0,0-0.1,0-0.1
		c-1.4-6.6-5.9-12.2-9.6-17.9c-2.6-4.1-5-8.8-5.5-13.6c-0.2-2.4,1-4.8,3.2-5.9c6.6-3.4,11.7-9.7,13.5-16.9c0,0,0-0.1,0-0.1
		c1.3-5.5,0-11.2-3.5-15.6c-18.8-23.8-49.7-32.3-73.4-19.9c-29,15.2-31.6,37.3-23.6,59.9C41.2,140,49.1,151.7,59.2,161.4z
		 M103.9,82.1c4.1-3.4,10.3-2.2,13.4,1.6c2.5,3,3,7.5,1.4,11c-0.4,0.9-1,1.8-1.8,2.3c-0.8,0.5-2,0.7-2.8,0.1c0,0-0.1-0.1-0.1-0.1
		c-0.7-0.6-1.1-1.6-1.9-1.9c-1.4-0.4-2.7,1.4-4.1,1.2c-0.7-0.1-1.3-0.7-1.7-1.4c-0.3-0.7-0.5-1.4-0.8-2.1c-0.9-2.4-3.3-4.2-3.5-6.8
		C102,84.7,102.8,83.2,103.9,82.1z M98.8,144.9c5.5-3.3,13.5-0.2,17.8,7c4.3,7.2,3.3,15.6-2.2,18.9c-5.5,3.3-13.5,0.2-17.8-7
		C92.3,156.7,93.3,148.2,98.8,144.9z M80.5,74c1.5-0.3,3.2-0.1,4.4,0.9c2,1.6,2.1,4.6,3.5,6.8c0.4,0.6,0.9,1.2,1.3,1.9
		c0.4,0.7,0.5,1.5,0.1,2.2c-0.7,1.3-2.9,1.2-3.4,2.6c-0.3,0.9,0.3,1.8,0.4,2.7c0,0.1,0,0.1,0,0.2c0,1-0.8,1.9-1.7,2.2
		c-0.9,0.4-2,0.3-2.9,0.1c-3.8-0.8-7.1-3.8-8.1-7.6C72.7,81,75.4,75.3,80.5,74z M49.7,90.1c3.6-3.9,9.9-3.6,13.5-0.2
		c2.9,2.7,4,7,2.9,10.8c-0.3,1-0.7,1.9-1.5,2.6c-0.8,0.7-1.9,0.9-2.8,0.5c0,0-0.1-0.1-0.1-0.1c-0.8-0.5-1.3-1.4-2.2-1.6
		c-1.4-0.2-2.4,1.7-3.9,1.8c-0.8,0-1.4-0.5-1.8-1.1c-0.4-0.6-0.7-1.4-1-2c-1.2-2.2-3.9-3.7-4.4-6.3C48.1,92.9,48.7,91.3,49.7,90.1z
		 M48.4,121.4c-1.3-4.8,1.4-10.5,6.5-11.8c1.5-0.3,3.2-0.1,4.4,0.9c2,1.6,2.1,4.6,3.5,6.8c0.4,0.6,0.9,1.2,1.3,1.9
		c0.4,0.7,0.5,1.5,0.1,2.2c-0.7,1.3-2.9,1.2-3.4,2.6c-0.3,0.9,0.3,1.8,0.4,2.7c0,0.1,0,0.1,0,0.2c0,1-0.8,1.9-1.7,2.2
		c-0.9,0.4-2,0.3-2.9,0.1C52.7,128.2,49.4,125.2,48.4,121.4z M58.3,135.3c1.2-1,2.7-1.6,4.2-1.4c2.5,0.4,4.1,3,6.3,4.2
		c0.7,0.4,1.4,0.6,2,1c0.6,0.4,1.2,1.1,1.2,1.8c0,1.5-2,2.5-1.7,3.9c0.2,0.9,1.1,1.4,1.6,2.1c0,0,0.1,0.1,0.1,0.1
		c0.5,0.9,0.2,2-0.4,2.8c-0.6,0.8-1.6,1.2-2.5,1.5c-3.7,1.2-8.1,0.1-10.8-2.7C54.9,145.2,54.5,138.9,58.3,135.3z"/>
	<path class="st1" d="M176,26.2c-13.6,17.7-19.1,39-21.4,53.8c0,0.2,0.1,0.4,0.1,0.5c0.1,0.1,0.2,0.2,0.4,0.2
		c4.7,0.3,8.8,1.4,12.4,3.5c0.2,0.1,0.4,0.1,0.5,0c0.1,0,0.3-0.1,0.4-0.4C177.6,58.2,180.2,38.8,176,26.2z"/>
	<path class="st1" d="M161.1,114.5c-0.6-0.7-1.4-1.5-2.3-2.2c-0.5-0.4-1.1-0.8-1.7-1.1c0,0-0.1,0-0.1,0c-1.6-0.6-3.3-0.9-4.9-1
		c-0.8,0.1-1.7,0.2-2.5,0.5c-0.1,0-0.2,0.1-0.4,0.1c-2.9,1.2-5.5,3.8-7.2,7.2c-2.6,5.2-2.7,11.5-0.2,16.3c1.3,2.5,3.4,4.7,5.9,6.2
		c2,1.2,4.2,1.8,6.4,1.9c-1-3-0.8-6.2,0.5-9c1-2.2,2.6-3.9,4.2-5.6c0.4-0.4,0.8-0.8,1.1-1.3c2.3-2.5,3.3-4.6,3.4-6.6
		C163.4,118.3,162.6,116.3,161.1,114.5z"/>
	<path class="st1" d="M150.4,107.6c0.1,0.1,0.3,0.2,0.5,0.2c0.3,0,0.7,0,1,0c2-0.1,4.1,0.3,5.9,1.2c0.3,0,0.7-0.1,0.8-0.4l7.7-19.8
		c0.1-0.4,0-0.8-0.4-0.9c-4.4-2.2-8-3.3-11.5-3.5h0c-0.3,0-0.7,0.2-0.7,0.6l-3.7,22.1C150.2,107.2,150.3,107.4,150.4,107.6z"/>
</g>
</svg>
