<?xml version="1.0" encoding="utf-8"?>
<!-- Generator: Adobe Illustrator 19.0.1, SVG Export Plug-In . SVG Version: 6.00 Build 0)  -->
<svg version="1.1" id="Layer_1" xmlns="http://www.w3.org/2000/svg" xmlns:xlink="http://www.w3.org/1999/xlink" x="0px" y="0px"
	 viewBox="0 0 210.6 210.6" style="enable-background:new 0 0 210.6 210.6;" xml:space="preserve">
<style type="text/css">
	.st0{fill:none;}
	.st1{fill:#AC0033;}
</style>
<g>
	<path class="st0" d="M135.4,122.9c-0.4,0-0.6,0.3-0.6,0.6v5.4c0,0.4,0.3,0.6,0.6,0.6h2.7c0.4,0,0.6-0.3,0.6-0.6v-5.4
		c0-0.4-0.3-0.6-0.6-0.6H135.4z"/>
	<path class="st0" d="M151.9,132.8c-1.6-0.5-3-1.4-4.3-2.5l-1,1.9c0.2,0.2,0.2,0.5,0.2,0.7l0,0l0,0c0,0.1,0,0.2-0.1,0.3c0,0,0,0,0,0
		l-0.7,1.4h5.9L151.9,132.8z"/>
	<path class="st0" d="M129.2,122.9c-0.2,0-0.5,0.1-0.5,0.4l-2,5.5c-0.1,0.4,0.1,0.8,0.5,0.8h4c0.3,0,0.6-0.3,0.6-0.6v-5.5
		c0-0.3-0.3-0.6-0.6-0.6H129.2z"/>
	<path class="st0" d="M142.6,134.6h1.5l1-2.4c0-0.1,0-0.2,0.1-0.3c0.2-0.2,0.5-0.2,0.8-0.1c0.3-0.5,0.9-1.5,1.1-1.9
		c-0.6-0.7-1.1-1.3-1.6-1.9l-1.7,3.4c0.1,0.3,0.2,0.5,0.1,0.7L142.6,134.6z"/>
	<path class="st0" d="M154.3,133.4l0,1.2l-0.1,0h7.6V133C159,133.6,156.5,133.7,154.3,133.4z"/>
	<path class="st0" d="M159.4,143.2h-0.6c0-0.2,0-0.5,0-0.8c0-3.4-2.7-6.1-6.1-6.1c-3.4,0-6.1,2.7-6.1,6.1c0,0.3,0,0.5,0,0.8h-8.9
		c0-0.1,0-0.1,0-0.2c0-3-2.5-5.5-5.5-5.5c-3,0-5.5,2.5-5.5,5.5c0,0.1,0,0.1,0,0.2h-4.9c-0.4,0-0.8-0.4-0.8-0.8v-1
		c0-0.2,0.2-0.4,0.4-0.4v-6.7c0-0.5,0.1-1,0.3-1.5l4.8-11.6c0.2-0.4,0.6-0.7,1.1-0.7h12.6c0.4,0,0.8,0.3,0.8,0.8v12l1.1-2.3
		c0-0.1,0-0.2,0.1-0.3c0.1-0.2,0.4-0.2,0.6-0.1c0.4-0.8,1.4-2.5,1.9-3.4c-2-2.5-2.9-4.4-3.3-6.2c-0.8-3.2,1.4-7.6,3.9-8.6
		c4-1.4,8.8-0.8,14.1,1.6c0.8,0.5,1.5,1.1,2.2,1.7V93.3c0-3.2-2.6-5.7-5.7-5.7H67.5c-3.2,0-5.7,2.6-5.7,5.7v17.3l3.4-2.5
		c0.8-0.6,1.8,0,1.8,0.9v3.4c0,0.9,1.1,1.5,1.8,0.9l7.2-5.3c0.8-0.6,1.8,0,1.8,0.9v3.8c0,0.9,1.1,1.5,1.8,0.9l7.7-5.7
		c0.8-0.6,1.8,0,1.8,0.9v12.6c0,0.6,0.5,1.2,1.2,1.2h2.4c0.6,0,1.1-0.5,1.1-1l2.4-26.2c0.1-0.6,0.6-1,1.1-1h4.2
		c0.6,0,1.1,0.5,1.1,1.1l2,26.2c0,0.6,0.5,1.1,1.1,1.1h2.3c0.6,0,1.2,0.5,1.2,1.2v6c0,0.6,0.5,1.2,1.2,1.2c0.6,0,1.2,0.5,1.2,1.2
		v12.1c0,0.6-0.5,1.2-1.2,1.2H62.1c0.8,2.2,2.9,3.8,5.4,3.8H156c3.2,0,5.7-2.6,5.7-5.7v-2.1L159.4,143.2z M132.3,147.6
		c-2.5,0-4.6-2-4.6-4.6c0-2.5,2-4.6,4.6-4.6c2.5,0,4.6,2,4.6,4.6C136.8,145.5,134.8,147.6,132.3,147.6z M152.7,147.5
		c-2.8,0-5.1-2.3-5.1-5.1c0-2.8,2.3-5.1,5.1-5.1c2.8,0,5.1,2.3,5.1,5.1C157.8,145.2,155.5,147.5,152.7,147.5z"/>
	<path class="st1" d="M178.7,160.3V76.6c0-3.2-2.6-5.7-5.7-5.7H50.6c-3.2,0-5.7,2.6-5.7,5.7v83.7c0,3.2,2.6,5.7,5.7,5.7H173
		C176.1,166,178.7,163.5,178.7,160.3z M161.8,134.6h-7.6l0.1,0l0-1.2c2.2,0.3,4.7,0.2,7.5-0.4V134.6z M156,149.3H67.5
		c-2.5,0-4.6-1.6-5.4-3.8h48.5c0.6,0,1.2-0.5,1.2-1.2v-12.1c0-0.6-0.5-1.2-1.2-1.2c-0.6,0-1.2-0.5-1.2-1.2v-6c0-0.6-0.5-1.2-1.2-1.2
		H106c-0.6,0-1.1-0.5-1.1-1.1l-2-26.2c0-0.6-0.5-1.1-1.1-1.1h-4.2c-0.6,0-1.1,0.5-1.1,1l-2.4,26.2c-0.1,0.6-0.6,1-1.1,1h-2.4
		c-0.6,0-1.2-0.5-1.2-1.2V109c0-0.9-1.1-1.5-1.8-0.9l-7.7,5.7c-0.8,0.6-1.8,0-1.8-0.9V109c0-0.9-1.1-1.5-1.8-0.9l-7.2,5.3
		c-0.8,0.6-1.8,0-1.8-0.9V109c0-0.9-1.1-1.5-1.8-0.9l-3.4,2.5V93.3c0-3.2,2.6-5.7,5.7-5.7H156c3.2,0,5.7,2.6,5.7,5.7v22.4
		c-0.7-0.6-1.4-1.2-2.2-1.7c-5.4-2.5-10.1-3-14.1-1.6c-2.5,1-4.7,5.4-3.9,8.6c0.4,1.8,1.3,3.6,3.3,6.2c-0.5,1-1.5,2.7-1.9,3.4
		c-0.2-0.1-0.5,0-0.6,0.1c-0.1,0.1-0.1,0.2-0.1,0.3l-1.1,2.3v-12c0-0.4-0.3-0.8-0.8-0.8h-12.6c-0.5,0-0.9,0.3-1.1,0.7l-4.8,11.6
		c-0.2,0.5-0.3,1-0.3,1.5v6.7c-0.2,0-0.4,0.2-0.4,0.4v1c0,0.4,0.4,0.8,0.8,0.8h4.9c0-0.1,0-0.1,0-0.2c0-3,2.5-5.5,5.5-5.5
		c3,0,5.5,2.5,5.5,5.5c0,0.1,0,0.1,0,0.2h8.9c0-0.2,0-0.5,0-0.8c0-3.4,2.7-6.1,6.1-6.1c3.4,0,6.1,2.7,6.1,6.1c0,0.3,0,0.5,0,0.8h0.6
		l2.4-1.8v2.1C161.8,146.7,159.2,149.3,156,149.3z M62.3,141.2v-1.8c0-0.4,0.3-0.7,0.7-0.7h1.8c0.4,0,0.7,0.3,0.7,0.7v1.8
		c0,0.4-0.3,0.7-0.7,0.7h-1.8C62.6,141.9,62.3,141.6,62.3,141.2z M68,138.8h1.8c0.4,0,0.7,0.3,0.7,0.7v1.8c0,0.4-0.3,0.7-0.7,0.7H68
		c-0.4,0-0.7-0.3-0.7-0.7v-1.8C67.3,139.1,67.6,138.8,68,138.8z M67.3,137.1v-1.8c0-0.4,0.3-0.7,0.7-0.7h1.8c0.4,0,0.7,0.3,0.7,0.7
		v1.8c0,0.4-0.3,0.7-0.7,0.7H68C67.6,137.8,67.3,137.5,67.3,137.1z M72.4,137.1v-1.8c0-0.4,0.3-0.7,0.7-0.7h1.8
		c0.4,0,0.7,0.3,0.7,0.7v1.8c0,0.4-0.3,0.7-0.7,0.7H73C72.7,137.8,72.4,137.5,72.4,137.1z M77.4,137.1v-1.8c0-0.4,0.3-0.7,0.7-0.7
		h1.8c0.4,0,0.7,0.3,0.7,0.7v1.8c0,0.4-0.3,0.7-0.7,0.7h-1.8C77.7,137.8,77.4,137.5,77.4,137.1z M82.5,141.2v-1.8
		c0-0.4,0.3-0.7,0.7-0.7h1.8c0.4,0,0.7,0.3,0.7,0.7v1.8c0,0.4-0.3,0.7-0.7,0.7h-1.8C82.8,141.9,82.5,141.6,82.5,141.2z M87.5,141.2
		v-1.8c0-0.4,0.3-0.7,0.7-0.7H90c0.4,0,0.7,0.3,0.7,0.7v1.8c0,0.4-0.3,0.7-0.7,0.7h-1.8C87.8,141.9,87.5,141.6,87.5,141.2z
		 M92.8,137.1v-1.8c0-0.4,0.3-0.7,0.7-0.7h1.8c0.4,0,0.7,0.3,0.7,0.7v1.8c0,0.4-0.3,0.7-0.7,0.7h-1.8
		C93.1,137.8,92.8,137.5,92.8,137.1z M102.9,141.2v-1.8c0-0.4,0.3-0.7,0.7-0.7h1.8c0.4,0,0.7,0.3,0.7,0.7v1.8c0,0.4-0.3,0.7-0.7,0.7
		h-1.8C103.2,141.9,102.9,141.6,102.9,141.2z M143.8,131.3l1.7-3.4c0.5,0.6,1,1.2,1.6,1.9c-0.3,0.4-0.8,1.3-1.1,1.9
		c-0.3-0.1-0.6-0.1-0.8,0.1c-0.1,0.1-0.1,0.2-0.1,0.3l-1,2.4h-1.5l1.3-2.5C144,131.9,143.9,131.6,143.8,131.3z M146.7,133.2
		C146.7,133.2,146.7,133.2,146.7,133.2c0.1-0.1,0.1-0.2,0.2-0.3l0,0l0,0c0-0.2-0.1-0.4-0.2-0.7l1-1.9c1.3,1.1,2.7,2,4.3,2.5l0,1.7
		H146L146.7,133.2z M138.6,123.5v5.4c0,0.4-0.3,0.6-0.6,0.6h-2.7c-0.4,0-0.6-0.3-0.6-0.6v-5.4c0-0.4,0.3-0.6,0.6-0.6h2.7
		C138.4,122.9,138.6,123.2,138.6,123.5z M131.8,123.5v5.5c0,0.3-0.3,0.6-0.6,0.6h-4c-0.4,0-0.7-0.4-0.5-0.8l2-5.5
		c0.1-0.2,0.3-0.4,0.5-0.4h2C131.5,122.9,131.8,123.2,131.8,123.5z"/>
	<path class="st1" d="M122,35.3L72.9,65.7h73.7L128.9,37C127.5,34.6,124.4,33.9,122,35.3z"/>
	<path class="st1" d="M39.6,83.2l-15.3,9.5c-2.4,1.5-3.1,4.6-1.6,6.9l17,27.5V83.2z"/>
	<path class="st1" d="M152.7,137.3c-2.8,0-5.1,2.3-5.1,5.1c0,2.8,2.3,5.1,5.1,5.1c2.8,0,5.1-2.3,5.1-5.1
		C157.8,139.6,155.5,137.3,152.7,137.3z M152.7,144.9c-1.4,0-2.5-1.1-2.5-2.5c0-1.4,1.1-2.5,2.5-2.5c1.4,0,2.5,1.1,2.5,2.5
		C155.2,143.8,154.1,144.9,152.7,144.9z"/>
	<circle class="st0" cx="152.7" cy="142.4" r="2.5"/>
	<circle class="st0" cx="132.3" cy="143" r="2.2"/>
	<path class="st1" d="M132.3,138.4c-2.5,0-4.6,2-4.6,4.6c0,2.5,2,4.6,4.6,4.6c2.5,0,4.6-2,4.6-4.6
		C136.8,140.4,134.8,138.4,132.3,138.4z M132.3,145.1c-1.2,0-2.2-1-2.2-2.2c0-1.2,1-2.2,2.2-2.2c1.2,0,2.2,1,2.2,2.2
		C134.5,144.1,133.5,145.1,132.3,145.1z"/>
</g>
</svg>
