<?xml version="1.0" encoding="utf-8"?>
<!-- Generator: Adobe Illustrator 19.0.1, SVG Export Plug-In . SVG Version: 6.00 Build 0)  -->
<svg version="1.1" id="Layer_1" xmlns="http://www.w3.org/2000/svg" xmlns:xlink="http://www.w3.org/1999/xlink" x="0px" y="0px"
	 viewBox="0 0 210.6 210.6" style="enable-background:new 0 0 210.6 210.6;" xml:space="preserve">
<style type="text/css">
	.st0{fill:#AC0033;}
</style>
<g>
	<path class="st0" d="M169.3,43.1h-6.1v-2.8c0-6.7-5.5-12.2-12.2-12.2H42.3c-6.7,0-12.2,5.5-12.2,12.2v115c0,6.7,5.5,12.2,12.2,12.2
		h6.1v2.8c0,6.7,5.5,12.2,12.2,12.2h108.7c6.7,0,12.2-5.5,12.2-12.2v-115C181.5,48.6,176,43.1,169.3,43.1z M173.5,170.4
		c0,2.3-1.9,4.2-4.2,4.2H60.6c-2.3,0-4.2-1.9-4.2-4.2v-2.8h94.5c6.7,0,12.2-5.5,12.2-12.2V51.1h6.1c2.3,0,4.2,1.9,4.2,4.2V170.4z
		 M38.1,155.3V76h117.1v79.3c0,2.3-1.9,4.2-4.2,4.2H42.3C39.9,159.5,38.1,157.6,38.1,155.3z M42.3,36.1h108.7c2.3,0,4.2,1.9,4.2,4.2
		V70H38.1V40.3C38.1,38,39.9,36.1,42.3,36.1z"/>
	<path class="st0" d="M104.3,90.1h38.1c1.4,0,2.5-1.1,2.5-2.5v-1c0-1.4-1.1-2.5-2.5-2.5h-38.1c-1.4,0-2.5,1.1-2.5,2.5v1
		C101.8,89,102.9,90.1,104.3,90.1z"/>
	<path class="st0" d="M104.3,104.8h38.1c1.4,0,2.5-1.1,2.5-2.5v-1c0-1.4-1.1-2.5-2.5-2.5h-38.1c-1.4,0-2.5,1.1-2.5,2.5v1
		C101.8,103.7,102.9,104.8,104.3,104.8z"/>
	<path class="st0" d="M104.3,119.6h38.1c1.4,0,2.5-1.1,2.5-2.5v-1c0-1.4-1.1-2.5-2.5-2.5h-38.1c-1.4,0-2.5,1.1-2.5,2.5v1
		C101.8,118.5,102.9,119.6,104.3,119.6z"/>
	<path class="st0" d="M104.3,134.4h38.1c1.4,0,2.5-1.1,2.5-2.5v-1c0-1.4-1.1-2.5-2.5-2.5h-38.1c-1.4,0-2.5,1.1-2.5,2.5v1
		C101.8,133.3,102.9,134.4,104.3,134.4z"/>
	<path class="st0" d="M104.3,149.5h38.1c1.4,0,2.5-1.1,2.5-2.5v-1c0-1.4-1.1-2.5-2.5-2.5h-38.1c-1.4,0-2.5,1.1-2.5,2.5v1
		C101.8,148.4,102.9,149.5,104.3,149.5z"/>
	<path class="st0" d="M49.7,134.7h38.1c1.4,0,2.5-1.1,2.5-2.5v-1c0-1.4-1.1-2.5-2.5-2.5H49.7c-1.4,0-2.5,1.1-2.5,2.5v1
		C47.2,133.6,48.3,134.7,49.7,134.7z"/>
	<path class="st0" d="M49.7,149.5h38.1c1.4,0,2.5-1.1,2.5-2.5v-1c0-1.4-1.1-2.5-2.5-2.5H49.7c-1.4,0-2.5,1.1-2.5,2.5v1
		C47.2,148.4,48.3,149.5,49.7,149.5z"/>
	<path class="st0" d="M52.5,120.8h32.4c1.4,0,2.5-1.1,2.5-2.5V86c0-1.4-1.1-2.5-2.5-2.5H52.5c-1.4,0-2.5,1.1-2.5,2.5v32.4
		C50,119.7,51.1,120.8,52.5,120.8z"/>
	<path class="st0" d="M50,60.2c0,1.4,1.1,2.5,2.5,2.5h88.1c1.4,0,2.5-1.1,2.5-2.5V46.8c0-1.4-1.1-2.5-2.5-2.5H52.5
		c-1.4,0-2.5,1.1-2.5,2.5V60.2z"/>
</g>
</svg>
