<?xml version="1.0" encoding="utf-8"?>
<!-- Generator: Adobe Illustrator 19.0.1, SVG Export Plug-In . SVG Version: 6.00 Build 0)  -->
<svg version="1.1" id="Layer_1" xmlns="http://www.w3.org/2000/svg" xmlns:xlink="http://www.w3.org/1999/xlink" x="0px" y="0px"
	 viewBox="0 0 210.6 210.6" style="enable-background:new 0 0 210.6 210.6;" xml:space="preserve">
<style type="text/css">
	.st0{fill:#AC0033;}
</style>
<g>
	<path class="st0" d="M62.3,70.5c-3.8,0-6.9,3.1-6.9,6.9v85c0,3.8,3.1,6.9,6.9,6.9h34.9V70.5H62.3z"/>
	<path class="st0" d="M147.3,169.3c3.8,0,6.9-3.1,6.9-6.9v-85c0-3.8-3.1-6.9-6.9-6.9h-32.3v98.7H147.3z"/>
	<path class="st0" d="M145.6,43l-21.1,13.5c-1.7,1.1-0.9,3.6,1.1,3.6h21.1c1.1,0,2-0.9,2-2V44.7C148.7,43.1,146.9,42.2,145.6,43z"/>
	<path class="st0" d="M87.3,55.1L66.2,41.7c-1.3-0.8-3,0.1-3,1.7v13.4c0,1.1,0.9,2,2,2h21.1C88.2,58.8,89,56.2,87.3,55.1z"/>
	<path class="st0" d="M96.9,59.3l7.9,7.8c0.8,0.8,2,0.8,2.8,0l7.8-7.8c1.2-1.2,0.4-3.4-1.4-3.4H98.3C96.5,55.9,95.7,58,96.9,59.3z"
		/>
</g>
</svg>
