<?xml version="1.0" encoding="utf-8"?>
<!-- Generator: Adobe Illustrator 19.0.1, SVG Export Plug-In . SVG Version: 6.00 Build 0)  -->
<svg version="1.1" id="Layer_1" xmlns="http://www.w3.org/2000/svg" xmlns:xlink="http://www.w3.org/1999/xlink" x="0px" y="0px"
	 viewBox="0 0 210.6 210.6" style="enable-background:new 0 0 210.6 210.6;" xml:space="preserve">
<style type="text/css">
	.st0{fill:none;}
	.st1{fill:none;stroke:#AC0033;stroke-width:0;stroke-linecap:round;stroke-linejoin:round;}
	.st2{fill:#AC0033;}
</style>
<g>
	<polygon class="st0" points="113.3,102.8 113.3,102.8 113.3,102.8 	"/>
	<polygon class="st0" points="114.4,102.2 114.4,102.2 114.4,102.2 	"/>
	<polygon class="st0" points="97.4,104.9 97.4,104.9 97.4,104.9 	"/>
	<path class="st0" d="M103.3,101.6c0-0.1,0-0.1,0.1-0.2c-0.1,0.1-0.3,0.2-0.4,0.4C103.1,101.7,103.2,101.7,103.3,101.6z"/>
	<polygon class="st0" points="113.1,97.8 113.1,97.8 113.1,97.8 	"/>
	<polygon class="st0" points="111.3,96.2 111.3,96.3 111.3,96.2 111.3,96.2 	"/>
	<polygon class="st0" points="130.1,68.8 130.1,68.8 130.1,68.8 	"/>
	<polygon class="st0" points="127.9,84.3 127.9,84.3 127.9,84.3 	"/>
	<polygon class="st0" points="138.2,64.9 138.2,64.9 138.2,64.9 	"/>
	<polygon class="st0" points="159.1,60.8 159.1,60.8 159.1,60.8 	"/>
	<polygon class="st0" points="144.3,54.7 144.3,54.7 144.3,54.7 	"/>
	<polygon class="st0" points="159.1,60.2 159.1,60.2 159.1,60.2 	"/>
	<polygon class="st0" points="139.1,65 139.1,65 139.1,65 	"/>
	<polygon class="st0" points="138.7,64.9 138.7,64.9 138.7,64.9 	"/>
	<polygon class="st0" points="159.1,60.7 159.1,60.7 159.1,60.7 	"/>
	<polygon class="st0" points="68.9,54.2 68.9,54.2 68.9,54.2 	"/>
	<polygon class="st0" points="58.5,57.3 58.5,57.3 58.5,57.3 	"/>
	<polygon class="st0" points="68.4,55 68.4,55 68.4,55 	"/>
	<polygon class="st0" points="65.7,64.4 65.7,64.4 65.7,64.4 	"/>
	<polygon class="st0" points="57.3,56.1 57.3,56.1 57.3,56.1 	"/>
	<polygon class="st0" points="57.2,56 57.2,56 57.2,56 	"/>
	<rect x="77" y="72.2" class="st0" width="0" height="0"/>
	<polygon class="st0" points="76.3,71.7 76.3,71.7 76.3,71.7 	"/>
	<polygon class="st0" points="55.7,54.6 55.7,54.6 55.7,54.6 	"/>
	<polygon class="st0" points="72.6,105.9 72.6,105.9 72.6,105.9 	"/>
	<polygon class="st0" points="74.6,70.7 74.6,70.7 74.6,70.7 	"/>
	<polygon class="st0" points="75.2,71 75.2,71 75.2,71 	"/>
	<polygon class="st0" points="73.2,70 73.2,70 73.2,70 	"/>
	<polygon class="st0" points="75.6,71.2 75.6,71.2 75.6,71.2 	"/>
	<rect x="31.4" y="97.2" class="st0" width="0" height="0"/>
	<path class="st0" d="M26.4,93.1l0.2-0.1l0,0l0.2,0l0,0.1c0,0,0,0,0,0l0.2,0.1c-0.1-0.3-0.2-0.5-0.2-0.8l0-0.1c0-0.1,0-0.2-0.1-0.2
		c0,0.1,0,0.2,0,0.2l0.1,0.5L26.4,93.1C26.4,93,26.4,93,26.4,93.1z"/>
	<polygon class="st0" points="26,97.2 26,97.2 26,97.3 26,97.3 	"/>
	<polygon class="st0" points="17.5,97 17.5,97 17.5,97 	"/>
	<polygon class="st0" points="13,98.5 13,98.5 13,98.5 	"/>
	<rect x="17.2" y="97.4" class="st0" width="0" height="0"/>
	<rect x="17.5" y="97" class="st0" width="0" height="0"/>
	<polygon class="st0" points="56.5,61 56.5,61 56.5,61 	"/>
	<polygon class="st0" points="56.4,60.9 56.4,60.9 56.4,60.9 	"/>
	<polygon class="st0" points="56,61 56.2,60.8 56.2,60.8 55.9,61 	"/>
	<polygon class="st0" points="30.4,104.5 30.4,104.5 30.4,104.5 30.4,104.5 	"/>
	<polygon class="st0" points="33.3,110.7 33.2,110.7 33.2,110.7 33.3,110.7 	"/>
	<polygon class="st0" points="164.1,66.8 164.1,66.8 164.1,66.8 	"/>
	<polygon class="st0" points="166.1,63.3 166.1,63.3 166.1,63.3 	"/>
	<polygon class="st0" points="165.8,64 165.8,64 165.8,64 	"/>
	<polygon class="st0" points="166.3,62.7 166.3,62.7 166.3,62.7 	"/>
	<polygon class="st0" points="159,67 159,67 159.3,67.1 	"/>
	<polygon class="st0" points="166.3,62.5 166.3,62.5 166.3,62.5 	"/>
	<polygon class="st0" points="159,61.4 159,61.4 159,61.4 	"/>
	<polygon class="st0" points="163.4,67.7 163.4,67.7 163.4,67.7 	"/>
	<polygon class="st0" points="36.8,112.3 36.8,112.3 36.8,112.3 	"/>
	<polygon class="st0" points="33.2,110.6 33.2,110.6 33.2,110.6 	"/>
	<polygon class="st0" points="29.9,107.2 29.9,107.2 29.9,107.2 	"/>
	<polygon class="st0" points="186.9,91 186.9,91 186.9,91 	"/>
	<polygon class="st0" points="201.2,95 201.2,95 201.2,95 	"/>
	<polygon class="st0" points="58.2,137.9 58.2,137.9 58.2,137.9 	"/>
	<polygon class="st0" points="56.1,61.1 56.1,61.1 56.3,60.9 	"/>
	<polygon class="st0" points="195.6,103.8 195.6,103.8 195.6,103.8 	"/>
	<polygon class="st0" points="19.2,86.2 19.2,86.2 19.2,86.2 	"/>
	<polygon class="st0" points="31.9,91.6 31.9,91.6 31.9,91.6 	"/>
	<polygon class="st0" points="54.8,54 54.8,54 54.8,54 	"/>
	<polygon class="st0" points="32.3,89.7 32.3,89.7 32.3,89.7 	"/>
	<polygon class="st0" points="14.9,83.3 14.9,83.3 14.9,83.3 	"/>
	<polygon class="st0" points="32.6,89.3 32.6,89.3 32.6,89.3 	"/>
	<polygon class="st0" points="15.2,83.3 15.2,83.3 15.2,83.3 	"/>
	<polygon class="st0" points="52.9,56.6 52.9,56.6 52.9,56.6 	"/>
	<polygon class="st0" points="53.5,57.5 53.5,57.5 53.5,57.5 	"/>
	<polygon class="st0" points="14.6,83.2 14.6,83.2 14.6,83.2 	"/>
	<polygon class="st0" points="52.9,56.5 52.9,56.5 52.9,56.5 	"/>
	<polygon class="st0" points="53.8,58 53.8,58 53.8,58 	"/>
	<polygon class="st0" points="50.9,66.9 50.9,66.9 50.9,66.9 	"/>
	<polygon class="st0" points="50.8,61.3 50.8,61.3 50.8,61.3 	"/>
	<polygon class="st0" points="37.7,110.9 37.7,110.9 37.7,110.9 	"/>
	<polygon class="st0" points="37.3,115 37.3,115 37.3,115 	"/>
	<polygon class="st0" points="33.2,111.3 33.5,111.3 33.5,111.3 	"/>
	<polygon class="st0" points="32.9,114.8 32.9,114.8 32.9,114.8 	"/>
	<polygon class="st0" points="14.3,83.2 14.3,83.2 14.3,83.2 	"/>
	<polygon class="st0" points="40.2,112.8 40.2,112.8 40.2,112.8 	"/>
	<polygon class="st0" points="32.9,114.9 32.9,114.9 32.9,114.9 	"/>
	<rect x="39.9" y="112.6" class="st0" width="0" height="0"/>
	<polygon class="st0" points="13.4,83.5 13.4,83.5 13.4,83.5 	"/>
	<polygon class="st0" points="29.1,115.3 29.1,115.3 29.1,115.3 	"/>
	<polygon class="st0" points="14,83.3 14,83.3 14,83.3 	"/>
	<polygon class="st0" points="29.6,117.7 29.6,117.7 29.6,117.7 	"/>
	<polygon class="st0" points="31.2,118.2 31.2,118.2 31.2,118.2 	"/>
	<polygon class="st0" points="32.3,116.9 32.3,116.9 32.3,116.9 	"/>
	<polygon class="st0" points="75.9,75.2 75.9,75.3 75.9,75.3 75.9,75.2 	"/>
	<polygon class="st0" points="128.6,81.3 128.6,81.3 128.6,81.3 	"/>
	<polygon class="st0" points="172.9,80.4 172.9,80.4 172.9,80.4 	"/>
	<polygon class="st0" points="173.6,82 173.6,82 173.6,82 	"/>
	<polygon class="st0" points="173.2,80.1 173.2,80.1 173.2,80.1 173.2,80.1 173.2,80.1 	"/>
	<polygon class="st0" points="173.4,81.5 173.4,81.5 173.4,81.5 	"/>
	<polygon class="st0" points="173.2,81 173.2,81 173.2,81 	"/>
	<polygon class="st0" points="158.6,64.2 158.6,64.2 158.6,64.2 	"/>
	<polygon class="st0" points="117.2,107.7 117.2,107.7 117.2,107.7 	"/>
	<polygon class="st0" points="29.4,110.5 29.4,110.5 29.4,110.5 	"/>
	<polygon class="st0" points="104.2,101.9 104.2,101.9 104.2,101.9 	"/>
	<polygon class="st0" points="161.9,111.2 161.9,111.2 161.9,111.2 	"/>
	<polygon class="st0" points="161.9,111.1 161.9,111.1 161.9,111.1 	"/>
	<path class="st0" d="M122.6,118L122.6,118c1,0,1.9-0.1,2.7-0.1c0-0.1,0.1-0.2,0.2-0.3c0,0,0.1-0.1,0.1-0.1c0-0.1,0.1-0.1,0.2-0.2
		l0.1-0.2c0.1-0.1,0.1-0.1,0.2-0.2c0,0,0.1-0.1,0.1-0.1l0.6-0.6l0.7,0.6l-0.6-0.7l0.1-0.1c0,0,0.1-0.1,0.1-0.1l0.1-0.1l0.1-0.1
		l0.4-0.3c0,0,0.1-0.1,0.1-0.1l0.7-0.5l0.6,0.7l0,0l0,0l-0.5-0.8l0.2-0.2l-6.1,0.4c0,0,0,0.1,0,0.1c0,0.2,0,0.4,0,0.5
		c0,0.2,0,0.4,0,0.6c0,0.2,0,0.4,0,0.6c0,0.2,0,0.4,0,0.6C122.6,117.7,122.6,117.8,122.6,118z"/>
	<polygon class="st0" points="130.4,114.7 130.3,114.6 130.3,114.6 130.4,114.7 130.4,114.7 	"/>
	<polygon class="st0" points="128.9,114.7 129.5,115.3 129.5,115.3 129,114.7 	"/>
	<polygon class="st0" points="127.7,116.6 127.7,116.6 127.7,116.6 	"/>
	<polygon class="st0" points="118.1,137.7 118.1,137.7 118.1,137.7 	"/>
	<polygon class="st0" points="126.8,117.4 126.8,117.4 126.8,117.4 	"/>
	<polygon class="st0" points="127.5,116.7 127.5,116.7 127.5,116.7 	"/>
	<path class="st0" d="M147.1,66.6c-0.1-0.1-0.1-0.1-0.2-0.2c0,0,0,0-0.1,0.1c-0.1,0.1-0.1,0.1-0.1,0.2l-0.1,0.2
		c0.5,0.2,0.9,0.4,1.3,0.6l-0.3-0.3C147.4,66.9,147.2,66.7,147.1,66.6z"/>
	<path class="st0" d="M114.1,135.6c0.2,0.3,0.3,0.7,0.3,1.1c0,0.3-0.1,0.6-0.2,0.9c0,0,0,0,0,0c0.1,0.2,0.2,0.3,0.3,0.5
		c0,0.1,0.1,0.1,0.1,0.2c0,0,0,0.1,0.1,0.1l0,0c0,0,0.1,0,0.1,0l0.4-0.2l0.1-0.1l1.1-0.6l0.1,0l1.1-0.6c0,0,0.1-0.1,0.1-0.1l0.4-0.2
		c0,0,0.1-0.1,0.1-0.1l1.2-0.6c0.1-0.1,0.3-0.1,0.5-0.2c0.2-0.1,0.4-0.2,0.5-0.2c0,0,0.1,0,0.1,0c0.1,0,0.2-0.1,0.4-0.1
		c0,0,0.1,0,0.1,0c0.1,0,0.3-0.1,0.4-0.1c0,0,0.1,0,0.1,0c0.1,0,0.2,0,0.3-0.1c0,0,0.1,0,0.1,0c0.6-0.1,1.2,0.1,1.6,0.6
		c0.9,1.2,0.6,4.8-1,10.7c1.1,0.1,2.8,0.3,4.5,1.1l0-0.2c0-0.3,0.1-0.7,0.4-0.9c0.3-0.2,0.6-0.4,0.9-0.7c0.1-0.1,0.3-0.2,0.4-0.3
		c0.2-2.5,0.7-5.4,1.5-8.8c0.2-0.7,0.3-1.4,0.5-2.1c0.2-0.7,0.3-1.3,0.5-1.8l0.4-1.5l0,0l0,0c0,0,0,0,0,0l0,0c0-0.2-0.1-0.5-0.1-0.7
		c0,0,0,0,0,0c-0.1-0.1-0.2-0.2-0.3-0.3c-0.1-0.1-0.2-0.2-0.3-0.3l-3.4,0.6c-0.3,0.1-0.6,0-0.8-0.2c-0.2,0-0.4,0.1-0.7,0.1
		l-10.8,1.6c-0.4,0.3-0.8,0.6-1.1,0.9c0,0,0,0,0.1,0.1c0,0,0.1,0.1,0.1,0.1c0.2,0.1,0.4,0.2,0.5,0.3c0.3,0.3,0.3,0.8,0.1,1.1
		L114.1,135.6z"/>
	<polygon class="st0" points="144.7,64.8 144.7,64.8 144.7,64.8 	"/>
	<polygon class="st0" points="85.5,123.5 85.5,123.5 85.5,123.5 	"/>
	<polygon class="st0" points="102.6,103.3 102.6,103.3 102.6,103.3 	"/>
	<path class="st0" d="M88.9,113.2c-0.2,0.2-0.4,0.4-0.7,0.4l-9.1,1.2c0,0.1,0,0.3,0.1,0.4l0,0.1c0,0.2,0.1,0.4,0.1,0.6l0,0.1
		c0,0.4,0.1,0.9,0.1,1.3l0,0.6c0,0,0,0.1,0,0.1c0.2,0.1,0.4,0.1,0.6,0.1c0.1,0,0.4,0,0.6-0.1c0.2,0,0.3-0.1,0.5-0.1l0.4,0.9
		l-0.3-0.9c0.1,0,0.2-0.1,0.4-0.1c0,0,0.1,0,0.1,0c0.1-0.1,0.3-0.1,0.4-0.2c0.2-0.1,0.3-0.2,0.5-0.3c0,0,0,0,0,0
		c0.1-0.1,0.3-0.2,0.4-0.2l0.1,0.1c0,0,0,0,0,0v0l0.5,0.6l0,0l-0.5-0.8c0.1-0.1,0.2-0.1,0.3-0.2l0.7,0.7l-0.6-0.8
		c0.1-0.1,0.2-0.1,0.3-0.2c0.3-0.2,0.4-0.3,0.6-0.5l0.1-0.1l0.7,0.6l0,0l-0.6-0.7l0.7,0.6l0,0l-0.6-0.7c0.2-0.2,0.5-0.3,0.8-0.3
		c0.3,0,0.6,0.1,0.7,0.3l0.1,0.1c0,0,0,0.1,0.1,0.1c0,0,0.1,0.1,0.1,0.2c0.1,0.1,0.1,0.2,0.1,0.3c0.1,0.1,0.1,0.3,0.2,0.4
		c0,0,0,0,0,0c0,0.1,0.1,0.1,0.1,0.2c0.1-0.2,0.2-0.4,0.2-0.6c0-0.1,0.1-0.1,0.1-0.2c0.1-0.3,0.2-0.4,0.3-0.6c0-0.1,0.1-0.1,0.1-0.2
		l0.1-0.1c0.1-0.2,0.2-0.3,0.3-0.4c0.1-0.1,0.1-0.2,0.2-0.3c0.1-0.2,0.2-0.3,0.3-0.4c0.1-0.1,0.2-0.2,0.2-0.3
		c0.1-0.1,0.2-0.2,0.3-0.3C88.7,113.4,88.8,113.4,88.9,113.2c0.1,0,0.2-0.1,0.3-0.2c0.1-0.1,0.2-0.2,0.3-0.2c0,0,0.1-0.1,0.1-0.1
		l-0.6,0C89,112.9,89,113,88.9,113.2z"/>
	<path class="st0" d="M86.8,123.1l0-0.1c0,0,0,0,0-0.1c-0.1,0.4-0.2,0.7-0.3,1l0.6,0.1l-0.1-0.2C86.9,123.5,86.8,123.3,86.8,123.1z"
		/>
	<polygon class="st0" points="129.2,79.5 129.2,79.5 129.2,79.5 	"/>
	<polygon class="st0" points="90.3,142.1 90.3,142.1 90.3,142.1 	"/>
	<path class="st0" d="M100.1,136c-0.1-0.2-0.1-0.4,0-0.5c-0.6-0.1-1.1-0.2-1.7-0.4c-1.2,0.2-2.3,0.1-3.1-0.1c-0.3,0-0.6-0.1-0.9-0.1
		c-0.1,0-0.2,0-0.3,0c-0.1,0-0.2-0.1-0.3-0.1c-0.2-0.1-0.4-0.1-0.6-0.2c-0.1-0.1-0.3-0.1-0.3-0.2c-0.6-0.7-1.1-1.8-1.5-3.4l-8.8-0.2
		l-0.1,0.1c-0.2,0.2-0.3,0.4-0.4,0.6l-0.3,0.4c-0.2,0.2-0.3,0.4-0.5,0.6l-0.3,0.3c-0.3,0.3-0.6,0.7-0.9,1c-0.3,0.4-0.7,0.7-1,1.1
		c-0.1,0.1-0.2,0.1-0.2,0.2l-0.2,0.2c-0.2,0.2-0.4,0.4-0.6,0.5c-0.1,0.1-0.3,0.2-0.4,0.3l-0.3,0.2c-0.1,0.1-0.2,0.2-0.4,0.3
		c-0.2,0.1-0.4,0.3-0.5,0.4l-0.3,0.2c-0.1,0.1-0.2,0.1-0.3,0.2c-0.2,0.2-0.5,0.3-0.7,0.4l-0.1,0.1c-0.1,0-0.1,0.1-0.2,0.1
		c-0.3,0.1-0.5,0.3-0.8,0.4l-0.1,0.1c-0.1,0-0.1,0.1-0.2,0.1c-0.3,0.1-0.6,0.2-0.8,0.3l-0.1,0c-0.1,0-0.1,0.1-0.2,0.1
		c-0.1,0.1-0.3,0.1-0.4,0.2l-0.1,2.3c4.2,0.9,6.9,3.9,8.3,5.8c0.4,0.4,0.8,0.9,1.1,1.4c6.3-0.3,9.9-0.8,12-1.3
		c-0.1,0-0.2-0.1-0.3-0.1c-1.2-0.5-2.3-1.6-3-3c-0.1-0.1-0.1-0.2-0.1-0.3l-0.5-1.1c0,0,0-0.1,0-0.1c0,0,0-0.1,0-0.1l0-0.1
		c0,0,0-0.1,0-0.1c0,0,0-0.1,0-0.1c-0.1-0.4,0.1-0.9,0.5-1.1l3.6-2c0.3-0.2,0.7-0.2,1,0c0.3,0.2,0.5,0.5,0.5,0.8c0,0.2,0,0.4,0,0.7
		l0,0.2c0,0.2,0,0.3,0,0.5l0,0.2c0,0.2,0,0.4,0.1,0.5c0,0.2,0.1,0.3,0.1,0.5l0,0.1c0,0.1,0.1,0.2,0.1,0.3l-0.9,0.4l0,0l0.9-0.3
		c0,0.1,0.1,0.2,0.1,0.4c0.1,0.2,0.1,0.2,0.1,0.3l0,0.1c0,0.1,0.1,0.1,0.1,0.2c0.1,0.1,0.1,0.2,0.2,0.3c0.1,0.1,0.1,0.1,0.1,0.2
		c0-0.2,0.1-0.4,0.1-0.5l0-0.1c0-0.1,0.1-0.2,0.1-0.3c0-0.1,0.1-0.3,0.1-0.4l1,0.2l-0.9-0.3c0-0.1,0.1-0.2,0.1-0.3
		c0.1-0.1,0.1-0.3,0.2-0.4c0.1-0.1,0.1-0.2,0.2-0.4c0.1-0.1,0.1-0.3,0.2-0.4c0.1-0.1,0.1-0.2,0.2-0.3c0.1-0.1,0.2-0.3,0.2-0.4
		c0.1-0.1,0.1-0.2,0.2-0.3l0.1-0.1c0.1-0.1,0.1-0.2,0.2-0.3c0.1-0.1,0.1-0.2,0.2-0.3l0.1-0.1c0.1-0.2,0.3-0.4,0.4-0.5l1.7-1.9
		L100.1,136z"/>
	<line class="st1" x1="16.8" y1="96.4" x2="16.8" y2="96.4"/>
	<line class="st1" x1="16.8" y1="96.4" x2="16.8" y2="96.4"/>
	<line class="st1" x1="76.4" y1="73" x2="76.4" y2="73"/>
	<path class="st2" d="M202.4,95c0,0,0-0.1-0.1-0.2c0-0.1-0.1-0.2-0.1-0.2c0-0.1-0.1-0.1-0.1-0.2c0,0-0.1-0.1-0.1-0.2
		c0-0.1-0.1-0.1-0.1-0.1c0,0-0.1-0.1-0.1-0.1c-1.3-1-3.1-0.8-5,0l0,0l0.2-0.2c0,0,0.1-0.1,0.1-0.1c0.1-0.1,0.1-0.2,0.2-0.2
		c0,0,0.1-0.1,0.1-0.1c0.1-0.1,0.1-0.2,0.2-0.3c0.1-0.1,0.1-0.2,0.2-0.3c0.2-0.4,0.4-0.7,0.5-1.1c0,0,0-0.1,0-0.1
		c0-0.1,0.1-0.2,0.1-0.3l0-0.1c0-0.1,0-0.2,0-0.3l0-0.2c0-0.1,0-0.2,0-0.3l0-0.2c0-0.1,0-0.2,0-0.3c0-0.1,0-0.1,0-0.2
		c0-0.1,0-0.2-0.1-0.3c0-0.1,0-0.1,0-0.2c0-0.1-0.1-0.2-0.1-0.3c0-0.1,0-0.1-0.1-0.2c0-0.1-0.1-0.2-0.1-0.3c0,0-0.1-0.1-0.1-0.1
		c-0.1-0.1-0.1-0.2-0.2-0.3c0,0-0.1-0.1-0.1-0.1c-0.1-0.1-0.2-0.2-0.3-0.4c-0.1,0-0.1-0.1-0.2-0.1c-0.1-0.1-0.2-0.1-0.3-0.2
		c-0.1,0-0.1-0.1-0.2-0.1c0,0,0,0,0,0c-1.6-0.6-4,0-6.9,5.7c0-0.1-0.1-0.2-0.1-0.3c0-0.1-0.1-0.3-0.2-0.4l0-0.1
		c-0.1-0.2-0.2-0.3-0.3-0.5c-0.1-0.2-0.2-0.3-0.3-0.5l-0.1-0.1c-0.1-0.1-0.2-0.3-0.3-0.4c0,0-0.1-0.1-0.1-0.1
		c-0.1-0.2-0.3-0.3-0.5-0.5l-0.1-0.1c-0.1-0.1-0.3-0.2-0.5-0.3l-0.2-0.1c-0.2-0.1-0.4-0.3-0.7-0.4c-1.7-0.8-3.5,0-4.2,1.2
		c-0.6,1-0.7,2.5,1,3.7c0.8,0.6,1.2,1,1.4,1.2c-1,1-1.1,2.4-1.1,3.3l-18.7,6.9c0,0,0,0,0,0l0.3-0.2c0.3-0.2,0.6-0.4,0.9-0.6l0.2-0.1
		c0.2-0.1,0.3-0.2,0.6-0.4l0.6-0.5c0.2-0.1,0.3-0.3,0.5-0.4l0.5-0.5c0.2-0.2,0.4-0.4,0.6-0.6l0.3-0.3c0.3-0.3,0.5-0.5,0.7-0.8
		c0,0,0,0,0-0.1l0.2-0.2c0.2-0.2,0.4-0.5,0.6-0.7l0.1-0.2c6.3-8.2,4.1-17.4,4-17.8c-0.1-0.2-0.1-0.4-0.2-0.7c0,0,0-0.1,0-0.1
		c0-0.1-0.1-0.3-0.2-0.4l0-0.1c0,0,0-0.1,0-0.1c-0.1-0.1-0.1-0.3-0.2-0.4l0,0c0,0,0.1,0,0.1,0l0.1-0.1l0.1-0.1c0,0,0.1-0.1,0.1-0.1
		l-0.3-0.9h0l0.5,0.9c0,0,0.1,0,0.1,0l0.1,0l0.2,0c0.8,0.4,3.1,2.7,4.8,5l0.1,0.1c0.1,0.1,0.2,0.2,0.3,0.4l0.1,0.1
		c0.1,0.1,0.2,0.3,0.3,0.4l0.8-0.5l-0.7,0.6c0.1,0.1,0.2,0.3,0.3,0.4l0.1,0.1c0.1,0.1,0.1,0.2,0.2,0.3l0.1,0.1
		c0.1,0.1,0.1,0.2,0.1,0.3c0.2,0.4,0.6,0.7,1,0.6c0.4-0.1,0.8-0.4,0.8-0.9c0-0.5,1.1-12.3-3.9-15.7c-0.3-0.2-0.6-0.2-0.9-0.1
		c0,0-0.1,0-0.1,0.1l-0.1,0.1c-0.5,0.2-1.5,0.6-2.8,1.2c0,0,0-0.1,0-0.1c-0.2-0.8-0.6-1.3-1-1.6c-0.5-2.3-1.3-5.1-2.4-6.3
		c-0.3-0.3-1-0.3-1.3,0l-0.1,0.1c-0.2,0.1-0.5,0.4-1,0.7c0,0,0,0,0,0c-1.3,0.9-3.8,2.6-6.4,3.7l0.8-1l0,0c0,0,0.1-0.1,0.1-0.1
		l-0.8-0.6l0.9,0.5l0.3-0.4l0.1-0.1c0,0,0.1-0.1,0.1-0.1l0.2-0.2c0,0,0.1-0.1,0.1-0.1l0.3-0.4c0,0,0.1-0.1,0.1-0.1l0.2-0.4l-0.8-0.6
		l0,0l0.8,0.5c0,0,0-0.1,0.1-0.1l0.3-0.5l-0.8-0.6l0.9,0.5c0,0,0-0.1,0-0.1c0.1-0.2,0.2-0.3,0.3-0.5l-0.8-0.5l0.9,0.4l0.1-0.1
		c0.1-0.1,0.1-0.3,0.2-0.4l0.4-0.8c0,0,0.1-0.2,0.1-0.2l0.1-0.2c0-0.1,0.1-0.2,0.1-0.3c0,0,0-0.1,0-0.1l0.1-0.3c0-0.1,0-0.2,0.1-0.3
		l0-0.1c0,0,0-0.1,0-0.1c0-0.2,0-0.4,0-0.5c0-0.2,0-0.4,0-0.6l0-0.2c0-0.1,0-0.3-0.1-0.4l-0.1-0.3c0-0.1-0.1-0.3-0.1-0.4l-0.1-0.3
		c0-0.1-0.1-0.3-0.1-0.4l-0.1-0.3c0-0.1-0.1-0.2-0.2-0.4l-0.1-0.2c0-0.1-0.1-0.2-0.2-0.3l-0.9,0.4l0.8-0.5l-0.1-0.2
		c-0.1-0.1-0.1-0.3-0.2-0.5L166,57c-0.1-0.2-0.2-0.4-0.3-0.6l-0.1-0.2l-0.8,0.5l0.7-0.6l-0.7-1l-1.4-1.6l-0.5,0.5l0,0l0.4-0.6
		l-0.2-0.2c-0.3-0.3-0.6-0.5-0.9-0.8c-0.4-0.3-0.8-0.3-1.2,0c-0.3,0.3-0.5,0.8-0.3,1.2l0.8-0.4l-0.8,0.5l0.6-0.2l-0.6,0.3l0.4-0.1
		l-0.1,0.1l-0.3,0.1l0.2-0.1l-0.1,0.1c0,0,0,0,0,0l-0.2,0.1l0.1,0.3l0,0.1l0,0.2l0,0.1l0,0.1l0.8-0.1l0,0l-0.8,0.2
		c0,0.1,0,0.2,0.1,0.4l0.1,1.5l-0.1,1.6l0,0.1l-0.1,0.5c-0.1,0.4-0.1,0.8-0.3,1.3l-0.1,0.6l0,0.2l-1.1,3.1c0,0.1-0.1,0.1-0.1,0.2
		c0,0,0-0.1,0-0.1l0.1-0.6c0,0,0-0.1,0-0.1l-1-0.2l0,0l1,0l0.2-1.2l-1-0.1l1,0l0.1-0.5l0-0.1l0-0.1c0-0.2,0-0.3,0.1-0.5l0-0.1l0-0.1
		l0-0.5c0,0,0-0.1,0-0.1l0-0.1l0-0.1l0-0.6l0-0.1l0-0.3c0-0.1,0-0.2,0-0.3l0-0.1c0,0,0-0.1,0-0.1c0-0.2,0-0.3-0.1-0.5
		c-0.7-3.8-8-11.9-12.4-13.8c-0.4-0.2-0.9,0-1.2,0.3c-0.3,0.4-0.2,0.9,0.1,1.2c0,0,0,0,0,0v0c0.1,0.1,0.3,0.3,0.5,0.6
		c0.2,0.2,0.4,0.5,0.6,0.8c0.1,0.1,0.2,0.3,0.3,0.4l0.7-0.5c0,0,0,0,0,0l-0.7,0.6c0.1,0.2,0.2,0.3,0.4,0.5c1.7,2.4,4.3,7.1,5.4,13.5
		c-0.2-0.2-0.5-0.3-0.8-0.2c-0.4,0-0.7,0.3-0.8,0.7c0,0,0,0.1,0,0.1c0,0,0,0.1,0,0.1l0,0.1l0.6,0.2l0,0l-0.6-0.1l-0.1,0.2
		c0,0,0,0.1,0,0.1l0,0.1l0,0.1l-0.3,1l-0.7-1.3c0,0-0.1-0.1-0.1-0.1l-0.4-0.7c0,0,0-0.1,0-0.1l-1.1-1.9c0,0-0.1-0.1-0.1-0.1
		l-0.8-1.3c0,0,0-0.1-0.1-0.1l-0.6-0.9c0,0-0.1-0.1-0.1-0.1l-0.3-0.4l-0.8,0.6l0,0l0.7-0.6l-0.5-0.7c0,0-0.1-0.1-0.1-0.1l-0.1-0.1
		c-0.2-0.2-0.3-0.4-0.5-0.7l-0.1-0.1c-0.1-0.1-0.2-0.3-0.3-0.4l-0.2-0.2c0,0-0.1-0.1-0.1-0.1l-0.5-0.6c0,0-0.1-0.1-0.1-0.1l-0.7,0.7
		l0.6-0.7l-0.4-0.4c0,0-0.1-0.1-0.1-0.1l-0.2-0.2c-0.1-0.1-0.2-0.2-0.3-0.2c0,0-0.1-0.1-0.1-0.1l-0.1-0.1c-0.2-0.1-0.3-0.2-0.4-0.3
		c-4.2-2.5-15.7-1.3-18.3-0.2c-0.4,0.2-1,0.4-1.1,1c-0.1,0.3,0,0.5,0.1,0.8c0.1,0.2,0.4,0.4,0.6,0.4l0.2-0.9h0l-0.1,0.9l0,0.1
		c0,0,0,0,0,0l0,0c0,0,0.1,0,0.1,0l0.1,0c0,0,0,0,0,0l0,0l0,0c0.1,0,0.1,0,0.1,0l0.1,0c0,0,0.1,0,0.2,0l3.4,1l4.4,1.6l3.3,1.5
		c0.2,0.1,0.4,0.2,0.5,0.3l0.1,0.1c0.2,0.1,0.4,0.2,0.7,0.4l0.6,0.3l3.5,2.2c0.3,0.2,0.6,0.4,0.9,0.7l0.4,0.3
		c0.2,0.2,0.4,0.3,0.6,0.5l0.4,0.3c0,0,0.1,0,0.1,0.1c0,0-0.1,0-0.1,0.1c-0.1,0.1-0.3,0.2-0.4,0.3c-0.1,0.1-0.3,0.2-0.4,0.3
		l-0.1,0.1c-0.1,0.1-0.2,0.2-0.2,0.3l-0.1,0.1l-0.5-0.2c-0.2-0.1-0.4-0.1-0.6-0.2l-0.6-0.2c0,0-0.1,0-0.1,0l-0.3,0.9h0l0.2-1
		c0,0-0.1,0-0.1,0l-0.3,0.9h0l0.2-1l-1.3-0.4c0,0-0.2,0-0.2,0L139,64c0,0-0.1,0-0.1,0c0,0-0.1,0-0.1,0c-0.1,0-0.2,0-0.3,0
		c0,0-0.1,0-0.1,0c0,0-0.1,0-0.1,0c-0.1,0-0.1,0-0.2,0l-0.3,0c0,0-0.1,0-0.1,0c-0.1,0-0.1,0-0.2,0c-0.1,0-0.1,0-0.2,0l-0.1,0
		c0,0-0.1,0-0.1,0c-0.2,0.1-0.3,0.1-0.4,0.2c-0.1,0.1-0.2,0.1-0.2,0.2c0,0-0.1,0.1-0.1,0.1l-0.3,0.3c-0.1,0.1-0.2,0.2-0.3,0.3
		c-0.2,0.2-0.4,0.5-0.6,0.8c-0.1,0.1-0.2,0.3-0.3,0.4c0,0,0,0,0,0c-0.1,0.2-0.3,0.4-0.5,0.6l-0.4,0.1c0,0,0,0,0,0l-1.5,0.3
		c0,0,0,0-0.1,0c0,0,0,0-0.1,0l-0.9,0.2l0.2,0.9l-0.3-0.9c0,0-0.1,0-0.1,0l-0.3,0.1c0,0-0.1,0-0.1,0l-0.9,0.2l-0.1,0l-0.1,0
		c0,0-0.1,0-0.1,0l-0.3,0.1c-2.8,0.8-5.4,9.8-4.9,12.5c0.1,0.5,0.5,0.8,0.9,0.9c0.5,0,0.9-0.3,1-0.7c0,0,0-0.1,0-0.1l-0.5-0.3l0.1,0
		l0.5,0.2l0.1-0.2c0-0.1,0.1-0.1,0.2-0.2l-0.4-0.3c0,0,0,0,0-0.1l0.5,0.3c0.1-0.1,0.1-0.1,0.2-0.2l0.3-0.3c0.3-0.3,0.7-0.6,1.2-0.9
		c0,0,0,0,0,0c0.1-0.1,0.2-0.1,0.2-0.2l-0.2,0.5l0,0.1l-0.2,0.7c-0.1,0.1-0.1,0.3-0.1,0.4l-0.3,0.9c-0.2,0.8-0.4,1.6-0.6,2.4
		l-0.1,0.5c0,0,0,0.1,0,0.1l-0.1,0.9l0,0.1l-0.3,2.5l0,0.1l0,0.1l0.1,0c0,0,0,0.1,0,0.1l-0.1,0.2h0c0,0,0,0,0,0.1l0,0c0,0,0,0,0,0
		l-0.1,0c0,0,0,0.1,0,0.1c0,0.1,0,0.2,0,0.2l0,0.4c0,0.2,0,0.4,0,0.5c0,0.2,0,0.3,0,0.5c0,0.2,0,0.3,0,0.5c0,0.2,0,0.4,0,0.6
		c0,0.2,0,0.3,0,0.5c0,0.2,0,0.4,0,0.5l1-0.1l-1,0.2c0,0.1,0,0.3,0,0.4c0,0.2,0,0.4,0.1,0.7l0.1,0.4c0.1,0.4,0.1,0.7,0.2,1.1
		l0.1,0.3c0.1,0.3,0.1,0.5,0.2,0.8c0,0.1,0.1,0.2,0.1,0.3l0,0.1c0.1,0.2,0.1,0.4,0.2,0.7c0,0.1,0.1,0.2,0.1,0.3l0,0.1
		c0.1,0.2,0.2,0.4,0.3,0.6c0.1,0.1,0.1,0.3,0.2,0.4c0.1,0.2,0.2,0.4,0.3,0.6c0.1,0.1,0.2,0.3,0.2,0.4c0.1,0.2,0.2,0.4,0.4,0.6
		c0.1,0.1,0.2,0.3,0.3,0.4c0.1,0.2,0.3,0.4,0.4,0.6l0.1,0.1c0.1,0.1,0.1,0.2,0.2,0.3c0.2,0.2,0.3,0.4,0.5,0.7l0.1,0.1
		c0.1,0.1,0.1,0.1,0.2,0.2c0.3,0.3,0.6,0.6,0.9,0.9c0.3,0.3,0.6,0.5,0.9,0.8l0.3,0.3c0.2,0.1,0.4,0.3,0.6,0.4l0.3,0.2
		c0,0,0.1,0.1,0.1,0.1l0.1,0.1c0.2,0.1,0.3,0.2,0.6,0.4l1.9,1.1l-3.9,0.2c-0.3,0-0.6,0.2-0.8,0.4c-0.2,0.3-0.2,0.6-0.1,0.9
		c0,0,0,0,0,0c0,0,0,0.1,0,0.1c0,0,0,0,0,0l0,0c0,0.1,0,0.1,0,0.1l0.8-0.3l0,0l-0.8,0.4l0,0.1l0.8-0.3l0,0l-0.7,0.3l0.7-0.2l0,0
		l-0.4,0.2l-11,1c0,0,0-0.1,0-0.1c0-0.1,0-0.2,0-0.4c0,0,0-0.1,0-0.1c0,0,0-0.1,0-0.1c0-0.1-0.1-0.3-0.1-0.4c0,0,0,0,0,0h0
		c0-0.1-0.1-0.3-0.1-0.4l0,0c0,0,0-0.1,0-0.1c-0.1-0.1-0.1-0.2-0.2-0.3c0,0,0,0,0-0.1c-0.1-0.1-0.2-0.2-0.2-0.3
		c-0.1-0.1-0.1-0.1-0.2-0.2c0,0-0.1-0.1-0.1-0.1c0,0-0.1-0.1-0.1-0.1c-0.1-0.1-0.2-0.1-0.3-0.2c0,0-0.1-0.1-0.1-0.1
		c-0.2-0.1-0.4-0.2-0.6-0.3c0,0-0.1,0-0.1,0c0,0,0,0,0,0c-0.1,0-0.2,0-0.3-0.1c0,0,0,0-0.1,0c-0.1,0-0.2,0-0.3-0.1
		c-0.1,0-0.3,0-0.4,0c-0.1,0-0.2,0-0.3,0l-0.2,0l0,1l0,0h0v0l-0.1-1l-0.1,0c1-0.7,1.6-1.5,1.8-2.3c0-0.1,0.1-0.3,0.1-0.3
		c0,0,0-0.1,0-0.1c0-0.1,0-0.3,0-0.4c0,0,0-0.1,0-0.1c0-0.1,0-0.3-0.1-0.5c0-0.1-0.1-0.2-0.1-0.3c0,0,0-0.1,0-0.1c0,0,0,0,0,0
		c0-0.1-0.1-0.2-0.2-0.3c-0.1-0.2-0.2-0.3-0.3-0.5c-0.1-0.1-0.2-0.2-0.3-0.3c-0.1-0.1-0.2-0.1-0.2-0.2l-0.1-0.1c0,0,0,0-0.1,0
		c0,0,0,0,0,0l0,0c0,0,0,0,0,0c-0.1-0.1-0.2-0.1-0.3-0.2c-0.2-0.1-0.3-0.1-0.5-0.2c-0.1,0-0.2,0-0.3-0.1c0,0,0,0-0.1,0
		c-0.1,0-0.2,0-0.4,0c-0.1,0-0.1,0-0.2,0c-0.1,0-0.2,0-0.2,0c0,0-0.1,0-0.1,0c0,0,0,0,0,0c-0.2,0-0.3,0.1-0.5,0.1l-0.2,0.1
		c0,0,0,0-0.1,0l0,0c0,0,0,0,0,0c0,0,0,0,0,0c-0.1,0.1-0.3,0.1-0.5,0.2l-0.2,0.1c0,0-0.1,0-0.1,0.1c-0.3,0.2-0.6,0.4-0.9,0.6
		c0,0,0,0-0.1,0c0,0-0.1,0-0.1,0.1c-0.1,0.1-0.2,0.1-0.3,0.2c-0.1,0-0.1-0.1-0.2-0.1c-0.2-0.1-0.4-0.2-0.6-0.3l-0.2-0.1
		c-0.2-0.1-0.4-0.2-0.7-0.3c-0.2-0.1-0.5-0.2-0.7-0.2l-0.2-0.1c-0.2-0.1-0.4-0.1-0.7-0.2l-0.1,0c-0.1,0-0.1,0-0.2,0
		c-0.2-0.3-0.4-0.5-0.7-0.7c0,0-0.1-0.1-0.1-0.1c-0.1-0.1-0.3-0.1-0.4-0.2c0,0,0,0,0,0c0,0-0.1,0,0,0c0,0-0.1,0-0.1,0
		c-0.1,0-0.2-0.1-0.3-0.1c0,0,0,0-0.1,0c0,0-0.1,0-0.1,0c-0.1,0-0.2,0-0.3,0c0,0,0,0-0.1,0c0,0-0.1,0-0.1,0c-0.1,0-0.2,0-0.2,0
		c0,0-0.1,0-0.1,0c0,0-0.1,0-0.1,0c-0.1,0-0.2,0-0.2,0c0,0-0.1,0-0.1,0c0,0-0.1,0-0.1,0c-0.1,0-0.2,0-0.2,0c0,0-0.1,0-0.1,0
		c0,0,0,0,0,0c0.9-0.7,1.8-1.4,2.9-2c0.2,0.2,0.3,0.4,0.4,0.7c0.3,1.3,1.1,1.8,1.8,1.7c0.7-0.1,1.1-0.7,1-1.5l0-0.2
		c0-0.4-0.1-1.1-0.6-1.9h0c0,0,0.1,0.1,0.1,0.1l0.3-0.2c0,0,0,0,0.1,0c0,0,0,0,0,0l-0.3,0.3c0,0,0.1,0.1,0.1,0.1
		c0,0,0.1,0.1,0.1,0.1c0,0,0.1,0.1,0.1,0.1c0,0,0.1,0,0.1,0l0.7,0.8l0.7-0.6l0,0L112,98l0.3,0.3l0.7-0.6l0,0l-0.6,0.7l0.3,0.4
		c0,0,0.1,0.1,0.1,0.1c0.1,0.1,0.2,0.3,0.3,0.4l0.8-0.6l0,0l-0.7,0.7l0.3,0.5c0.1,0.1,0.2,0.3,0.3,0.4c0.2,0.2,0.4,0.4,0.7,0.4
		c0.3,0,0.6-0.1,0.8-0.3c0,0,3.5-3.5,4.5-4.4c0.2-0.2,0.3-0.4,0.3-0.7c0-0.3-0.1-0.5-0.3-0.7c-0.2-0.2-5.3-4.7-10.3-6.2
		c-0.3-0.1-0.7,0-1,0.3c-0.2,0.2-3,3.2-5.3,6.8c0.2-4.1-0.2-9.5-2.7-15.1c-0.1-0.3-0.4-0.5-0.7-0.6c-0.3-0.1-0.6,0-0.8,0.2l-4.8,3.8
		c-0.2,0.2-0.3,0.4-0.4,0.7c0,0.3,0,0.5,0.2,0.7c0,0,2.7,3.5,4.6,8.9c-0.4-0.2-0.8-0.3-1.3-0.2c-2,0.1-3.3,3.3-3.6,4.3
		c-1,2.7-0.3,3.3-0.1,3.5c0.2,0.2,0.5,0.3,0.8,0.3c0.2,0,0.3,0,0.5-0.1h0c0.4-0.2,0.6-0.6,1.3-1.7c0.4-0.6,1.3-2.2,1.8-2.7
		c0.5,0.5,0.7,0.7,0.7,0.8c0.2,0.3,0.6,0.8,1.1,0.9c0.1,0.9,0.3,1.9,0.3,2.9c0,0.1,0,0.1,0,0.2c0,0,0,0.1,0,0.1c0,0,0,0.1,0,0.1
		c0.1,0.2,0.2,0.5,0.5,0.6c0.1,0.1,0.3,0.1,0.4,0.1c0.1,0,0.2,0,0.3-0.1c0,0,0,0,0,0c-0.1,0.1-0.2,0.2-0.2,0.4c0,0,0,0,0,0
		c-0.1,0.1-0.1,0.3-0.2,0.4c0,0,0,0.1-0.1,0.1c0,0.1-0.1,0.2-0.1,0.3c0,0,0,0.1,0,0.1c0,0,0,0.1,0,0.1c0,0,0,0,0,0
		c-0.3-0.2-0.5-0.3-0.8-0.4c0,0-0.1,0-0.1,0c-0.1,0-0.2-0.1-0.3-0.1l-0.2,0c-0.1,0-0.2,0-0.3-0.1l-0.1,0c-0.1,0-0.2,0-0.4,0
		c0,0-0.1,0-0.1,0c-0.3,0-0.7,0-1.1,0.1l-0.2,0c-0.1,0-0.3,0.1-0.4,0.1l-0.2,0.1c-0.1,0-0.2,0.1-0.4,0.1l-0.1,0.1
		c-0.1,0.1-0.3,0.1-0.5,0.2l-0.1,0.1c-0.2,0.1-0.4,0.2-0.6,0.3c-0.2,0.1-0.4,0.2-0.6,0.4l-0.1,0.1l0.6,0.8l0,0l-0.6-0.7
		c-0.1,0.1-0.2,0.2-0.3,0.3l-0.2,0.2c-0.1,0.1-0.2,0.2-0.3,0.3l-0.2,0.2c-0.1,0.1-0.2,0.2-0.3,0.3l-0.2,0.2
		c-0.1,0.1-0.2,0.2-0.3,0.3l-0.2,0.2c-0.1,0.1-0.2,0.2-0.3,0.3l-0.1,0.2c-0.1,0.1-0.2,0.2-0.3,0.4l-0.1,0.2
		c-0.1,0.1-0.2,0.3-0.3,0.4l0,0.1l-2.7,0.2l0-0.1c-0.1-0.5-0.5-0.8-1-0.8l-15.3,0.8c0-0.1-0.1-0.1-0.1-0.2c0,0,0-0.1-0.1-0.1
		c0.5-0.6,1-1.2,1.5-1.8c0,0,0.1-0.1,0.1-0.1c0.2-0.2,0.3-0.4,0.5-0.7l0.2-0.2c0.1-0.2,0.2-0.3,0.3-0.5c0,0,0.1-0.2,0.1-0.2l0.2-0.3
		c0.1-0.2,0.2-0.4,0.4-0.6c0,0,0-0.1,0-0.1l0.2-0.3c0.1-0.2,0.2-0.4,0.3-0.6l0.3-0.6c0.1-0.1,0.1-0.3,0.2-0.4l0.3-0.7
		c0.1-0.3,0.2-0.5,0.3-0.8l0.2-0.7c0-0.1,0.1-0.3,0.1-0.4l0.2-0.5c0,0,0-0.1,0-0.1l0.1-0.2c0.1-0.2,0.1-0.4,0.2-0.6
		c0-0.2,0.1-0.3,0.1-0.5l0.2-0.7c0-0.2,0.1-0.4,0.1-0.6l0.1-0.6c0-0.3,0.1-0.5,0.1-0.8l0.1-0.5c0.1-0.4,0.1-0.9,0.1-1.3
		c0-0.5,0.1-1,0.1-1.5l0-0.7c0-0.1,0-0.3,0-0.4l0-0.3c0-0.2,0-0.4,0-0.6c0-0.2,0-0.5,0-0.8c0-0.2,0-0.4-0.1-0.6l0-0.4
		c0-1.1-0.2-3.9-1.7-7.4l0.8-0.6l2-1.6c0,0,0.1-0.1,0.1-0.1c0.2-0.2,0.3-0.5,0.3-0.8c0-0.3-0.1-0.5-0.3-0.7c0,0-0.1-0.1-0.1-0.1
		c0,0-0.1-0.1-0.1-0.1l-1-0.8l-0.6,0.8l0,0l0.5-0.8l-0.3-0.2l-0.6,0.8h0l0.5-0.8l-0.4-0.3c0,0,0.1,0,0.1,0c0,0,0.1,0,0.1,0
		c0,0,0.1,0,0.1-0.1c0.1,0,0.1-0.1,0.2-0.1c0,0,0.1,0,0.1-0.1c0,0,0.1-0.1,0.1-0.1c0.1-0.1,0.2-0.2,0.3-0.3c0.1-0.1,0.1-0.2,0.2-0.4
		c0,0,0-0.1,0-0.1c0-0.1,0-0.1,0-0.2c0,0,0-0.1,0-0.1c0-0.1,0-0.1,0-0.1c0,0,0-0.1,0-0.2c0-0.1,0-0.1,0-0.1c0,0,0-0.1,0-0.1
		c0,0,0-0.1,0-0.1c0-0.1,0-0.1-0.1-0.2c0,0,0-0.1-0.1-0.1c0,0,0-0.1,0-0.1l-0.1-0.1c0-0.1-0.1-0.1-0.1-0.2L78.1,72
		c0,0-0.1-0.1-0.1-0.1l-0.1-0.1c0,0-0.1-0.1-0.1-0.1l-0.1-0.1c0,0,0,0,0,0l-0.1-0.1c0,0-0.1-0.1-0.1-0.1l-0.7,0.7l0,0l0.6-0.8
		c0,0-0.1-0.1-0.1-0.1l-0.1-0.1l-0.6,0.8l0.5-0.8L77,71c0,0-0.1-0.1-0.1-0.1l-0.2-0.1c0,0-0.1-0.1-0.1-0.1l-0.3-0.2
		c0,0-0.1-0.1-0.1-0.1l-0.5,0.8l0,0l0.4-0.9l-0.1-0.1c0,0-0.1,0-0.1,0l-0.8-0.4c0,0-0.1,0-0.1,0l-0.2-0.1c0,0-0.2-0.1-0.2-0.1
		l-1.1-0.5c0,0,0,0,0,0l-0.4-0.2c0,0-0.1,0-0.1,0l-0.3-0.1c0,0-0.1,0-0.1,0l-0.4,0.9l0.3-0.9l-2.4-0.9l0.2-0.1l-0.5-0.8l0,0l0.6,0.8
		l0.7-0.4c0.2-0.1,0.3-0.2,0.5-0.3l1.1-0.5l4.7-1.8c0,0,0.1,0,0.1,0l1.3-0.4c1.1-0.3,1.9-0.5,2.2-0.5c0.3,0,0.5-0.2,0.7-0.5
		c1.4-2.5,1.8-5,0.9-7.3c-1.7-5-8-7.5-8.2-7.6c-0.3-0.1-0.6-0.1-0.9,0.1c-0.3,0.2-0.5,0.4-0.8,0.6l-1.7,1.5
		c-0.1,0.1-0.3,0.2-0.4,0.4c0,0-0.1,0.1-0.1,0.1L70.2,51c-0.1,0.1-0.2,0.2-0.4,0.4L68.5,53c-0.1,0.1-0.2,0.3-0.3,0.4
		c0,0-0.1,0.1-0.1,0.1c0,0-0.1,0.1-0.1,0.1L68,53.7c-0.1,0.1-0.2,0.3-0.3,0.5l-0.1,0.2c0,0-0.1,0.1-0.1,0.1c0,0-0.1,0.1-0.1,0.1
		l-0.1,0.3c0,0,0,0.1,0,0.1l-0.3,0.6l0.8,0.5l0,0l-0.9-0.4c0,0,0,0.1,0,0.1c-0.1,0.2-0.2,0.4-0.3,0.7c-0.1,0.2-0.2,0.5-0.3,0.7
		l-0.6,1.6c0,0.1-0.1,0.3-0.2,0.5c0,0,0,0.1,0,0.1c-0.1,0.2-0.1,0.4-0.2,0.7l0,0.1c-0.1,0.3-0.1,0.5-0.2,0.8l0,0.1
		c0,0.2-0.1,0.4-0.1,0.7l0,0.2c0,0.3-0.1,0.5-0.1,0.8c0,0.2,0,0.5-0.1,0.7l0,0.2c0,0.1,0,0.2,0,0.3l-1-1.4l-0.1-0.1l-0.4-0.6
		l-0.1-0.1l-0.4-0.6c0,0-0.1-0.1-0.1-0.1l-1.2-1.6L60.7,60l0.7-0.7l-1.1-1.4c0,0-0.1-0.1-0.1-0.1l-1-1.1c0,0-0.1-0.1-0.1-0.1
		L58,55.4l-0.7,0.7l0.6-0.8l-1.5-1.4c0,0-0.1-0.1-0.1-0.1l-0.2-0.1c-0.1-0.1-0.2-0.1-0.2-0.2l-0.8-0.5C55,53,55,53,54.9,53l-0.5-0.2
		c-0.1,0-0.1,0-0.2-0.1c-0.1,0-0.1,0-0.2,0c0,0-0.1,0-0.2,0c-0.1,0-0.2,0-0.3,0c-0.1,0-0.1,0-0.2,0c0,0-0.1,0-0.1,0
		c-0.1,0-0.2,0-0.3,0.1c-0.1,0-0.2,0.1-0.3,0.1c-0.2,0.1-0.4,0.2-0.5,0.3c-0.1,0.1-0.2,0.2-0.3,0.4c0,0-0.1,0.1-0.1,0.1
		c0,0,0,0.1-0.1,0.1c-0.1,0.1-0.1,0.2-0.1,0.3c0,0-0.1,0.1-0.1,0.2c-0.1,0.2-0.1,0.3-0.1,0.6c0,0,0,0.1,0,0.1c0,0.1,0,0.2,0,0.4
		c0,0,0,0.1,0,0.2c0,0.1,0,0.3,0.1,0.5c0,0,0,0,0,0.1l0,0.1c0,0.1,0.1,0.2,0.1,0.3l0,0.1c0,0,0,0.1,0,0.1c0,0.1,0.1,0.2,0.2,0.3
		l0.1,0.1c0,0,0.1,0.1,0.1,0.1c0.1,0.1,0.1,0.2,0.2,0.3c0,0,0.1,0.1,0.1,0.1l0.1,0.1c0.1,0.1,0.1,0.2,0.2,0.3l0.2,0.3
		c0.1,0.1,0.1,0.2,0.2,0.3c0,0,0.1,0.1,0.1,0.1l0.8,1.1c0,0,0.1,0.1,0.1,0.1l0.5,0.6l-0.5-0.2c-0.2-0.1-0.3-0.1-0.4-0.2l-0.5-0.2
		c0,0-0.1,0-0.1,0c-0.1,0-0.3-0.1-0.4-0.1c-0.1,0-0.3-0.1-0.4-0.1c0,0-0.1,0-0.1,0c-0.1,0-0.2,0-0.4-0.1c-0.1,0-0.3,0-0.4,0
		c0,0-0.1,0-0.1,0c-0.1,0-0.2,0-0.3,0c0,0-0.1,0-0.1,0c-0.2,0-0.3,0.1-0.5,0.2c-0.1,0.1-0.3,0.2-0.3,0.2c0,0-0.1,0.1-0.1,0.1
		c-0.1,0.2-0.2,0.3-0.2,0.5c0,0.2-0.1,0.4,0,0.6c0,0,0,0.1,0,0.2c0,0.1,0.1,0.2,0.1,0.3c0,0,0.1,0.1,0.1,0.2c0,0.1,0.1,0.1,0.2,0.2
		l0.1,0.1c0.1,0.1,0.1,0.1,0.2,0.2c0,0,0.1,0.1,0.1,0.1c0.1,0.1,0.2,0.1,0.3,0.2c0,0,0.1,0.1,0.1,0.1c0.1,0.1,0.2,0.2,0.4,0.3
		c0,0,0.1,0.1,0.1,0.1c0.1,0.1,0.2,0.1,0.3,0.2l1.8,1l-0.3,0.2c0,0,0,0,0,0l-0.6,0.4c0,0,0,0,0,0c0,0-0.1,0-0.1,0l-0.3,0.2
		c0,0-0.1,0-0.1,0.1l-0.2,0.2c-0.2,0.2-0.4,0.3-0.7,0.5c-0.2,0.2-0.4,0.3-0.7,0.5l0.6,0.7l-0.7-0.7l-1.6,1.4c0,0-0.1,0.1-0.1,0.1
		l-1,1c0,0-0.1,0.1-0.1,0.1l-0.6,0.6l0.7,0.7l-0.8-0.6l-0.4,0.4c0,0,0,0,0,0l-0.6,0.6c0,0,0,0,0,0L43.7,73l0.7,0.6l0,0l-0.8-0.5
		l-2.2,2.6c0,0-0.1,0.1-0.1,0.1l-0.6,0.7c-0.4,0.5-0.8,1-1.2,1.5l-0.1,0.2c-0.4,0.5-0.7,0.9-1.1,1.4l-0.1,0.2
		c-0.3,0.4-0.6,0.9-0.9,1.3l-0.2,0.3c-0.3,0.4-0.6,0.8-0.9,1.3l-0.1,0.2c-0.3,0.4-0.5,0.8-0.8,1.2l-0.1,0.1
		c-0.2,0.4-0.4,0.8-0.7,1.1l-0.1,0.2c-0.2,0.4-0.4,0.7-0.6,1.1l-0.1,0.3c-0.2,0.3-0.3,0.7-0.5,1l-0.1,0.3c0,0-0.1,0-0.1,0
		c-0.2,0-0.4,0-0.5,0.1c0,0-0.1,0.1-0.2,0.1c-0.1,0-0.2,0.1-0.3,0.2c0,0-0.1,0.1-0.1,0.1c-0.1,0.1-0.1,0.1-0.2,0.2
		c0,0-0.1,0.1-0.1,0.1c0,0.1-0.1,0.1-0.1,0.2c0,0.1-0.1,0.1-0.1,0.2c0,0.1-0.1,0.1-0.1,0.2l-0.1,0.2c0,0.1-0.1,0.2-0.1,0.2L31.2,90
		c0,0.1,0,0.2-0.1,0.3L31,90.7c0-0.1,0-0.1-0.1-0.2c0-0.1-0.1-0.3-0.1-0.4c0,0,0-0.1,0-0.1c-0.1-0.1-0.1-0.3-0.2-0.5
		c-0.1-0.1-0.1-0.2-0.2-0.4c0,0,0-0.1,0-0.1c-0.1-0.1-0.1-0.3-0.2-0.4c-0.1-0.1-0.1-0.2-0.2-0.3c0,0-0.1-0.1-0.1-0.1
		c-0.1-0.1-0.2-0.2-0.3-0.3c-0.1-0.1-0.2-0.2-0.3-0.3c0,0-0.1-0.1-0.1-0.1c-0.1-0.1-0.2-0.1-0.3-0.2c1.2-1.3,1.3-2.3,1.1-2.9
		c-0.2-0.9-1-1.5-2.2-1.7c-1.6-0.3-3.9,0.2-5.3,2.1c-0.1,0.2-0.3,0.4-0.4,0.6L22,85.6c-0.1,0.1-0.2,0.3-0.2,0.4l-0.1,0.2
		c-0.1,0.1-0.1,0.2-0.2,0.3l-0.1,0.2c0,0.1-0.1,0.2-0.1,0.3l0,0.1l-0.9-1.1c0,0-0.1-0.1-0.1-0.1l-0.7,0.6l0,0l0.7-0.7L20,85.6
		l-0.7,0.6l0.6-0.8l-0.6-0.7l-0.7,0.7l0,0l0.6-0.8l-0.3-0.3l-0.7,0.7l0,0l0.6-0.8l-0.7-0.6l-0.6,0.8l0.5-0.8l-0.7-0.5l-0.5,0.8
		l0.4-0.9L16.9,83l-0.5,0.8l0.4-0.9l-0.6-0.3c-0.1,0-0.1-0.1-0.2-0.1c-0.1,0-0.1-0.1-0.2-0.1c-0.1,0-0.1,0-0.3-0.1
		c-0.1,0-0.1,0-0.2,0c-0.1,0-0.1,0-0.3-0.1c-0.1,0-0.1,0-0.2,0c-0.1,0-0.1,0-0.3,0c0,0-0.1,0-0.1,0c0,0,0,0,0,0c-0.1,0-0.1,0-0.3,0
		c-0.1,0-0.1,0-0.2,0c0,0,0,0,0,0c-0.1,0-0.1,0-0.3,0c0,0-0.1,0-0.2,0c-0.1,0-0.1,0-0.3,0.1c0,0-0.1,0-0.2,0.1
		c-0.1,0-0.1,0.1-0.3,0.1c0,0-0.1,0.1-0.2,0.1c-0.1,0-0.1,0.1-0.3,0.2c0,0-0.1,0.1-0.1,0.1c-0.1,0-0.1,0.1-0.2,0.2l-0.1,0.1
		c0,0-0.1,0.1-0.1,0.1c-0.1,0.1-0.1,0.1-0.2,0.2c0,0,0,0-0.1,0.1c0,0,0,0,0,0c0,0,0,0.1-0.1,0.1c-0.1,0.1-0.2,0.3-0.3,0.4
		c-0.1,0.1-0.2,0.3-0.2,0.4c-0.1,0.1-0.1,0.2-0.1,0.3c0,0,0,0.1,0,0.1c0,0.1-0.1,0.3-0.1,0.4c0,0,0,0,0,0c-0.2,1.1,0.2,2,0.9,2.7
		c-0.5,0-1,0.1-1.4,0.3c-0.9,0.4-1.5,1-1.9,1.9c-0.4,1.1-0.1,1.9,0.2,2.4c0.6,0.9,1.8,1.4,3,1.7c-0.3,0.3-0.6,0.7-0.7,1.1
		c-0.3,0.9-0.1,1.8,0.5,2.9c0.1,0.1,0.2,0.3,0.3,0.4l0.1,0.1c0,0.1,0.1,0.1,0.1,0.2c0,0,0,0,0,0L12,99c-0.3,0.1-0.5,0.3-0.8,0.4
		L11,99.6c-0.2,0.1-0.3,0.2-0.5,0.3l-0.3,0.2c-0.2,0.1-0.3,0.3-0.6,0.4l-0.2,0.1c-0.2,0.2-0.5,0.4-0.7,0.6c-0.1,0.1-0.2,0.2-0.2,0.4
		c-0.1,0.3-2.1,7,1.6,12.1c0,0,0,0.1,0.1,0.1l0.2,0.3c0.1,0.2,0.3,0.4,0.4,0.5l0.1,0.2c0.2,0.2,0.3,0.3,0.5,0.5l0.1,0.1
		c0.2,0.2,0.4,0.3,0.6,0.5l0.1,0.1c0.2,0.2,0.4,0.3,0.7,0.5l0.2,0.1c0.2,0.2,0.5,0.3,0.7,0.4c0,0,0.1,0.1,0.1,0.1
		c0.3,0.1,0.5,0.3,0.8,0.4c0,0,0.1,0.1,0.1,0.1c0.3,0.1,0.6,0.2,1,0.4l0.1,0c0.3,0.1,0.6,0.2,1,0.3l0.2,0c0.4,0.1,0.7,0.2,1.1,0.3
		c0.5,0.1,1-0.3,1.1-0.7l-0.9-0.3l0.9,0.2l0.2-0.6c0.9-2.2,3.5-7.5,9.6-12l-0.1,0.6l0,0.1l-0.2,1l0,0.1l-0.5,3.3l1,0.2h0l0,0h0
		l-1-0.1l0,0.1l-0.1,0.6l0,0.1c0,0,0,0.2,0,0.2l-0.1,0.6l1,0.1l0,0l-1,0l-0.1,2.5c0,0,0,0.1,0,0.1c0,0.2,0,0.3,0,0.5l1-0.1l-1,0.1
		c0,0.1,0,0.3,0,0.4l0.1,0.6l1-0.1l-0.8,0.2h-0.1c0,0,0,0,0,0l0,0l0,0.1c0,0,0,0,0,0l0,0c0,0,0,0.1,0,0.1l0,0l0,0.2
		c0,0.1,0,0.2,0.1,0.3l0,0.1c0,0.1,0,0.2,0.1,0.2l0.1,0.2c0,0,0,0.1,0,0.1l0.1,0.1c0,0.1,0.1,0.1,0.1,0.1c0,0.1,0.1,0.1,0.1,0.2
		c0,0,0,0.1,0,0.1c0,0,0.1,0.1,0.1,0.1c0.1,0.1,0.1,0.1,0.2,0.2c0,0,0.1,0.1,0.1,0.1c0.1,0.1,0.1,0.1,0.2,0.2c0,0,0.1,0.1,0.1,0.1
		c0.1,0,0.1,0.1,0.2,0.1l0.1,0c0,0,0.1,0,0.1,0.1c0.1,0,0.3,0.1,0.4,0.1c0.1,0,0.3,0,0.4,0c0,0,0.1,0,0.1,0c0,0,0.1,0,0.1,0
		c0,0,0.1,0,0.1,0c0,0,0.1,0,0.2,0c0.1,0,0.1,0,0.2-0.1c0,0,0.1,0,0.1,0c0,0,0.1,0,0.1,0c0.1,0,0.1-0.1,0.2-0.1l0.1-0.1
		c0,0,0.1-0.1,0.1-0.1l0.1-0.1c0,0,0.1-0.1,0.1-0.1c0.1-0.1,0.1-0.1,0.2-0.2c0,0,0.1-0.1,0.1-0.1c0.1-0.1,0.1-0.1,0.2-0.2l0-0.1
		c0,0,0-0.1,0.1-0.1l0.5-1c0-0.1,0.1-0.2,0.1-0.3l0.1-0.3c0,0,0-0.1,0-0.1l0.1-0.5c0,0,0-0.1,0-0.1l0.1-0.4c0,0,0-0.1,0-0.1
		c0,0,0-0.1,0-0.1l0.1-0.5l-0.9-0.2l1,0.1c0,0,0,0,0,0h0c0-0.1,0-0.3,0.1-0.4l0.1-0.7l0-0.1l0,0l0.2,0.4c0,0,0,0.1,0,0.1
		c0.1,0.1,0.1,0.3,0.2,0.5l0,0.1c0,0,0,0.1,0,0.1l0.1,0.2c0,0,0.1,0.1,0.1,0.1l0.1,0.2l0.9-0.4l0,0l-0.8,0.5c0,0,0,0.1,0,0.1
		c0,0,0,0,0,0c0.1,0.1,0.1,0.2,0.2,0.3c0,0,0.1,0.1,0.1,0.1c0.1,0.1,0.1,0.2,0.2,0.3c0,0,0,0,0,0c0.1,0.1,0.1,0.2,0.2,0.2l0,0
		c0,0,0.1,0.1,0.1,0.1c0.1,0.1,0.1,0.1,0.2,0.2c0.1,0,0.1,0.1,0.1,0.1c0,0,0.1,0.1,0.1,0.1c0,0,0.2,0.1,0.2,0.1
		c0.1,0,0.2,0.1,0.3,0.1c0.1,0,0.2,0,0.3,0c0.2,0,0.3-0.1,0.5-0.2c0.2-0.1,0.3-0.2,0.4-0.4c0,0,0.1-0.1,0.1-0.1
		c0-0.1,0.1-0.1,0.1-0.2c0,0,0-0.1,0-0.1c0,0,0-0.1,0-0.1c0-0.1,0-0.1,0-0.2c0-0.1,0-0.1,0-0.2l0-0.1l0-0.1l0-0.2l0-0.2
		c0-0.1,0-0.2,0-0.2l-0.4-1.9l0,0c0.2,0.2,0.4,0.3,0.6,0.5l0.2,0.1c0.2,0.1,0.3,0.2,0.6,0.4c0,0,0.1,0.1,0.1,0.1l0.3,0.2
		c0.2,0.1,0.5,0.3,0.7,0.4c0,0,0.1,0,0.1,0.1l0.2,0.1c0.3,0.2,0.6,0.3,0.9,0.4c0,0,0.1,0,0.1,0c0.3,0.2,0.7,0.3,1,0.5l0.2,0.1
		c0,0,0,0,0,0c0.3,0.1,0.5,0.2,0.8,0.4l0.2,0.1c0.3,0.1,0.5,0.2,0.8,0.3c0.3,0.1,0.6,0.2,0.8,0.3c0,0,0.1,0,0.1,0c0,0,0.1,0,0.1,0
		c0.3,0.1,0.6,0.2,0.9,0.2v0c0,0,0,0,0,0c0.3,0.1,0.6,0.1,0.9,0.2l0.2,0c0.3,0.1,0.6,0.1,0.9,0.1c0,0,0,0,0,0c0.3,0,0.6,0.1,0.9,0.1
		l0.2,0c0.3,0,0.6,0,0.9,0c0.3,0,0.7,0,1,0l6.2,3.8c-0.1,2.1-0.6,5-1.4,5.8c-0.2,0.2-0.3,0.6-0.2,0.9c0.1,0.3,0.3,0.6,0.6,0.7
		l2.1,0.9l-0.2,0.3c-0.1,0.2-0.3,0.4-0.4,0.6l-0.3,0.4c-0.1,0.2-0.3,0.4-0.4,0.6l-0.3,0.5c-0.1,0.2-0.3,0.4-0.4,0.6l-0.4,0.5
		c-0.2,0.2-0.3,0.4-0.5,0.6l-0.3,0.4c-0.2,0.2-0.4,0.4-0.6,0.7l-0.3,0.4c-0.3,0.3-0.7,0.7-1,1c-0.2,0.2-0.3,0.5-0.3,0.8
		c0,0.3,0.2,0.6,0.5,0.7c0,0,0.1,0.1,0.1,0.1c0,0,0.1,0,0.1,0l0.4-0.8l0,0l-0.3,0.8c0,0,0.1,0,0.1,0.1c0,0,0.1,0,0.1,0l0.1,0
		l2.7,1.1c0.2,0.1,0.4,0.1,0.6,0.2l0.5,0.2c0.2,0.1,0.5,0.1,0.7,0.2l0.1,0c0.3,0.1,0.6,0.2,0.9,0.2c0.7,0.2,1.4,0.3,2.1,0.4l0.2,0
		c0.3,0,0.6,0.1,0.9,0.1l0.3,0c0.3,0,0.6,0,0.8,0.1l0.3,0c0.1,0,0.2,0,0.4,0l0.5,1.8c-0.4,0.2-0.9,0.3-1.3,0.5
		c-0.2,0.1-0.4,0.3-0.5,0.4c-0.3,0.2-0.5,0.6-0.5,0.9c0.1,0.5,0.1,1.1,0.2,1.7c-0.1,0-0.1,0-0.2,0.1c-0.1,0-0.2,0.1-0.3,0.1
		c0,0-0.1,0-0.1,0c-0.1,0-0.2,0.1-0.3,0.2c0,0,0,0,0,0c0,0,0,0,0,0l0,0h0c-0.8,0-1.5,0-2.2,0.3c0,0,0,0,0,0c0,0-0.1,0-0.1,0
		c-0.1,0-0.1,0-0.1,0.1c-0.5,0.1-1.1,0.3-1.5,0.5c0,0-0.1,0-0.1,0c-0.2,0.1-0.4,0.1-0.6,0.2c-0.3,0.1-0.7,0.3-1.1,0.5
		c-0.1,0.1-0.3,0.1-0.4,0.2l-0.2,0.1c-0.1,0.1-0.2,0.1-0.4,0.2c-0.1,0.1-0.2,0.1-0.4,0.2c-0.1,0.1-0.3,0.2-0.4,0.2
		c-0.1,0.1-0.2,0.1-0.3,0.2c0,0,0,0,0,0l-0.2,0.2c-0.1,0.1-0.3,0.2-0.4,0.3l-0.1,0.1c-0.2,0.1-0.3,0.3-0.5,0.4l-0.1,0.1
		c-0.1,0.1-0.2,0.2-0.4,0.4l-0.1,0.1c-0.1,0.2-0.3,0.3-0.4,0.5c0,0,0,0.1-0.1,0.1c-1.4,2.1-1.8,4-1.4,5.6c0.3,1.2,1.1,2.2,2.3,2.8
		c0.1,0,0.2,0.1,0.2,0.1c0,0,0.1,0,0.1,0c0,0,0.1,0.1,0.1,0.1l0.1,0c0,0,0.1,0,0.1,0c0,0,0.1,0,0.1,0l0.1,0l0.2,0c0,0,0.1,0,0.1,0
		l0.7,0.2c0,0,0,0,0,0c0,0,0,0,0,0l0.7,0.1c0.1,0,0.3,0,0.4,0.1l0.1,0c0,0,0,0,0.1,0l0.5,0.1c0,0,0.1,0,0.1,0l1.5,0.1
		c0,0,0.1,0,0.1,0c0,0,0.1,0,0.1,0l1.6,0.1l0.2,0c0.2,0,0.3,0,0.5,0l0.2,0c0.2,0,0.4,0,0.6,0l1.1-0.1c0.2,0,0.3,0,0.5,0l0.4,0
		c0,0,0.1,0,0.1,0l0.6-0.1l-0.1-1h0l0.2,0.9l0.9-0.2l-0.2-1l0.3,0.9l0.5-0.1l-0.2-0.9l0.4,0.9l0.3-0.1c0,0,0.1,0,0.1,0l2.3-0.8
		c0,0,0.1-0.1,0.1-0.1l0.3-0.2c1.1,1.5,3.2,4.2,4.5,4.1c1.3-0.1,6.5-3.3,9.4-5.2c0,0,0.1,0,0.1-0.1c0,0,0.5-0.4,1.4-1l-0.4-0.9l0,0
		l0.5,0.8l0.5-0.2l-0.4-0.9h0l0.5,0.8l1.2-0.6c0,0,0,0,0,0c1.8-0.8,3.6-1.6,5.3-2.1c0,0,0,0,0,0c-0.1,0.1-0.3,0.2-0.4,0.3l-0.1,0.1
		c-0.2,0.1-0.3,0.2-0.5,0.3c0,0-0.1,0.1-0.1,0.1c-0.2,0.1-0.4,0.3-0.6,0.4c-0.2,0.1-0.3,0.3-0.5,0.4l-0.1,0.1
		c-0.1,0.1-0.3,0.2-0.4,0.4l-0.1,0.1c-0.1,0.1-0.3,0.3-0.5,0.5c-0.2,0.2-0.3,0.4-0.5,0.6L88,157c-0.1,0.2-0.2,0.3-0.4,0.5l-0.1,0.2
		c-0.1,0.2-0.2,0.3-0.3,0.5l-0.1,0.2c-0.1,0.2-0.2,0.4-0.4,0.7c-0.1,0.2-0.2,0.5-0.4,0.7l-0.1,0.2c-0.1,0.2-0.2,0.4-0.2,0.6
		l-0.1,0.4c-0.2,0.3-0.7,1.1-0.7,1.9c0,0.3,0.1,0.5,0.3,0.7c1.9,1.9,4.8,2.8,8.6,2.8c1.5,0,3.1-0.1,4.8-0.4c4.5-0.7,8.1-2.1,8.3-2.2
		c0.3-0.1,0.5-0.3,0.6-0.6c0.1-0.4,0.3-1,0.3-1.7c7.1,3.7,18.7,1.6,21,0.6c1.6-0.7,2.1-2.4,2-3.4c4.3,0.4,11,0.7,17.7-0.7
		c0,0,0,0,0,0l0.2,0c0.4-0.1,0.8-0.2,1.2-0.3l0.3-0.1c0.5-0.1,0.9-0.2,1.4-0.4c1.1-0.3,2.9-0.8,2.8-2.4c-0.2-1.8-1.4-5.1-3.9-6.9
		c-0.2-0.1-0.4-0.2-0.7-0.2c0,0-0.1,0-0.1-0.1c-0.1-0.1-0.3-0.2-0.5-0.3c-0.1,0-0.1-0.1-0.2-0.1c0,0,0-0.1,0-0.2c0,0,0-0.1,0-0.2
		c0-0.1,0-0.2,0-0.3c0,0,0-0.1,0-0.2c0-0.1,0-0.2-0.1-0.2c0,0,0-0.1-0.1-0.1c-0.1-0.1-0.1-0.2-0.2-0.4c-0.1-0.1-0.1-0.1-0.2-0.2
		c0,0-0.1-0.1-0.1-0.1c-0.1-0.1-0.1-0.1-0.2-0.1c0,0-0.1-0.1-0.1-0.1c-0.1-0.1-0.2-0.1-0.3-0.2c-0.1-0.1-0.2-0.1-0.3-0.2
		c0,0-0.1,0-0.1,0c-0.1,0-0.2-0.1-0.2-0.1c0,0-0.1,0-0.1,0c-0.1,0-0.2-0.1-0.3-0.1c-0.1,0-0.2,0-0.3-0.1c0,0-0.1,0-0.2,0
		c-0.1,0-0.2,0-0.3,0c0,0-0.1,0-0.1,0c-0.1,0-0.3,0-0.4,0h-0.2c-0.1,0-0.2,0-0.3,0l-0.5,0c0,0,0-0.1,0-0.1l0.4-1.2
		c0-0.1,0.1-0.2,0.1-0.3l0.1-0.2c0-0.1,0.1-0.2,0.2-0.3l0.1-0.2c0.1-0.1,0.1-0.2,0.2-0.3c0,0,0.1-0.1,0.1-0.1
		c0.1-0.1,0.2-0.3,0.3-0.4c0.2-0.2,0.2-0.6,0.2-0.9c-0.1-0.3-0.4-0.6-0.7-0.7l-0.2-0.1c-0.1,0-0.2,0-0.3-0.1c-0.2,0-0.5-0.1-1-0.1
		c-0.2,0-0.4,0-0.6,0c0,0-0.1,0-0.1,0c-0.2,0-0.3,0-0.5,0c0-0.1,0-0.2,0-0.2c0-0.1,0.1-0.2,0.1-0.3c0,0,0-1.4,0.2-3.3
		c0.1,0,0.2,0,0.3,0c0.1,0,0.1,0,0.2,0l0,0c0,0,0,0,0.1,0c0.4,0,0.9,0.1,1.3,0.1c0.5,0,0.9-0.3,1-0.7l4.8-18.9l11.3-3.7
		c0.4-0.1,0.7-0.5,0.7-1c0,0,0-0.1,0-0.1l0-0.2c0,0,0-0.1,0-0.2l0-0.1c0,0,0-0.1,0-0.1c3-1.1,9.2-3.4,14.5-5.4c0,0,0,0,0,0l7.2-2.8
		c0.9,1.5,1.8,2.3,2.9,2.5c1.5,0.4,3-0.2,4.9-1.3c0.1,0,0.2,0.1,0.3,0.1l0.4,0.1c0,0,0,0,0,0c0.3,0.1,0.6,0.2,1,0.3
		c0.2,0.1,0.4,0.1,0.5,0.2c0,0,0.1,0,0.1,0c0.2,0.1,0.4,0.1,0.5,0.1l0.1,0c0.2,0,0.4,0.1,0.5,0.1l0.1,0c0.2,0,0.4,0.1,0.7,0.1
		c0.2,0,0.4,0.1,0.6,0.1c0,0,0,0,0,0c0.2,0,0.4,0,0.6,0c0.2,0,0.4,0,0.6,0c0.2,0,0.4,0,0.5-0.1c0,0,0.1,0,0.1,0
		c0.2,0,0.4-0.1,0.5-0.2c0,0,0.1,0,0.1-0.1c0.2-0.1,0.4-0.2,0.5-0.4c0.2-0.2,0.3-0.4,0.4-0.6c0,0,0-0.1,0.1-0.2
		c0-0.2,0.1-0.3,0.1-0.5c0-0.1,0-0.3,0-0.4c-0.2-1.5-1.8-2.3-3.5-2.8c2.1-0.8,4.4-1.8,5.1-3.1c0.3-0.5,0.3-1,0.1-1.5
		C202.5,95.2,202.4,95.1,202.4,95z M104.2,101.9L104.2,101.9L104.2,101.9L104.2,101.9z M161.9,111.2L161.9,111.2L161.9,111.2
		L161.9,111.2z M161.9,111.1L161.9,111.1L161.9,111.1L161.9,111.1z M158.6,64.2L158.6,64.2L158.6,64.2L158.6,64.2z M173.2,80.1
		L173.2,80.1L173.2,80.1L173.2,80.1L173.2,80.1L173.2,80.1z M172.9,80.4L172.9,80.4L172.9,80.4L172.9,80.4z M173.2,81L173.2,81
		L173.2,81L173.2,81z M173.4,81.5L173.4,81.5L173.4,81.5L173.4,81.5z M173.6,82L173.6,82L173.6,82L173.6,82z M144.7,64.8L144.7,64.8
		L144.7,64.8L144.7,64.8z M147.9,67.4c-0.4-0.2-0.9-0.4-1.3-0.6l0.1-0.2c0,0,0.1-0.1,0.1-0.2c0,0,0,0,0.1-0.1
		c0.1,0.1,0.1,0.1,0.2,0.2c0.1,0.1,0.3,0.3,0.5,0.5L147.9,67.4z M147.5,146.7L147.5,146.7L147.5,146.7z M114.8,133.2
		c-0.1-0.2-0.3-0.3-0.5-0.3c0,0-0.1-0.1-0.1-0.1c0,0,0,0-0.1-0.1c0.4-0.3,0.8-0.5,1.1-0.9l10.8-1.6c0.2,0,0.5-0.1,0.7-0.1
		c0.2,0.2,0.5,0.3,0.8,0.2l3.4-0.6c0.1,0.1,0.2,0.2,0.3,0.3c0.1,0.1,0.2,0.2,0.3,0.3c0,0,0,0,0,0c0,0.2,0.1,0.5,0.1,0.7l0,0
		c0,0,0,0,0,0l0,0l0,0l-0.4,1.5c-0.2,0.6-0.3,1.2-0.5,1.8c-0.2,0.7-0.3,1.4-0.5,2.1c-0.8,3.4-1.3,6.4-1.5,8.8
		c-0.1,0.1-0.3,0.2-0.4,0.3c-0.3,0.2-0.6,0.4-0.9,0.7c-0.3,0.2-0.4,0.5-0.4,0.9l0,0.2c-1.7-0.8-3.4-1-4.5-1.1c1.6-6,1.9-9.6,1-10.7
		c-0.4-0.5-0.9-0.6-1.6-0.6c0,0-0.1,0-0.1,0c-0.1,0-0.2,0-0.3,0.1c0,0-0.1,0-0.1,0c-0.1,0-0.3,0.1-0.4,0.1c0,0-0.1,0-0.1,0
		c-0.1,0-0.2,0.1-0.4,0.1c0,0-0.1,0-0.1,0c-0.2,0.1-0.3,0.1-0.5,0.2c-0.1,0.1-0.3,0.1-0.5,0.2l-1.2,0.6c0,0-0.1,0.1-0.1,0.1
		l-0.4,0.2c0,0-0.1,0.1-0.1,0.1l-1.1,0.6l-0.1,0l-1.1,0.6l-0.1,0.1l-0.4,0.2c0,0-0.1,0-0.1,0l0,0c0,0,0-0.1-0.1-0.1
		c0-0.1-0.1-0.1-0.1-0.2c-0.1-0.1-0.2-0.3-0.3-0.5c0,0,0,0,0,0c0.1-0.3,0.2-0.6,0.2-0.9c0-0.4-0.1-0.8-0.3-1.1l0.8-1.3
		C115.1,134,115.1,133.6,114.8,133.2z M122.6,116.3c0-0.2,0-0.4,0-0.6c0-0.2,0-0.4,0-0.5c0,0,0-0.1,0-0.1l6.1-0.4l-0.2,0.2l0.5,0.8
		l0,0l0,0l-0.6-0.7l-0.7,0.5c0,0-0.1,0.1-0.1,0.1l-0.4,0.3l-0.1,0.1l-0.1,0.1c0,0-0.1,0.1-0.1,0.1l-0.1,0.1l0.6,0.7l-0.7-0.6
		l-0.6,0.6c0,0-0.1,0.1-0.1,0.1c-0.1,0.1-0.1,0.1-0.2,0.2l-0.1,0.2c-0.1,0.1-0.1,0.2-0.2,0.2c0,0-0.1,0.1-0.1,0.1
		c-0.1,0.1-0.1,0.2-0.2,0.3c-0.8,0-1.7,0.1-2.7,0.1l-0.1,0c0-0.2,0-0.3,0-0.5c0-0.2,0-0.4,0-0.6
		C122.6,116.7,122.6,116.5,122.6,116.3z M126.8,117.4L126.8,117.4L126.8,117.4L126.8,117.4z M127.5,116.7L127.5,116.7L127.5,116.7
		L127.5,116.7z M127.7,116.6L127.7,116.6L127.7,116.6L127.7,116.6z M130.3,114.6L130.3,114.6l0.1,0.1l0,0l0,0L130.3,114.6z
		 M129.5,115.3l-0.5-0.6l0.1,0L129.5,115.3L129.5,115.3z M118.1,137.7L118.1,137.7L118.1,137.7L118.1,137.7z M128.6,81.3L128.6,81.3
		L128.6,81.3L128.6,81.3z M129.2,79.5L129.2,79.5L129.2,79.5L129.2,79.5z M98.7,139c-0.1,0.2-0.3,0.3-0.4,0.5l-0.1,0.1
		c-0.1,0.1-0.1,0.2-0.2,0.3c-0.1,0.1-0.1,0.2-0.2,0.3l-0.1,0.1c-0.1,0.1-0.1,0.2-0.2,0.3c-0.1,0.1-0.2,0.3-0.2,0.4
		c-0.1,0.1-0.1,0.2-0.2,0.3c-0.1,0.1-0.2,0.3-0.2,0.4c-0.1,0.1-0.1,0.2-0.2,0.4c-0.1,0.1-0.1,0.3-0.2,0.4c0,0.1-0.1,0.2-0.1,0.3
		l0.9,0.3l-1-0.2c0,0.1-0.1,0.3-0.1,0.4c0,0.1-0.1,0.2-0.1,0.3l0,0.1c-0.1,0.2-0.1,0.4-0.1,0.5c0,0-0.1-0.1-0.1-0.2
		c-0.1-0.1-0.1-0.1-0.2-0.3c0-0.1-0.1-0.1-0.1-0.2l0-0.1c0-0.1-0.1-0.2-0.1-0.3c0-0.1-0.1-0.2-0.1-0.4l-0.9,0.3l0,0l0.9-0.4
		c0-0.1-0.1-0.2-0.1-0.3l0-0.1c0-0.1-0.1-0.3-0.1-0.5c0-0.2,0-0.3-0.1-0.5l0-0.2c0-0.1,0-0.3,0-0.5l0-0.2c0-0.2,0-0.4,0-0.7
		c0-0.3-0.2-0.7-0.5-0.8c-0.3-0.2-0.7-0.2-1,0l-3.6,2c-0.4,0.2-0.6,0.7-0.5,1.1c0,0,0,0.1,0,0.1c0,0,0,0.1,0,0.1l0,0.1
		c0,0,0,0.1,0,0.1c0,0,0,0.1,0,0.1l0.5,1.1c0,0.1,0.1,0.2,0.1,0.3c0.8,1.4,1.8,2.5,3,3c0.1,0,0.2,0.1,0.3,0.1c-2.1,0.5-5.8,1-12,1.3
		c-0.3-0.5-0.6-0.9-1.1-1.4c-1.3-1.9-4.1-4.9-8.3-5.8l0.1-2.3c0.1,0,0.3-0.1,0.4-0.2c0.1,0,0.1,0,0.2-0.1l0.1,0
		c0.3-0.1,0.6-0.2,0.8-0.3c0.1,0,0.1-0.1,0.2-0.1l0.1-0.1c0.3-0.1,0.5-0.3,0.8-0.4c0.1,0,0.1-0.1,0.2-0.1l0.1-0.1
		c0.2-0.1,0.5-0.3,0.7-0.4c0.1-0.1,0.2-0.1,0.3-0.2l0.3-0.2c0.2-0.1,0.4-0.2,0.5-0.4c0.1-0.1,0.3-0.2,0.4-0.3l0.3-0.2
		c0.1-0.1,0.3-0.2,0.4-0.3c0.2-0.2,0.4-0.4,0.6-0.5l0.2-0.2c0.1-0.1,0.2-0.1,0.2-0.2c0.3-0.3,0.7-0.7,1-1.1c0.3-0.3,0.6-0.7,0.9-1
		l0.3-0.3c0.2-0.2,0.3-0.4,0.5-0.6l0.3-0.4c0.1-0.2,0.3-0.3,0.4-0.6l0.1-0.1l8.8,0.2c0.4,1.6,0.9,2.7,1.5,3.4
		c0.1,0.1,0.2,0.2,0.3,0.2c0.2,0.1,0.4,0.1,0.6,0.2c0.1,0.1,0.2,0.1,0.3,0.1c0.1,0,0.2,0,0.3,0c0.3,0.1,0.6,0.1,0.9,0.1
		c0.9,0.2,1.9,0.3,3.1,0.1c0.6,0.2,1.1,0.3,1.7,0.4c0,0.2,0,0.4,0,0.5l0.3,1.1L98.7,139z M90.3,142.1L90.3,142.1L90.3,142.1
		L90.3,142.1z M85.5,123.5L85.5,123.5L85.5,123.5L85.5,123.5z M86.4,123.8c0.1-0.3,0.2-0.6,0.3-1c0,0,0,0,0,0.1l0,0.1
		c0.1,0.2,0.1,0.4,0.2,0.7l0.1,0.2L86.4,123.8z M89.5,112.8c-0.1,0.1-0.2,0.2-0.3,0.2c-0.1,0.1-0.2,0.2-0.3,0.3
		c-0.1,0.1-0.2,0.2-0.3,0.3c-0.1,0.1-0.2,0.2-0.3,0.3c-0.1,0.1-0.2,0.2-0.2,0.3c-0.1,0.1-0.2,0.2-0.3,0.4c-0.1,0.1-0.1,0.2-0.2,0.3
		c-0.1,0.1-0.2,0.3-0.3,0.4l-0.1,0.1c0,0.1-0.1,0.1-0.1,0.2c-0.1,0.2-0.2,0.4-0.3,0.6c0,0.1-0.1,0.1-0.1,0.2
		c-0.1,0.2-0.2,0.4-0.2,0.6c0-0.1-0.1-0.1-0.1-0.2c0,0,0,0,0,0c-0.1-0.1-0.1-0.2-0.2-0.4c0-0.1-0.1-0.2-0.1-0.3
		c0-0.1-0.1-0.1-0.1-0.2c0,0,0-0.1-0.1-0.1l-0.1-0.1c-0.2-0.2-0.4-0.3-0.7-0.3c-0.3,0-0.6,0.1-0.8,0.3l0.6,0.7l0,0l-0.7-0.6l0.6,0.7
		l0,0l-0.7-0.6l-0.1,0.1c-0.1,0.1-0.3,0.3-0.6,0.5c-0.1,0.1-0.2,0.1-0.3,0.2l0.6,0.8l-0.7-0.7c-0.1,0.1-0.2,0.1-0.3,0.2l0.5,0.8l0,0
		l-0.5-0.6v0c0,0,0,0,0,0l-0.1-0.1c-0.1,0.1-0.3,0.2-0.4,0.2c0,0,0,0,0,0c-0.1,0.1-0.3,0.2-0.5,0.3c-0.1,0.1-0.3,0.1-0.4,0.2
		c0,0-0.1,0-0.1,0c-0.1,0.1-0.2,0.1-0.4,0.1l0.3,0.9l-0.4-0.9c-0.1,0-0.3,0.1-0.5,0.1c-0.2,0-0.4,0.1-0.6,0.1c-0.2,0-0.4,0-0.6-0.1
		c0,0,0-0.1,0-0.1l0-0.6c0-0.4,0-0.8-0.1-1.3l0-0.1c0-0.2,0-0.4-0.1-0.6l0-0.1c0-0.1,0-0.3-0.1-0.4l9.1-1.2c0.3,0,0.5-0.2,0.7-0.4
		c0.1-0.1,0.2-0.3,0.2-0.5l0.6,0C89.6,112.7,89.5,112.7,89.5,112.8z M102.6,103.3L102.6,103.3L102.6,103.3L102.6,103.3z M75.9,75.3
		L75.9,75.3C75.9,75.2,75.9,75.2,75.9,75.3L75.9,75.3L75.9,75.3z M76.4,73L76.4,73L76.4,73z M56.1,61.1l0.2-0.2L56.1,61.1L56.1,61.1
		z M56.2,60.8L56,61l0,0L56.2,60.8L56.2,60.8z M56.5,61L56.5,61L56.5,61L56.5,61z M56.4,60.9L56.4,60.9L56.4,60.9L56.4,60.9z
		 M93.7,153c0,0,0.1,0,0.1,0l0.3,0.6L93.7,153z M93.9,153.7L93.9,153.7L93.9,153.7L93.9,153.7z M30.4,104.5L30.4,104.5
		C30.4,104.5,30.4,104.5,30.4,104.5L30.4,104.5L30.4,104.5z M31.4,97.2L31.4,97.2L31.4,97.2L31.4,97.2L31.4,97.2z M26,97.2L26,97.2
		L26,97.2L26,97.2L26,97.2z M17.5,97L17.5,97L17.5,97L17.5,97L17.5,97z M17.5,97L17.5,97L17.5,97L17.5,97z M17.2,97.4L17.2,97.4
		L17.2,97.4L17.2,97.4L17.2,97.4z M16.8,96.4L16.8,96.4L16.8,96.4z M16.8,96.4L16.8,96.4L16.8,96.4z M13,98.5L13,98.5L13,98.5
		L13,98.5z M26.6,92.4c0-0.1,0-0.1,0-0.2C26.6,92.2,26.7,92.3,26.6,92.4l0.1,0.1c0.1,0.3,0.2,0.5,0.2,0.8l-0.2-0.1c0,0,0,0,0,0
		l0-0.1l-0.2,0l0,0l-0.2,0.1c0,0,0.1-0.1,0.1-0.1l0.3-0.1L26.6,92.4z M29.9,107.2L29.9,107.2L29.9,107.2L29.9,107.2z M33.2,110.6
		L33.2,110.6L33.2,110.6L33.2,110.6z M33.2,110.7L33.2,110.7L33.2,110.7L33.2,110.7L33.2,110.7z M36.8,112.3L36.8,112.3L36.8,112.3
		L36.8,112.3z M201.2,95L201.2,95L201.2,95L201.2,95z M186.9,91L186.9,91L186.9,91L186.9,91z M163.4,67.7L163.4,67.7L163.4,67.7
		L163.4,67.7z M164.1,66.8L164.1,66.8L164.1,66.8L164.1,66.8z M165.8,64L165.8,64L165.8,64L165.8,64z M166.1,63.3L166.1,63.3
		L166.1,63.3L166.1,63.3z M166.3,62.7L166.3,62.7L166.3,62.7L166.3,62.7z M166.3,62.5L166.3,62.5L166.3,62.5L166.3,62.5z M159,67
		l0.3,0.2L159,67L159,67z M159,61.4L159,61.4L159,61.4L159,61.4z M159.1,60.8L159.1,60.8L159.1,60.8L159.1,60.8z M159.1,60.7
		L159.1,60.7L159.1,60.7L159.1,60.7z M159.1,60.2L159.1,60.2L159.1,60.2L159.1,60.2z M144.3,54.7L144.3,54.7L144.3,54.7L144.3,54.7z
		 M139.1,65L139.1,65L139.1,65L139.1,65z M138.7,64.9L138.7,64.9L138.7,64.9L138.7,64.9z M138.2,64.9L138.2,64.9L138.2,64.9
		L138.2,64.9z M130.1,68.8L130.1,68.8L130.1,68.8L130.1,68.8z M127.9,84.3L127.9,84.3L127.9,84.3L127.9,84.3z M114.4,102.2
		L114.4,102.2L114.4,102.2L114.4,102.2z M113.3,102.8L113.3,102.8L113.3,102.8L113.3,102.8z M103.3,101.6c-0.1,0.1-0.2,0.1-0.3,0.2
		c0.1-0.1,0.2-0.2,0.4-0.4C103.3,101.5,103.3,101.5,103.3,101.6z M111.3,96.3L111.3,96.3L111.3,96.3L111.3,96.3L111.3,96.3z
		 M113.1,97.8L113.1,97.8L113.1,97.8L113.1,97.8z M97.4,104.9L97.4,104.9L97.4,104.9L97.4,104.9z M72.6,105.9L72.6,105.9L72.6,105.9
		L72.6,105.9z M77,72.2L77,72.2L77,72.2L77,72.2L77,72.2z M76.3,71.7L76.3,71.7L76.3,71.7L76.3,71.7z M75.6,71.2L75.6,71.2
		L75.6,71.2L75.6,71.2z M75.2,71L75.2,71L75.2,71L75.2,71z M74.6,70.7L74.6,70.7L74.6,70.7L74.6,70.7z M73.2,70L73.2,70L73.2,70
		L73.2,70z M68.9,54.2L68.9,54.2L68.9,54.2L68.9,54.2z M68.4,55L68.4,55L68.4,55L68.4,55z M65.7,64.4L65.7,64.4L65.7,64.4L65.7,64.4
		z M58.5,57.3L58.5,57.3L58.5,57.3L58.5,57.3z M57.3,56.1L57.3,56.1L57.3,56.1L57.3,56.1z M57.2,56L57.2,56L57.2,56L57.2,56z
		 M55.7,54.6L55.7,54.6L55.7,54.6L55.7,54.6z M54.8,54L54.8,54L54.8,54L54.8,54z M52.9,56.5L52.9,56.5L52.9,56.5L52.9,56.5z
		 M52.9,56.6L52.9,56.6L52.9,56.6L52.9,56.6z M53.5,57.5L53.5,57.5L53.5,57.5L53.5,57.5z M53.8,58L53.8,58L53.8,58L53.8,58z
		 M50.8,61.3L50.8,61.3L50.8,61.3L50.8,61.3z M50.9,66.9L50.9,66.9L50.9,66.9L50.9,66.9z M32.6,89.3L32.6,89.3L32.6,89.3L32.6,89.3z
		 M32.3,89.7L32.3,89.7L32.3,89.7L32.3,89.7z M31.9,91.6L31.9,91.6L31.9,91.6L31.9,91.6z M19.2,86.2L19.2,86.2L19.2,86.2L19.2,86.2z
		 M15.2,83.3L15.2,83.3L15.2,83.3L15.2,83.3z M14.9,83.3L14.9,83.3L14.9,83.3L14.9,83.3z M14.6,83.2L14.6,83.2L14.6,83.2L14.6,83.2z
		 M14.3,83.2L14.3,83.2L14.3,83.2L14.3,83.2z M14,83.3L14,83.3L14,83.3L14,83.3z M13.4,83.5L13.4,83.5L13.4,83.5L13.4,83.5z
		 M29.1,115.3L29.1,115.3L29.1,115.3L29.1,115.3z M29.6,117.7L29.6,117.7L29.6,117.7L29.6,117.7z M31.2,118.2L31.2,118.2L31.2,118.2
		L31.2,118.2z M32.3,116.9L32.3,116.9L32.3,116.9L32.3,116.9z M32.9,114.9L32.9,114.9L32.9,114.9L32.9,114.9z M32.9,114.8
		L32.9,114.8L32.9,114.8L32.9,114.8z M33.2,111.3l0.3,0l0,0L33.2,111.3z M37.3,115L37.3,115L37.3,115L37.3,115z M37.7,110.9
		L37.7,110.9L37.7,110.9L37.7,110.9z M39.9,112.6L39.9,112.6L39.9,112.6L39.9,112.6L39.9,112.6z M40.2,112.8L40.2,112.8L40.2,112.8
		L40.2,112.8z M58.2,137.9L58.2,137.9L58.2,137.9L58.2,137.9z M53.9,158.6L53.9,158.6L53.9,158.6L53.9,158.6z M54.3,158.7
		L54.3,158.7L54.3,158.7L54.3,158.7z M54.4,158.8L54.4,158.8L54.4,158.8L54.4,158.8z M63.5,159.3L63.5,159.3L63.5,159.3L63.5,159.3z
		 M66.2,158.8L66.2,158.8L66.2,158.8L66.2,158.8z M90.2,156L90.2,156L90.2,156L90.2,156z M146.5,145.3L146.5,145.3L146.5,145.3
		L146.5,145.3z M195.6,103.8L195.6,103.8L195.6,103.8L195.6,103.8z"/>
</g>
</svg>
