<?xml version="1.0" encoding="utf-8"?>
<!-- Generator: Adobe Illustrator 19.0.1, SVG Export Plug-In . SVG Version: 6.00 Build 0)  -->
<svg version="1.1" id="Layer_1" xmlns="http://www.w3.org/2000/svg" xmlns:xlink="http://www.w3.org/1999/xlink" x="0px" y="0px"
	 viewBox="0 0 210.6 210.6" style="enable-background:new 0 0 210.6 210.6;" xml:space="preserve">
<style type="text/css">
	.st0{fill:#AC0033;}
</style>
<g>
	<path class="st0" d="M43.9,103.1c0,8.8,6,16.1,13.4,16.1c3.8,0,7.3-1.9,9.7-4.9c1.2-1.5,3.5-1.4,4.8,0.1c2.4,3,5.8,4.8,9.6,4.8
		c3.8,0,7.2-1.9,9.7-4.9c1.2-1.5,3.5-1.5,4.7,0c2.4,3,5.8,4.9,9.6,4.9c3.8,0,7.2-1.9,9.6-4.9c1.2-1.5,3.5-1.5,4.7,0
		c2.4,3,5.8,4.9,9.6,4.9c3.8,0,7.2-1.9,9.6-4.9c1.2-1.5,3.5-1.5,4.7,0c2.4,3,5.8,4.9,9.7,4.9c7.4,0,13.4-7.2,13.4-16.1
		c0-8.8-6-16-13.4-16H57.2C49.9,87.1,43.9,94.3,43.9,103.1z"/>
	<path class="st0" d="M162.2,164.1v-43.9c-2.3,2.5-5.4,4.1-8.9,4.1c-3.8,0-7.2-1.9-9.6-4.9c-1.2-1.5-3.5-1.5-4.7,0
		c-2.4,3-5.9,4.9-9.6,4.9c-3.8,0-7.2-1.9-9.6-4.9c-1.2-1.5-3.5-1.5-4.7,0c-2.4,3-5.8,4.9-9.6,4.9c-3.8,0-7.2-1.9-9.6-4.9
		c-1.2-1.5-3.5-1.5-4.7,0c-2.4,3-5.8,4.9-9.6,4.9c-3.8,0-7.2-1.9-9.6-4.9c-1.2-1.5-3.5-1.5-4.8,0c-2.4,3-5.9,4.9-9.6,4.9
		c-3.4,0-6.5-1.5-8.9-4.1v43.9C48.4,172.2,162.2,172.2,162.2,164.1z"/>
	<path class="st0" d="M98.7,66.8l0,16h14.1v-16C112.8,64,98.7,64,98.7,66.8z"/>
	<path class="st0" d="M106.7,29.2c-1.4,18-6,8-9.8,17.8c-2.7,6.9,2.4,10.2,6.2,11.7c3.4,1.3,7.4,0,9.2-3.2
		c3.8-7.1-1.2-20.4-3.9-26.5C108,28.1,106.8,28.3,106.7,29.2z"/>
</g>
</svg>
