<?xml version="1.0" encoding="utf-8"?>
<!-- Generator: Adobe Illustrator 19.0.1, SVG Export Plug-In . SVG Version: 6.00 Build 0)  -->
<svg version="1.1" id="Layer_1" xmlns="http://www.w3.org/2000/svg" xmlns:xlink="http://www.w3.org/1999/xlink" x="0px" y="0px"
	 viewBox="0 0 210.6 210.6" style="enable-background:new 0 0 210.6 210.6;" xml:space="preserve">
<style type="text/css">
	.st0{fill:#AC0033;}
</style>
<g>
	<path class="st0" d="M39.5,91.6c4.3,0,7.9-1.5,10.9-4.5c3-3,4.5-6.6,4.5-10.9c0-4.3-1.5-7.9-4.5-10.9c-3-3-6.6-4.5-10.9-4.5
		s-7.9,1.5-10.9,4.5c-3,3-4.5,6.6-4.5,10.9c0,4.3,1.5,7.9,4.5,10.9C31.6,90.1,35.3,91.6,39.5,91.6z"/>
	<path class="st0" d="M93,71.3c-0.6,0-1.3-0.3-1.7-0.8l-0.2-0.2c-0.8,1.8-1.2,3.8-1.2,6c0,4.3,1.5,7.9,4.5,10.9
		c3,3,6.6,4.5,10.9,4.5c4.3,0,7.9-1.5,10.9-4.5c3-3,4.5-6.6,4.5-10.9c0-2-0.3-3.8-1-5.5c-0.4,0.3-0.9,0.5-1.4,0.5H93z"/>
	<path class="st0" d="M204.1,76.3c-1.8,0-3.4,0.6-4.7,1.9l-15.5,15.5l4.8,18.7v-4.8l20-20c1.3-1.3,1.9-2.8,1.9-4.7s-0.6-3.4-1.9-4.7
		C207.4,76.9,205.9,76.3,204.1,76.3z"/>
	<path class="st0" d="M153.6,123.5v40.6c0,2.1,0.8,3.9,2.3,5.4c1.5,1.5,3.3,2.3,5.4,2.3c2.1,0,3.9-0.8,5.4-2.3
		c1.5-1.5,2.3-3.3,2.3-5.4v-26.3C161.1,137.1,154.8,131.2,153.6,123.5z"/>
	<path class="st0" d="M173.2,137.7h0.2v26.3c0,2.1,0.8,3.9,2.3,5.4c1.5,1.5,3.3,2.3,5.4,2.3s3.9-0.8,5.4-2.3
		c1.5-1.5,2.3-3.3,2.3-5.4v-43.2C188.7,129.8,181.8,137,173.2,137.7z"/>
	<path class="st0" d="M157.8,71.6c-0.5,0-0.9-0.1-1.2-0.4c-0.5,1.6-0.8,3.2-0.8,5c0,4.3,1.5,7.9,4.5,10.9c3,3,6.6,4.5,10.9,4.5
		c4.3,0,7.9-1.5,10.9-4.5c3-3,4.5-6.6,4.5-10.9c0-1.7-0.3-3.3-0.8-4.9c-0.3,0.1-0.6,0.2-0.9,0.2H157.8z"/>
	<path class="st0" d="M158.5,93.8l-15.3-15.3c-0.1-0.1-0.2-0.2-0.3-0.3c-1.3-1.3-2.8-1.9-4.7-1.9c0,0,0,0,0,0s0,0,0,0
		c-1.8,0-3.4,0.6-4.7,1.9c-0.1,0.1-0.2,0.2-0.3,0.3l-15.3,15.3H92.7L77.4,78.5c-0.1-0.1-0.2-0.2-0.3-0.3c-1.3-1.3-2.8-1.9-4.7-1.9
		c0,0,0,0,0,0s0,0,0,0c-1.8,0-3.4,0.6-4.7,1.9c-0.1,0.1-0.2,0.2-0.3,0.3L52.1,93.8H26.9L11.2,78.2c-1.3-1.3-2.8-1.9-4.7-1.9
		s-3.4,0.6-4.7,1.9C0.6,79.5,0,81,0,82.9s0.6,3.4,1.9,4.7l20,20v56.5c0,2.1,0.8,3.9,2.3,5.4c1.5,1.5,3.3,2.3,5.4,2.3
		s3.9-0.8,5.4-2.3c1.5-1.5,2.3-3.3,2.3-5.4v-26.3h4.4v26.3c0,2.1,0.8,3.9,2.3,5.4c1.5,1.5,3.3,2.3,5.4,2.3c2.1,0,3.9-0.8,5.4-2.3
		c1.5-1.5,2.3-3.3,2.3-5.4v-56.5l15.3-15.3l15.3,15.3v56.5c0,2.1,0.8,3.9,2.3,5.4c1.5,1.5,3.3,2.3,5.4,2.3c2.1,0,3.9-0.8,5.4-2.3
		c1.5-1.5,2.3-3.3,2.3-5.4v-26.3h4.4v26.3c0,2.1,0.8,3.9,2.3,5.4c1.5,1.5,3.3,2.3,5.4,2.3s3.9-0.8,5.4-2.3c1.5-1.5,2.3-3.3,2.3-5.4
		v-56.5l15.3-15.3l15.3,15.3v4.1l5.6-17.8H158.5z M42.7,116.9l-2.6,3.4c-0.3,0.4-1,0.4-1.3,0l-2.6-3.4c-0.1-0.2-0.2-0.4-0.2-0.6
		l2.6-19.4c0.1-0.4-0.1-0.8-0.4-1.1l-1.9-1.9h6l-1.9,1.9c-0.3,0.3-0.4,0.7-0.4,1.1l2.6,19.4C42.9,116.5,42.9,116.7,42.7,116.9z
		 M109.1,111.3c-2.3,0-4.3-4.2-4.3-9.4h8.5C113.4,107.1,111.5,111.3,109.1,111.3z"/>
	<path class="st0" d="M118.4,63.9v-2.2c0-1.6-1.3-2.8-2.7-2.5c-2.8,0.5-7-0.2-8.9-1.7c-0.7-0.5-1.6-0.5-2.3-0.1
		c-2.2,1.3-6.8,2-9.7,1.5c-1.4-0.2-2.6,1-2.6,2.6v2.5H118.4z M108.1,59.5c0,2.3-1.2,4.2-2.8,4.2c-1.5,0-2.8-1.9-2.8-4.2H108.1z"/>
	<polygon class="st0" points="93,69.2 118.3,69.2 120.1,66 90.5,66 	"/>
	<path class="st0" d="M184.8,61.4V41.9c0-1.7-1.4-3.1-3.1-3.1h-20.9c-1.7,0-3.1,1.4-3.1,3.1v19.5H184.8z M179.7,52.4
		c0-0.6,0.5-1.1,1.1-1.1c0.6,0,1.1,0.5,1.1,1.1V60c0,0.6-0.5,1.1-1.1,1.1c-0.6,0-1.1-0.5-1.1-1.1V52.4z M175.2,52.4
		c0-0.6,0.5-1.1,1.1-1.1c0.6,0,1.1,0.5,1.1,1.1V60c0,0.6-0.5,1.1-1.1,1.1c-0.6,0-1.1-0.5-1.1-1.1V52.4z M170.8,52.4
		c0-0.6,0.5-1.1,1.1-1.1c0.6,0,1.1,0.5,1.1,1.1V60c0,0.6-0.5,1.1-1.1,1.1c-0.6,0-1.1-0.5-1.1-1.1V52.4z M164,60
		c0,0.6-0.5,1.1-1.1,1.1s-1.1-0.5-1.1-1.1v-7.6c0-0.6,0.5-1.1,1.1-1.1s1.1,0.5,1.1,1.1V60z M166.3,60v-7.6c0-0.6,0.5-1.1,1.1-1.1
		c0.6,0,1.1,0.5,1.1,1.1V60c0,0.6-0.5,1.1-1.1,1.1C166.8,61.1,166.3,60.6,166.3,60z"/>
	<polygon class="st0" points="184.8,65.9 184.8,63.6 157.8,63.6 157.8,65.9 157.8,69.5 184.8,69.5 	"/>
	<path class="st0" d="M171.6,99.3c3.1,0,5.6-2.5,5.6-5.6H166C166,96.8,168.5,99.3,171.6,99.3z"/>
</g>
</svg>
