<?xml version="1.0" encoding="utf-8"?>
<!-- Generator: Adobe Illustrator 19.0.1, SVG Export Plug-In . SVG Version: 6.00 Build 0)  -->
<svg version="1.1" id="Layer_1" xmlns="http://www.w3.org/2000/svg" xmlns:xlink="http://www.w3.org/1999/xlink" x="0px" y="0px"
	 viewBox="0 0 210.6 210.6" style="enable-background:new 0 0 210.6 210.6;" xml:space="preserve">
<style type="text/css">
	.st0{fill:#AC0033;}
</style>
<g>
	<path class="st0" d="M105.3,163.4c51.6,0,93.4-9.7,93.4-21.7c0-8.8-22.6-16.3-55-19.7c-5,5.9-11.3,10.6-18.5,13.8h24.8
		c2.5,0,4.6,2.1,4.6,4.6s-2.1,4.6-4.6,4.6H59.8c-2.5,0-4.6-2.1-4.6-4.6s2.1-4.6,4.6-4.6h24.8c-7.1-3.1-13.4-7.8-18.4-13.7
		c-32,3.4-54.2,10.9-54.2,19.7C11.9,153.7,53.7,163.4,105.3,163.4z"/>
	<path class="st0" d="M146.7,89c0-23.1-18.7-41.8-41.8-41.8S63.1,66,63.1,89c0,23.1,18.7,41.8,41.8,41.8S146.7,112.1,146.7,89z
		 M83,69.5l17.6-0.9c0.6,0,1-0.5,1-1.1l-0.7-7.8c-0.1-0.6,0.4-1.1,1-1.1h6.6c0.6,0,1,0.5,1,1V67c0,0.6,0.5,1.1,1.1,1l16.1-0.8
		c0.9,0,1.4,0.9,0.9,1.7l-24.1,34c-0.5,0.6-0.1,1.5,0.7,1.6l15.1,2.2c0.5,0.1,1-0.2,1.1-0.7l3-8.5c0.4-1.1,1.9-0.9,2,0.3l1,11.5
		c0.1,0.6-0.5,1.2-1.1,1.1l-14.8-0.5c-0.6,0-1.1,0.5-1.1,1v4.5c0,0.6-0.5,1-1,1h-1.8c-0.5,0-1-0.4-1-1l-0.4-4.9c0-0.5-0.5-0.9-1-1
		l-19.7-0.7c-0.9,0-1.3-1-0.8-1.7l27-33.6c0.6-0.7,0-1.8-0.9-1.7l-20.4,1.4c-0.5,0-0.9,0.4-1,0.9l-1.4,8.6c-0.2,1.1-1.8,1.2-2.1,0.1
		l-3-12.1C81.8,70.1,82.3,69.5,83,69.5z"/>
</g>
</svg>
