<?xml version="1.0" encoding="utf-8"?>
<!-- Generator: Adobe Illustrator 19.0.1, SVG Export Plug-In . SVG Version: 6.00 Build 0)  -->
<svg version="1.1" id="Layer_1" xmlns="http://www.w3.org/2000/svg" xmlns:xlink="http://www.w3.org/1999/xlink" x="0px" y="0px"
	 viewBox="0 0 210.6 210.6" style="enable-background:new 0 0 210.6 210.6;" xml:space="preserve">
<style type="text/css">
	.st0{fill:#AC0033;}
</style>
<path class="st0" d="M163.8,62.9c-21.8,13.3-40.9,16.9-57.1,11c-0.3-0.1-0.6-0.3-0.9-0.5c-18.7-11.6-40.8-8.5-66.2,9
	c-1.4,1-2.3,2.7-2.2,4.4l3.3,56.8c0.2,3.7,4.1,5.9,7.4,4.2c20.8-10.8,37.1-13,48.9-6.7c0.1,0.1,0.2,0.1,0.3,0.2
	c16.2,10.1,40.6,7.1,73-9c1.8-0.9,2.9-2.7,2.8-4.7l-1.6-60.7C171.4,63.2,167.2,60.9,163.8,62.9z M97.5,106.5c0,1.6-1.3,2.9-2.9,2.9
	H53.8c-1.6,0-2.9-1.3-2.9-2.9v-4.1c0-1.6,1.3-2.9,2.9-2.9h40.8c1.6,0,2.9,1.3,2.9,2.9V106.5z M156.4,86.5l-9.6,14.5
	c-0.3,0.4,0,0.9,0.5,1l2.9,0.2c0.4,0,0.7,0.4,0.6,0.8l-0.8,2.9c-0.1,0.3-0.4,0.5-0.6,0.5l-5.4-0.3c-0.2,0-0.4,0.1-0.6,0.3l-0.2,0.3
	c-0.3,0.4,0,0.9,0.5,1l4.9,0.4c0.4,0,0.7,0.4,0.6,0.8l-0.9,3c-0.1,0.3-0.3,0.5-0.6,0.5l-7.5-0.4c-0.2,0-0.4,0.1-0.6,0.3l-5.2,8
	c-0.3,0.4,0,0.9,0.5,1l15,1.6c0.3,0,0.6-0.2,0.7-0.4l3.1-9.9c0.2-0.7,1.2-0.6,1.2,0.1l1.5,12.7c0,0.4-0.3,0.7-0.6,0.7l-39.5-0.1
	c-0.5,0-0.8-0.6-0.5-1l9.6-12.9c0.3-0.4,0-1-0.5-1l-2.2-0.1c-0.4,0-0.7-0.4-0.6-0.8l1-3.6c0.1-0.3,0.4-0.5,0.7-0.5l5.3,0.4
	c0.2,0,0.4-0.1,0.6-0.2c0.3-0.4,0-1-0.5-1l-4.8-0.3c-0.4,0-0.7-0.4-0.6-0.8l1-3.4c0.1-0.3,0.4-0.5,0.7-0.5l7.9,0.6
	c0.2,0,0.4-0.1,0.6-0.3l6.9-9.2c0.3-0.4,0-1.1-0.6-1l-20.1,2.1c-0.3,0-0.5,0.3-0.6,0.6l-1.2,10.1c-0.1,0.7-1,0.8-1.2,0.1l-3.8-13.3
	c-0.1-0.4,0.2-0.8,0.6-0.8l42.1-3.6C156.4,85.4,156.7,86,156.4,86.5z"/>
</svg>
