<?xml version="1.0" encoding="utf-8"?>
<!-- Generator: Adobe Illustrator 19.0.1, SVG Export Plug-In . SVG Version: 6.00 Build 0)  -->
<svg version="1.1" id="Layer_1" xmlns="http://www.w3.org/2000/svg" xmlns:xlink="http://www.w3.org/1999/xlink" x="0px" y="0px"
	 viewBox="0 0 210.6 210.6" style="enable-background:new 0 0 210.6 210.6;" xml:space="preserve">
<style type="text/css">
	.st0{fill:#AC0033;}
</style>
<g>
	<path class="st0" d="M157.5,76.4l15.7-1.2l-37.3,15.4l9.3-9.1l-36.4-19.2l-6.6,8.8l7.9,19.8c2.1,0,4.3,0.1,6.4,0.6
		c7.9,1.6,14.8,6.2,22.6,8.2c12.7,3.1,26.8-2.3,34.8-12.4c3.2-4.1,3.9-9.7,2.2-14.6l-16.4-47.9c-2-5.7-9.1-7.4-13.6-3.3
		c-4,3.6-8.9,6.3-14,7.8l-15.9,24L157.5,76.4z"/>
	<path class="st0" d="M67.3,130.9c-2.5,2.7-5.2,5.7-6.3,9.1c-0.6,0.3-1.1,0.7-1.7,1c-0.4,0.2-0.7,0.5-1.1,0.7
		c-1.8,1.2-3.2,2.9-4.2,4.8c-0.6,1.2-1.5,2.2-2.5,3.1c-0.2,0.1-0.3,0.3-0.5,0.4c-1.5,1.2-2.1,3.1-1.4,4.9c2,5.8,6.4,18.5,8.3,24.1
		c0.5,1.6,2.2,2.5,3.9,2.1c1.3-0.3,2.8-0.6,3.8-0.7c5.1-0.6,10.1-1.6,15-3.1c2.3-0.7,4.6-1.4,6.9-2.2l3.3,9.7
		c1.1,3.1,4.4,4.7,7.5,3.7c3.1-1.1,4.7-4.4,3.7-7.5l-3.3-9.6c1.4-0.5,2.7-1,4.1-1.5c2-0.7,3.2-2.5,2.9-4.6c-0.2-2-1.8-3.5-3.9-3.8
		c-0.2,0-0.3-0.1-0.5-0.1c3.5-1,6.2-2.7,6-6.8c-0.2-3.4-2.4-5.1-5.7-5.6c2.4-2.7,3-4.8,2-7.1c-1.2-2.7-3.3-3.8-6.3-3.7
		c0.4-0.4,0.7-0.6,0.9-0.9c2.7-3.1,1.9-7.5-1.6-9.6c-1.9-1.1-3.8-1-5.8-0.3c-2.1,0.7-4.3,1.5-6.4,2.2l-7.4-21.6
		c3.5-3.8,7.4-7.3,11.7-10.2c3.4-2.3,7.1-4.1,11-5.3L76.9,45l-16.5,0.3l39.4-15.9l-10,9l11.1,29.2L127,30.2c-3.9,0.5-8,0.4-11.9-0.6
		c-7.8-1.9-14.8-6.6-22.6-8.2c-9.7-1.9-19.8,1.1-28,6.6c-7.7,5.1-13.9,12.3-19.4,19.8l-1.3,0.4l0.3,0.9l0,0l24,69.9c0,0,0,0,0,0
		l3,8.6C69.6,128.5,68.4,129.7,67.3,130.9z"/>
	<path class="st0" d="M33.7,157c0.1,0.3,0.2,0.7,0.3,1l0.8,2.5c2.3,7,4.6,14,6.8,21c0.9,2.7,1.7,5.3,2.6,8c0.5,1.4,1.3,2.1,2.5,2.1
		c0.2,0,0.5,0,0.8-0.1c2-0.4,4-1.1,5.8-1.8c0.5-0.2,1-0.4,1.4-0.5c1-0.4,1.6-1.2,1.7-2.2c0.2-0.8,0-1.5-0.2-2.2l0-0.1
		c-2.1-6.5-4.2-13-6.3-19.4l-0.8-2.5c-1-3.1-2-6.2-3.1-9.3c-0.7-2-1.8-2.7-3.5-2.3c-2.2,0.5-4.6,1.3-7,2.3
		C33.8,154.1,33.3,155.2,33.7,157z"/>
</g>
</svg>
