<?xml version="1.0" encoding="utf-8"?>
<!-- Generator: Adobe Illustrator 19.0.1, SVG Export Plug-In . SVG Version: 6.00 Build 0)  -->
<svg version="1.1" id="Layer_1" xmlns="http://www.w3.org/2000/svg" xmlns:xlink="http://www.w3.org/1999/xlink" x="0px" y="0px"
	 viewBox="0 0 210.6 210.6" style="enable-background:new 0 0 210.6 210.6;" xml:space="preserve">
<style type="text/css">
	.st0{fill:#AC0033;}
</style>
<g>
	<path class="st0" d="M159.2,75.2c4.7-3.8,11.8-11,11.6-18.7c0-0.2-0.1-0.4-0.3-0.5l-3-1.3c-0.4-0.2-0.8,0.2-0.7,0.6
		c1,4.9-1.7,11.3-8.3,19.1C158.1,75,158.7,75.6,159.2,75.2z"/>
	<path class="st0" d="M130.1,85.3c-0.2-0.1-0.4,0-0.5,0.1l-11.1,10.7c-0.2,0.2-0.2,0.5,0,0.7l37,35.9c0.1,0.1,0.2,0.1,0.3,0.1
		l13.4,2.2c0.6,0.1,0.6,0.9,0,1l-37.4,6c-0.6,0.1-0.8-0.7-0.4-1l9.3-5.8c0.3-0.2,0.3-0.6,0.1-0.8l-32.6-29.7c-0.2-0.2-0.5-0.2-0.7,0
		l-8.5,7.4c-0.1,0.1-0.2,0.3-0.2,0.5l3.7,26.9c0,0.2,0.2,0.4,0.4,0.4l13.6,2.4c0.6,0.1,0.6,0.9,0,1l-8.3,1.4c-0.5,0.1-0.6,0.7-0.2,1
		c1.2,0.8,2.5,1.7,3.7,2.7c6,5,12.7,7.5,19.5,8.3l0.1-0.1c20.1,2.3,40.7-10.3,44.9-15.5c0.1-0.1,0.1-0.2,0.1-0.4
		c-2.2-14.5-2.2-45.6,6.5-84.4c0.1-0.6-0.6-0.9-1-0.4C174.8,67.8,152.5,91.8,130.1,85.3z"/>
	<path class="st0" d="M104.5,67.6l-10,5.6c-0.2,0.1-0.3,0.3-0.3,0.5l4,33.4c0.1,0.4,0.6,0.6,0.9,0.3L124.8,84
		c0.3-0.2,0.2-0.7-0.1-0.8c-0.6-0.3-1.2-0.6-1.7-1c-1.5-0.9-3.1-2-4.4-3.4c-3-2.5-6-5.8-8.9-9.9c-28.3-40.2-68.4-3.4-72.7,0.7
		c-0.2,0.2-0.2,0.5,0,0.7c6.9,7,13.7,36.1,20.3,87.1c0.1,0.4,0.5,0.6,0.9,0.3c2.8-2.6,13.7-11.8,26.8-15.1l0.3-0.1l0.3-0.1l0.4-0.1
		l0.4-0.1l0.4-0.1c1.5-0.3,2.9-0.4,4.4-0.5c0.3,0,0.5-0.3,0.5-0.6L78.9,77.6c0-0.2-0.2-0.4-0.4-0.4l-14.4-3.4c-0.6-0.1-0.5-0.9,0-1
		l40-6.1C104.7,66.6,105,67.3,104.5,67.6z"/>
	<path class="st0" d="M180.9,87c0-0.7-1-0.7-1-0.1c-3.3,30.2,3.3,53.2,4,55.6c0,0.1,0,0.3-0.1,0.4c-4,6-26.5,22.9-48,18.5
		c22.7,8.4,51.2-12.9,55.8-19.6c0.1-0.2,0.1-0.4,0-0.6C187.1,135.7,180.9,117.4,180.9,87z"/>
	<path class="st0" d="M19.1,69.3c-0.2,0.2-0.2,0.6,0.1,0.8c9,6,19.6,19.6,29,52.1c0.2,0.6,1.1,0.4,1-0.2
		c-4.3-29-12.6-46.3-20.1-52.4c-0.2-0.2-0.3-0.5-0.1-0.7c8-11,21.5-19.4,38.8-20.6c0.6,0,0.7-1,0-1C41.6,45.2,22,66,19.1,69.3z"/>
	<path class="st0" d="M82.8,146.6c-5.6,2.1-14.5,6.6-16.6,14.1c-0.1,0.2,0,0.4,0.2,0.5l2.5,2.2c0.3,0.3,0.8,0.1,0.9-0.3
		c0.5-5,5-10.2,13.6-15.5C83.8,147.2,83.4,146.4,82.8,146.6z"/>
</g>
</svg>
