<?xml version="1.0" encoding="utf-8"?>
<!-- Generator: Adobe Illustrator 19.0.1, SVG Export Plug-In . SVG Version: 6.00 Build 0)  -->
<svg version="1.1" id="Layer_1" xmlns="http://www.w3.org/2000/svg" xmlns:xlink="http://www.w3.org/1999/xlink" x="0px" y="0px"
	 viewBox="0 0 210.6 210.6" style="enable-background:new 0 0 210.6 210.6;" xml:space="preserve">
<style type="text/css">
	.st0{fill:#AC0033;}
</style>
<g>
	<path class="st0" d="M65.8,139.7v11.1c0,0.8,0.7,1.5,1.5,1.5h7.4c0.8,0,1.5,0.7,1.5,1.5v6c0,0.8,0.7,1.5,1.5,1.5h5.1
		c0.6,0,1.1,0.3,1.4,0.9l6.7,14.2c0.2,0.5,0.8,0.9,1.4,0.9h1.4c2,0,3.7,1.6,3.7,3.6l2.7,17.7c0.1,2,1.7,3.6,3.7,3.6h3.1
		c2,0,3.6-1.6,3.7-3.6l2.7-17.7c0.1-2,1.7-3.6,3.7-3.6h1.4c0.6,0,1.1-0.3,1.4-0.9l6.7-14.2c0.2-0.5,0.8-0.9,1.4-0.9h5.1
		c0.8,0,1.5-0.7,1.5-1.5v-6c0-0.8,0.7-1.5,1.5-1.5h7.4c0.8,0,1.5-0.7,1.5-1.5v-11.1c0-0.8-0.7-1.5-1.5-1.5h-76
		C66.5,138.2,65.8,138.8,65.8,139.7z"/>
	<path class="st0" d="M88.3,127.3c6.3,5.6,13.3,7.4,20.2,6.5c-5.4-3.6-9.6-9.8-10.6-15.8c-1.9-11.4,4.4-22.7,11.1-31.4
		c2.7-3.5,9.2-9.3,11.2-14.9c0.4-0.3,1-0.4,1.5-0.2c0.3,0.2,0.5,0.5,0.7,0.8c0.5,8.9-7.1,17.9-5.4,27.1c1.5,7.7,11,14.9,13.3,22.4
		c6.4-6.7,11.1-15.3,12.5-23.7c3.7-21.9-8.3-43.5-21.2-60.2C116.3,31.2,103.8,20,100,9.2c-0.8-0.6-1.9-0.8-2.9-0.4
		c-0.7,0.3-1,0.9-1.3,1.5c-1,17,13.6,34.2,10.3,51.9C101.9,84.6,62.5,104.5,88.3,127.3z"/>
</g>
</svg>
