<?xml version="1.0" encoding="utf-8"?>
<!-- Generator: Adobe Illustrator 19.0.1, SVG Export Plug-In . SVG Version: 6.00 Build 0)  -->
<svg version="1.1" id="Layer_1" xmlns="http://www.w3.org/2000/svg" xmlns:xlink="http://www.w3.org/1999/xlink" x="0px" y="0px"
	 viewBox="0 0 210.6 210.6" style="enable-background:new 0 0 210.6 210.6;" xml:space="preserve">
<style type="text/css">
	.st0{fill:none;}
	.st1{fill:#AC0033;}
</style>
<path class="st0" d="M151.7,73.5l-17.5-8.6c-1.5-0.7-2.9,1.2-1.8,2.4l15.3,15.9c1.9,2,2.5,4.8,1.7,7.4l-18.7,54.7c0,0,0,0.1,0,0.1
	c1-0.8,2.4-1.1,3.7-0.7l21.5-42.1c1.8-3.6,6.3-5,9.9-3.1l22.6,11.8c1.5,0.8,3-1.2,1.7-2.4l-21.4-20.5c-2.3-2.2-2.9-5.6-1.5-8.4
	l21.3-43.8c0.8-1.7-1.6-3.1-2.6-1.5l-24.9,36.5C158.9,74.1,154.9,75.1,151.7,73.5z"/>
<path class="st0" d="M68.3,178c3.6-1.7,6.1-3.6,7.3-5.8c-7.7,0.8-23-0.4-22.3-2.1c0.9-2.1,5.8-12.9,7.7-14.5
	c1.5-1.2,11.1,8.1,15.8,12.9c3.8-14.2-4.4-23.9-9.8-28.5c-5.6-4.8-12.9-8.3-20.5-9.7c-7.6-1.4-14.8-0.6-20.2,2.3
	c-5.4,2.8-8.8,6.2-10.4,10.1c-1.3,3.4-1.2,7.3,0.4,11.6c3.7,9.9,15,21,29.5,29.2c5-0.7,10-1.6,14.6-2.8C63.5,180,66.1,179,68.3,178z
	"/>
<g>
	<path class="st1" d="M105.3,65.5C105.3,65.5,105.3,65.5,105.3,65.5c0.1,0,0.1,0,0.1,0c0.8,0,1.6-0.6,1.6-1.4l3.4-35
		c0.1-0.9-0.7-1.8-1.6-1.8h-7.1c-1,0-1.7,0.8-1.6,1.8l3.4,35C103.7,64.9,104.4,65.5,105.3,65.5z"/>
	<path class="st1" d="M165.9,54.6l-8.6-11.4l-21.1,35.5c1.1,1.2,2.2,2.4,3.2,3.6L165.9,54.6z"/>
	<path class="st1" d="M171.7,104.7l-20.1,4.6c-0.9,0.2-1.6,1.1-1.5,2c0,0,0,0,0,0c0,1,0.8,1.7,1.7,1.9l19.4,2.4
		c1.1,0.1,2.1-0.7,2.2-1.8l0.7-7C174.3,105.5,173.1,104.4,171.7,104.7z"/>
	<path class="st1" d="M164,144.9l-18.7-8.4c-0.5-0.2-1.1,0-1.4,0.4c0,0,0,0,0,0c-0.3,0.4-0.2,1,0.1,1.4l14.1,14.6
		c0.5,0.5,1.3,0.4,1.7-0.1l4.5-6.2C164.8,146,164.6,145.2,164,144.9z"/>
	<path class="st1" d="M130,152.6c-0.3-0.5-1-0.6-1.5-0.4c0,0,0,0,0,0c-0.4,0.3-0.7,0.8-0.5,1.3l5,17.2c0.2,0.7,1,1,1.6,0.7l4.8-2.5
		c0.6-0.3,0.8-1.1,0.4-1.6L130,152.6z"/>
	<path class="st1" d="M72.9,80.1C73,80.1,73,80.1,72.9,80.1c0.8-0.9,0.9-2.2,0.3-3.2l-18-30.3c-1-1.6-3.3-1.8-4.4-0.2l-4.8,6.4
		c-0.8,1-0.7,2.5,0.2,3.5L69,80.2C70.1,81.3,71.9,81.2,72.9,80.1z"/>
	<path class="st1" d="M60.4,111.4C60.4,111.4,60.4,111.3,60.4,111.4c0.1-1-0.6-1.9-1.5-2.1l-19.9-4.5c-1.3-0.3-2.6,0.8-2.4,2.2
		l0.7,7c0.1,1.1,1.1,1.9,2.2,1.8l19.2-2.4C59.6,113.1,60.3,112.3,60.4,111.4z"/>
	<path class="st1" d="M66.6,137c-0.3-0.5-0.9-0.7-1.4-0.4l-18.5,8.3c-0.7,0.3-0.9,1.1-0.4,1.7l4.5,6.1c0.4,0.6,1.2,0.6,1.7,0.1
		l14-14.4C66.9,138,66.9,137.5,66.6,137C66.6,137,66.6,137,66.6,137z"/>
	<path class="st1" d="M82.1,152.3C82.1,152.3,82.1,152.3,82.1,152.3c-0.5-0.3-1.2-0.2-1.5,0.3l-9.7,14.6c-0.4,0.6-0.2,1.3,0.4,1.6
		l4.7,2.5c0.6,0.3,1.4,0,1.6-0.7l5-17.2C82.8,153.1,82.6,152.6,82.1,152.3z"/>
	<path class="st1" d="M116,166.9H94.1c-0.9,0-1.7,0.7-1.7,1.7v1.2c0,0.9,0.7,1.7,1.7,1.7h-0.6v1.6h0.1c-0.7,0.2-1.2,0.8-1.2,1.6v1.2
		c0,0.9,0.7,1.7,1.7,1.7h3.3v1.7c0.4,2.4,3.7,4.2,7.7,4.2c4,0,7.2-1.8,7.7-4.2v-1.7h3.3c0.9,0,1.7-0.7,1.7-1.7v-1.2
		c0-0.7-0.5-1.4-1.2-1.6v-1.6H116c0.9,0,1.7-0.7,1.7-1.7v-1.2C117.6,167.7,116.9,166.9,116,166.9z"/>
	<path class="st1" d="M103.1,76.7C86,77.6,71.8,91,69.9,108c-0.7,6,0.2,11.7,2.2,16.8h0c0,0,0.1,0.3,0.3,0.8
		c0.1,0.3,0.2,0.5,0.3,0.8c0.1,0.3,0.3,0.6,0.4,0.9c0.8,1.7,1.7,3.3,2.8,4.8c1.4,2.2,3.3,4.8,5.7,7.5c4.2,4.9,9.6,10.8,10.1,12.3
		c0.3,0.9,0.6,2.6,0.7,4.7c0,0.9,0.1,1.8,0.1,2.7c0,2.3,1.2,4.6,3.6,4.6c1.3,0,2.4,0,3.5,0c0.5,0,0.9,0,1.3,0c0.3,0,0.6,0,0.8,0h4.1
		c1,0,2.3,0,3.6,0c1.3,0,2.6,0,3.9,0c0.2,0,0.4,0,0.5,0c2.5,0,3.6-2.3,3.6-4.6c0-0.9,0-1.8,0.1-2.6c0.1-2.1,0.4-3.8,0.7-4.8
		c0.5-1.5,5.9-7.4,10.1-12.3c2.1-2.4,3.8-4.7,5.1-6.7c4.3-5.9,6.9-13.1,6.9-20.9C140.4,91.9,123.6,75.7,103.1,76.7z"/>
</g>
</svg>
