<?xml version="1.0" encoding="utf-8"?>
<!-- Generator: Adobe Illustrator 19.0.1, SVG Export Plug-In . SVG Version: 6.00 Build 0)  -->
<svg version="1.1" id="Layer_1" xmlns="http://www.w3.org/2000/svg" xmlns:xlink="http://www.w3.org/1999/xlink" x="0px" y="0px"
	 viewBox="0 0 210.6 210.6" style="enable-background:new 0 0 210.6 210.6;" xml:space="preserve">
<style type="text/css">
	.st0{fill:#AC0033;}
</style>
<g>
	<path class="st0" d="M90.9,32.4c0-1.4-1.5-2.4-2.8-1.9c-10.5,3.7-21.7,10.7-23.9,21.7c-0.2,1.2-1.4,1.9-2.5,1.7
		c-7-1.6-14.8-7.2-20.8-2.1c-1,0.9-3.4,4.7-5.5,7.4c-1,1.3-0.3,3.1,1.3,3.4c13.2,2.2,24.1,13,38.2,5.4c3.5-1.9,5.9-5,8.9-7.5
		c2-1.6,20.5-9.4,26.6-11.7c1.1-0.4,1.6-1.6,1.2-2.7c-0.9-2.3-2.3-5.4-3.5-7.8c-0.7-1.4-2.7-1.5-3.6-0.3c-2.3,3.2-6.2,7.9-6.8,8.6
		c-2.9,3.7-6.1,5.3-10.8,6.4c0,0,0,0,0,0c-1.9,0.4-3.2-1.9-2-3.4C88.8,44.9,91,38.7,90.9,32.4z"/>
	<path class="st0" d="M61,166c10.6,1.5,20.5-0.5,27.2-2.5c-2.6,3.3-5.2,6.8-7.7,10.5c-1.3,1.8-0.7,4.4,1.3,5.5c0,0,0,0,0.1,0
		c1.7,0.9,3.8,0.4,4.9-1.2c3.6-5.2,7.3-10,11-14.6c0.4-0.5,0.8-1,1.2-1.5c4.6,4.4,15,12.2,28.5,15.4c18.6,4.4,34.8,3.3,36.2-2.6
		c1.4-5.8-12.6-14.1-31.2-18.5c-11.4-2.7-22.3-1.3-29.1,0.3c4.6-5.8,9.1-11.4,13.3-17c3.7,2.9,14.6,9.4,28.1,10.5
		c16.7,1.3,30.5-1.9,30.9-7.1c0.4-5.2-12.8-10.5-29.5-11.8c-11.4-0.9-21.7,2.6-27.1,5c4.7-6.5,8.9-12.9,12.5-19.4
		c4.3,2.2,13.9,5.8,24.8,5c14.7-1,26.3-5.6,26-10.2c-0.3-4.6-12.5-7.5-27.2-6.5c-8.8,0.6-16.4,4-21.1,6.7c2.7-5.4,4.9-10.9,6.5-16.5
		c4.1,1.7,11.5,3.9,19.7,3.2c12.3-1.1,22-5.2,21.6-9c-0.4-3.9-10.6-6.1-22.9-5c-7.1,0.7-13.2,3.5-17.1,5.8c1-4.5,1.6-9.1,1.8-13.9
		c2.9,0.9,7.4,1.6,12.2,0.8c8.2-1.3,14.6-4.5,14.1-7.1c-0.4-2.6-7.4-3.6-15.7-2.2c-4.4,0.7-8.2,2.7-10.7,4.3c0-0.6,0-1.2,0-1.8
		c-0.1-1.7-0.8-2.6-1.5-3.2c1.3-2.6,3.2-7.8,2.9-13.6c-0.4-8.3-2.9-15-5.5-14.8c-2.6,0.2-4.4,7-3.9,15.3c0.3,5.3,2.3,9.8,3.8,12.4
		c-2.5,0.3-2.7,1.7-2.6,4.3c-2.2-1.7-5-3.6-8.4-4.7c-7.9-2.7-15-2.7-15.8-0.3c-0.8,2.5,4.9,6.6,12.8,9.3c4.2,1.4,8.4,1.5,11.5,1.2
		c-0.1,4.9-0.8,9.6-2.1,14.3c-2.9-3.5-7.9-8.4-14.7-11.5C109,74.3,98.5,73,96.9,76.6c-1.6,3.5,6.2,10.5,17.5,15.6
		c7.2,3.3,14.6,3.7,19,3.5c-1.9,5.8-4.6,11.5-7.8,17.3c-3.5-4-10-10.1-18.6-13.6c-13.7-5.5-26.2-6.5-27.9-2.2
		c-1.7,4.3,8,12.2,21.7,17.7c8.2,3.3,16.4,3.6,21.8,3.3c-3.5,5.6-7.4,11.2-11.7,16.9c-3.5-4.1-12-12.4-23.8-16.4
		c-15.8-5.4-30.1-5.8-31.7-0.8c-1.7,5,9.7,13.4,25.6,18.8c10.7,3.7,21.4,3,27.2,2.1c-4.5,5.8-9.2,11.6-14.2,17.7
		c-0.2,0.2-0.3,0.4-0.5,0.6c-5.2-4-16.1-10.5-29.5-12.3c-18.9-2.6-34.9,0.1-35.8,6C27.4,156.5,42.1,163.4,61,166z"/>
</g>
</svg>
