<?xml version="1.0" encoding="utf-8"?>
<!-- Generator: Adobe Illustrator 19.0.1, SVG Export Plug-In . SVG Version: 6.00 Build 0)  -->
<svg version="1.1" id="Layer_1" xmlns="http://www.w3.org/2000/svg" xmlns:xlink="http://www.w3.org/1999/xlink" x="0px" y="0px"
	 viewBox="0 0 210.6 210.6" style="enable-background:new 0 0 210.6 210.6;" xml:space="preserve">
<style type="text/css">
	.st0{fill:none;}
	.st1{fill:#AC0033;}
</style>
<path class="st0" d="M151.7,73.5l-17.5-8.6c-1.5-0.7-2.9,1.2-1.8,2.4l15.3,15.9c1.9,2,2.5,4.8,1.7,7.4l-18.7,54.7c0,0,0,0.1,0,0.1
	c1-0.8,2.4-1.1,3.7-0.7l21.5-42.1c1.8-3.6,6.3-5,9.9-3.1l22.6,11.8c1.5,0.8,3-1.2,1.7-2.4l-21.4-20.5c-2.3-2.2-2.9-5.6-1.5-8.4
	l21.3-43.8c0.8-1.7-1.6-3.1-2.6-1.5l-24.9,36.5C158.9,74.1,154.9,75.1,151.7,73.5z"/>
<path class="st0" d="M68.3,178c3.6-1.7,6.1-3.6,7.3-5.8c-7.7,0.8-23-0.4-22.3-2.1c0.9-2.1,5.8-12.9,7.7-14.5
	c1.5-1.2,11.1,8.1,15.8,12.9c3.8-14.2-4.4-23.9-9.8-28.5c-5.6-4.8-12.9-8.3-20.5-9.7c-7.6-1.4-14.8-0.6-20.2,2.3
	c-5.4,2.8-8.8,6.2-10.4,10.1c-1.3,3.4-1.2,7.3,0.4,11.6c3.7,9.9,15,21,29.5,29.2c5-0.7,10-1.6,14.6-2.8C63.5,180,66.1,179,68.3,178z
	"/>
<path class="st1" d="M124.3,57.7c-2.7,1.6-4.4,4.5-4.5,7.7l-2.6,80.7c-0.1,3,1.1,5.5,3,7.1c-1.7,3.5-3.9,7-6.9,10.4
	c-3.1,3.6-7,6.4-11.7,8.6c-3,1.4-6.2,2.5-9.8,3.3c-6.9,1.6-15.9,0.5-25.4-3.1c1-0.2,1.9-0.5,2.8-0.7c3-0.8,5.6-1.7,7.8-2.8
	c5.7-2.6,9.2-6,10.7-10.4c0,0,0,0,0,0c5.7,2,15.7,5.3,16.3,3.9c0.9-2,0.7-12.2,0.6-14.1c-0.1-1.4-9.5,2.1-15.6,5.3
	c1-5,0.6-10-0.9-14.8c-1.8-5.6-5.4-10.8-10.4-15c-5.8-5-13.3-8.6-21.1-10c-8.2-1.5-16-0.5-22.2,2.7c-6.2,3.3-10.4,7.5-12.4,12.5
	c-1.9,4.7-1.8,9.8,0.3,15.3c3.1,8.2,10.5,16.7,20.6,23.9c0,0,0,0,0,0c-3.6,0.4-6.9,0.7-9.8,1.1c-2,0.3-3.3,2.2-2.9,4.2l0.1,0.5
	c0.4,1.8,2.1,3,3.9,2.7c2.6-0.4,5.7-0.7,9.2-1.1c3.1-0.3,6.4-0.7,9.7-1.1c6.5,3.4,13.2,6,19.6,7.5c7.7,1.8,14.6,2,20.5,0.6
	c4.1-1,7.9-2.2,11.3-3.8c5.7-2.6,10.6-5.9,14.2-10.4c3.6-4.6,6.2-8.9,8.2-13c1.6-0.1,3.2-0.7,4.7-1.8l54-39.7
	c2.4-1.8,3.8-4.6,3.8-7.6l-1.5-70.5c-0.1-7.1-7.8-11.3-13.9-7.8L124.3,57.7z M29.5,141.9c-1.4-3.7-1.5-7.1-0.4-10
	c1.3-3.3,4.3-6.2,8.9-8.7c4.7-2.5,10.9-3.2,17.4-2c6.5,1.2,12.8,4.1,17.6,8.3c4.6,4,11.6,12.3,8.4,24.6
	c-4.1-4.1-12.4-12.2-13.6-11.1c-1.7,1.4-5.9,10.7-6.7,12.5c-0.6,1.4,12.5,2.5,19.2,1.8c-1.1,1.9-3.1,3.6-6.3,5
	c-1.9,0.9-4.1,1.6-6.7,2.3c-3.9,1.1-8.2,1.8-12.5,2.4C42.4,160,32.7,150.4,29.5,141.9z M177.5,40.1l-18.3,37.7
	c-1.2,2.4-0.7,5.4,1.3,7.3l18.4,17.6c1.1,1-0.2,2.8-1.5,2.1l-19.4-10.2c-3.1-1.6-6.9-0.4-8.5,2.7l-18.5,36.3c-1.1-0.3-2.3,0-3.2,0.6
	c0,0,0-0.1,0-0.1L143.9,87c0.8-2.2,0.2-4.7-1.4-6.4l-13.2-13.6c-1-1,0.2-2.7,1.5-2.1l15.1,7.4c2.8,1.4,6.2,0.5,7.9-2.1l21.4-31.4
	C176.1,37.4,178.2,38.6,177.5,40.1z"/>
</svg>
