<?xml version="1.0" encoding="utf-8"?>
<!-- Generator: Adobe Illustrator 19.0.1, SVG Export Plug-In . SVG Version: 6.00 Build 0)  -->
<svg version="1.1" id="Layer_1" xmlns="http://www.w3.org/2000/svg" xmlns:xlink="http://www.w3.org/1999/xlink" x="0px" y="0px"
	 viewBox="0 0 210.6 210.6" style="enable-background:new 0 0 210.6 210.6;" xml:space="preserve">
<style type="text/css">
	.st0{fill:none;}
	.st1{fill:#AC0033;}
</style>
<path class="st0" d="M151.7,73.5l-17.5-8.6c-1.5-0.7-2.9,1.2-1.8,2.4l15.3,15.9c1.9,2,2.5,4.8,1.7,7.4l-18.7,54.7c0,0,0,0.1,0,0.1
	c1-0.8,2.4-1.1,3.7-0.7l21.5-42.1c1.8-3.6,6.3-5,9.9-3.1l22.6,11.8c1.5,0.8,3-1.2,1.7-2.4l-21.4-20.5c-2.3-2.2-2.9-5.6-1.5-8.4
	l21.3-43.8c0.8-1.7-1.6-3.1-2.6-1.5l-24.9,36.5C158.9,74.1,154.9,75.1,151.7,73.5z"/>
<path class="st0" d="M68.3,178c3.6-1.7,6.1-3.6,7.3-5.8c-7.7,0.8-23-0.4-22.3-2.1c0.9-2.1,5.8-12.9,7.7-14.5
	c1.5-1.2,11.1,8.1,15.8,12.9c3.8-14.2-4.4-23.9-9.8-28.5c-5.6-4.8-12.9-8.3-20.5-9.7c-7.6-1.4-14.8-0.6-20.2,2.3
	c-5.4,2.8-8.8,6.2-10.4,10.1c-1.3,3.4-1.2,7.3,0.4,11.6c3.7,9.9,15,21,29.5,29.2c5-0.7,10-1.6,14.6-2.8C63.5,180,66.1,179,68.3,178z
	"/>
<path class="st1" d="M57.2,126.7c3.4,3,8,4,12.2,3c1.6-0.4,5.8-1.3,4.9,1.4c-3.9,5.4-8.1,10.9-12.7,16.3c-1.9,2.2-1.8,5.6,0.2,7.7
	l5.3,5.5c2.4,2.5,6.4,2.3,8.5-0.4c2.8-3.5,6.9-8.8,11.5-15.6c8.4,10.9,20.7,27.6,28.7,42.6c1.6,3,5.9,3,7.6,0c1.4-2.5,2.7-5.1,4-7.7
	c0.6-1.2,0.6-2.6,0-3.8c-3.9-7.5-12.3-22.6-19-30.4c0,0,15.6,2.5,27.3,4.6c2.5,0.4,5-1,5.9-3.4c1-2.9,2-5.7,2.9-8.5
	c0.7-2.1-0.7-4.3-2.8-4.6c-8.8-1.5-25-4.1-38.2-6.1c-2.3-0.3-3.6-2.9-2.5-5c3.4-6.1,6.7-12.7,9.8-19.8c0.9-2.1,3.7-2.7,5.4-1.1
	c8.5,8.1,19.1,18.8,26.9,28.8c1.2,1.5,3.6,1.1,4.1-0.8c0.9-3.2,1.8-6.4,2.7-9.5c0.5-1.8,0.1-3.7-1.1-5.2
	c-5.1-6.4-12.6-15.5-18.5-20.4c0,0,10.9-0.1,20.7,0c2.5,0,4.6-1.8,4.9-4.3c1.2-8.2,1.9-16.2,2.1-23.8c0.1-2-0.7-4-2.1-5.5
	c-4.4-4.6-10-10.3-14.4-13.4c0,0,4.8-0.4,10.5-0.8c3.1-0.2,5.2-2.9,4.8-5.9c-0.1-1-0.3-1.9-0.4-2.8c-0.4-2.4-2.5-4.1-5-3.9
	c-8.4,0.7-18.2,1.6-24.8,2.3c0.1-2.4,0.1-4.9,0-7.3c-0.1-1.8-1-3.5-2.4-4.5l-2.7-2c-2.2-1.7-5.4-0.3-5.7,2.5
	c-0.3,2.8-0.8,6.5-1.5,10.8c-0.7,0.5-1.1-0.7-1.1-1.3c-0.5-3.4-2.8-6.5-6.2-7.8c-5.6-2-11.8,1.4-12.8,7.6c-0.6,3.8,1.2,7.7,4.5,9.7
	c3.5,2.1,7.6,1.7,10.6-0.4c0.9-0.7,3.6-2.4,3.7-0.4c0,0,0,0,0,0c-1.9,9.3-4.9,20.8-9.7,33.6c-1.3,1.5-1.6-0.4-1.6-1.2
	c0-4.1-2.3-8-6.2-10c-5.6-2.9-12.4-0.7-15.3,4.9c-2.9,5.6-0.7,12.4,4.9,15.3c3.5,1.8,7.4,1.6,10.6-0.1c1.1-0.6,3.9-2,4.3-0.5
	c-4.9,11.7-11.2,24.3-19.4,37c-1.9,1.3-1.7-0.9-1.5-1.9c1.2-4.7-0.3-9.8-4.1-13.3c-5.5-4.9-14-4.4-18.9,1.2
	C51.2,113.3,51.7,121.8,57.2,126.7z M120.4,75.4c1.9-6.7,3.5-13.7,4.6-20.8c0.3-2.1,2.8-3,4.4-1.7c7.3,5.9,16.7,14,23.9,21.8
	c1.4,1.5,0.3,3.9-1.7,3.9c-8.2,0-19.1,0.1-28.4,0.3C121.2,78.9,119.9,77.2,120.4,75.4z"/>
</svg>
