<?xml version="1.0" encoding="utf-8"?>
<!-- Generator: Adobe Illustrator 19.0.1, SVG Export Plug-In . SVG Version: 6.00 Build 0)  -->
<svg version="1.1" id="Layer_1" xmlns="http://www.w3.org/2000/svg" xmlns:xlink="http://www.w3.org/1999/xlink" x="0px" y="0px"
	 viewBox="0 0 210.6 210.6" style="enable-background:new 0 0 210.6 210.6;" xml:space="preserve">
<style type="text/css">
	.st0{fill:#AC0033;}
</style>
<g>
	<path class="st0" d="M169.4,60.8h-40v-6.2c0-1.7-1.4-3.1-3.1-3.1h-42c-1.7,0-3.1,1.4-3.1,3.1v6.2h-14v-4.1c0-1-0.8-1.7-1.7-1.7H42
		c-1,0-1.7,0.8-1.7,1.7v4.1c-5.4,0.5-9.6,5-9.6,10.5v65.1c0,5.8,4.7,10.5,10.5,10.5h28.3c-6.9-8.1-11-18.7-11-30.1
		c0-25.8,21-46.8,46.8-46.8s46.8,21,46.8,46.8c0,11.5-4.2,22-11,30.1h28.3c5.8,0,10.5-4.7,10.5-10.5V71.4
		C179.9,65.5,175.2,60.8,169.4,60.8z"/>
	<path class="st0" d="M105.3,74.7c-23.3,0-42.2,18.9-42.2,42.2s18.9,42.2,42.2,42.2c23.3,0,42.2-18.9,42.2-42.2
		S128.6,74.7,105.3,74.7z M135.3,116.9c0,16.6-13.5,30-30,30s-30-13.5-30-30s13.5-30,30-30S135.3,100.4,135.3,116.9z"/>
	<circle class="st0" cx="94.9" cy="104.2" r="10.4"/>
</g>
</svg>
