<?xml version="1.0" encoding="utf-8"?>
<!-- Generator: Adobe Illustrator 19.0.1, SVG Export Plug-In . SVG Version: 6.00 Build 0)  -->
<svg version="1.1" id="Layer_1" xmlns="http://www.w3.org/2000/svg" xmlns:xlink="http://www.w3.org/1999/xlink" x="0px" y="0px"
	 viewBox="0 0 210.6 210.6" style="enable-background:new 0 0 210.6 210.6;" xml:space="preserve">
<style type="text/css">
	.st0{fill:#AC0033;}
</style>
<g>
	<path class="st0" d="M180.6,113l-57.8-16c-0.5-0.1-0.7-0.6-0.6-1c0-0.1,0.1-0.1,0.1-0.2c0.1-0.3,0.4-0.4,0.7-0.4c0,0,0.1,0,0.1,0
		l46.3-4.5c0.3,0,0.5,0,0.8,0c4.2,0,7.9-2.8,9-7l0-0.1c1.4-5.6-2.5-11.1-8.2-11.6l-37.1,3.5c-2,0.2-3.9,0.2-5.9,0.2
		c-6.3,0-12.6-0.8-18.7-2.4c0,0-0.1,0-0.1,0c-0.9-0.2-1.8-0.6-2.7-1c-0.8-0.4-1.2-0.9-1.3-1.4c-0.4-2.1-1.5-4.1-3.3-5.2
		c-3-1.8-6.1-2.6-9.4-2.6c-6.8,0-14.1,3.3-21.6,7.6c-2.3,2-4.9,3.2-7.8,3.8c0,0.2,0,0.5,0,0.7v53.5c0,1.3-0.2,2.6-0.6,3.7
		c4.4,1.9,9,3.5,13.6,4.9c7.5,2.2,15.1,4.3,22.7,6.3c4.4,1.2,8.9,2.3,13.4,3.3c0.6,0.2,1.3,0.2,1.9,0.2c2.6,0,4.9-1.4,6.1-3.8
		c1.5-2.9,0.7-6.2-1.8-8.5c-0.2-0.2-0.4-0.4-0.6-0.5c2,0.6,4,1,5.8,1c3.2,0,6.1-1.3,8.1-4.9c2.7-4.7,1.4-8.9-2.6-12.5l46.4,13
		c0.8,0.2,1.7,0.3,2.5,0.3c4.1,0,7.9-2.8,9-7l0.1-0.4C188.3,119.4,185.4,114.4,180.6,113z"/>
	<path class="st0" d="M58,132.2V76c0-2.6-2-4.8-4.6-5c-0.6-0.2-1.2-0.4-1.9-0.4H23.3v0.3v62.8v3.6H53C55.7,137.3,58,135,58,132.2z"
		/>
</g>
</svg>
