<?xml version="1.0" encoding="utf-8"?>
<!-- Generator: Adobe Illustrator 19.0.1, SVG Export Plug-In . SVG Version: 6.00 Build 0)  -->
<svg version="1.1" id="Layer_1" xmlns="http://www.w3.org/2000/svg" xmlns:xlink="http://www.w3.org/1999/xlink" x="0px" y="0px"
	 viewBox="0 0 210.6 210.6" style="enable-background:new 0 0 210.6 210.6;" xml:space="preserve">
<style type="text/css">
	.st0{fill:none;}
	.st1{fill:#AC0033;}
</style>
<g>
	<path class="st0" d="M152.5,102.2c-0.1-0.9-0.1-1.7-0.2-2.5c0-0.1,0-0.2,0-0.3c-1.7-13.4-9-25-19.4-32.4l0-0.1
		c-7.8-5.6-17.3-8.9-27.5-8.9c-8.9,0-17.3,2.5-24.4,6.8l0,0.1c-12,7.2-20.5,19.6-22.4,34c0,0.2,0,0.4-0.1,0.6
		c-0.1,0.6-0.1,1.2-0.2,1.8c0,0.4-0.1,0.8-0.1,1.3c0,0.3,0,0.6,0,0.8c0,0.6,0,1.2,0,1.9c0,0.1,0,0.1,0,0.2c0,1,0,1.9,0.1,2.8
		c0,0.1,0,0.2,0,0.3c0.1,0.9,0.1,1.7,0.2,2.5c0,0.1,0,0.2,0,0.3c1.7,13.4,9,25,19.4,32.4l0,0.1c7.8,5.6,17.3,8.9,27.5,8.9
		c8.9,0,17.3-2.5,24.4-6.8l0-0.1c12-7.2,20.5-19.6,22.4-34c0-0.2,0-0.4,0.1-0.6c0.1-0.6,0.1-1.2,0.2-1.8c0-0.4,0.1-0.8,0.1-1.3
		c0-0.3,0-0.6,0-0.8c0-0.6,0-1.2,0-1.9c0-0.1,0-0.1,0-0.2c0-1,0-1.9-0.1-2.8C152.5,102.4,152.5,102.3,152.5,102.2z M135.3,91.2
		l-33.8,44.3c-2.1,2.7-6.1,2.8-8.3,0.2c-4.8-5.8-12.7-15.3-17.6-20.8c-2.2-2.6-2-6.5,0.5-8.8c2.4-2.2,6.1-2.2,8.4,0l11.8,11
		c0.6,0.5,1.4,0.5,1.9-0.1l28.8-32.5c2.3-2.6,6.3-2.3,8.3,0.5C136.8,87,136.7,89.5,135.3,91.2z"/>
	<path class="st1" d="M178.1,94.8c0.8-1.9,1.2-3.8,1.2-5.8c0-4.3-2-8.4-5.7-11l-4.4-3.2c-3.2-2.3-5.2-5.8-5.6-9.7l-0.6-5.4
		c-0.7-6.5-5.8-11.6-12.2-12.2l-5.4-0.6c-3.9-0.4-7.4-2.4-9.7-5.6l-3.2-4.4c-3.8-5.3-10.8-7.1-16.7-4.5l-5,2.2
		c-3.6,1.6-7.6,1.6-11.2,0l-5-2.2c-5.9-2.6-12.9-0.8-16.7,4.5l-3.2,4.4c-2.3,3.2-5.8,5.2-9.7,5.6l-5.4,0.6
		c-6.5,0.7-11.6,5.8-12.2,12.2L47,65.1c-0.4,3.9-2.4,7.4-5.6,9.7L37,78c-3.6,2.6-5.6,6.8-5.7,11c0,1.9,0.4,3.9,1.2,5.8l2.2,5
		c0.8,1.8,1.2,3.7,1.2,5.6c0,1.9-0.4,3.8-1.2,5.5l-2.2,5c-0.8,1.9-1.2,3.8-1.2,5.8c0,4.3,2,8.4,5.7,11l4.4,3.2
		c3.2,2.3,5.2,5.8,5.6,9.7l0.6,5.4c0.7,6.5,5.8,11.6,12.2,12.2l5.4,0.6c3.9,0.4,7.4,2.4,9.7,5.6l3.2,4.4c3.8,5.3,10.8,7.1,16.7,4.5
		l5-2.2c3.6-1.6,7.6-1.6,11.2,0l5,2.2c5.9,2.6,12.9,0.8,16.7-4.5l3.2-4.4c2.3-3.2,5.8-5.2,9.7-5.6l5.4-0.6
		c6.5-0.7,11.6-5.8,12.2-12.2l0.6-5.4c0.4-3.9,2.4-7.4,5.6-9.7l4.4-3.2c3.6-2.6,5.6-6.8,5.7-11c0-1.9-0.4-3.9-1.2-5.8l-2.2-5
		c-0.8-1.8-1.2-3.7-1.2-5.5c0-1.9,0.4-3.8,1.2-5.5L178.1,94.8z M152.6,105.5c0,0.6,0,1.2,0,1.9c0,0.3,0,0.6,0,0.8
		c0,0.4-0.1,0.8-0.1,1.3c-0.1,0.6-0.1,1.2-0.2,1.8c0,0.2,0,0.4-0.1,0.6c-2,14.4-10.5,26.8-22.4,34l0,0.1c-7.1,4.3-15.5,6.8-24.4,6.8
		c-10.3,0-19.8-3.3-27.5-8.9l0-0.1c-10.4-7.5-17.7-19.1-19.4-32.4c0-0.1,0-0.2,0-0.3c-0.1-0.8-0.2-1.7-0.2-2.5c0-0.1,0-0.2,0-0.3
		c-0.1-0.9-0.1-1.9-0.1-2.8c0-0.1,0-0.1,0-0.2c0-0.6,0-1.2,0-1.9c0-0.3,0-0.6,0-0.8c0-0.4,0.1-0.8,0.1-1.3c0.1-0.6,0.1-1.2,0.2-1.8
		c0-0.2,0-0.4,0.1-0.6c2-14.4,10.5-26.8,22.4-34l0-0.1C88,60.5,96.4,58,105.3,58c10.3,0,19.8,3.3,27.5,8.9l0,0.1
		c10.4,7.5,17.7,19.1,19.4,32.4c0,0.1,0,0.2,0,0.3c0.1,0.8,0.2,1.7,0.2,2.5c0,0.1,0,0.2,0,0.3c0.1,0.9,0.1,1.9,0.1,2.8
		C152.6,105.4,152.6,105.4,152.6,105.5z"/>
	<path class="st1" d="M127.2,84.6L98.5,117c-0.5,0.6-1.4,0.6-1.9,0.1l-11.8-11c-2.4-2.2-6-2.2-8.4,0c-2.5,2.3-2.8,6.2-0.5,8.8
		c4.8,5.5,12.7,15,17.6,20.8c2.2,2.6,6.2,2.5,8.3-0.2l33.8-44.3c1.4-1.8,1.4-4.3,0.2-6.1C133.6,82.3,129.5,82,127.2,84.6z"/>
</g>
</svg>
