<?xml version="1.0" encoding="utf-8"?>
<!-- Generator: Adobe Illustrator 19.0.1, SVG Export Plug-In . SVG Version: 6.00 Build 0)  -->
<svg version="1.1" id="Layer_1" xmlns="http://www.w3.org/2000/svg" xmlns:xlink="http://www.w3.org/1999/xlink" x="0px" y="0px"
	 viewBox="0 0 210.6 210.6" style="enable-background:new 0 0 210.6 210.6;" xml:space="preserve">
<style type="text/css">
	.st0{fill:#AC0033;}
</style>
<g>
	<path class="st0" d="M50.7,83.8L35,84.6c-3.2,1.2,3.2,18.2,6.5,16.9L53.8,92l2.3-0.8c-1.4-2.7-2.5-5.4-3.1-8.3L50.7,83.8z"/>
	<path class="st0" d="M95.3,104.5c2-0.5,4-0.7,6.1-0.7h0c1.9,0,3.8,0.2,5.7,0.6V86.7l-11.8,4V104.5z"/>
	<path class="st0" d="M79.8,131.3l-16.6,45.5c-1.1,2.9,0.4,6.2,3.4,7.3c3,1.1,6.2-0.4,7.3-3.4L91,134c-1.6-0.2-3.1-0.3-4.4-0.6
		C85.1,133.2,82.1,132.7,79.8,131.3z"/>
	<path class="st0" d="M111.6,134l17.1,46.7c1.1,3,4.4,4.5,7.3,3.4h0c2.9-1.1,4.5-4.3,3.4-7.3l-16.7-45.6c-2.3,1.4-5.4,2-6.9,2.2
		C114.5,133.7,113.1,133.8,111.6,134z"/>
	<path class="st0" d="M101.3,108.3c-6.6,0-13.4,2.9-20.3,9v9c0,2.5,10.1,3.8,20.1,3.8s20.1-1.3,20.1-3.8v-9
		C114.8,111.3,108.2,108.3,101.3,108.3z"/>
	<path class="st0" d="M156.5,65.2l-10.8-29.4L59.8,72.2c-1.9,0.8-3.2,2.8-3.1,4.9c0.2,6,2.4,11.4,6.1,16.4c1,1.3,2.5,2,4.1,2
		c0.5,0,1.1-0.1,1.6-0.3L156.5,65.2z"/>
	<path class="st0" d="M164.7,28.6c-0.6-1.5-2.1-2.5-3.6-2.5c-0.4,0-0.9,0.1-1.3,0.2l-7.6,2.7c-2,0.7-3.1,3-2.4,5l10.9,29.7
		c0.6,1.6,2.1,2.6,3.7,2.6c0.4,0,0.9-0.1,1.3-0.2l8.2-2.9c2.1-0.7,3.1-3.1,2.3-5.1L164.7,28.6z"/>
</g>
</svg>
