<?xml version="1.0" encoding="utf-8"?>
<!-- Generator: Adobe Illustrator 19.0.1, SVG Export Plug-In . SVG Version: 6.00 Build 0)  -->
<svg version="1.1" id="svg2200" xmlns:svg="http://www.w3.org/2000/svg"
	 xmlns="http://www.w3.org/2000/svg" xmlns:xlink="http://www.w3.org/1999/xlink" x="0px" y="0px" viewBox="102 -102 300 300"
	 style="enable-background:new 102 -102 300 300;" xml:space="preserve">
<style type="text/css">
	.st0{fill:#FFBB36;}
	.st1{fill:#0066B3;}
	.st2{fill:#EC1D23;}
	.st3{fill:#FFFFFF;}
</style>
<g>
	<path id="path11" class="st0" d="M325.7-58.4c0.7-1.7-0.7-3.3-0.7-3.3s-11-18.6-49.7-22.8c-20.8-2.2-49,2-68.8,12.7
		c-35.9,19.3-41.3,51.2-41.3,51.2c-0.2,0.8-0.5,3.2,0.3,4.2c0.8,1,2,1,3.5,0.5c12.7-4.3,50.4-16.8,74.2-23.1
		c33.9-9,61.8-14.5,79.6-17.5C324.1-56.9,325.3-57.3,325.7-58.4"/>
	<path id="path13" class="st1" d="M364.5,91.7c-20.3,45.6-59.2,77.3-110.3,78c-37.2,0.5-69.9-12.2-93.6-34.4l-14.3,6.1l0-22.2
		c-15.6-21-24.7-47.7-24.7-77.9c0-77.5,59.3-138.5,142.1-138.5c13.5,0,25.7,2.1,34.9,4.2c-14.2-4.5-28.3-7-44-7
		c-88.8,0-148.6,72-148.6,146.3c0,80.9,63.5,148.7,146.8,148.7c79.6,0,122.5-56.1,136.3-89.9L364.5,91.7"/>
	<path id="path15" class="st2" d="M343.9,75.7c11.7-1.3,19.8-6,24.2-10.4c4-4,5-9.4,5-13.5c0.2-6,0-24.8,0-24.8l-30.9,6.7
		c0,0,0,2.3,0,7.2c0.1,4.8,2.4,7.4,7.4,6.5c1.6-0.3,4-1,4-1l0,5.9c0-0.2,0.5,3.3-7.3,4.8c-10.2,1.6-14.8-4.7-14.9-15.8
		c0.2-11.9,6.9-18.7,15.1-20.6c9.2-2.1,14.4,0.1,17.4,0.5c10.2,1.5,13.1-13.8,3.8-17.4c-6.9-2.8-15.8-3.3-24.3-1.6
		c-11.4,2.3-33.7,11.8-33.8,42.7C309.5,69.5,327.6,77.6,343.9,75.7"/>
	<path id="path17" class="st2" d="M243.4,102c0,0,9.5-3.3,10.3-3.5c7.6-2.6,10.4-7.2,10.4-15C264,75,264,58.3,264,58.3l22,25.4
		c3.6,3.7,8.1,4,12.2,2.8c4.2-1.2,7.8-5.1,7.9-10.6c0-18.3,0-63.1,0-63.1s-5.7,1.2-10.4,2.5c-5.4,1.5-9.6,5-9.6,14.2
		c0,3.2,0,21.9,0,21.9s-12.4-15.6-20.5-23.7C261.1,23.4,254,26,254,26l-10.6,3.2L243.4,102"/>
	<path id="path19" class="st2" d="M236.7,30.8c0,0-6.6,1.9-12,3.9c-7,2.5-11.1,6.6-11.1,17.2c0,9.8,0,60.5,0,60.5s6.1-2.1,11.9-4.3
		c8.1-3.1,11.2-7.3,11.2-15.8C236.7,85,236.7,30.8,236.7,30.8"/>
	<path id="path21" class="st2" d="M203.8,45.2c-6.1-2.8-11.3,0.3-13.5,3.7l-18.7,31.9l0-25.7l-22.1,9.1l-0.1,72.6l15.6-6.5
		c0,0,3.1-0.9,4.9-3.8c1.7-2.7,1.6-7.1,1.6-7.1l0-23l17.4,18.5c3.8,4,10.8,6,17,1c5.6-4.5,4.7-12.2,1.6-15.7l-15.8-15.9
		c0,0,13.9-22,16.2-25.6C210.8,53.8,209.3,47.7,203.8,45.2"/>
	<path id="path23" class="st0" d="M195.1,130.6c-0.8,1.9,1.1,3.8,1.1,3.8c8,10.1,43.7,22.9,82.5,13.5c59.2-14.3,71.7-56.2,73.1-62.1
		c0.3-1.2,0.5-3.1-0.6-4.3c-0.9-1-2.3-1-4.1-0.6c-41.1,9.7-109.5,30.5-148.9,47.4C196.4,129.1,195.6,129.4,195.1,130.6"/>
	<path id="path25" class="st2" d="M160,35.4c-0.1-4-3.2-6.2-8.5-3.5l0,12.9c0,0,1.7-0.8,3-1.4C157.6,42,160.1,39.3,160,35.4
		 M151.4,23.8c1-0.4,1.7-0.7,2.5-1.1c2.9-1.4,5-4.1,5-7.5c0-3.9-3.2-4.9-7.5-2.7L151.4,23.8z M174.1,33.6
		c0.2,10.2-7.1,15.6-16.7,19.5l-19.5,8.3l0-52.9c0,0,12.3-5,16.3-6.5c11.4-4.2,18.1,0.9,18.1,8.5c0,5.1-2.2,9.4-6.9,13.2
		C170.1,24.5,174.1,28.3,174.1,33.6z"/>
	<path id="path27" class="st2" d="M211.2-11.1c0-4.5-3.1-5.6-6.8-4.6c-3,0.9-6.5,2.2-6.5,2.2l0,32.9c0,3.3-0.5,7.4-4.6,8.4
		c-3.1,0.8-4.6-1.3-4.6-4.6l0-26.9c0-4.5-3.1-5.8-6.8-4.6c-4.2,1.4-6.7,2.4-6.7,2.4s0,23.3,0,32.6c-0.1,10.9,7.5,16.4,18.9,13
		c10.1-3,16.9-8.7,17-23.2L211.2-11.1"/>
	<path id="path29" class="st2" d="M319.7,2.5c2.9-0.6,4.7-2.7,4.7-6.3c0-3.2,0-5.7,0-5.7l-15.8,3.5l0-9.3c0,0,7.8-1.6,9.9-2.1
		c2.7-0.6,4.1-2.1,4.1-5.2c0-2.9,0-5.4,0-5.4l-14,3l0-7.4c0,0,7.3-1.5,11.2-2.3c3.1-0.6,4.1-2.7,4.1-5.6c0-1.9,0-5.6,0-5.6
		c-7,1.2-20.3,3.9-28.6,5.8l-0.1,48.2C295.3,8.1,311.1,4.4,319.7,2.5"/>
	<path id="path31" class="st2" d="M228.2,0.6c0,0,7.8-4.1,7.8-10.5c-0.1-5.5-5.1-4.3-7.7-3.3L228.2,0.6 M228.2,8c0,0,0,9.2,0,13
		c0,3.5-2.4,6-5.4,7.2c0,0.1,0-0.1,0,0c-2.5,0.9-7.9,2.7-7.9,2.7l0-49.7c0,0,11.1-3.9,17.6-5.4c10.1-2.4,17.3,2.3,17.2,10.4
		C249.6-6,245.3-1.2,241.4,2l8.6,8.2c2.6,2.6,2.8,7.2-0.1,10c-1.8,1.7-6.5,3.4-10.1-0.4L228.2,8z"/>
	<path id="path33" class="st2" d="M340.3-26.1c0,0,7.7-2.9,7.6-9.1c-0.1-5.2-5.2-4.3-7.7-3.7L340.3-26.1 M327.4,1.1l0-47.6
		c0,0,13.9-2.5,17.5-2.9c10-1.3,16.7,4.3,16.5,12.1c-0.1,6.9-4.4,11.1-8.1,13.6c0,0,6.8,7.6,8.6,9.7c2.4,2.7,2.3,7.4-1.3,9.7
		c-3.5,2.2-7.1,1.1-9.1-1.2l-11.2-13.1c0,0,0,8.1,0,11.6c0,3.5-2.1,6.1-5.7,6.8L327.4,1.1z"/>
	<path id="path35" class="st2" d="M292.2-18.9l-19.7,4.5c0,0,0,2.1,0,5.5c0,2.6,1.8,4.2,4.4,3.7c1.6-0.3,2.9-0.6,2.9-0.6l0,5.5
		c0,2.2-3.2,3.6-6.6,3.5c-4.7-0.1-7.4-3.8-7.4-10.8c0.1-9.2,4.5-14.6,10.4-16.1c2.9-0.8,5.6-0.4,7.7-0.1c5.1,0.8,8-1.6,8.1-5.8
		c0.1-4.5-3.9-7.3-12.4-7c-18.6,0.6-28.1,14-28.1,29.9c0,16.3,10.7,23.5,23.7,21.2c7.3-1.5,11-3.9,13.5-6.1c2.5-2.2,3.6-5.5,3.6-8.4
		V-18.9"/>
	<path id="path37" class="st3" d="M214.5-72.3c-21.8,9.6-36.4,32.5-37.2,42.1c-0.3,3.8,4.8,4.4,5.3,0.3
		C187.1-47.5,201.1-64.1,214.5-72.3"/>
	<path id="path39" class="st3" d="M286.5-55.9c11.7-2.9,18.2-3.3,18.3-8.6c0.2-8.8-24.8-19-47.8-17.1c23.4,1.6,37.4,10.6,37.4,16.8
		C294.6-60.7,291.1-57.2,286.5-55.9"/>
	<path id="path41" class="st3" d="M293.8,138.1c17.6-6.9,34.5-20.2,43.9-40c2.7-5.7-5.1-8.7-7.3-1.9
		C324.9,110.3,313.6,126.9,293.8,138.1"/>
	<path id="path43" class="st2" d="M382.5,78.6h2.4c1.3,0,3,0.2,3,1.8c0,1.8-1.2,2-2.8,2h-2.5L382.5,78.6 M379.6,90.7h2.8v-6.1h1.8
		l3.5,6.1h3l-3.8-6.3c2.1-0.2,3.8-1.2,3.8-3.8c0-3.1-2-4.3-5.6-4.3h-5.4L379.6,90.7L379.6,90.7z M371.5,83.6
		c0,7.8,6.2,12.9,13.2,12.9c7,0,13.2-5,13.2-12.9c0-7.8-6.2-12.8-13.2-12.8C377.8,70.8,371.5,75.8,371.5,83.6z M375,83.6
		c0-5.8,4.3-10.1,9.7-10.1c5.3,0,9.7,4.2,9.7,10.1c0,5.9-4.4,10.1-9.7,10.1C379.3,93.7,375,89.4,375,83.6z"/>
</g>
</svg>
