<?xml version="1.0" encoding="utf-8"?>
<!-- Generator: Adobe Illustrator 19.0.1, SVG Export Plug-In . SVG Version: 6.00 Build 0)  -->
<svg version="1.1" id="svg2200" xmlns:svg="http://www.w3.org/2000/svg"
	 xmlns="http://www.w3.org/2000/svg" xmlns:xlink="http://www.w3.org/1999/xlink" x="0px" y="0px" viewBox="102 -102 300 300"
	 style="enable-background:new 102 -102 300 300;" xml:space="preserve">
<style type="text/css">
	.st0{fill:#E61D2A;}
</style>
<g id="g3">
	<path id="path5" class="st0" d="M217.2,84.6c-11.2-7.2-26.3-8.5-50.7-1.7c-26,6.1-34.7,10-46.1,2.2c-4.4-3.9-6-10.1-4.8-19.1
		c2.7-14.6,10.1-28.7,23.1-44.3c7.3-8.1,14.1-15.1,23-17.9c6.8-1.8,6.2,3.6,5.4,4.4c-0.9,0-2.3,0.1-3.5,0.9c-0.9,0.7-3.4,3-3.6,6.1
		c-0.2,4.7,4.7,3.8,6.8,1.2c2.3-2.9,5.7-8.6,3-13.8c-1.1-1.9-3-3.2-5.4-3.6c-8.2-0.5-15.8,3.4-22.8,7.7
		c-15.4,10.7-27.7,25.5-34.6,41.7c-4,9.8-7.6,23.8-2.2,35.2c4.2,7.9,12.9,12.1,23.4,11.2c7.3-0.8,16.1-3.1,22.1-4.6
		c5.9-1.4,36.4-11.9,46.4,6.3c0,0,3.3-6.5,11.6-6.6c6.8-0.6,16.7,2,23.9,7.2C229.6,93.5,222.9,88.2,217.2,84.6L217.2,84.6z"/>
	<path id="path7" class="st0" d="M169.6,23.5c-5.7-3.7-17.1,3.4-26.3,15.6c-8.4,11-12,23.7-8.1,29.6c5.9,6.9,16.7-3.2,21.3-8.6
		l0.6-0.6c3.1-3.4,5.6-7.4,7.9-11.3c0,0,2.2-3.6,2.3-3.7c1.3-0.2,2.9-0.6,4.8-1.2c0,0.1-6.9,11.7-6.2,17.5c0.2,1.8,0.1,8.2,6.3,10.1
		c8.4,1.4,15-5.1,20.9-10.8c0,0,1-1,1.6-1.5c-0.1,0.6-0.3,1.3-0.3,1.3c-2.4,8.5,0.9,10.3,2.9,11c6.2,1.8,13.7-7.2,13.7-7.2
		c-0.2,2.9-0.8,5.2,2.2,7.1c2.8,1,5.7-0.5,7.9-2c7.9-5.5,14.2-14.2,19.3-21.7h-3.3c0,0-8.1,11.6-13.3,14.1c0,0-1,0.5-1.5,0.1
		c-0.7-0.6-0.4-1.8,0-2.6c0-0.1,20.1-34.9,20.1-34.9H233c0,0-1,1.7-1.1,1.8c-0.1-0.1-0.2-0.3-0.3-0.5c-5.9-8.1-19.2,4.4-29.2,18.9
		c-3.9,5.6-8.8,11.8-13.9,16.4c0,0-7.5,6.9-10.8,1.9c-1.2-2.1-0.8-5.1-0.2-7.1c3.8-10.7,10.2-20.4,17.6-26.2
		c2.1-1.6,4.3-2.1,5.5-1.4c1.1,0.6,1.2,2.2,0.6,3.3c-1.7-0.1-3.1,0.5-4.2,1.6c-2.2,2.3-3,4.5-2.3,6.6c3.4,4.8,10.2-4.7,9.8-10.5
		c-0.1-2.1-1.2-4.1-2.9-5c-2.5-1.5-6.3-1.1-8.7,0.1c-3.3,1.2-8.5,5.5-11.5,8.9c-3.8,4.2-10.3,8.9-12.4,8.3
		C169.8,39,175.4,27.7,169.6,23.5L169.6,23.5z M215.3,40.2c1.8-2.6,7.2-9.4,8.5-10.5c4.4-3.9,6.2-2.2,6.3-1
		c-4.1,7.4-9,15.8-13.5,23.4c0,0-1.4,2.2-1.4,2.2c-2,3.1-4,5.7-7.3,7.5c-0.5,0.1-1.2,0.2-1.8-0.2c-0.6-0.4-0.9-1.1-0.8-1.8
		C205.4,57.4,207.8,50.2,215.3,40.2L215.3,40.2z M163.7,44.6c0,0-0.1,0.2-0.1,0.3c0,0-4.1,6.7-4.1,6.7c-2.5,3.3-5.6,7.5-9.5,9.5
		c-1.2,0.4-2.7,0.6-3.6-0.4c-1.7-2.1-0.8-4.9-0.1-7.2l0.3-0.8c2.1-5.6,5.3-10.5,8.5-15.1c0,0,0.1-0.1,0.2-0.1c0,0,0,0,0,0.1
		c2,3.8,5.7,5.6,8.6,6.4c0,0,0,0,0,0.1C163.8,44.3,163.8,44.4,163.7,44.6L163.7,44.6z M167.6,36.7c0,0.1-1.8,4.2-1.8,4.2
		c-0.3,0.2-0.7,0.1-1.2,0l-0.8-0.1c-2.6-0.8-4.5-2.5-5.1-4.5c-0.8-4,2.6-7.1,4-8.2c1.4-1,3.6-1.5,4.9-0.5c0.8,0.9,1.1,2.1,1.1,3.5
		C168.8,32.8,168.2,34.8,167.6,36.7L167.6,36.7z"/>
	<path id="path9" class="st0" d="M287.4,49.4c-0.9-2-3.1-3.2-5.4-3.1c-7.5,0.7-14.9,6.9-18.7,15.7c-2,4.6-3.1,8.3-3.9,14.3
		c2.3-2.7,7.1-7.1,12.5-9.5c0,0,0.7-5.7,4.5-10.8c1.4-2.1,4.3-5.5,7.4-4.6c2.8,0.9,1.8,8.6-1.9,16.1c-2.7,5.5-6.9,11-11.2,14.8
		c-3.8,3.2-9.3,7-14.2,4.1c-3.1-1.8-4.6-5.6-4.3-10.5c1.5-13.9,7.8-25.7,16.8-39.1c9.3-12.5,19.6-25.3,33.4-32.1
		c2.8-1.4,5.4-1.8,7.7-0.9c0,0-13,7.1-19.2,20.3c-1.6,3.3-3.8,7.9-1.6,11.9c1.2,2.1,3.2,2.3,4.8,2.1c7.6-1.8,12.5-8.8,16.5-15.3
		c2.3-4.9,4.4-9.8,4.4-15.2c0-0.7,0-1.5-0.1-2.2c3.6-1.9,11.1,1.5,11.1,1.5c5.8,1.9,18.2,11.4,22.3,13.2c2-2.4,5.4-5.9,7.3-7.7
		l-2.7-1.7c-4.4-2.7-9-5.2-13.5-7.7c-10.3-5.6-18.7-3.6-23-2.1c-1.7,0.6-3.2,1.1-3.2,1.1c-3.2-3.5-8.4-3.1-12.2-2.2
		c-13.8,4-26.6,13.6-40.3,30.3c-10.1,13.1-16.3,24.4-19.7,35.6c-2.6,7.5-3.3,18.6,2.9,25.1c5.3,5.6,12.4,4.4,17.4,2.4
		c10.8-5.3,20.5-16.8,25.4-30C288.1,59.2,289.4,53.6,287.4,49.4L287.4,49.4z M312.3,8.1c-1.4,16.4-14.2,26-17.3,26.8
		c-1.9,0.4-5.2-0.5-2.3-7.4c4.3-9.3,11.6-17.2,19.5-21.2C312.3,7,312.3,7.5,312.3,8.1L312.3,8.1z"/>
	<path id="path11" class="st0" d="M388,10.1c-6.9,3.9-14,6.4-22.6,5.5c-2.4,2.7-4.7,5.5-6.9,8.3c12.1,3.1,24.9-3.8,32-10.3
		C398.1,7.2,402-1.1,402-1.1S396.3,5.4,388,10.1L388,10.1z"/>
	<polygon id="polygon13" class="st0" points="258.3,23.8 249.3,23.8 244.2,32.1 253.2,32.1 	"/>
	<path id="path15" class="st0" d="M365.3,85.3c-1,0.7-2.3,0.2-1.8-1.4c1.3-3.8,6.3-11.7,6.3-11.7l14-24.9h-9.6
		c-0.5,0.8-1.4,2.5-1.4,2.5c-0.4-0.7-1.8-2.4-2.3-2.7c-2.3-1.5-5.8-0.8-8.2,0.6c-10.3,6-17.9,18-23.8,27.3c0,0-6.3,10.3-9.7,11.1
		c-2.7,0.2-2.4-3.4-2.3-4.3c1-6.1,3.5-12,5.9-17.3c5-3.5,10.7-8,15.9-13C359.5,40.9,369,28.7,370.3,26c0,0-1.5,0.3-3.3,0.4
		c-8.6,12-26.3,29.6-31.7,32.2c2.4-5.7,17.7-33,30.8-46l2.1-2c3.2-3.1,6.5-6.3,9-6.8c0.3,0,0.6,0,0.9,0.6c0.1,2.4-0.8,4.2-1.8,6.2
		l-1.4,3c0,0,2-0.4,3.4-0.8c1.6-2.9,3.3-6.2,2.7-10.2c-0.2-1.3-1.1-2.2-2.3-2.4c-3.9-0.7-8.1,2.1-11.6,4.5l-0.1,0.1
		c-17.6,13.7-32.4,33.6-45.3,60.6c-0.9,0.7-4.6,1.6-5.2,1.2c1.3-2.6,2.9-6.2,3.7-10c0.1-1.1,0.3-2.2,0.3-3.3c0-2.4-0.6-4.6-2.7-6.1
		c-2.5-1.2-5.5-0.7-7.6,0.3c-9.3,3.8-16.2,13.3-21.2,21.2c-2.7,5-5.4,10.3-6.1,16.4c-0.5,4.8,0.5,7.8,3.3,9.4
		c2.8,1.4,6.3-0.1,7.7-0.8c9.4-4.9,15.9-14.8,21.1-23.9c0.2,0,3-0.1,5.2-0.7c0,0,0,0,0.1,0c-0.1,0.4-1.2,3.7-1.2,3.7
		c-3.3,9.6-4.8,16.1-1.7,20c4.4,5.5,11.7-0.2,17.7-7.7c-1.3,8.9,3.4,10.3,6.9,9.7c4.1-1.1,8.6-5.4,10.7-7.7
		c-0.7,2.6-0.5,7.3,3.2,7.7c2.5,0.5,4.4-0.9,6.6-2.1c7.9-4.3,17.3-18.5,19.7-22.7h-3.2C375.3,75.2,370.9,82.1,365.3,85.3L365.3,85.3
		z M294.8,84.4c-0.5-0.7-0.7-1.6-0.7-2.4c-0.1-5.4,5.7-15,9.8-20.3c0,0,0,0,0,0c1.7,3.8,5.6,6.2,7.9,7.2
		C308.9,75.3,298.9,89.2,294.8,84.4L294.8,84.4z M313.4,66c-0.3,0.2-5.2-1.5-6.1-6c-0.8-3.9,1.9-6.9,4.5-8.5c1.1-0.9,2.8-1.2,4-0.7
		c1.1,0.8,1.5,2.1,1.5,3.6c0,0.9-0.1,1.8-0.2,2.7c0,0,0,0.2,0,0.2C316.2,60.3,315,63.3,313.4,66L313.4,66z M352.7,82.7
		c0,0-0.9,0.8-0.9,0.8c-1.3,1.2-2.7,2.4-4.3,1.8c-0.5-0.2-0.8-0.8-0.8-1.2c-0.1-3.4,1.4-6.5,2.9-9.5l0.4-0.8
		c4.2-7.1,9.2-15.4,16.4-21.2c1.2-0.9,2.5-1.6,3.9-1c0.3,0.3,0.7,0.8,0.7,1.3c0,0.2-0.1,0.6-0.2,0.7c-2,3.3-3.9,6.7-5.8,10
		C361.2,70,357.4,76.8,352.7,82.7L352.7,82.7z"/>
</g>
</svg>
