<?xml version="1.0" encoding="UTF-8" standalone="no"?>
<!-- Created with Inkscape (http://www.inkscape.org/) -->

<svg xmlns:dc="http://purl.org/dc/elements/1.1/" xmlns:cc="http://creativecommons.org/ns#" xmlns:rdf="http://www.w3.org/1999/02/22-rdf-syntax-ns#" xmlns:svg="http://www.w3.org/2000/svg" xmlns="http://www.w3.org/2000/svg" xmlns:sodipodi="http://sodipodi.sourceforge.net/DTD/sodipodi-0.dtd" xmlns:inkscape="http://www.inkscape.org/namespaces/inkscape" width="1000" height="120.93561" id="svg2219" sodipodi:version="0.32" inkscape:version="0.48.5 r10040" version="1.0" inkscape:export-filename="C:\Users\bjweeks\Pictures\honda-logo.png" inkscape:export-xdpi="90" inkscape:export-ydpi="90" sodipodi:docname="Honda wordmark.svg" inkscape:output_extension="org.inkscape.output.svg.inkscape">
  <defs id="defs2221" />
  <sodipodi:namedview id="base" pagecolor="#ffffff" bordercolor="#666666" borderopacity="1.0" gridtolerance="10000" guidetolerance="10" objecttolerance="10" inkscape:pageopacity="0.0" inkscape:pageshadow="2" inkscape:zoom="0.56221386" inkscape:cx="-182.86226" inkscape:cy="-302.16041" inkscape:document-units="px" inkscape:current-layer="layer1" inkscape:window-width="1366" inkscape:window-height="706" inkscape:window-x="-8" inkscape:window-y="-8" showgrid="false" fit-margin-top="0" fit-margin-left="0" fit-margin-right="0" fit-margin-bottom="0" inkscape:window-maximized="1" />
  <metadata id="metadata2224">
    <rdf:RDF>
      <cc:Work rdf:about="">
        <dc:format>image/svg+xml</dc:format>
        <dc:type rdf:resource="http://purl.org/dc/dcmitype/StillImage" />
        <cc:license rdf:resource="http://web.resource.org/cc/PublicDomain" />
        <dc:title />
      </cc:Work>
      <cc:License rdf:about="http://web.resource.org/cc/PublicDomain">
        <cc:permits rdf:resource="http://web.resource.org/cc/Reproduction" />
        <cc:permits rdf:resource="http://web.resource.org/cc/Distribution" />
        <cc:permits rdf:resource="http://web.resource.org/cc/DerivativeWorks" />
      </cc:License>
    </rdf:RDF>
  </metadata>
  <g inkscape:label="Layer 1" inkscape:groupmode="layer" id="layer1" transform="translate(-228.92131,-310.732)">
    <g id="g3192" transform="matrix(5.3227815,0,0,5.3062949,-989.5767,-2242.378)">
      <g id="g2361" style="fill:#e11428;fill-rule:evenodd;stroke:none" transform="matrix(1.0180412,0,0,1.0180412,376.52844,481.89777)">
        <path inkscape:connector-curvature="0" id="path2363" d="m 0,20.9004 c 0,0 0,-2.8115 0,-2.8115 0,0 2.905,-0.2813 2.905,-0.2813 0.938,-0.1875 1.313,-1.0312 1.499,-1.2187 0,0 7.03,-11.5274 7.03,-11.5274 0.562,-0.8437 0,-1.6875 -0.75,-1.7812 0,0 -3.655,-0.374 -3.655,-0.374 0,0 0,-2.9063 0,-2.9063 0,0 16.027,0 16.027,0 0.937,0 1.5,0.6563 1.875,1.2188 0,0 9.372,14.3398 9.372,14.3398 0.75,1.125 1.312,2.0615 2.249,2.1553 0,0 2.999,0.2812 2.999,0.2812 0,0 0,2.9053 0,2.9053 0,0 -18.088,0 -18.088,0 0,0 0,-2.8115 0,-2.8115 0,0 2.249,-0.2813 2.249,-0.2813 1.125,-0.0937 2.061,-0.6562 1.125,-1.9678 0,0 -0.844,-1.3125 -0.844,-1.3125 0,0 -12.84,0 -12.84,0 0,0 -1.031,1.5938 -1.031,1.5938 -0.563,0.9375 0,1.5928 0.937,1.6865 0,0 2.343,0.2813 2.343,0.2813 0,0 0,2.8115 0,2.8115 0,0 -13.402,0 -13.402,0 z M 13.402,10.7783 c 0,0 8.154,0 8.154,0 0,0 -4.123,-6.373 -4.123,-6.373 0,0 -4.031,6.373 -4.031,6.373 z" />
      </g>
      <g id="g2365" style="fill:#e11428;fill-rule:evenodd;stroke:none" transform="matrix(1.0180412,0,0,1.0180412,343.32401,481.89777)">
        <path inkscape:connector-curvature="0" id="path2367" d="M 20.619,0 C 20.619,0 0,0 0,0 c 0,0 0,2.9063 0,2.9063 0,0 2.53,0.1875 2.53,0.1875 1.031,0.1865 1.406,0.8427 1.406,1.7802 0,0.9375 0,10.4971 0,11.2471 0,0.8428 -0.375,1.5928 -1.219,1.6865 0,0 -2.717,0.375 -2.717,0.375 0,0 0,2.7178 0,2.7178 0,0 20.619,0 20.619,0 9.559,0 13.683,-4.5918 13.683,-10.7774 C 34.302,4.6865 30.178,0 20.619,0 z m -3.187,16.8711 c 0,0 -5.342,0 -5.342,0 0,0 0,-12.8408 0,-12.8408 0,0 5.342,0 5.342,0 5.156,0 7.217,1.125 7.217,6.4668 0,5.249 -2.061,6.374 -7.217,6.374 z" />
      </g>
      <g transform="matrix(1.0180412,0,0,1.0180412,228.92129,481.89777)" id="g2369" style="fill:#e11428;fill-rule:evenodd;stroke:none">
        <path inkscape:connector-curvature="0" id="path2371" d="m 0,20.9004 c 0,0 16.7763,0 16.7763,0 0,0 0,-2.8115 0,-2.8115 0,0 -2.9052,-0.2813 -2.9052,-0.2813 -0.6563,-0.0937 -1.3116,-0.4678 -1.3116,-1.874 0,0 0,-3.374 0,-3.374 0,0 12.9336,0 12.9336,0 0,0 0,3.1865 0,3.1865 0,0.9375 -0.1875,1.874 -1.3125,1.9678 0,0 -2.9052,0.2812 -2.9052,0.2812 0,0 0,2.9053 0,2.9053 0,0 16.7763,0 16.7763,0 0,0 0,-2.9053 0,-2.9053 0,0 -2.999,-0.2812 -2.999,-0.2812 -0.5625,-0.0938 -1.2178,-0.5625 -1.2178,-1.6866 0,0 0,-10.872 0,-10.872 0,-1.125 0.3741,-1.875 1.3116,-1.9688 0,0 2.9052,-0.2802 2.9052,-0.2802 0,0 0,-2.9063 0,-2.9063 0,0 -16.7763,0 -16.7763,0 0,0 0,2.8125 0,2.8125 0,0 2.9052,0.374 2.9052,0.374 1.0313,0.0938 1.3125,0.9375 1.3125,1.9688 0,0 0,3.1865 0,3.1865 0,0 -12.9336,0 -12.9336,0 0,0 0,-3.2803 0,-3.2803 0,-1.2187 0.5616,-1.7812 1.4053,-1.875 0,0 2.8115,-0.2802 2.8115,-0.2802 0,0 0,-2.9063 0,-2.9063 0,0 -16.68255,0 -16.68255,0 0,0 0,2.9063 0,2.9063 0,0 2.81153,0.2802 2.81153,0.2802 1.03125,0.0938 1.40625,0.9375 1.3125,1.9688 0,0 0,10.5908 0,10.5908 0,1.2178 -0.28125,1.9678 -1.40625,2.0615 0,0 -2.81153,0.2813 -2.81153,0.2813 0,0 0,2.8115 0,2.8115 z" />
      </g>
      <g id="g2373" style="fill:#e11428;fill-rule:evenodd;stroke:none" transform="matrix(1.0180412,0,0,1.0180412,268.42305,481.13526)">
        <path inkscape:connector-curvature="0" id="path2375" d="M 0,11.1523 C 0,4.5918 5.3428,0 17.1514,0 28.8672,0 34.209,4.5918 34.209,11.1523 34.209,17.8076 28.8672,22.399 17.1514,22.399 5.3428,22.399 0,17.8076 0,11.1523 z M 17.1514,3.9355 c -4.7793,0 -7.498,1.7813 -7.498,7.2168 0,5.5303 2.7187,7.3106 7.498,7.3106 4.6865,0 7.4043,-1.7803 7.4043,-7.3106 0,-5.4355 -2.7178,-7.2168 -7.4043,-7.2168 z" />
      </g>
      <g id="g2377" style="fill:#e11428;fill-rule:evenodd;stroke:none" transform="matrix(1.0180412,0,0,1.0180412,304.20364,481.89777)">
        <path inkscape:connector-curvature="0" id="path2379" d="m 0,20.9004 c 0,0 13.3086,0 13.3086,0 0,0 0,-2.8115 0,-2.8115 0,0 -2.8115,-0.2813 -2.8115,-0.2813 -0.8438,-0.0937 -1.3125,-0.749 -1.3125,-1.7803 0,0 0,-10.5908 0,-10.5908 0,0 11.0605,14.6211 11.0605,14.6211 0.374,0.5615 1.124,0.8428 1.78,0.8428 0,0 10.497,0 10.497,0 0,0 0,-15.8389 0,-15.8389 0,-0.75 0.188,-1.7812 1.218,-1.875 0,0 2.906,-0.2802 2.906,-0.2802 0,0 0,-2.9063 0,-2.9063 0,0 -13.309,0 -13.309,0 0,0 0,2.8125 0,2.8125 0,0 2.906,0.374 2.906,0.374 1.03,0.0938 1.218,1.0313 1.218,1.9688 0,0 0,10.3095 0,10.3095 0,0 -10.966,-14.5273 -10.966,-14.5273 C 16.0274,0.375 15.4649,0 14.7149,0 14.7149,0 0,0 0,0 c 0,0 0,2.9063 0,2.9063 0,0 2.7178,0.2802 2.7178,0.2802 1.0312,0.1875 1.4062,0.6563 1.4062,1.9688 0,0 0,10.5908 0,10.5908 0,1.3125 -0.375,1.874 -1.4062,2.0615 0,0 -2.7178,0.2813 -2.7178,0.2813 0,0 0,2.8115 0,2.8115 z" />
      </g>
    </g>
  </g>
</svg>
