<?xml version="1.0" encoding="UTF-8" standalone="no"?>
<!-- Generator: Adobe Illustrator 12.0.0, SVG Export Plug-In . SVG Version: 6.00 Build 51448)  -->
<svg
   xmlns:dc="http://purl.org/dc/elements/1.1/"
   xmlns:cc="http://web.resource.org/cc/"
   xmlns:rdf="http://www.w3.org/1999/02/22-rdf-syntax-ns#"
   xmlns:svg="http://www.w3.org/2000/svg"
   xmlns="http://www.w3.org/2000/svg"
   xmlns:sodipodi="http://sodipodi.sourceforge.net/DTD/sodipodi-0.dtd"
   xmlns:inkscape="http://www.inkscape.org/namespaces/inkscape"
   version="1.0"
   id="Layer_1"
   width="175.748"
   height="105.53699"
   viewBox="0 0 192.756 192.756"
   overflow="visible"
   enable-background="new 0 0 192.756 192.756"
   xml:space="preserve"
   sodipodi:version="0.32"
   inkscape:version="0.45.1"
   sodipodi:docname="hyundai.svg"
   inkscape:output_extension="org.inkscape.output.svg.inkscape"
   sodipodi:docbase="C:\Users\Virgile"><metadata
   id="metadata2765"><rdf:RDF><cc:Work
       rdf:about=""><dc:format>image/svg+xml</dc:format><dc:type
         rdf:resource="http://purl.org/dc/dcmitype/StillImage" /></cc:Work></rdf:RDF></metadata><defs
   id="defs2763">
	
	
	
	
	
	
	
	
	
	
	
	
	
	
	
	
	
	
	
	
	
	
	
	
	
	
	
	
</defs><sodipodi:namedview
   inkscape:window-height="1000"
   inkscape:window-width="1400"
   inkscape:pageshadow="2"
   inkscape:pageopacity="0.0"
   guidetolerance="10.0"
   gridtolerance="10.0"
   objecttolerance="10.0"
   borderopacity="1.0"
   bordercolor="#666666"
   pagecolor="#ffffff"
   id="base"
   inkscape:zoom="2.7659763"
   inkscape:cx="96.377998"
   inkscape:cy="96.377998"
   inkscape:window-x="-8"
   inkscape:window-y="-8"
   inkscape:current-layer="Layer_1" />

<g
   id="g2821"
   transform="translate(0,44.241472)"><polygon
     transform="matrix(1.8264308,0,0,1.8264308,-79.68765,-100.83666)"
     clip-rule="evenodd"
     points="32.302,111.086 32.302,136.508 26.685,136.508 26.685,126.014 14.269,126.014 14.269,136.508 8.504,136.508 8.504,111.086 14.269,111.086 14.269,121.137 26.685,121.137 26.685,111.086 32.302,111.086 "
     id="polygon2708"
     style="fill:#0065ad;fill-rule:evenodd" /><polygon
     transform="matrix(1.8264308,0,0,1.8264308,-79.68765,-100.83666)"
     clip-rule="evenodd"
     points="178.635,136.508 184.252,136.508 184.252,111.086 178.635,111.086 178.635,136.508 "
     id="polygon2710"
     style="fill:#0065ad;fill-rule:evenodd" /><path
     clip-rule="evenodd"
     d="M 70.287888,135.80119 C 70.287888,138.76914 69.749091,139.57825 67.0478,139.57825 C 64.078024,139.57825 48.420033,139.57825 48.420033,139.57825 L 48.420033,102.05423 L 38.160971,102.05423 L 38.160971,148.48575 L 71.907933,148.48575 C 71.907933,148.48575 80.54695,147.94696 80.54695,138.23034 C 80.54695,128.23794 80.54695,102.05423 80.54695,102.05423 L 70.287888,102.05423 C 70.287888,102.05423 70.287888,133.6387 70.287888,135.80119 L 70.287888,135.80119 z "
     id="path2712"
     style="fill:#0065ad;fill-rule:evenodd" /><path
     clip-rule="evenodd"
     d="M 122.12199,148.48575 L 132.65137,148.48575 C 132.65137,148.48575 132.65137,122.29839 132.65137,112.30964 C 132.65137,102.59303 123.74204,102.05423 123.74204,102.05423 L 89.995077,102.05423 L 89.995077,148.48575 L 100.52445,148.48575 L 100.52445,110.96173 C 100.52445,110.96173 115.91396,110.96173 118.88373,110.96173 C 121.5832,110.96173 122.12199,111.77084 122.12199,114.74244 C 122.12199,116.90128 122.12199,148.48575 122.12199,148.48575 L 122.12199,148.48575 z "
     id="path2714"
     style="fill:#0065ad;fill-rule:evenodd" /><polygon
     transform="matrix(1.8264308,0,0,1.8264308,-79.68765,-100.83666)"
     clip-rule="evenodd"
     points="62.308,111.086 55.212,111.086 48.413,121.875 41.614,111.086 34.667,111.086 45.752,127.492 45.752,136.508 51.37,136.508 51.37,127.344 62.308,111.086 "
     id="polygon2716"
     style="fill:#0065ad;fill-rule:evenodd" /><path
     clip-rule="evenodd"
     d="M 141.82918,148.48575 C 141.82918,148.48575 166.12619,148.48575 175.03552,148.48575 C 183.94485,148.48575 184.75396,139.30794 184.75396,139.30794 L 184.75396,111.23387 C 184.75396,111.23387 183.94485,102.05606 175.03552,102.05606 C 166.12619,102.05606 141.82918,102.05606 141.82918,102.05606 L 141.82918,148.48575 L 141.82918,148.48575 z M 174.22459,135.80119 C 174.22459,135.80119 174.22459,139.57825 170.98632,139.57825 C 168.55717,139.57825 152.08824,139.57825 152.08824,139.57825 L 152.08824,110.96173 C 152.08824,110.96173 168.55717,110.96173 170.98632,110.96173 C 174.22459,110.96173 174.22459,114.74244 174.22459,114.74244 L 174.22459,135.80119 L 174.22459,135.80119 z "
     id="path2718"
     style="fill:#0065ad;fill-rule:evenodd" /><path
     clip-rule="evenodd"
     d="M 237.66931,102.05423 L 237.66931,148.48575 L 227.13994,148.48575 L 227.13994,134.9866 L 203.92235,134.9866 L 203.92235,148.48575 L 193.66329,148.48575 L 193.66329,113.93333 C 193.66329,101.51178 205.00177,102.05423 205.00177,102.05423 L 237.66931,102.05423 L 237.66931,102.05423 z M 227.13994,126.35124 L 227.13994,110.96173 L 207.43092,110.96173 C 207.43092,110.96173 203.92235,110.96173 203.92235,115.28124 C 203.92235,119.0583 203.92235,126.35124 203.92235,126.35124 L 227.13994,126.35124 L 227.13994,126.35124 z "
     id="path2720"
     style="fill:#0065ad;fill-rule:evenodd" /><path
     clip-rule="evenodd"
     d="M 215.53114,15.932538 C 215.53114,48.868564 162.07699,75.865038 96.475253,75.865038 C 30.6032,75.865038 -22.580638,48.868564 -22.580638,15.932538 C -22.580638,-17.273801 30.6032,-44.270275 96.475253,-44.270275 C 162.07699,-44.270275 215.53114,-17.273801 215.53114,15.932538 L 215.53114,15.932538 z M 90.806012,7.5638316 C 101.06507,5.6734757 111.05382,2.1649021 118.88373,-0.80487435 C 144.26016,-9.7142038 156.13744,-18.892019 158.56842,-21.052686 C 161.80851,-24.022463 159.37936,-25.101883 156.40958,-26.18313 C 139.12972,-31.313574 112.94418,-35.09246 96.206768,-34.281524 C 84.05735,-34.013039 77.308688,-20.782374 74.609224,-15.113133 C 61.919183,11.613029 84.596147,8.9135639 90.806012,7.5638316 L 90.806012,7.5638316 z M 13.054853,45.358164 C 13.59365,44.278744 33.57115,-2.4267449 57.05905,-27.803174 C 60.027,-30.502639 56.788738,-31.043263 53.009853,-30.234154 C 14.1361,-22.67273 -12.8622,-4.8540714 -12.8622,15.664052 C -12.8622,27.002535 -4.763806,37.531908 8.7353441,45.900614 C 10.6257,46.980035 12.514229,46.169099 13.054853,45.358164 L 13.054853,45.358164 z M 101.87418,24.032758 C 91.615121,25.923114 81.626371,29.431688 73.796462,32.401464 C 48.420033,41.310793 36.540927,50.75892 34.111774,52.919588 C 30.871685,55.619052 33.300838,56.968785 36.270615,57.77972 C 53.54865,62.908338 79.736015,66.687223 96.473427,66.148426 C 108.62102,65.609629 115.37151,52.378964 118.34128,46.709723 C 130.76101,19.981735 108.08405,22.951511 101.87418,24.032758 L 101.87418,24.032758 z M 205.54239,15.932538 C 205.54239,4.5940551 197.71249,-5.6650067 183.94485,-14.033713 C 182.05632,-15.383445 180.43628,-14.574336 179.62534,-13.494916 C 179.08654,-12.685807 159.10904,34.019682 135.62114,59.396111 C 132.91985,62.365888 135.88963,62.904685 139.67034,62.095576 C 178.54592,54.267494 205.54239,36.450661 205.54239,15.932538 L 205.54239,15.932538 z "
     id="path2722"
     style="fill:#0065ad;fill-rule:evenodd" /></g></svg>