<?xml version="1.0" encoding="UTF-8" standalone="no"?>
<!-- Generator: Adobe Illustrator 14.0.0, SVG Export Plug-In . SVG Version: 6.00 Build 43363)  -->

<svg
   xmlns:dc="http://purl.org/dc/elements/1.1/"
   xmlns:cc="http://creativecommons.org/ns#"
   xmlns:rdf="http://www.w3.org/1999/02/22-rdf-syntax-ns#"
   xmlns:svg="http://www.w3.org/2000/svg"
   xmlns="http://www.w3.org/2000/svg"
   xmlns:sodipodi="http://sodipodi.sourceforge.net/DTD/sodipodi-0.dtd"
   xmlns:inkscape="http://www.inkscape.org/namespaces/inkscape"
   version="1.1"
   id="Calque_1"
   x="0px"
   y="0px"
   width="400"
   height="400"
   viewBox="0 0 400 400"
   enable-background="new 0 0 841 594"
   xml:space="preserve"
   inkscape:version="0.91 r13725"
   sodipodi:docname="Nestle_nest.svg"><metadata
     id="metadata31"><rdf:RDF><cc:Work
         rdf:about=""><dc:format>image/svg+xml</dc:format><dc:type
           rdf:resource="http://purl.org/dc/dcmitype/StillImage" /></cc:Work></rdf:RDF></metadata><defs
     id="defs29"><clipPath
       id="clipPath15906"
       clipPathUnits="userSpaceOnUse"><path
         inkscape:connector-curvature="0"
         id="path15908"
         d="m 0,0 598.11,0 0,737.008 L 0,737.008 0,0 Z" /></clipPath><clipPath
       id="clipPath15990"
       clipPathUnits="userSpaceOnUse"><path
         inkscape:connector-curvature="0"
         id="path15992"
         d="m 0,0 598.11,0 0,737.008 L 0,737.008 0,0 Z" /></clipPath></defs><sodipodi:namedview
     pagecolor="#ffffff"
     bordercolor="#666666"
     borderopacity="1"
     objecttolerance="10"
     gridtolerance="10"
     guidetolerance="10"
     inkscape:pageopacity="0"
     inkscape:pageshadow="2"
     inkscape:window-width="1366"
     inkscape:window-height="709"
     id="namedview27"
     showgrid="false"
     inkscape:zoom="1"
     inkscape:cx="157.86082"
     inkscape:cy="198.74098"
     inkscape:window-x="-8"
     inkscape:window-y="-8"
     inkscape:window-maximized="1"
     inkscape:current-layer="Calque_1" /><path
     d="m 312.5324,305.87889 c 0,-3.11174 -2.51363,-5.6345 -5.62407,-5.6345 h -8.32926 c -3.11174,0 -5.62277,2.53318 -5.62277,5.64623 l 0.004,87.11577 c 0,3.11175 2.51233,5.6358 5.62277,5.6358 h 8.32795 c 3.11175,0 5.62147,-2.53448 5.62147,-5.64622 v -87.11708 z"
     id="path43"
     style="fill:#999999" /><path
     d="m 323.15246,308.19446 -0.003,4.13986 c 0,1.71485 1.39951,3.09872 3.11566,3.09872 l 57.46691,-0.001 c 2.62178,0 4.7458,-2.11489 4.7458,-4.73667 v -7.01446 c 0,-2.62178 -2.15138,-4.99338 -4.75362,-4.73537 0,0 -55.54879,5.44946 -57.33791,5.65144 -2.07189,0.23455 -3.23423,1.88164 -3.23423,3.59779 z"
     id="path45"
     style="fill:#999999" /><path
     d="m 276.62877,398.6461 c -14.29603,0 -23.29116,-10.84158 -23.29116,-22.90936 l -0.013,-34.85595 -4.09296,-0.001 c -2.18004,0 -3.94832,-1.75916 -3.94832,-3.9392 v -5.83517 c 0,-2.18135 1.77479,-3.93398 3.95484,-3.93398 l 4.08644,0.007 -0.005,-21.43037 c 0,-3.03486 2.44717,-5.49507 5.48203,-5.49507 l 8.11816,-0.001 c 3.03486,0 5.48595,2.47584 5.48595,5.5107 l 0.003,21.41604 12.6685,-0.005 c 2.18004,0 3.95353,1.75524 3.95353,3.93659 v 5.83647 c 0,2.18005 -1.76567,3.93659 -3.94702,3.93659 l -12.6737,-0.001 0.0104,32.23938 c 0,6.32903 3.83365,10.65133 10.69043,10.65133 l 1.15061,-0.007 c 2.36769,0 4.29494,1.90379 4.29494,4.27148 v 6.33424 c 0,2.36899 -1.91943,4.27409 -4.28712,4.27409 h -7.63993 z"
     id="path47"
     style="fill:#999999" /><path
     d="m 142.75345,339.57902 c 8.53124,0 15.89491,6.06972 16.64157,14.2843 h -33.15674 c 0.74536,-8.21328 7.98394,-14.2843 16.51517,-14.2843 v -14.91239 c -23.10873,0 -36.07042,18.08407 -36.07042,37.14154 0,20.30973 13.88297,38.19183 36.22158,38.19183 15.29028,0 30.36165,-8.05822 33.21017,-21.28704 0.38441,-1.78521 -0.81833,-4.12683 -3.33196,-4.13596 l -10.92498,0.001 c -1.98459,0 -3.60561,0.94994 -4.58292,2.38332 -3.12477,4.58161 -7.70638,7.02097 -14.47716,7.02097 -9.56848,0 -16.20113,-7.54089 -16.70282,-15.89751 l 46.46375,-0.001 c 4.27799,0 6.1896,-2.32468 6.1896,-6.27561 0,-18.58315 -10.99925,-37.14024 -35.99614,-37.14024 v 14.91109 z"
     id="path49"
     style="fill:#999999" /><path
     d="m 354.47056,339.57902 c 8.53254,0 15.89491,6.06972 16.64157,14.2843 h -33.15674 c 0.74666,-8.21328 7.98525,-14.2843 16.51517,-14.2843 v -14.91239 c -23.10742,0 -36.07042,18.08407 -36.07042,37.14154 0,20.30973 13.88297,38.19183 36.22158,38.19183 15.29028,0 30.36295,-8.05822 33.21017,-21.28704 0.38441,-1.78521 -0.81833,-4.12683 -3.33196,-4.13596 l -10.92498,0.001 c -1.98459,0 -3.60561,0.94994 -4.58292,2.38332 -3.12477,4.58161 -7.70638,7.02097 -14.47716,7.02097 -9.56848,0 -16.20113,-7.54089 -16.70282,-15.89751 l 46.46375,-0.001 c 4.27799,0 6.1896,-2.32468 6.1896,-6.27561 0.001,-18.58315 -10.99795,-37.14024 -35.99614,-37.14024 v 14.91109 z"
     id="path51"
     style="fill:#999999" /><path
     d="M 237.6955,301.2217 H 87.195548 c -3.423178,0 -6.184394,2.77425 -6.184394,6.19873 l 0.517321,59.10618 c 0,0 -32.432234,-58.57844 -34.122322,-61.56769 -1.589752,-2.81073 -5.003808,-5.40125 -9.728758,-5.40125 H 25.300788 c -3.423178,0 -6.193515,2.77555 -6.193515,6.20003 l 0.0052,86.68186 c 0,3.42187 2.769035,6.19872 6.190909,6.19872 l 7.93703,0.001 c 3.423178,0 6.187,-2.79119 6.187,-6.21176 l -0.499077,-60.7689 c 0,0 32.744971,59.16221 34.144474,61.49211 1.889459,3.14823 5.087205,5.48724 9.718333,5.48724 l 11.368027,0.003 c 3.423178,0 6.189609,-2.78076 6.189609,-6.20264 l -0.005,-76.52829 137.35714,0.005 c 2.33641,0 4.23108,-1.88424 4.23108,-4.22196 v -6.25346 c 0.003,-2.33511 -1.89858,-4.21805 -4.23629,-4.21805 z"
     id="path53"
     style="fill:#999999" /><path
     d="m 213.33581,338.85711 c 6.54274,0 11.4384,2.3729 13.20146,6.47368 0.84569,1.97025 2.48496,2.35205 4.74058,2.35205 h 8.99643 c 1.49072,0 3.19514,-1.27832 3.19514,-3.22511 0,-10.46239 -12.47303,-19.80023 -30.14403,-19.80023 -18.27432,0 -30.27565,8.70845 -30.27565,22.57187 0,10.61355 8.38529,16.92694 18.69131,19.6217 4.69759,1.2262 12.71801,3.21208 16.62333,4.235 4.21284,1.1037 7.97873,2.39375 7.97873,5.99935 0,5.69184 -6.00196,7.62951 -12.55383,7.62951 -6.20785,0 -12.39354,-2.77425 -14.16572,-7.20079 -1.02683,-2.56446 -2.82377,-2.93714 -5.55241,-2.93714 h -9.15149 c -1.59627,0 -3.43361,1.37084 -3.43361,3.45315 v 1.17798 c 0,10.1262 13.58326,20.72671 32.31757,20.72671 13.29006,0 31.80285,-5.52243 31.80285,-23.34198 0,-10.31644 -6.9076,-17.46381 -18.14402,-20.31885 -4.39267,-1.11413 -14.95539,-3.80107 -17.25011,-4.39527 -4.09556,-1.0594 -7.91618,-2.39375 -7.91618,-5.90293 0.003,-5.31264 4.91129,-7.1187 11.03965,-7.1187 z"
     id="path55"
     style="fill:#999999" /><g
     transform="matrix(3.4112417,0,0,3.347829,175.62346,-1600.1935)"
     id="layer1"
     style="fill:#999999"><g
       id="g15902"
       transform="matrix(2.1025538,0,0,-2.1025538,-945.43842,1967.8152)"
       style="fill:#999999"><g
         clip-path="url(#clipPath15906)"
         id="g15904"
         style="fill:#999999"><g
           transform="translate(500.6749,698.2117)"
           id="g15910"
           style="fill:#999999" /><g
           transform="translate(471.0004,695.3475)"
           id="g15914"
           style="fill:#999999"><path
             inkscape:connector-curvature="0"
             id="path15916"
             style="fill:#999999;fill-opacity:1;fill-rule:nonzero;stroke:none"
             d="m 0,0 c -3.653,5.449 -6.863,7.285 -7.766,8.149 -0.992,0.953 -1.748,2.033 -2.229,2.553 -1.07,1.169 -2.455,2.612 -4.733,2.612 -2.199,0 -3.652,-1.433 -4.124,-2.671 -0.137,-0.353 -0.245,-0.785 -0.343,-0.942 -0.216,-0.354 -1.188,-2.013 -1.591,-2.671 l 1.817,0 -0.884,-1.669 c 1.031,0.226 1.767,0.393 2.749,0.393 0.874,0 1.502,-0.207 1.777,-0.756 0.511,-1.022 0.511,-4.114 1.375,-6.442 0.805,-2.188 2.769,-4.329 4.978,-5.969 0.029,-0.019 0.059,-0.029 0.098,-0.029 0.108,0 0.177,0.078 0.177,0.157 0,0.059 -0.02,0.098 -0.069,0.147 -1.846,1.846 -3.348,3.888 -4.153,6.126 -0.796,2.18 -0.668,5.244 -1.365,6.609 -0.462,0.903 -1.443,1.138 -2.347,1.138 -0.726,0 -1.404,-0.147 -1.718,-0.215 l 0.795,1.345 -1.345,0 c 0.285,0.5 0.579,0.962 0.727,1.237 0.127,0.236 0.177,0.53 0.334,0.932 0.51,1.287 1.639,2.102 3.112,2.102 1.846,0 2.926,-1.188 3.996,-2.376 0.491,-0.55 1.296,-1.699 2.229,-2.553 0.638,-0.589 1.856,-1.247 3.731,-3.182 1.08,-1.119 2.337,-2.572 3.662,-4.516 4.743,-6.941 7.855,-13.058 9.593,-17.83 l -0.029,-0.02 c -4.978,3.378 -9.289,6.569 -12.764,10.506 -2.465,2.798 -4.605,6.038 -6.471,10.172 -0.128,0.275 -0.235,0.53 -0.353,0.795 -0.049,0.108 -0.098,0.138 -0.177,0.138 -0.098,0 -0.167,-0.069 -0.167,-0.167 0,-0.108 0.049,-0.344 0.157,-0.815 0.992,-4.281 3.741,-8.12 6.677,-11.311 2.926,-3.172 6.234,-5.901 8.954,-7.885 l 2.121,-6.067 c 0.049,-0.148 0.108,-0.305 0.108,-0.452 0,-0.108 -0.03,-0.196 -0.098,-0.255 -0.059,-0.059 -0.137,-0.089 -0.314,-0.089 l -0.638,0 c -0.275,0 -0.384,0.04 -0.482,0.118 -0.098,0.079 -0.166,0.197 -0.216,0.334 -0.186,0.57 -1.306,3.761 -1.521,4.409 -0.04,0.117 -0.109,0.157 -0.187,0.157 -0.098,0 -0.167,-0.079 -0.167,-0.167 0,-0.079 0.029,-0.167 0.079,-0.442 0.284,-1.453 0.618,-3.083 0.755,-3.702 0.06,-0.284 0.128,-0.55 0.128,-0.746 0,-0.176 -0.039,-0.275 -0.186,-0.422 L 3.034,-24.9 c -0.157,-0.157 -0.246,-0.196 -0.373,-0.196 -0.157,0 -0.285,0.108 -0.344,0.383 -0.746,3.486 -1.875,7.805 -2.17,9.004 -0.069,0.264 -0.118,0.412 -0.275,0.412 -0.137,0 -0.186,-0.098 -0.186,-0.216 0,-0.088 0.019,-0.196 0.029,-0.275 0.177,-1.237 0.894,-5.744 1.669,-9.858 0.138,-0.707 0.403,-1.099 1.012,-1.099 0.275,0 0.539,0.108 0.785,0.343 0.403,0.403 0.52,0.511 1.002,0.982 0.343,0.334 0.579,0.471 1.168,0.471 l 1.453,0 c 0.344,0 0.53,0.088 0.697,0.246 0.157,0.147 0.255,0.353 0.255,0.648 0,0.304 -0.078,0.549 -0.186,0.854 -0.373,1.001 -1.571,4.389 -1.925,5.341 l 0.03,0.02 c 1.227,-0.933 3.014,-2.121 3.8,-2.121 0.245,0 0.393,0.108 0.393,0.491 0,1.806 -3.005,9.239 -9.868,19.47" /></g><g
           transform="translate(437.2935,706.7568)"
           id="g15918"
           style="fill:#999999"><path
             inkscape:connector-curvature="0"
             id="path15920"
             style="fill:#999999;fill-opacity:1;fill-rule:nonzero;stroke:none"
             d="m 0,0 c 0.206,0.452 0.658,0.766 1.198,0.766 0.736,0 1.325,-0.57 1.325,-1.326 0,-0.441 -0.206,-0.825 -0.53,-1.06 0.069,-0.256 0.118,-0.481 0.118,-0.697 0,-0.825 -0.491,-1.404 -1.394,-1.709 -0.118,-0.5 -0.334,-0.952 -0.688,-1.286 -0.589,-0.569 -1.188,-0.569 -1.188,-0.805 0,-0.128 0.089,-0.206 0.334,-0.206 1.09,0 2.16,0.608 2.288,1.62 1.041,0.353 1.669,1.404 1.669,2.238 0,0.217 -0.02,0.403 -0.108,0.579 0.285,0.276 0.619,0.747 0.619,1.444 0,0.609 -0.266,1.227 -0.737,1.679 -0.412,0.403 -0.992,0.668 -1.669,0.668 -0.982,0 -1.62,-0.531 -1.983,-1.051 -1.071,0 -2.455,-1.188 -2.455,-2.887 l -0.147,0 c -0.099,0.589 -0.707,0.983 -1.218,1.012 -0.412,1.237 -1.345,2.297 -2.877,2.297 -0.176,0 -0.392,-0.01 -0.579,-0.039 -0.451,0.413 -0.952,0.668 -1.649,0.668 -1.336,0 -2.426,-1.071 -2.426,-2.425 0,-0.845 0.383,-1.424 1.11,-1.935 0,0 -0.01,-0.108 -0.01,-0.157 0,-1.08 1.178,-2.769 2.926,-2.769 0,-0.274 0.344,-0.648 0.727,-0.716 l 0,-0.138 -0.148,0 c -2.405,0 -3.426,-1.159 -3.426,-1.934 -0.717,-0.295 -1.179,-1.09 -1.179,-1.826 0,-1.463 1.071,-2.504 2.485,-2.504 0.471,0 0.952,0.186 1.286,0.442 0.245,-0.088 0.559,-0.137 0.883,-0.137 0.678,0 1.434,0.235 1.964,1.011 0.079,-0.01 0.147,-0.01 0.226,-0.01 0.864,0 1.61,0.57 2.003,1.316 0.098,0.186 0.137,0.333 0.137,0.442 0,0.107 -0.049,0.196 -0.157,0.196 -0.137,0 -0.157,-0.128 -0.402,-0.354 -0.55,-0.501 -1.395,-0.687 -2.259,-0.687 -0.422,-0.619 -0.942,-0.943 -1.541,-0.943 -0.442,0 -0.785,0.118 -1.139,0.354 -0.285,-0.314 -0.638,-0.442 -0.982,-0.442 -0.775,0 -1.325,0.54 -1.325,1.326 0,0.55 0.353,1.04 0.844,1.227 0.088,0.972 1.129,1.63 2.425,1.63 0.167,0 0.334,-0.01 0.511,-0.03 0.196,0.314 0.667,0.648 1.335,0.737 0.138,0.019 0.245,0.029 0.324,0.068 0.079,0.04 0.118,0.118 0.118,0.207 0,0.078 -0.03,0.147 -0.108,0.196 -0.069,0.039 -0.187,0.058 -0.324,0.088 -0.619,0.118 -1.355,0.501 -1.728,1.434 -1.483,0 -2.573,1.188 -2.573,2.523 l 0,0.088 c -0.491,0.197 -0.824,0.668 -0.824,1.228 0,0.736 0.579,1.325 1.315,1.325 0.442,0 0.825,-0.216 1.071,-0.54 0.206,0.059 0.441,0.079 0.667,0.079 1.1,0 2.278,-0.697 2.504,-2.052 1.414,-0.128 1.748,-1.326 1.836,-1.827 0.049,-0.255 0.088,-0.471 0.255,-0.471 0.177,0 0.216,0.197 0.275,0.462 0.108,0.5 0.295,0.903 0.668,1.217 C -2.327,-1.109 -1.365,0 0,0" /></g><g
           transform="translate(440.1505,699.0592)"
           id="g15922"
           style="fill:#999999"><path
             inkscape:connector-curvature="0"
             id="path15924"
             style="fill:#999999;fill-opacity:1;fill-rule:nonzero;stroke:none"
             d="m 0,0 c -0.462,-0.658 -0.795,-0.982 -1.846,-2.219 -1.384,-1.64 -2.111,-2.966 -3.319,-5.911 0.197,0.02 0.482,0.039 0.796,0.039 0.157,0 0.284,0 0.491,-0.009 l 0.147,0.314 c 0.678,1.453 1.59,3.417 2.867,4.929 l 0.442,0.52 c 1.315,1.541 2.13,2.455 2.641,4.556 0.177,0.746 0.324,1.413 0.825,1.895 0.451,0.432 1.021,0.618 1.6,0.618 0.491,0 0.855,-0.118 1.385,-0.343 0.481,-0.206 0.657,-0.246 1.168,-0.246 0.177,0 0.304,0.01 0.422,0.02 L 6.932,3.24 7.865,2.582 C 6.696,2.239 6.078,1.109 5.871,0.589 5.832,0.481 5.813,0.412 5.813,0.343 c 0,-0.079 0.039,-0.157 0.157,-0.157 0.127,0 0.225,0.098 0.392,0.295 0.57,0.687 1.022,1.159 3.122,1.816 l -1.482,1.12 1.119,1.639 -1.05,0 c -0.668,0 -1.11,0.01 -1.689,0.275 C 5.596,5.694 5.194,5.851 4.497,5.851 3.643,5.851 2.867,5.547 2.229,4.958 1.492,4.281 1.266,3.377 1.002,2.385 0.795,1.62 0.55,0.775 0,0" /></g><g
           transform="translate(442.4087,692.3728)"
           id="g15926"
           style="fill:#999999"><path
             inkscape:connector-curvature="0"
             id="path15928"
             style="fill:#999999;fill-opacity:1;fill-rule:nonzero;stroke:none"
             d="m 0,0 c -0.56,-0.756 -1.326,-1.747 -1.915,-2.798 0.187,-0.089 0.806,-0.423 1.022,-0.54 0.677,1.021 1.62,2.277 2.238,3.23 0.56,0.864 0.786,1.237 0.825,2.396 0.01,0.196 0.01,0.383 0.029,0.569 0.049,0.599 0.207,1.208 0.776,1.767 0.422,0.423 1.031,0.638 1.64,0.638 0.589,0 0.932,-0.166 1.443,-0.166 0.363,0 0.628,0.088 0.864,0.176 L 7.109,5.341 6.657,4.26 7.717,3.829 C 7.04,3.407 5.557,1.59 5.557,-0.56 c 0,-0.776 0.118,-1.492 0.285,-2.13 0.02,-0.069 0.059,-0.138 0.167,-0.138 0.098,0 0.167,0.059 0.177,0.167 l 0.01,0.226 c 0.029,0.658 0.078,1.698 0.343,2.631 0.442,1.571 1.63,3.044 2.818,3.751 L 7.668,4.683 8.395,6.46 7.6,6.293 C 7.119,6.195 6.765,6.107 6.343,6.107 6.068,6.107 5.754,6.146 5.381,6.235 5.096,6.303 4.791,6.362 4.36,6.362 3.584,6.362 2.749,6.068 2.18,5.518 1.139,4.526 1.08,3.456 1.011,2.503 0.923,1.237 0.687,0.923 0,0" /></g><g
           transform="translate(467.6031,691.774)"
           id="g15930"
           style="fill:#999999"><path
             inkscape:connector-curvature="0"
             id="path15932"
             style="fill:#999999;fill-opacity:1;fill-rule:nonzero;stroke:none"
             d="m 0,0 c -0.069,0.088 -0.128,0.128 -0.206,0.128 -0.118,0 -0.177,-0.079 -0.177,-0.167 0,-0.138 0.098,-0.305 0.344,-0.718 0.746,-1.266 1.669,-2.542 2.808,-3.741 1.227,-1.305 2.67,-2.522 4.212,-3.612 l 0.481,-0.334 c 0.069,-0.05 0.118,-0.079 0.177,-0.079 0.098,0 0.167,0.098 0.167,0.177 0,0.049 -0.02,0.099 -0.079,0.148 C 6.294,-6.893 4.752,-5.302 3.309,-3.771 2.179,-2.563 1.021,-1.287 0,0" /></g><g
           transform="translate(436.0071,696.2215)"
           id="g15934"
           style="fill:#999999"><path
             inkscape:connector-curvature="0"
             id="path15936"
             style="fill:#999999;fill-opacity:1;fill-rule:nonzero;stroke:none"
             d="M 0,0 C 0.147,0.245 0.589,0.844 0.766,1.031 0.01,2.562 -1.227,4.025 -1.767,4.605 L -2.219,4.163 C -1.698,3.407 -0.825,1.944 0,0" /></g><g
           transform="translate(428.8102,705.0874)"
           id="g15938"
           style="fill:#999999"><path
             inkscape:connector-curvature="0"
             id="path15940"
             style="fill:#999999;fill-opacity:1;fill-rule:nonzero;stroke:none"
             d="m 0,0 c -0.089,0.079 -0.108,0.128 -0.108,0.187 0,0.068 0.049,0.147 0.157,0.147 0.039,0 0.078,-0.01 0.128,-0.03 0.726,-0.294 1.345,-0.638 1.895,-1.06 0.461,-0.353 0.913,-0.786 1.354,-1.306 L 3.014,-2.533 C 2.504,-2.11 0.854,-0.727 0,0" /></g><g
           transform="translate(435.7715,701.7983)"
           id="g15942"
           style="fill:#999999"><path
             inkscape:connector-curvature="0"
             id="path15944"
             style="fill:#999999;fill-opacity:1;fill-rule:nonzero;stroke:none"
             d="M 0,0 -0.53,0.324 C -0.187,1.139 0.236,1.885 0.736,2.445 1.09,2.847 1.424,3.172 1.797,3.495 1.885,3.564 1.934,3.623 2.022,3.623 2.121,3.623 2.19,3.544 2.19,3.466 2.19,3.427 2.17,3.378 2.131,3.319 1.532,2.386 0.363,0.54 0,0" /></g><g
           transform="translate(429.1147,697.2427)"
           id="g15946"
           style="fill:#999999"><path
             inkscape:connector-curvature="0"
             id="path15948"
             style="fill:#999999;fill-opacity:1;fill-rule:nonzero;stroke:none"
             d="m 0,0 c -0.128,-0.049 -0.187,-0.079 -0.255,-0.079 -0.108,0 -0.158,0.089 -0.158,0.158 0,0.068 0.03,0.107 0.099,0.167 1.207,0.942 2.268,1.315 3.731,1.561 L 3.593,1.217 0,0 Z" /></g><g
           transform="translate(454.2989,704.8614)"
           id="g15950"
           style="fill:#999999"><path
             inkscape:connector-curvature="0"
             id="path15952"
             style="fill:#999999;fill-opacity:1;fill-rule:nonzero;stroke:none"
             d="M 0,0 C 0,0.344 0.177,0.963 0.815,0.963 1.031,0.963 1.237,0.914 1.404,0.835 1.64,0.727 1.797,0.57 1.797,0.403 1.797,0.226 1.62,0.049 1.355,-0.167 1.08,-0.392 0.727,-0.599 0.442,-0.599 0.099,-0.599 0,-0.274 0,0" /></g><g
           transform="translate(444.3332,701.9946)"
           id="g15954"
           style="fill:#999999"><path
             inkscape:connector-curvature="0"
             id="path15956"
             style="fill:#999999;fill-opacity:1;fill-rule:nonzero;stroke:none"
             d="M 0,0 C 0,0.422 0.255,0.884 0.746,0.884 0.962,0.884 1.217,0.796 1.404,0.618 1.512,0.52 1.561,0.413 1.561,0.304 1.561,0.068 1.335,-0.157 1.07,-0.314 0.864,-0.432 0.648,-0.511 0.462,-0.511 0.157,-0.511 0,-0.323 0,0" /></g><g
           transform="translate(446.6406,695.9366)"
           id="g15958"
           style="fill:#999999"><path
             inkscape:connector-curvature="0"
             id="path15960"
             style="fill:#999999;fill-opacity:1;fill-rule:nonzero;stroke:none"
             d="M 0,0 C 0,0.098 0.01,0.216 0.049,0.334 0.128,0.589 0.294,0.835 0.707,0.835 0.894,0.835 1.099,0.786 1.266,0.667 1.414,0.569 1.473,0.442 1.473,0.314 1.473,-0.108 0.766,-0.599 0.412,-0.599 0.157,-0.599 0,-0.353 0,0" /></g><g
           transform="translate(442.7721,683.546)"
           id="g15962"
           style="fill:#999999"><path
             inkscape:connector-curvature="0"
             id="path15964"
             style="fill:#999999;fill-opacity:1;fill-rule:nonzero;stroke:none"
             d="m 0,0 c -1.325,0 -1.915,0.628 -1.915,1.423 0,1.395 2.445,2.759 4.644,3.604 L 3.299,4.29 C 1.944,3.751 -0.785,2.591 -0.785,1.59 c 0,-0.353 0.206,-0.609 1.03,-0.609 1.434,0 2.976,0.698 4.399,1.395 0.108,0.049 0.236,0.098 0.354,0.098 0.186,0 0.304,-0.059 0.441,-0.255 L 5.675,1.895 C 4.016,0.981 1.944,0 0,0" /></g><g
           transform="translate(446.4247,683.1725)"
           id="g15966"
           style="fill:#999999"><path
             inkscape:connector-curvature="0"
             id="path15968"
             style="fill:#999999;fill-opacity:1;fill-rule:nonzero;stroke:none"
             d="m 0,0 c -1.296,-0.726 -2.641,-1.208 -3.829,-1.208 -1.326,0 -2.504,0.57 -3.486,2.053 -0.412,0.628 -0.736,1.413 -1.129,2.11 -0.471,0.825 -0.982,1.267 -1.875,1.267 -0.815,0 -1.611,-0.334 -2.455,-0.697 l 0.039,-0.187 c 0.069,-0.304 0.187,-0.52 0.471,-0.52 0.128,0 0.256,0.058 0.325,0.078 0.471,0.148 0.814,0.276 1.296,0.276 0.736,0 1.089,-0.433 1.59,-1.493 L -8.866,1.286 C -9.377,1.109 -10.575,1.021 -11.468,1.021 l -0.422,0 0.069,-0.422 c 0.029,-0.177 0.098,-0.324 0.245,-0.393 0.176,-0.088 0.432,-0.098 0.874,-0.098 1.119,0 1.934,0.137 2.405,0.256 1.208,-1.798 2.867,-2.485 4.468,-2.485 1.364,0 2.749,0.501 4.075,1.227 L 0,0 Z" /></g><g
           transform="translate(447.7597,682.7307)"
           id="g15970"
           style="fill:#999999"><path
             inkscape:connector-curvature="0"
             id="path15972"
             style="fill:#999999;fill-opacity:1;fill-rule:nonzero;stroke:none"
             d="M 0,0 -0.235,0.904 C 1.787,1.993 3.633,2.867 6.579,3.152 6.638,2.023 6.559,0.599 7.394,0.599 c 0.765,0 2.434,1.974 4.359,4.448 C 11.93,4.88 12.214,4.703 12.47,4.507 L 11.979,3.869 C 10.103,1.453 8.503,-0.609 7.187,-0.609 5.96,-0.609 5.498,0.835 5.479,1.915 3.604,1.728 1.836,1.1 0,0" /></g><g
           transform="translate(473.7398,702.4365)"
           id="g15974"
           style="fill:#999999"><path
             inkscape:connector-curvature="0"
             id="path15976"
             style="fill:#999999;fill-opacity:1;fill-rule:nonzero;stroke:none"
             d="m 0,0 c -0.766,0 -0.982,0.423 -0.982,1.021 0,1.237 0.776,3.014 1.267,4.026 l -1.189,0 C -1.522,3.849 -3.957,0.01 -5.273,-1.581 l 0.756,-0.814 c 0.707,0.785 1.483,2.12 2.327,3.436 l 0.157,0 c 0,-0.069 -0.009,-0.147 -0.009,-0.216 0,-1.11 0.569,-1.934 1.973,-1.934 0.864,0 2.219,0.432 3.496,0.864 1.06,0.363 2.032,0.736 2.513,0.873 l 0,1.178 C 5.39,1.64 4.271,1.208 3.112,0.805 1.895,0.383 0.697,0 0,0" /></g><g
           transform="translate(476.3611,698.8726)"
           id="g15978"
           style="fill:#999999"><path
             inkscape:connector-curvature="0"
             id="path15980"
             style="fill:#999999;fill-opacity:1;fill-rule:nonzero;stroke:none"
             d="m 0,0 c 1.178,0.5 3.289,1.345 4.507,1.787 l 0,1.198 C 2.062,2.081 -2.229,0.304 -5.155,-1.287 c 0.079,-0.097 0.59,-0.814 0.648,-0.903 1.237,0.511 2.347,0.845 3.348,0.845 1.405,0 2.553,0 4.478,0.452 l 0,0.903 C 2.239,-0.187 1.09,-0.422 0.344,-0.422 c -0.442,0 -0.57,0.059 -0.57,0.206 0,0.088 0.059,0.147 0.226,0.216" /></g></g></g><g
       transform="matrix(2.1025538,0,0,-2.1025538,3.2464737,509.99979)"
       id="g15982"
       style="fill:#999999"><path
         inkscape:connector-curvature="0"
         id="path15984"
         style="fill:#999999;fill-opacity:1;fill-rule:nonzero;stroke:none"
         d="m 0,0 -0.472,-0.904 5.018,0 L 4.173,0 0,0 Z" /></g><g
       id="g15986"
       transform="matrix(2.1025538,0,0,-2.1025538,-945.43842,1967.8152)"
       style="fill:#999999"><g
         clip-path="url(#clipPath15990)"
         id="g15988"
         style="fill:#999999"><g
           transform="translate(433.1302,687.9642)"
           id="g15994"
           style="fill:#999999"><path
             inkscape:connector-curvature="0"
             id="path15996"
             style="fill:#999999;fill-opacity:1;fill-rule:nonzero;stroke:none"
             d="m 0,0 c 0.53,0 0.962,0.177 1.375,0.343 0.392,0.158 0.785,0.315 1.315,0.315 1.257,0 2.808,-0.609 4.173,-1.188 0.079,-0.03 0.167,-0.049 0.255,-0.049 0.217,0 0.384,0.098 0.491,0.304 L 7.786,0.049 C 6.284,0.923 3.888,1.856 2.641,1.856 2.072,1.856 1.659,1.708 1.267,1.552 0.825,1.374 0.442,1.188 0.039,1.188 c -0.991,0 -3.534,0.982 -3.534,1.934 0,1.119 4.045,1.551 4.487,1.551 l 0.402,0.914 c -2.935,0 -6.431,-1.031 -6.431,-2.396 0,-0.393 0.226,-0.589 0.226,-0.952 0,-0.491 -0.226,-0.825 -0.226,-1.375 0,-0.363 0.216,-0.825 0.471,-1.228 0.275,-0.422 0.599,-0.696 0.599,-1.05 0,-0.265 -0.176,-0.579 -0.176,-1.198 0,-1.325 0.756,-2.131 2.228,-3.711 l 0.295,-0.314 c -1.217,-0.472 -3.486,-1.454 -4.016,-1.679 -1.836,-0.766 -2.297,-1.699 -2.297,-3.172 0,-0.569 0,-1.217 0.039,-1.796 l 0.353,0 c 0.737,0 0.825,0.441 0.825,0.863 0,0.285 -0.01,0.609 -0.01,0.963 0.01,0.814 0.04,1.541 1.355,2.13 0.531,0.236 3.132,1.296 5.067,2.121 0.569,0.246 1.099,0.452 1.688,0.452 0.658,0 1.414,-0.285 2.357,-0.845 0.795,-0.471 1.63,-1.109 2.288,-1.845 l 0.834,0.638 c -0.717,0.844 -1.708,1.6 -2.7,2.189 -0.992,0.589 -1.875,0.933 -2.621,0.933 -0.324,0 -0.589,-0.059 -0.815,-0.118 -0.265,-0.069 -0.511,-0.147 -0.825,-0.147 -0.363,0 -0.668,0.088 -1.11,0.599 -0.167,0.186 -1.227,1.394 -1.453,1.747 -0.108,0.167 -0.304,0.501 -0.304,0.894 0,0.167 0.029,0.363 0.128,0.54 0.912,-0.707 2.042,-1.139 3.416,-1.306 l -0.186,0.933 c -1.974,0.52 -4.075,2.258 -4.075,3.377 0,0.236 0.059,0.403 0.148,0.609 C -2.769,0.736 -0.972,0 0,0" /></g><g
           transform="translate(447.2593,687.7871)"
           id="g15998"
           style="fill:#999999"><path
             inkscape:connector-curvature="0"
             id="path16000"
             style="fill:#999999;fill-opacity:1;fill-rule:nonzero;stroke:none"
             d="m 0,0 c 1.237,0.874 2.513,0.972 3.544,0.972 0.619,0 1.345,-0.088 2.111,-0.186 0.619,-0.079 1.178,-0.138 1.846,-0.138 1.345,0 2.7,0.491 3.289,0.747 0.167,-0.207 0.452,-0.482 0.678,-0.678 -0.285,-0.177 -2.091,-1.158 -3.937,-1.158 -0.815,0 -1.591,0.097 -2.259,0.186 -0.589,0.078 -1.227,0.147 -1.846,0.147 -0.677,0 -2.042,-0.196 -2.886,-0.599 L 0,0 Z" /></g><g
           transform="translate(465.4921,684.282)"
           id="g16002"
           style="fill:#999999"><path
             inkscape:connector-curvature="0"
             id="path16004"
             style="fill:#999999;fill-opacity:1;fill-rule:nonzero;stroke:none"
             d="m 0,0 c -1.473,-3.103 -3.712,-5.361 -6.009,-6.667 -1.09,-0.618 -2.072,-1.021 -4.192,-1.021 l -4.586,0 c -1.639,0 -2.67,-0.216 -3.475,-0.422 -0.865,-0.226 -1.414,-0.451 -2.288,-0.451 -1.296,0 -2.494,0.638 -3.073,1.246 l 1.08,0.854 -0.54,0.718 c -0.314,-0.227 -4.153,-3.064 -4.959,-3.702 l -0.049,0.029 c 0.02,0.196 0.02,0.373 0.02,0.55 0,2.16 -1.002,2.681 -2.523,3.289 l -1.031,-0.608 c 2.091,-0.698 2.611,-1.257 2.611,-2.818 0,-1.238 -0.442,-1.728 -1.08,-2.102 -0.658,-0.383 -1.473,-0.559 -2.189,-0.559 -0.305,0 -0.442,-0.059 -0.55,-0.167 -0.118,-0.118 -0.177,-0.295 -0.177,-0.54 l 0,-0.344 0.246,0 c 1.315,0 2.533,0.206 3.868,1.257 l 4.35,3.397 c 0.618,-0.707 2.18,-1.689 4.025,-1.689 1.041,0 1.709,0.256 2.671,0.501 0.746,0.187 1.473,0.354 3.063,0.354 l 4.605,0 c 2.357,0 3.496,0.491 4.752,1.197 2.73,1.532 5.057,4.124 6.373,7.1 C 0.599,-0.383 0.275,-0.186 0,0" /></g><g
           transform="translate(458.0988,680.5901)"
           id="g16006"
           style="fill:#999999"><path
             inkscape:connector-curvature="0"
             id="path16008"
             style="fill:#999999;fill-opacity:1;fill-rule:nonzero;stroke:none"
             d="M 0,0 C 1.188,1.905 2.248,3.594 4.85,4.968 4.575,5.135 4.183,5.39 3.976,5.528 2.965,5.086 1.964,4.203 1.11,3.309 -0.854,1.267 -0.678,0.089 -2.749,-0.707 -3.27,-0.903 -3.908,-1.119 -4.723,-1.306 -5.204,0.177 -6.411,1.65 -7.688,1.65 c -0.884,0 -1.905,-0.461 -3.083,-0.982 -1.384,-0.609 -2.651,-1.306 -3.053,-1.571 l 0.54,-0.727 c 0.412,0.227 1.6,0.816 2.788,1.326 1.031,0.442 1.964,0.805 2.592,0.805 1.011,0 1.669,-1.149 2.033,-2.071 -1.326,-0.315 -3.506,-0.393 -4.163,-0.393 -0.305,0 -0.413,-0.049 -0.521,-0.138 -0.098,-0.088 -0.177,-0.245 -0.226,-0.461 l -0.078,-0.334 0.706,0 c 3.673,0 7.139,0.579 9.367,1.934 0.315,-0.089 0.59,-0.147 0.943,-0.147 1.276,0 2.592,0.697 3.417,1.335 0.294,0.226 0.363,0.433 0.363,0.658 0,0.108 -0.01,0.206 -0.02,0.305 L 3.878,1.571 C 2.7,0.639 1.718,-0.059 0.501,-0.059 0.285,-0.059 0.128,-0.039 0,0" /></g><g
           style="fill:#999999;fill-opacity:1"
           transform="translate(430.0615,650.2685)"
           id="g16010" /><g
           style="fill:#999999;fill-opacity:1"
           transform="translate(439.0743,650.1949)"
           id="g16014" /><g
           style="fill:#999999;fill-opacity:1"
           transform="translate(447.4737,650.1949)"
           id="g16018" /><g
           style="fill:#999999;fill-opacity:1"
           transform="translate(458.0938,650.3558)"
           id="g16022" /></g></g></g></svg>